# Blender 4.0.2
# www.blender.org
mtllib Destellos.mtl
o Destellos_grandes
v 0.097036 -0.362149 0.077393
v -0.173841 -0.000727 0.346193
v -0.884582 -0.347325 -0.381366
v 0.178645 -0.000727 -0.408032
v 0.875996 0.360246 0.441438
v -0.137613 0.349227 -0.032271
v 8.748621 0.674137 -7.409868
v 9.722649 0.674138 -5.846140
v 11.517111 0.674138 -5.429159
v 13.080837 0.674137 -6.403185
v 13.497819 0.674137 -8.197650
v 12.523791 0.674137 -9.761377
v 10.729327 0.674137 -10.178358
v 9.165600 0.674137 -9.204329
v 0.077429 -0.362149 1.025663
v -0.093815 -0.000727 0.684630
v 0.818681 -0.347325 0.235359
v 0.513414 -0.000727 1.254170
v -0.510787 0.360246 1.652807
v 0.254621 0.349227 0.836747
v 8.932605 0.674137 -6.468864
v 9.906632 0.674138 -4.905137
v 11.701095 0.674138 -4.488155
v 13.264821 0.674137 -5.462182
v 13.681803 0.674137 -7.256647
v 12.707775 0.674137 -8.820374
v 10.913311 0.674137 -9.237354
v 9.349584 0.674137 -8.263326
v 1.110034 -0.362149 0.170922
v 0.755053 -0.000727 0.030861
v 1.135761 -0.347325 -0.912302
v 1.587346 -0.000727 0.050628
v 1.089619 0.360246 1.030509
v 1.116184 0.349227 -0.088016
v 9.888347 0.674137 -7.369993
v 10.862374 0.674138 -5.806265
v 12.656837 0.674138 -5.389284
v 14.220563 0.674137 -6.363310
v 14.637545 0.674137 -8.157775
v 13.663517 0.674137 -9.721502
v 11.869053 0.674137 -10.138483
v 10.305326 0.674137 -9.164454
vn 0.1096 -0.5390 0.8351
vn -0.3087 -0.7057 0.6377
vn 0.2459 -0.7968 -0.5519
vn 0.7201 -0.6090 -0.3324
vn -0.3028 0.7140 0.6313
vn -0.7141 0.5467 0.4372
vn -0.2195 0.6149 -0.7574
vn 0.2448 0.8036 -0.5424
vn -0.8278 -0.5390 -0.1556
vn -0.5101 -0.7057 -0.4917
vn 0.4481 -0.7968 0.4053
vn 0.0920 -0.6090 0.7878
vn -0.5058 0.7140 -0.4841
vn -0.1934 0.5467 -0.8147
vn 0.7881 0.6149 0.0269
vn 0.4394 0.8036 0.4013
vn -0.7208 -0.5390 0.4359
vn -0.7080 -0.7057 -0.0265
vn 0.6042 -0.7968 0.0034
vn 0.5937 -0.6090 0.5259
vn -0.6997 0.7140 -0.0237
vn -0.6872 0.5467 -0.4783
vn 0.6054 0.6149 -0.5053
vn 0.5951 0.8036 0.0062
vt 0.289764 0.861826
vt 0.384574 0.856673
vt 0.319027 0.889497
vt 0.289764 0.954909
vt 0.384300 0.953100
vt 0.352646 0.921828
vt 0.335728 0.905485
s 0
usemtl Checkpoint_piedras
f 1/1/1 5/2/1 2/3/1
f 1/1/2 2/3/2 3/4/2
f 1/5/3 3/4/3 4/6/3
f 1/5/4 4/6/4 5/2/4
f 2/3/5 5/2/5 6/7/5
f 3/4/6 2/3/6 6/7/6
f 4/6/7 3/4/7 6/7/7
f 5/2/8 4/6/8 6/7/8
f 15/1/9 19/2/9 16/3/9
f 15/1/10 16/3/10 17/4/10
f 15/5/11 17/4/11 18/6/11
f 15/5/12 18/6/12 19/2/12
f 16/3/13 19/2/13 20/7/13
f 17/4/14 16/3/14 20/7/14
f 18/6/15 17/4/15 20/7/15
f 19/2/16 18/6/16 20/7/16
f 29/1/17 33/2/17 30/3/17
f 29/1/18 30/3/18 31/4/18
f 29/5/19 31/4/19 32/6/19
f 29/5/20 32/6/20 33/2/20
f 30/3/21 33/2/21 34/7/21
f 31/4/22 30/3/22 34/7/22
f 32/6/23 31/4/23 34/7/23
f 33/2/24 32/6/24 34/7/24
