# Blender 4.0.2
# www.blender.org
mtllib Barricada.mtl
o barricada.001
v -5.476656 -4.576289 5.651985
v -4.747767 -4.494305 5.994234
v -4.364036 -3.900504 6.388298
v -4.550242 -3.142732 6.603340
v -5.197314 -2.664881 6.513389
v -5.926203 -2.746866 6.171139
v -6.309934 -3.340666 5.777076
v -6.123728 -4.098438 5.562034
v -3.663344 -3.099333 3.075297
v -4.182594 -3.157738 2.831484
v -3.389979 -2.676319 3.356023
v -3.522631 -2.136493 3.509215
v -3.983595 -1.796078 3.445136
v -4.502844 -1.854484 3.201322
v -4.776209 -2.277498 2.920597
v -4.643558 -2.817324 2.767404
v -0.864727 -6.930700 2.486210
v -4.500642 -6.899293 0.713173
v 1.128831 -3.763470 4.823941
v -0.213353 -0.159008 5.493799
v -3.673253 2.247777 5.379521
v -6.918885 2.496233 2.704004
v -9.111440 -1.091326 1.575875
v -8.042331 -4.843512 0.198652
v -1.097470 -4.433813 0.422865
v -3.514847 -4.705725 -0.712216
v 0.175191 -2.464462 1.729789
v -0.442375 0.048709 2.442977
v -2.588403 1.633520 2.144656
v -5.005779 1.361608 1.009575
v -6.278440 -0.607742 -0.297349
v -5.660874 -3.120914 -1.010538
v -2.213501 -6.025135 -0.261511
v -5.412138 -4.943148 -1.226861
v 0.485859 -4.510492 1.603675
v 0.930164 -1.330793 2.979689
v -1.020775 1.618953 3.423758
v -4.108979 2.802804 2.145462
v -6.977761 1.079916 0.794561
v -7.408531 -2.035355 -0.888163
v -1.448816 -3.268707 -2.442559
v -3.434730 -2.648493 -3.047371
v 0.191476 -2.332851 -1.380514
v 0.525283 -0.389139 -0.483368
v -0.642933 1.423831 -0.276657
v -2.628848 2.044045 -0.881469
v -4.269138 1.108190 -1.943514
v -4.602946 -0.835523 -2.840660
v 0.589973 -3.253285 -1.648430
v -1.896161 -4.180545 -2.783559
v 1.361755 -0.892845 -0.097585
v 0.196909 1.589458 0.364928
v -2.299435 2.828062 -0.259458
v -4.667962 2.023557 -1.593369
v -5.587343 -0.430577 -2.836891
v -4.477178 -2.971000 -3.159555
v 0.367287 -1.114455 -4.433138
v -0.860398 -1.535902 -5.119661
v 0.813836 0.114765 -3.765509
v 0.217673 1.431707 -3.507854
v -1.071983 2.064918 -3.811110
v -2.299667 1.643476 -4.497630
v -2.746217 0.414251 -5.165262
v -2.150054 -0.902691 -5.422916
v -4.957197 -3.769953 4.225107
v -4.411996 -3.708630 4.481106
v -4.124970 -3.264478 4.775859
v -4.264251 -2.697672 4.936708
v -4.748254 -2.340245 4.869426
v -5.293450 -2.401570 4.613429
v -5.580477 -2.845726 4.318673
v -5.441195 -3.412528 4.157826
v -0.156375 -1.931212 -4.871928
v -1.768829 -1.580208 -5.455772
v 1.040755 -0.930728 -3.791633
v 0.908804 0.713046 -3.278310
v -0.329664 2.045311 -3.103759
v -1.780042 2.537498 -4.134517
v -2.892596 1.298909 -4.810637
v -3.054167 -0.324949 -5.430691
v 1.170042 1.921957 -8.998044
v 0.944016 1.954986 -9.081470
v 1.330250 2.058834 -8.876651
v 1.330791 2.285439 -8.788401
v 1.171346 2.469032 -8.784989
v 0.945325 2.502060 -8.868414
v 0.785116 2.365178 -8.989809
v 0.784576 2.138577 -9.078057
v 1.075670 0.505983 -6.412112
v 1.017667 1.331592 -6.146569
v -0.335009 0.173452 -7.237097
v 0.476522 0.003933 -6.942554
v -0.972754 0.808578 -7.224521
v -0.339382 2.232549 -6.559834
v -0.901196 1.625399 -6.911865
v 0.400608 2.000714 -6.068014
v 6.559287 -4.649343 -0.919976
v 7.211069 -4.169436 -0.917946
v 7.670792 -3.830943 -0.344178
v 7.669157 -3.832146 0.465223
v 7.207120 -4.172343 1.036119
v 6.555339 -4.652249 1.034089
v 6.095616 -4.990743 0.460320
v 6.097251 -4.989539 -0.349080
v 5.101765 -1.502201 -0.637230
v 4.637445 -1.844080 -0.638677
v 5.429265 -1.261063 -0.228486
v 5.428100 -1.261920 0.348120
v 5.098953 -1.504272 0.754820
v 4.634633 -1.846150 0.753373
v 4.307132 -2.087288 0.344628
v 4.308298 -2.086431 -0.231978
v 5.575826 -0.775681 -5.381133
v 2.375611 -2.841122 -4.069698
v 8.817832 1.137593 -2.893725
v 8.751204 1.333413 0.915211
v 7.254737 -0.423403 4.489230
v 4.302241 -2.918575 5.648256
v 1.400217 -4.708716 3.076655
v 0.355269 -4.630054 -0.973224
v 3.741498 0.967931 -3.386766
v 1.624491 -0.590820 -2.843959
v 5.547527 2.297708 -1.911633
v 5.984631 2.619547 0.717325
v 4.796759 1.744918 2.960102
v 2.679751 0.186167 3.502909
v 0.873722 -1.143610 2.027776
v 0.436619 -1.465449 -0.601182
v 3.178393 0.495760 -4.584450
v 0.782456 -1.679313 -3.130780
v 6.218591 2.128016 -3.196909
v 7.181392 2.897509 -0.053110
v 6.177431 2.084532 3.271386
v 3.387146 0.504759 4.751202
v 1.015723 -1.977948 3.386993
v -0.070030 -2.760295 0.210952
v 1.534188 2.751524 -2.772127
v -0.063035 1.575491 -1.900262
v 3.160041 3.948638 -1.986100
v 3.862123 4.465581 -0.002624
v 3.229163 3.999533 2.016406
v 1.631940 2.823500 2.888271
v 0.006086 1.626385 2.102243
v -0.695995 1.109442 0.118768
v 2.901689 3.553835 -3.287212
v 0.564902 1.908481 -3.407116
v 4.405818 4.761594 -1.260913
v 4.404400 4.696841 1.595970
v 2.762812 3.555324 3.455173
v 0.667129 1.435510 3.493546
v -1.199162 0.668375 1.411810
v -0.785104 0.319454 -1.367832
v 0.234938 5.668934 -1.877473
v -0.947426 4.798361 -1.893122
v 1.062083 6.277961 -0.828166
v 1.049481 6.268682 0.640127
v 0.204511 5.646532 1.667299
v -0.977853 4.775959 1.651649
v -1.804999 4.166932 0.602342
v -1.792396 4.176210 -0.865951
v 5.507878 -3.313338 -0.663809
v 5.995401 -2.954374 -0.662291
v 6.339269 -2.701185 -0.233119
v 6.338045 -2.702086 0.372302
v 5.992449 -2.956548 0.799325
v 5.504924 -3.315511 0.797806
v 5.161058 -3.568700 0.368635
v 5.162281 -3.567800 -0.236786
v 0.449936 5.827682 -2.253087
v -1.061364 4.731208 -2.179325
v 1.572970 6.391862 -0.990687
v 1.211839 6.508873 0.790971
v 0.401428 5.553949 2.047783
v -1.150014 4.790484 2.131484
v -1.984946 3.966839 0.732732
v -2.047963 3.759415 -0.932510
v -2.992773 9.840500 -0.597512
v -3.188597 9.696314 -0.596355
v -2.853643 9.942940 -0.426376
v -2.852712 9.943625 -0.183196
v -2.990521 9.842158 -0.010422
v -3.186347 9.697972 -0.009265
v -3.325475 9.595532 -0.180401
v -3.326407 9.594846 -0.423581
v -0.913680 7.954146 -0.612039
v -0.986355 7.933393 0.253870
v -2.212204 7.100331 -1.217037
v -1.497506 7.610650 -1.270487
v -2.733978 6.675839 -0.618855
v -2.307280 7.160168 0.947674
v -2.698062 6.740042 0.255590
v -1.455341 7.500468 0.907537
vn 0.2354 -0.9312 -0.2782
vn 0.7806 -0.6060 0.1530
vn 0.8720 0.0771 0.4834
vn 0.4589 0.7195 0.5213
vn -0.2202 0.9448 0.2427
vn -0.7634 0.6180 -0.1879
vn -0.3747 -0.4272 0.8229
vn -0.8538 -0.0631 -0.5168
vn -0.4427 -0.7040 -0.5553
vn -0.3690 -0.3365 0.8664
vn -0.3938 -0.4211 0.8170
vn -0.3629 -0.3886 0.8469
vn -0.5973 -0.2786 0.7521
vn -0.3471 -0.1136 0.9309
vn -0.3780 -0.4030 0.8335
vn -0.3557 -0.3022 0.8844
vn -0.5447 0.1298 -0.8285
vn -0.5986 -0.0457 0.7997
vn 0.1593 0.9569 -0.2426
vn 0.9405 0.3242 -0.1015
vn 0.3679 -0.5923 -0.7168
vn -0.1629 -0.4505 -0.8778
vn -0.4392 0.5760 -0.6894
vn 0.5786 0.8152 0.0260
vn 0.8748 -0.2716 -0.4012
vn -0.4918 -0.2327 -0.8390
vn 0.0132 -0.3913 0.9202
vn -0.4118 -0.5361 0.7369
vn -0.7003 -0.2646 0.6630
vn -0.3539 -0.0297 0.9348
vn -0.1371 -0.1352 0.9813
vn -0.0060 -0.5798 0.8148
vn -0.6102 -0.5691 0.5512
vn -0.0898 -0.0557 0.9944
vn -0.3294 0.8767 -0.3504
vn 0.8387 0.5420 0.0533
vn 0.6552 -0.5752 -0.4898
vn -0.6398 0.4237 -0.6412
vn 0.3470 0.9372 -0.0371
vn 0.9855 -0.0842 -0.1476
vn 0.0282 -0.6301 -0.7760
vn -0.1744 0.9483 -0.2651
vn -0.2189 -0.4303 0.8757
vn -0.4757 -0.4694 0.7439
vn -0.3622 -0.4017 0.8411
vn -0.1110 -0.2787 0.9539
vn -0.3359 -0.4947 0.8015
vn -0.5542 -0.3378 0.7607
vn -0.3466 -0.1746 0.9216
vn -0.6770 -0.0749 0.7322
vn 0.9060 0.4229 -0.0157
vn 0.5089 -0.6679 -0.5431
vn -0.1645 -0.6263 -0.7620
vn -0.6242 0.5295 -0.5744
vn 0.4498 0.8924 -0.0351
vn 0.9580 -0.1955 -0.2097
vn -0.6075 -0.1514 -0.7798
vn -0.4414 -0.7028 -0.5579
vn -0.8797 -0.0833 -0.4682
vn -0.7692 0.6141 -0.1763
vn -0.1771 0.9736 0.1439
vn 0.5387 0.7864 0.3024
vn 0.9613 0.1761 0.2120
vn 0.8589 -0.5069 -0.0726
vn 0.2825 -0.8755 -0.3919
vn 0.9930 0.0147 0.1176
vn -0.1019 -0.2983 0.9490
vn -0.5291 -0.2347 0.8155
vn -0.7616 -0.3322 0.5564
vn -0.4008 -0.1471 0.9043
vn -0.2337 -0.1779 0.9559
vn -0.3022 -0.3015 0.9043
vn -0.5913 -0.7394 0.3220
vn 0.3690 0.3365 -0.8664
vn 0.0947 -0.7457 -0.6595
vn -0.4718 -0.4445 -0.7614
vn -0.6142 0.7508 -0.2432
vn 0.7175 0.6235 0.3106
vn 0.7508 -0.5905 -0.2959
vn -0.7902 0.2666 -0.5518
vn 0.1455 0.9686 0.2017
vn 0.2812 0.9583 0.0511
vn -0.7129 0.3087 -0.6297
vn 0.7573 -0.5766 -0.3066
vn 0.7333 0.6583 0.1703
vn -0.5485 0.7273 -0.4124
vn -0.4420 -0.4340 -0.7851
vn 0.0821 -0.7414 -0.6660
vn 0.9969 0.0612 0.0490
vn -0.3075 -0.3823 0.8714
vn -0.0066 0.0132 -0.9999
vn 0.5989 0.3807 -0.7045
vn 0.8454 0.5342 0.0025
vn 0.5913 0.3855 0.7083
vn -0.0177 0.0198 0.9996
vn -0.6214 -0.3468 0.7025
vn 0.5480 -0.8288 -0.1130
vn -0.8664 -0.4994 -0.0025
vn -0.6141 -0.3517 -0.7066
vn 0.5929 -0.8053 -0.0000
vn 0.5251 -0.8466 -0.0868
vn 0.5525 -0.8312 -0.0626
vn 0.6076 -0.7839 -0.1276
vn 0.6070 -0.7852 -0.1225
vn 0.5687 -0.8101 -0.1422
vn 0.6053 -0.7947 0.0447
vn -0.9750 -0.0426 0.2179
vn 0.3956 -0.8849 0.2460
vn -0.1170 0.5053 0.8550
vn 0.3632 0.9268 -0.0954
vn -0.5005 0.3235 -0.8030
vn -0.8652 0.0404 -0.4997
vn -0.6913 0.1186 0.7128
vn 0.3478 0.7835 0.5150
vn 0.0393 0.7481 -0.6624
vn -0.9417 -0.1461 -0.3031
vn 0.9237 -0.3395 -0.1777
vn 0.4507 -0.8597 -0.2406
vn 0.2037 -0.9698 0.1340
vn 0.6670 -0.7321 0.1384
vn 0.8739 -0.4596 0.1583
vn 0.7503 -0.5579 -0.3547
vn 0.1912 -0.9577 -0.2150
vn 0.8830 -0.4135 0.2221
vn -0.5762 0.1573 0.8020
vn 0.4096 0.8508 0.3291
vn 0.0076 0.6013 -0.7990
vn -0.9248 -0.1370 0.3549
vn 0.0340 0.6169 0.7863
vn 0.3877 0.8565 -0.3408
vn -0.5960 0.1647 -0.7859
vn -0.3122 0.3489 0.8836
vn 0.6781 -0.6125 -0.4062
vn 0.4894 -0.8690 -0.0732
vn 0.5103 -0.8458 0.1553
vn 0.7563 -0.6503 0.0725
vn 0.6107 -0.7524 -0.2469
vn 0.4950 -0.8688 0.0095
vn 0.5947 -0.7912 0.1427
vn 0.4175 -0.9025 0.1059
vn 0.4175 0.9085 0.0169
vn -0.2162 0.3515 -0.9109
vn -0.7729 -0.1015 -0.6264
vn -0.7587 0.0028 0.6514
vn 0.1827 0.7611 0.6224
vn 0.2530 0.7368 -0.6270
vn -0.9729 -0.2167 -0.0804
vn -0.6157 -0.3491 -0.7064
vn -0.8356 -0.5493 -0.0025
vn -0.6140 -0.3582 0.7033
vn -0.0836 0.1094 0.9905
vn 0.4370 0.5718 0.6944
vn 0.6471 0.7624 0.0024
vn 0.4341 0.5795 -0.6897
vn -0.0864 0.1216 -0.9888
vn 0.7212 0.6902 0.0591
vn 0.8178 -0.5750 0.0232
vn 0.5092 -0.8557 -0.0923
vn 0.4650 -0.8814 0.0827
vn 0.5893 -0.8076 -0.0218
vn 0.7390 -0.6606 0.1322
vn 0.5758 -0.8132 0.0850
vn 0.5618 -0.8128 -0.1541
vn -0.5929 0.8053 -0.0000
vn -0.1790 0.1682 -0.9694
vn -0.7199 -0.1032 -0.6863
vn -0.8250 -0.0862 0.5586
vn 0.4468 0.5652 0.6935
vn 0.4767 0.5308 -0.7007
vn -0.9778 -0.2047 0.0441
vn -0.1063 0.3104 0.9447
vn -0.1347 0.3952 0.9087
vn -0.9696 -0.2366 0.0631
vn 0.3356 0.7009 -0.6294
vn 0.2814 0.6769 0.6802
vn -0.8235 -0.1204 0.5544
vn -0.7350 -0.0933 -0.6716
vn -0.2403 0.2589 -0.9355
vn 0.5353 0.8427 0.0571
vn 0.6127 -0.7823 -0.1119
vt 0.495514 0.848497
vt 0.530770 0.808879
vt 0.600632 0.821822
vt 0.577075 0.873664
vt 0.675376 0.818667
vt 0.671818 0.878563
vt 0.748933 0.813294
vt 0.766172 0.866476
vt 0.814623 0.799066
vt 0.849110 0.837059
vt 0.871163 0.768896
vt 0.911806 0.793901
vt 0.912229 0.722448
vt 0.954413 0.741638
vt 0.308345 0.283712
vt 0.307736 0.273265
vt 0.384632 0.235966
vt 0.381329 0.310722
vt 0.386690 0.753545
vt 0.427586 0.722449
vt 0.471570 0.774299
vt 0.432959 0.807271
vt 0.909993 0.659493
vt 0.847848 0.659493
vt 0.803905 0.615550
vt 0.803905 0.553405
vt 0.847848 0.509462
vt 0.909993 0.509462
vt 0.953937 0.553405
vt 0.953937 0.615550
vt 0.338169 0.369990
vt 0.301390 0.291530
vt 0.290943 0.292141
vt 0.258317 0.374359
vt 0.289469 0.266916
vt 0.282512 0.274737
vt 0.206975 0.244201
vt 0.251940 0.186186
vt 0.299919 0.266306
vt 0.328729 0.186186
vt 0.283123 0.285186
vt 0.212711 0.320200
vt 0.000000 0.177759
vt 0.159069 0.010527
vt 0.200571 0.111603
vt 0.100155 0.217905
vt 0.362245 0.445736
vt 0.211929 0.448770
vt 0.164862 0.381408
vt 0.286990 0.416439
vt 0.400891 0.000000
vt 0.547915 0.168645
vt 0.464469 0.211359
vt 0.356374 0.107545
vt 0.534035 0.383711
vt 0.416602 0.549261
vt 0.463100 0.350787
vt 0.172119 0.549261
vt 0.034742 0.389194
vt 0.101046 0.353776
vt 0.990345 0.328064
vt 0.871617 0.463080
vt 0.833204 0.375448
vt 0.909420 0.296563
vt 0.282207 0.135763
vt 0.166547 0.182022
vt 0.445865 0.283784
vt 0.397473 0.180467
vt 0.399669 0.388133
vt 0.116526 0.282660
vt 0.869763 0.307613
vt 0.876663 0.214546
vt 0.681110 0.465334
vt 0.547915 0.319593
vt 0.644474 0.286001
vt 0.723676 0.368791
vt 0.556830 0.129503
vt 0.692795 -0.000000
vt 0.724525 0.084461
vt 0.645580 0.169331
vt 0.880413 -0.000000
vt 1.000000 0.153249
vt 0.905202 0.180691
vt 0.835875 0.092776
vt 0.004922 0.670622
vt 0.097640 0.567950
vt 0.133703 0.659322
vt 0.085969 0.712512
vt 0.718038 0.328491
vt 0.802889 0.350932
vt 0.687868 0.161224
vt 0.670068 0.251337
vt 0.839238 0.131244
vt 0.756471 0.112348
vt 0.251011 0.707001
vt 0.249324 0.781838
vt 0.214513 0.805515
vt 0.247533 0.746353
vt 0.238003 0.566487
vt 0.338425 0.659880
vt 0.202251 0.664160
vt 0.334343 0.815477
vt 0.214086 0.906415
vt 0.190333 0.826236
vt 0.084194 0.882358
vt 0.122538 0.818725
vt 0.004922 0.794584
vt 0.079844 0.772428
vt 0.406513 0.848162
vt 0.484585 0.905274
vt 0.343845 0.776390
vt 0.935996 0.838529
vt 0.988788 0.768801
vt 0.867357 0.898003
vt 0.783216 0.941790
vt 0.681011 0.961337
vt 0.576600 0.945878
vt 0.705285 0.680243
vt 0.665192 0.720311
vt 0.655476 0.654012
vt 0.664707 0.645469
vt 0.084458 0.739794
vt 0.099800 0.794037
vt 0.168959 0.661738
vt 0.115653 0.688416
vt 0.228087 0.688942
vt 0.151885 0.821900
vt 0.642157 0.653087
vt 0.633642 0.642674
vt 0.635213 0.629391
vt 0.645502 0.621548
vt 0.657889 0.623358
vt 0.664967 0.633311
vt 0.604315 0.714032
vt 0.570365 0.668979
vt 0.570271 0.610204
vt 0.616431 0.575678
vt 0.675256 0.575267
vt 0.712460 0.621237
vt 0.715692 0.487909
vt 0.796159 0.586301
vt 0.488429 0.564385
vt 0.588365 0.490234
vt 0.695296 0.802242
vt 0.563656 0.789645
vt 0.781504 0.715735
vt 0.488429 0.691855
s 0
usemtl Arbol_2
f 65/1/1 10/2/1 9/3/1 66/4/1
f 66/4/2 9/3/2 11/5/2 67/6/2
f 67/6/3 11/5/3 12/7/3 68/8/3
f 68/8/4 12/7/4 13/9/4 69/10/4
f 69/10/5 13/9/5 14/11/5 70/12/5
f 70/12/6 14/11/6 15/13/6 71/14/6
f 10/15/7 16/16/7 24/17/7 18/18/7
f 71/19/8 15/20/8 16/21/8 72/22/8
f 72/22/9 16/21/9 10/2/9 65/1/9
f 1/23/10 2/24/10 3/25/10 4/26/10 5/27/10 6/28/10 7/29/10 8/30/10
f 10/15/11 18/18/11 17/31/11 9/32/11
f 11/33/12 9/32/12 17/31/12 19/34/12
f 14/35/13 13/36/13 21/37/13 22/38/13
f 15/39/14 14/35/14 22/38/14 23/40/14
f 16/16/15 15/39/15 23/40/15 24/17/15
f 12/41/16 11/33/16 19/34/16 20/42/16
f 24/43/17 23/44/17 31/45/17 32/46/17
f 27/47/18 25/48/18 33/49/18 35/50/18
f 22/51/19 21/52/19 29/53/19 30/54/19
f 20/55/20 19/56/20 27/47/20 28/57/20
f 17/58/21 18/59/21 26/60/21 25/48/21
f 18/59/22 24/43/22 32/46/22 26/60/22
f 23/44/23 22/51/23 30/54/23 31/45/23
f 21/52/24 20/55/24 28/57/24 29/53/24
f 19/56/25 17/58/25 25/48/25 27/47/25
f 34/61/26 40/62/26 48/63/26 42/64/26
f 32/46/27 31/45/27 39/65/27 40/66/27
f 30/54/28 29/53/28 37/67/28 38/68/28
f 28/57/29 27/47/29 35/50/29 36/69/29
f 25/48/30 26/60/30 34/70/30 33/49/30
f 26/60/31 32/46/31 40/66/31 34/70/31
f 31/45/32 30/54/32 38/68/32 39/65/32
f 29/53/33 28/57/33 36/69/33 37/67/33
f 42/64/34 48/63/34 56/71/34 50/72/34
f 39/73/35 38/74/35 46/75/35 47/76/35
f 37/77/36 36/78/36 44/79/36 45/80/36
f 35/81/37 33/82/37 41/83/37 43/84/37
f 40/62/38 39/73/38 47/76/38 48/63/38
f 38/74/39 37/77/39 45/80/39 46/75/39
f 36/78/40 35/81/40 43/84/40 44/79/40
f 33/82/41 34/61/41 42/64/41 41/83/41
f 54/85/42 53/86/42 61/87/42 62/88/42
f 47/76/43 46/75/43 54/89/43 55/90/43
f 45/80/44 44/79/44 52/91/44 53/92/44
f 43/84/45 41/83/45 49/93/45 51/94/45
f 48/63/46 47/76/46 55/90/46 56/71/46
f 46/75/47 45/80/47 53/92/47 54/89/47
f 44/79/48 43/84/48 51/94/48 52/91/48
f 41/83/49 42/64/49 50/72/49 49/93/49
f 59/95/50 57/96/50 73/97/50 75/98/50
f 52/99/51 51/100/51 59/95/51 60/101/51
f 49/102/52 50/103/52 58/104/52 57/96/52
f 50/103/53 56/105/53 64/106/53 58/104/53
f 55/107/54 54/85/54 62/88/54 63/108/54
f 53/86/55 52/99/55 60/101/55 61/87/55
f 51/100/56 49/102/56 57/96/56 59/95/56
f 56/105/57 55/107/57 63/108/57 64/106/57
f 8/109/58 72/22/58 65/1/58 1/110/58
f 7/111/59 71/19/59 72/22/59 8/109/59
f 6/112/60 70/12/60 71/14/60 7/113/60
f 5/114/61 69/10/61 70/12/61 6/112/61
f 4/115/62 68/8/62 69/10/62 5/114/62
f 3/116/63 67/6/63 68/8/63 4/115/63
f 2/117/64 66/4/64 67/6/64 3/116/64
f 1/110/65 65/1/65 66/4/65 2/117/65
f 90/118/66 89/119/66 83/120/66 84/121/66
f 64/106/67 63/108/67 79/122/67 80/123/67
f 62/88/68 61/87/68 77/124/68 78/125/68
f 60/101/69 59/95/69 75/98/69 76/126/69
f 57/96/70 58/104/70 74/127/70 73/97/70
f 58/104/71 64/106/71 80/123/71 74/127/71
f 63/108/72 62/88/72 78/125/72 79/122/72
f 61/87/73 60/101/73 76/126/73 77/124/73
f 81/128/74 82/129/74 88/130/74 87/131/74 86/132/74 85/133/74 84/121/74 83/120/74
f 92/134/75 91/135/75 82/129/75 81/128/75
f 91/135/76 93/136/76 88/130/76 82/129/76
f 95/137/77 94/138/77 86/132/77 87/131/77
f 96/139/78 90/118/78 84/121/78 85/133/78
f 89/119/79 92/134/79 81/128/79 83/120/79
f 93/136/80 95/137/80 87/131/80 88/130/80
f 94/138/81 96/139/81 85/133/81 86/132/81
f 78/140/82 77/141/82 96/139/82 94/138/82
f 80/142/83 79/143/83 95/137/83 93/136/83
f 75/144/84 73/145/84 92/134/84 89/119/84
f 77/141/85 76/146/85 90/118/85 96/139/85
f 79/143/86 78/140/86 94/138/86 95/137/86
f 74/147/87 80/142/87 93/136/87 91/135/87
f 73/145/88 74/147/88 91/135/88 92/134/88
f 76/146/89 75/144/89 89/119/89 90/118/89
f 13/36/90 12/41/90 20/42/90 21/37/90
usemtl Arbol_2.1
f 161/1/91 106/2/91 105/3/91 162/4/91
f 162/4/92 105/3/92 107/5/92 163/6/92
f 163/6/93 107/5/93 108/7/93 164/8/93
f 164/8/94 108/7/94 109/9/94 165/10/94
f 165/10/95 109/9/95 110/11/95 166/12/95
f 166/12/96 110/11/96 111/13/96 167/14/96
f 106/15/97 112/16/97 120/17/97 114/18/97
f 167/19/98 111/20/98 112/21/98 168/22/98
f 168/22/99 112/21/99 106/2/99 161/1/99
f 97/23/100 98/24/100 99/25/100 100/26/100 101/27/100 102/28/100 103/29/100 104/30/100
f 106/15/101 114/18/101 113/31/101 105/32/101
f 107/33/102 105/32/102 113/31/102 115/34/102
f 110/35/103 109/36/103 117/37/103 118/38/103
f 111/39/104 110/35/104 118/38/104 119/40/104
f 112/16/105 111/39/105 119/40/105 120/17/105
f 108/41/106 107/33/106 115/34/106 116/42/106
f 120/43/107 119/44/107 127/45/107 128/46/107
f 123/47/108 121/48/108 129/49/108 131/50/108
f 118/51/109 117/52/109 125/53/109 126/54/109
f 116/55/110 115/56/110 123/47/110 124/57/110
f 113/58/111 114/59/111 122/60/111 121/48/111
f 114/59/112 120/43/112 128/46/112 122/60/112
f 119/44/113 118/51/113 126/54/113 127/45/113
f 117/52/114 116/55/114 124/57/114 125/53/114
f 115/56/115 113/58/115 121/48/115 123/47/115
f 130/61/116 136/62/116 144/63/116 138/64/116
f 128/46/117 127/45/117 135/65/117 136/66/117
f 126/54/118 125/53/118 133/67/118 134/68/118
f 124/57/119 123/47/119 131/50/119 132/69/119
f 121/48/120 122/60/120 130/70/120 129/49/120
f 122/60/121 128/46/121 136/66/121 130/70/121
f 127/45/122 126/54/122 134/68/122 135/65/122
f 125/53/123 124/57/123 132/69/123 133/67/123
f 138/64/124 144/63/124 152/71/124 146/72/124
f 135/73/125 134/74/125 142/75/125 143/76/125
f 133/77/126 132/78/126 140/79/126 141/80/126
f 131/81/127 129/82/127 137/83/127 139/84/127
f 136/62/128 135/73/128 143/76/128 144/63/128
f 134/74/129 133/77/129 141/80/129 142/75/129
f 132/78/130 131/81/130 139/84/130 140/79/130
f 129/82/131 130/61/131 138/64/131 137/83/131
f 150/85/132 149/86/132 157/87/132 158/88/132
f 143/76/133 142/75/133 150/89/133 151/90/133
f 141/80/134 140/79/134 148/91/134 149/92/134
f 139/84/135 137/83/135 145/93/135 147/94/135
f 144/63/136 143/76/136 151/90/136 152/71/136
f 142/75/137 141/80/137 149/92/137 150/89/137
f 140/79/138 139/84/138 147/94/138 148/91/138
f 137/83/139 138/64/139 146/72/139 145/93/139
f 155/95/140 153/96/140 169/97/140 171/98/140
f 148/99/141 147/100/141 155/95/141 156/101/141
f 145/102/142 146/103/142 154/104/142 153/96/142
f 146/103/143 152/105/143 160/106/143 154/104/143
f 151/107/144 150/85/144 158/88/144 159/108/144
f 149/86/145 148/99/145 156/101/145 157/87/145
f 147/100/146 145/102/146 153/96/146 155/95/146
f 152/105/147 151/107/147 159/108/147 160/106/147
f 104/109/148 168/22/148 161/1/148 97/110/148
f 103/111/149 167/19/149 168/22/149 104/109/149
f 102/112/150 166/12/150 167/14/150 103/113/150
f 101/114/151 165/10/151 166/12/151 102/112/151
f 100/115/152 164/8/152 165/10/152 101/114/152
f 99/116/153 163/6/153 164/8/153 100/115/153
f 98/117/154 162/4/154 163/6/154 99/116/154
f 97/110/155 161/1/155 162/4/155 98/117/155
f 186/118/156 185/119/156 179/120/156 180/121/156
f 160/106/157 159/108/157 175/122/157 176/123/157
f 158/88/158 157/87/158 173/124/158 174/125/158
f 156/101/159 155/95/159 171/98/159 172/126/159
f 153/96/160 154/104/160 170/127/160 169/97/160
f 154/104/161 160/106/161 176/123/161 170/127/161
f 159/108/162 158/88/162 174/125/162 175/122/162
f 157/87/163 156/101/163 172/126/163 173/124/163
f 177/128/164 178/129/164 184/130/164 183/131/164 182/132/164 181/133/164 180/121/164 179/120/164
f 188/134/165 187/135/165 178/129/165 177/128/165
f 187/135/166 189/136/166 184/130/166 178/129/166
f 191/137/167 190/138/167 182/132/167 183/131/167
f 192/139/168 186/118/168 180/121/168 181/133/168
f 185/119/169 188/134/169 177/128/169 179/120/169
f 189/136/170 191/137/170 183/131/170 184/130/170
f 190/138/171 192/139/171 181/133/171 182/132/171
f 174/140/172 173/141/172 192/139/172 190/138/172
f 176/142/173 175/143/173 191/137/173 189/136/173
f 171/144/174 169/145/174 188/134/174 185/119/174
f 173/141/175 172/146/175 186/118/175 192/139/175
f 175/143/176 174/140/176 190/138/176 191/137/176
f 170/147/177 176/142/177 189/136/177 187/135/177
f 169/145/178 170/147/178 187/135/178 188/134/178
f 172/146/179 171/144/179 185/119/179 186/118/179
f 109/36/180 108/41/180 116/42/180 117/37/180
