# Blender 4.0.2
# www.blender.org
mtllib Palanca-prision.mtl
o Cylinder
v -0.044189 -0.322155 -0.405562
v -0.044205 2.569328 1.185570
v 0.104625 -0.364558 -0.330032
v 0.104625 -0.448778 -0.180276
v -0.044189 -0.491031 -0.105274
v -0.044205 2.370187 1.539670
v -0.192965 -0.448778 -0.180276
v -0.193369 -0.364374 -0.330490
v -0.220119 2.519542 1.274095
v -0.044050 3.154406 1.518008
v -0.044050 3.098119 1.317037
v -0.044050 2.948889 1.171134
v -0.044050 2.746699 1.119395
v 0.130535 3.104996 1.605863
v 0.258340 3.012539 1.469206
v 0.305119 2.850067 1.346845
v 0.258340 2.661118 1.271564
v 0.129976 2.518672 1.276262
v 0.130535 3.006175 1.781573
v 0.258340 2.841375 1.773546
v 0.305119 2.652425 1.698265
v 0.258340 2.489954 1.575904
v 0.129976 2.420131 1.451476
v -0.044050 2.956765 1.869428
v -0.044050 2.755793 1.925715
v -0.044050 2.553603 1.873976
v -0.044050 2.404373 1.728073
v -0.044050 3.102667 1.720198
v -0.218635 3.006175 1.781573
v -0.346440 2.841375 1.773546
v -0.393219 2.652425 1.698265
v -0.346440 2.489954 1.575904
v -0.218207 2.420131 1.451476
v -0.218635 3.104996 1.605863
v -0.346440 3.012539 1.469206
v -0.393219 2.850067 1.346845
v -0.346440 2.661118 1.271564
vn 0.5030 0.4172 -0.7569
vn 1.0000 -0.0067 -0.0038
vn 0.5007 -0.4313 0.7505
vn -0.5008 -0.4313 0.7505
vn -1.0000 -0.0082 -0.0019
vn -0.5000 0.4175 -0.7587
vn 0.0002 -0.8718 -0.4899
vn 0.4871 0.2165 -0.8461
vn 0.3780 0.8915 -0.2497
vn 0.3522 -0.3460 -0.8696
vn 0.4871 0.6106 -0.6245
vn 0.1478 0.9581 0.2452
vn 0.9741 -0.1970 -0.1108
vn 0.7559 0.5706 0.3209
vn 0.6885 -0.6321 -0.3555
vn 0.9741 0.1970 0.1108
vn 0.2956 0.8327 0.4683
vn 0.3780 0.2497 0.8915
vn 0.3465 -0.9241 0.1611
vn 0.4871 -0.2165 0.8461
vn 0.1478 0.7072 0.6914
vn 0.4871 -0.6106 0.6245
vn -0.3468 -0.9240 0.1610
vn -0.4871 -0.2165 0.8461
vn -0.1478 0.7072 0.6914
vn -0.4871 -0.6106 0.6245
vn -0.3780 0.2497 0.8915
vn -0.6865 -0.6374 -0.3498
vn -0.9741 0.1970 0.1108
vn -0.2956 0.8327 0.4683
vn -0.9741 -0.1970 -0.1108
vn -0.7559 0.5706 0.3209
vn -0.3492 -0.3273 -0.8780
vn -0.4871 0.6106 -0.6245
vn -0.1478 0.9581 0.2452
vn -0.4871 0.2165 -0.8461
vn -0.3780 0.8915 -0.2497
vn 0.5122 0.4141 -0.7525
vn 0.5029 -0.4308 0.7493
vn -0.5033 -0.4307 0.7491
vn -0.9999 -0.0113 0.0044
vn -0.0000 -0.8716 -0.4902
vn -0.0000 -0.8713 -0.4908
vn 0.3490 -0.3278 -0.8779
vn 0.3455 -0.9234 0.1673
vn -0.3457 -0.9232 0.1678
vn -0.6952 -0.6266 -0.3524
vt 0.525393 0.349417
vt 0.555644 0.295317
vt 0.548261 0.352386
vt 0.571130 0.355356
vt 0.578546 0.298286
vt 0.593998 0.358325
vt 0.624295 0.304223
vt 0.616866 0.361295
vt 0.647129 0.307185
vt 0.639734 0.364264
vt 0.672048 0.310418
vt 0.662603 0.367234
vt 0.663161 0.448706
vt 0.672466 0.478993
vt 0.724782 0.462693
vt 0.939782 0.620919
vt 0.923446 0.604583
vt 0.939782 0.604583
vt 0.939782 0.653592
vt 0.923446 0.637255
vt 0.939782 0.637255
vt 0.939782 0.591097
vt 0.923446 0.591097
vt 0.923446 0.620919
vt 0.931614 0.669928
vt 0.923446 0.653592
vt 0.907110 0.604583
vt 0.907110 0.637255
vt 0.907110 0.591097
vt 0.907110 0.620919
vt 0.915278 0.669928
vt 0.907110 0.653592
vt 0.890773 0.637255
vt 0.890773 0.591097
vt 0.890773 0.620919
vt 0.898941 0.669928
vt 0.890773 0.653592
vt 0.890773 0.604583
vt 0.874437 0.604583
vt 0.874437 0.591097
vt 0.874437 0.637255
vt 0.874437 0.620919
vt 0.882605 0.669928
vt 0.874437 0.653592
vt 0.972455 0.604583
vt 0.956119 0.591097
vt 0.972455 0.591097
vt 0.972455 0.620919
vt 0.956119 0.637255
vt 0.956119 0.620919
vt 0.972455 0.653592
vt 0.964287 0.669928
vt 0.956119 0.653592
vt 0.956119 0.604583
vt 0.972455 0.637255
vt 0.947950 0.669928
vt 0.530740 0.292080
vt 0.601404 0.301246
vt 0.703356 0.486005
vt 0.715434 0.432514
vt 0.684610 0.425490
s 0
usemtl lvl1-extras
f 1/1/1 18/2/1 3/3/1
f 18/2/2 4/4/2 3/3/2
f 23/5/3 5/6/3 4/4/3
f 5/6/4 33/7/4 7/8/4
f 7/8/5 9/9/5 8/10/5
f 8/10/6 2/11/6 1/12/6
f 7/13/7 8/14/7 3/15/7
f 1/1/38 2/57/38 18/2/38
f 18/2/2 23/5/2 4/4/2
f 23/5/39 6/58/39 5/6/39
f 5/6/40 6/58/40 33/7/40
f 7/8/41 33/7/41 9/9/41
f 8/10/6 9/9/6 2/11/6
f 8/14/7 1/59/7 3/15/7
f 3/15/42 4/60/42 7/13/42
f 4/60/43 5/61/43 7/13/43
usemtl lvl1-extras_luces
f 12/16/8 17/17/8 13/18/8
f 10/19/9 15/20/9 11/21/9
f 2/22/10 17/17/10 18/23/10
f 11/21/11 16/24/11 12/16/11
f 10/19/12 28/25/12 14/26/12
f 16/24/13 22/27/13 17/17/13
f 14/26/14 20/28/14 15/20/14
f 17/17/15 23/29/15 18/23/15
f 15/20/16 21/30/16 16/24/16
f 14/26/17 28/31/17 19/32/17
f 19/32/18 25/33/18 20/28/18
f 22/27/19 6/34/19 23/29/19
f 20/28/20 26/35/20 21/30/20
f 19/32/21 28/36/21 24/37/21
f 21/30/22 27/38/22 22/27/22
f 6/34/23 32/39/23 33/40/23
f 26/35/24 30/41/24 31/42/24
f 24/37/25 28/43/25 29/44/25
f 27/38/26 31/42/26 32/39/26
f 25/33/27 29/44/27 30/41/27
f 32/45/28 9/46/28 33/47/28
f 31/48/29 35/49/29 36/50/29
f 29/51/30 28/52/30 34/53/30
f 32/45/31 36/50/31 37/54/31
f 30/55/32 34/53/32 35/49/32
f 9/46/33 13/18/33 2/22/33
f 36/50/34 11/21/34 12/16/34
f 34/53/35 28/56/35 10/19/35
f 37/54/36 12/16/36 13/18/36
f 35/49/37 10/19/37 11/21/37
f 12/16/8 16/24/8 17/17/8
f 10/19/9 14/26/9 15/20/9
f 2/22/44 13/18/44 17/17/44
f 11/21/11 15/20/11 16/24/11
f 16/24/13 21/30/13 22/27/13
f 14/26/14 19/32/14 20/28/14
f 17/17/15 22/27/15 23/29/15
f 15/20/16 20/28/16 21/30/16
f 19/32/18 24/37/18 25/33/18
f 22/27/45 27/38/45 6/34/45
f 20/28/20 25/33/20 26/35/20
f 21/30/22 26/35/22 27/38/22
f 6/34/46 27/38/46 32/39/46
f 26/35/24 25/33/24 30/41/24
f 27/38/26 26/35/26 31/42/26
f 25/33/27 24/37/27 29/44/27
f 32/45/47 37/54/47 9/46/47
f 31/48/29 30/55/29 35/49/29
f 32/45/31 31/48/31 36/50/31
f 30/55/32 29/51/32 34/53/32
f 9/46/33 37/54/33 13/18/33
f 36/50/34 35/49/34 11/21/34
f 37/54/36 36/50/36 12/16/36
f 35/49/37 34/53/37 10/19/37
o Cube
v -0.423805 -1.408766 0.130138
v -0.423805 1.408766 0.130138
v 0.423805 1.408766 0.130138
v 0.423805 -1.408766 0.130138
v -0.573067 -1.545231 0.561092
v -0.423805 -1.408766 0.417942
v -0.423805 1.408766 0.417942
v -0.573067 1.545231 0.561092
v -0.856850 -1.935555 -0.443279
v -1.000000 -1.792403 -0.443279
v -1.000000 1.792402 -0.443279
v -0.856850 1.935554 -0.443279
v 0.423805 -1.408766 0.417942
v 0.573067 -1.545231 0.561092
v 0.573067 1.545231 0.561092
v 0.423805 1.408766 0.417942
v 1.000000 -1.792403 -0.443279
v 0.856850 -1.935555 -0.443279
v 0.856850 1.935554 -0.443279
v 1.000000 1.792402 -0.443279
v -0.856850 -1.935555 0.417942
v -0.850739 -1.799089 0.561092
v -1.000000 -1.792402 0.417942
v -0.850739 1.799089 0.561092
v -0.856850 1.935554 0.417942
v -1.000000 1.792402 0.417942
v 0.856850 1.935554 0.417942
v 0.850739 1.799089 0.561092
v 1.000000 1.792402 0.417942
v 0.856850 -1.935555 0.417942
v 1.000000 -1.792402 0.417942
v 0.850739 -1.799089 0.561092
vn -0.0000 -0.0000 -1.0000
vn -0.0000 1.0000 -0.0000
vn -0.0000 -1.0000 -0.0000
vn -1.0000 -0.0000 -0.0000
vn 1.0000 -0.0000 -0.0000
vn -0.0000 -0.0000 1.0000
vn -0.5781 -0.5781 0.5758
vn -0.5781 0.5781 0.5758
vn 0.5781 0.5781 0.5758
vn 0.5781 -0.5781 0.5758
vn -0.7071 -0.7071 -0.0000
vn -0.6922 -0.0000 0.7217
vn -0.7071 0.7071 -0.0000
vn 0.7071 -0.7071 -0.0000
vn 0.7071 0.7071 -0.0000
vn 0.6922 -0.0000 0.7217
vn -0.0000 -0.7238 0.6900
vn -0.0000 0.7238 0.6900
vt 0.830300 0.765772
vt 0.824178 0.771894
vt 0.830300 0.851295
vt 0.989713 0.936630
vt 0.989713 0.863349
vt 0.824178 0.863349
vt 0.824178 0.936630
vt 0.983591 0.942751
vt 0.830300 0.942751
vt 0.648358 0.884323
vt 0.639708 0.799640
vt 0.648358 0.799640
vt 0.639708 0.774165
vt 0.648358 0.774165
vt 0.983591 0.857228
vt 0.830300 0.857228
vt 0.973022 0.875484
vt 0.983878 0.936369
vt 0.973022 0.924495
vt 0.648358 0.909798
vt 0.639708 0.884323
vt 0.813169 0.898503
vt 0.661981 0.943986
vt 0.661981 0.898503
vt 0.840869 0.875484
vt 0.983878 0.863611
vt 0.840869 0.924495
vt 0.830014 0.863611
vt 0.830014 0.936369
vt 0.967187 0.918112
vt 0.846705 0.918112
vt 0.846705 0.881867
vt 0.967187 0.881867
vt 0.648358 0.994481
vt 0.639708 0.909798
vt 0.824178 0.845174
vt 0.983591 0.851295
vt 0.983591 0.765772
vt 0.989713 0.845174
vt 0.989713 0.771894
vt 0.813169 0.943986
vt 0.639707 0.994481
s 0
usemtl lvl1-extras
f 54/62/48 55/63/48 47/64/48
f 49/65/49 64/66/49 56/66/49
f 55/67/50 58/68/50 46/68/50
f 63/69/51 47/70/51 60/70/51
f 53/71/51 41/72/51 50/73/51
f 50/73/49 38/74/49 43/75/49
f 57/76/52 68/77/52 54/77/52
f 52/78/53 61/79/53 45/80/53
f 44/81/50 40/82/50 53/71/50
f 40/83/53 38/84/53 41/85/53
f 51/86/53 65/87/53 52/78/53
f 42/88/53 69/89/53 51/86/53
f 45/80/53 59/90/53 42/88/53
f 58/68/54 59/90/54 60/70/54
f 61/79/55 62/65/55 63/69/55
f 64/66/56 65/87/56 66/76/56
f 67/67/57 68/77/57 69/89/57
f 58/68/58 47/70/58 46/68/58
f 61/79/59 60/70/59 59/90/59
f 49/65/60 63/69/60 62/65/60
f 55/67/61 68/77/61 67/67/61
f 64/66/62 57/76/62 56/66/62
f 69/89/63 66/76/63 65/87/63
f 67/67/64 59/90/64 58/68/64
f 62/65/65 65/87/65 64/66/65
f 44/91/63 42/88/63 43/92/63
f 50/93/59 52/78/59 53/94/59
f 51/86/65 43/92/65 42/88/65
f 45/80/64 53/94/64 52/78/64
f 43/95/52 39/96/52 44/81/52
f 55/63/48 46/97/48 47/64/48
f 47/64/48 48/98/48 57/99/48
f 48/98/48 49/100/48 57/99/48
f 49/100/48 56/101/48 57/99/48
f 57/99/48 54/62/48 47/64/48
f 49/65/49 62/65/49 64/66/49
f 55/67/50 67/67/50 58/68/50
f 63/69/51 48/69/51 47/70/51
f 53/71/51 40/82/51 41/72/51
f 50/73/49 41/72/49 38/74/49
f 57/76/52 66/76/52 68/77/52
f 52/78/53 65/87/53 61/79/53
f 44/81/50 39/96/50 40/82/50
f 40/83/53 39/102/53 38/84/53
f 51/86/53 69/89/53 65/87/53
f 42/88/53 59/90/53 69/89/53
f 45/80/53 61/79/53 59/90/53
f 58/68/58 60/70/58 47/70/58
f 61/79/59 63/69/59 60/70/59
f 49/65/60 48/69/60 63/69/60
f 55/67/61 54/77/61 68/77/61
f 64/66/62 66/76/62 57/76/62
f 69/89/63 68/77/63 66/76/63
f 67/67/64 69/89/64 59/90/64
f 62/65/65 61/79/65 65/87/65
f 44/91/63 45/80/63 42/88/63
f 50/93/59 51/86/59 52/78/59
f 51/86/65 50/93/65 43/92/65
f 45/80/64 44/91/64 53/94/64
f 43/95/52 38/103/52 39/96/52
