# Blender 4.0.2
# www.blender.org
mtllib Troncos.mtl
o troncos.002
v 8.897346 -2.054282 -4.277945
v -1.272151 0.021966 0.411365
v 2.785259 -0.250859 -2.466226
v -1.436739 0.382048 -0.229351
v 2.975610 0.358749 -2.546455
v -1.223372 1.085784 -0.321020
v 9.608862 0.283577 -4.576663
v -0.845584 1.429154 0.227872
v 9.874844 -0.311857 -3.530584
v -0.680995 1.069063 0.868586
v 9.519078 -1.480786 -3.381233
v -0.894367 0.365333 0.960258
v -12.879013 -0.965358 0.461723
v 0.860161 -0.939925 1.549087
v -12.854729 -0.453030 -0.008047
v 0.892944 -0.248082 0.914716
v -12.812913 -0.501349 -0.700627
v 0.949418 -0.313329 -0.020546
v -12.785048 -1.073925 -1.094499
v 0.987041 -1.086538 -0.552427
v -12.792116 -1.739598 -0.893049
v 0.977497 -1.985466 -0.280393
v -12.828798 -1.997111 -0.247996
v 0.927968 -2.333201 0.590683
v -12.867469 -1.652535 0.354938
v 0.875742 -1.867890 1.404883
v -5.441489 -1.885975 8.371819
v -3.447434 0.103847 -1.675653
v -5.299506 -1.129511 8.578629
v -3.255908 1.063416 -1.421532
v -5.878728 -0.586674 8.522028
v -5.037400 0.803860 2.262741
v -6.599935 -0.800301 8.258615
v -5.479053 0.678850 2.085899
v -6.741925 -1.556759 8.051805
v -5.113345 0.521455 -2.008325
v -6.162708 -2.099604 8.108413
v -4.376158 -0.167131 -1.969044
v 12.314220 -1.490777 0.392837
v 0.915870 1.799880 -1.063883
v 12.611804 -1.082673 -0.397622
v 1.128208 2.098920 -1.601627
v 13.000965 -0.231184 -0.366523
v 1.385301 2.652949 -1.609550
v 13.092541 0.212206 0.455025
v 1.434432 2.901447 -1.133199
v 12.794958 -0.195905 1.245488
v 1.222096 2.602402 -0.595462
v 12.405796 -1.047392 1.214385
v 0.964998 2.048379 -0.587537
v 6.119721 -1.089689 4.967084
v 13.821421 -1.192538 -4.223636
v 5.715746 -0.527433 4.645670
v 13.504033 -0.750792 -4.476155
v 5.124000 -0.580458 4.166426
v 13.039125 -0.792457 -4.852676
v 4.790077 -1.208838 3.890240
v 12.776775 -1.286148 -5.069664
v 4.965449 -1.939396 4.025081
v 12.914558 -1.860119 -4.963724
v 5.518033 -2.222004 4.469413
v 13.348701 -2.082146 -4.614635
v 6.031734 -1.843845 4.888646
v 13.752292 -1.785050 -4.285264
v -8.146381 -0.691052 0.354221
v -7.307952 -0.688194 0.453096
v -6.357527 -0.382133 -0.190001
v -9.091799 -0.419196 -0.480600
v -6.935578 -1.004894 -1.068670
v -7.503986 -1.004643 -1.111092
v -6.891164 -0.472639 0.322643
v -8.691018 -0.500768 0.145935
v -6.531610 -0.677108 -0.851070
v -8.295078 -0.753484 -1.044592
v -5.797862 -0.404866 -0.575712
v -10.153766 -0.463957 -0.934108
v -5.764992 -1.080398 -1.040401
v -10.123964 -1.076431 -1.355424
v -10.224467 -0.960299 0.309231
v -5.875846 -0.952306 0.795637
v -5.847200 -0.347856 0.241403
v -10.198494 -0.412274 -0.193273
v -9.015310 -0.394758 -0.075075
v -8.831203 -0.446019 -0.825293
v -6.260073 -0.411135 -0.613737
v -6.639925 -0.359592 0.162216
v -6.428750 -0.575021 -0.567811
v -6.747231 -0.531807 0.082773
v -6.510456 -0.550705 -0.212535
v -8.802964 -0.581779 -0.456185
v -6.656416 -0.798021 -0.766796
v -6.949014 -0.643912 0.207740
v -8.147053 -0.862057 -0.941667
v -6.995119 -1.072843 -0.949243
v -7.471691 -1.072637 -0.984809
v -8.010300 -0.809711 0.243760
v -7.307325 -0.807317 0.326658
v -8.458076 -0.667492 0.059585
v -8.738838 -0.561291 -0.116180
v -8.584471 -0.604266 -0.745186
v -4.935398 -1.165283 4.712890
v -4.775466 -0.335259 4.936834
v -5.093377 0.744098 2.518969
v -5.529860 0.620468 2.343029
v -6.368208 -0.804050 4.388297
v -5.731771 -1.399681 4.438622
v -10.106761 -1.788929 -1.138023
v -10.146018 -2.064542 -0.447621
v -10.187407 -1.695746 0.197701
v -4.921818 1.481024 -1.754199
v -3.993093 1.752002 -1.460808
v -5.411907 0.260368 4.886510
v -6.208276 0.025974 4.612241
v -5.457445 1.132528 1.761038
v -5.025997 1.226924 1.858129
v -5.075003 1.360003 2.060711
v -5.501498 1.265936 1.964025
v -5.035786 1.545025 0.983564
v -4.768911 1.575202 1.065859
v -4.798720 1.676635 1.177307
v -5.062550 1.646282 1.095572
v 2.349880 -0.163310 -2.253443
v -1.329586 -0.163958 0.433277
v 2.529446 0.409373 -2.329170
v -0.788150 1.615078 0.205960
v -0.585747 1.161970 1.001990
v -0.856467 0.272449 1.115640
v -0.492372 0.147839 -0.757202
v -0.299158 -0.274887 -0.005030
v -0.241886 0.973990 -0.864821
v 0.201613 1.377089 -0.220445
v 0.394830 0.954366 0.531726
v 0.144343 0.128216 0.639340
v -1.531992 0.289146 -0.362752
v 8.631363 -1.458851 -5.324019
v 8.987126 -0.289922 -5.473374
v -1.261267 1.178662 -0.476406
v 1.558210 -0.156517 -2.573301
v 1.745986 -0.228200 -2.922822
v 1.834199 0.270911 -3.067122
v 1.641407 0.312363 -2.709457
v 0.399778 0.396170 -2.790937
v 0.539593 0.342797 -3.051187
v 0.605275 0.714441 -3.158636
v 0.461727 0.745302 -2.892318
v 1.083573 1.907276 -1.920099
v 0.785988 1.499174 -1.129639
v 1.472737 2.758767 -1.889001
v 1.564312 3.202153 -1.067447
v 1.266728 2.794043 -0.276990
v 0.877567 1.942555 -0.308088
v 7.676914 0.405713 -0.628452
v 7.426903 0.053616 0.004683
v 7.979615 1.058022 -0.637784
v 8.037461 1.350610 -0.076928
v 7.787459 0.998511 0.556203
v 7.484754 0.346199 0.565536
v 1.092949 2.332840 -0.590808
v 1.132585 2.409518 -0.592704
v 1.053529 2.327556 -0.294028
v 2.429233 1.932494 -0.335028
v 1.313428 2.731028 -0.826762
v 1.359089 2.795335 -0.942397
v 1.414997 2.997386 -0.670831
v 1.467774 3.069762 -0.811019
v 3.319321 2.312864 -0.629593
v 4.412833 2.257062 -0.338520
v 8.089972 -1.112366 3.039948
v 7.705083 -0.576679 2.733723
v 7.141305 -0.627195 2.277130
v 6.823164 -1.225887 2.013991
v 6.990248 -1.921921 2.142463
v 7.516713 -2.191168 2.565795
v 8.006145 -1.830882 2.965212
v 11.550914 -1.163264 -1.723700
v 11.208879 -0.687214 -1.995832
v 10.707869 -0.732113 -2.401593
v 10.425148 -1.264144 -2.635432
v 10.573629 -1.882685 -2.521265
v 11.041481 -2.121953 -2.145062
v 11.476416 -1.801785 -1.790114
v 6.507824 0.004199 -0.143515
v 6.805408 0.412301 -0.933974
v 7.194570 1.263788 -0.902875
v 7.286147 1.707179 -0.081322
v 6.988559 1.299073 0.709138
v 6.599398 0.447585 0.678039
v 4.252808 1.197287 -0.079541
v 4.199319 0.926748 -0.598144
v 4.763879 2.126027 -0.673604
v 4.532709 1.800455 -0.088173
v 4.430494 1.252314 -1.183578
v 4.710394 1.855482 -1.192210
vn -0.3408 -0.8517 -0.3981
vn -0.0132 0.9849 -0.1724
vn -0.1096 0.8701 -0.4805
vn 0.3001 0.8598 0.4131
vn 0.4816 -0.0319 0.8758
vn 0.3972 -0.0036 0.9177
vn 0.0717 -0.8621 0.5016
vn 0.8624 -0.3133 -0.3976
vn -0.0832 0.6756 0.7325
vn -0.0078 0.9975 -0.0701
vn 0.0599 0.5677 -0.8211
vn -0.0929 -0.2901 -0.9525
vn 0.0122 -0.9289 -0.3701
vn 0.9982 0.0075 0.0597
vn -0.0672 -0.8681 0.4918
vn 0.0562 -0.1496 0.9872
vn -0.9982 -0.0075 -0.0597
vn 0.9559 -0.2348 0.1764
vn 0.6389 0.7049 0.3081
vn -0.9789 -0.0767 -0.1893
vn -0.9634 0.2272 -0.1423
vn 0.2405 0.2033 -0.9491
vn -0.6472 -0.7114 -0.2741
vn 0.3138 -0.9426 -0.1145
vn -0.2822 -0.2033 0.9376
vn -0.1388 -0.8577 -0.4951
vn 0.1603 -0.0372 -0.9864
vn 0.2983 0.8257 -0.4789
vn 0.1380 0.8579 0.4949
vn 0.3111 0.8291 -0.4646
vn -0.1603 0.0372 0.9864
vn -0.2983 -0.8257 0.4789
vn 0.9007 -0.4162 0.1242
vn 0.5496 0.6757 0.4913
vn -0.0393 0.9973 -0.0619
vn -0.5901 0.5664 -0.5752
vn -0.6900 -0.2882 -0.6640
vn -0.2642 -0.9283 -0.2618
vn 0.6289 0.0075 -0.7774
vn 0.3692 -0.8684 0.3309
vn 0.7305 -0.1544 0.6652
vn -0.6289 -0.0075 0.7774
vn -0.0802 0.5623 -0.8231
vn 0.4267 0.8179 -0.3860
vn -0.0202 0.9973 -0.0708
vn -0.7101 0.6722 -0.2093
vn 0.0411 0.6742 0.7374
vn 0.4757 0.8340 -0.2794
vn 0.3008 0.8552 0.4221
vn -0.1078 0.6774 0.7277
vn 0.0517 0.5510 -0.8329
vn 0.0585 0.5973 -0.7999
vn -0.0934 0.5689 0.8171
vn 0.0749 0.5528 -0.8300
vn -0.0454 0.6801 0.7317
vn -0.0097 0.9975 -0.0705
vn -0.0355 0.8761 0.4808
vn 0.0781 0.7258 -0.6834
vn -0.5977 0.6116 -0.5184
vn 0.0793 0.4648 -0.8819
vn 0.4535 0.8472 0.2769
vn -0.0833 0.6893 0.7197
vn -0.0075 0.9979 -0.0639
vn -0.0714 0.7982 0.5982
vn 0.0567 0.6489 -0.7588
vn -0.6581 0.7467 0.0968
vn 0.4946 0.8569 -0.1449
vn -0.4969 0.6105 -0.6167
vn 0.5286 0.8440 0.0903
vn -0.6975 0.7165 -0.0049
vn -0.6194 0.5905 -0.5173
vn -0.0064 0.9971 -0.0754
vn 0.3256 -0.9352 -0.1396
vn -0.6574 -0.7222 -0.2152
vn -0.9776 0.2020 -0.0587
vn -0.3349 0.9262 0.1734
vn 0.6500 0.7175 0.2503
vn 0.9731 -0.2106 0.0936
vn 0.0152 -0.8677 0.4969
vn -0.0510 -0.9265 -0.3728
vn 0.0687 -0.2896 -0.9547
vn -0.1095 -0.1544 0.9819
vn -0.3212 0.9353 0.1484
vn -0.3224 0.9350 0.1477
vn -0.3226 0.9348 0.1485
vn -0.3251 0.9341 0.1473
vn -0.9040 0.2197 -0.3669
vn 0.3728 -0.6017 -0.7063
vn -0.3739 0.5225 0.7663
vn 0.9700 0.1382 0.1999
vn 0.1157 0.7501 -0.6511
vn 0.2479 -0.9095 -0.3336
vn -0.2386 0.9319 0.2733
vn 0.9576 -0.0564 0.2824
vn -0.8624 0.3133 0.3976
vn -0.3018 -0.0326 -0.9528
vn 0.1484 -0.8811 0.4490
vn 0.4109 0.8358 0.3642
vn 0.0242 0.8399 -0.5421
vn -0.2282 -0.8726 -0.4318
vn -0.4361 0.0178 -0.8997
vn -0.0435 0.2857 0.9573
vn 0.3998 -0.2774 -0.8736
vn -0.3824 0.2759 0.8819
vn -0.0908 -0.9800 0.1769
vn -0.8793 0.0178 -0.4760
vn -0.4238 -0.9048 -0.0421
vn 0.3339 0.9399 0.0711
vn -0.0270 -0.2732 -0.9616
vn -0.9007 0.4162 -0.1242
vn -0.1075 -0.8503 -0.5153
vn -0.1471 0.0824 0.9857
vn 0.1712 -0.0935 -0.9808
vn -0.2835 -0.8379 0.4664
vn 0.1309 0.8436 0.5208
vn 0.2771 0.9593 0.0539
vn -0.2703 -0.9078 -0.3207
vn -0.9033 0.4120 -0.1194
vn 0.2108 0.5373 -0.8167
vn -0.2437 -0.3824 0.8913
vn 0.6900 -0.1541 0.7072
vn 0.3501 -0.8675 0.3535
vn -0.2506 -0.9273 -0.2781
vn -0.6511 -0.2861 -0.7030
vn -0.5575 0.5640 -0.6092
vn -0.0372 0.9972 -0.0644
vn 0.5206 0.6738 0.5243
vn 0.7986 -0.1537 0.5819
vn 0.4033 -0.8682 0.2890
vn -0.2898 -0.9289 -0.2305
vn -0.7578 -0.2898 -0.5847
vn -0.6486 0.5676 -0.5071
vn -0.0441 0.9975 -0.0560
vn 0.5997 0.6758 0.4285
vn 0.1485 0.8382 0.5248
vn -0.2612 -0.8445 0.4675
vn 0.1323 -0.0750 -0.9884
vn -0.1090 0.0648 0.9919
vn -0.1252 -0.8453 -0.5195
vn -0.2600 -0.8373 0.4809
vn -0.0907 0.0051 0.9959
vn 0.2885 0.8364 -0.4661
vn 0.1718 0.8475 0.5022
vn 0.2600 0.8373 -0.4809
vn 0.0907 -0.0051 -0.9959
vn -0.1718 -0.8475 -0.5022
vt 0.733855 0.370576
vt 0.733855 0.297401
vt 0.767364 0.297401
vt 0.767364 0.370576
vt 0.793239 0.324938
vt 0.793704 0.328096
vt 0.800873 0.370576
vt 0.800873 0.297401
vt 0.834383 0.297401
vt 0.834383 0.370576
vt 0.867892 0.297401
vt 0.867892 0.370576
vt 0.959961 0.028647
vt 0.959867 0.064673
vt 0.901401 0.297401
vt 0.901401 0.370576
vt 0.934910 0.297401
vt 0.934910 0.370576
vt 0.962975 0.067550
vt 0.962975 0.026713
vt 0.927609 0.006295
vt 0.892244 0.026713
vt 0.892244 0.067550
vt 0.927610 0.087968
vt 0.733855 0.436534
vt 0.733855 0.387593
vt 0.762577 0.387593
vt 0.762577 0.436534
vt 0.791299 0.387593
vt 0.791299 0.436534
vt 0.820022 0.387593
vt 0.820022 0.436534
vt 0.820022 0.488120
vt 0.820022 0.468130
vt 0.848744 0.467950
vt 0.848744 0.488120
vt 0.848744 0.387593
vt 0.877466 0.387593
vt 0.877466 0.467950
vt 0.964993 0.055132
vt 0.944728 0.080543
vt 0.912226 0.080543
vt 0.891961 0.055132
vt 0.899194 0.023445
vt 0.928477 0.009343
vt 0.957760 0.023445
vt 0.906188 0.387593
vt 0.906188 0.467950
vt 0.906188 0.488120
vt 0.934910 0.468130
vt 0.934910 0.488120
vt 0.964993 0.054813
vt 0.944728 0.080224
vt 0.912226 0.080224
vt 0.891961 0.054813
vt 0.899194 0.023126
vt 0.928477 0.009024
vt 0.957760 0.023126
vt 0.733855 0.264861
vt 0.733855 0.207558
vt 0.767364 0.207558
vt 0.767364 0.264861
vt 0.800873 0.207558
vt 0.800873 0.264861
vt 0.826253 0.241509
vt 0.826167 0.243818
vt 0.834383 0.264861
vt 0.834383 0.207558
vt 0.867892 0.207558
vt 0.867892 0.264861
vt 0.963085 0.027094
vt 0.963085 0.067931
vt 0.927720 0.088349
vt 0.892354 0.067931
vt 0.892354 0.027094
vt 0.927720 0.006676
vt 0.901401 0.207558
vt 0.901401 0.264861
vt 0.934910 0.207558
vt 0.934910 0.264861
vt 0.963111 0.067745
vt 0.963111 0.026908
vt 0.927746 0.006490
vt 0.892380 0.026908
vt 0.892380 0.067745
vt 0.927746 0.088163
vt 0.733855 0.335714
vt 0.767364 0.335714
vt 0.800873 0.335714
vt 0.834383 0.335714
vt 0.845253 0.297401
vt 0.848628 0.317176
vt 0.851196 0.297401
vt 0.867892 0.335714
vt 0.925916 0.071795
vt 0.906499 0.060982
vt 0.888465 0.297647
vt 0.901401 0.335714
vt 0.934910 0.335714
vt 0.962465 0.066780
vt 0.962465 0.025943
vt 0.927099 0.005525
vt 0.891734 0.025943
vt 0.891734 0.066780
vt 0.927099 0.087198
vt 0.733855 0.416207
vt 0.762577 0.416207
vt 0.791299 0.416207
vt 0.820022 0.416207
vt 0.848744 0.416207
vt 0.877466 0.416207
vt 0.906188 0.416207
vt 0.934910 0.387593
vt 0.934910 0.416207
vt 0.791299 0.488120
vt 0.791299 0.468130
vt 0.754873 0.462256
vt 0.738249 0.462360
vt 0.754873 0.462256
vt 0.762577 0.488120
vt 0.762577 0.468130
vt 0.791299 0.437140
vt 0.774031 0.437337
vt 0.733855 0.488120
vt 0.733855 0.468130
vt 0.762577 0.462224
vt 0.816653 0.462312
vt 0.801136 0.462027
vt 0.801135 0.462027
vt 0.791299 0.462175
vt 0.810400 0.437397
vt 0.738488 0.437636
vt 0.799438 0.437370
vt 0.762577 0.437482
vt 0.755607 0.437532
vt 0.774998 0.462196
vt 0.800354 0.201851
vt 0.798656 0.177194
vt 0.809619 0.177222
vt 0.815872 0.202136
vt 0.737468 0.202184
vt 0.737707 0.177460
vt 0.754826 0.177356
vt 0.754092 0.202080
vt 0.761796 0.177306
vt 0.773249 0.177161
vt 0.774217 0.202020
vt 0.761796 0.202048
vt 0.790518 0.176965
vt 0.790518 0.201999
vt 0.877466 0.488120
vt 0.934910 0.436534
vt 0.808656 0.241764
vt 0.808652 0.244076
vt 0.928094 0.082762
vt 0.963558 0.067163
vt 0.928192 0.087581
vt 0.963558 0.026326
vt 0.928291 0.010726
vt 0.928192 0.005907
vt 0.896517 0.028816
vt 0.892827 0.026326
vt 0.896424 0.064841
vt 0.892827 0.067162
vt 0.774760 0.324902
vt 0.774310 0.328063
vt 0.948716 0.057678
vt 0.949886 0.032506
vt 0.930468 0.021693
vt 0.922379 0.026702
vt 0.916720 0.012531
vt 0.907669 0.035810
vt 0.907262 0.044574
vt 0.891795 0.043243
vt 0.907035 0.049447
vt 0.906957 0.051135
vt 0.910448 0.016152
vt 0.917476 0.029738
vt 0.820645 0.213440
vt 0.826959 0.275072
vt 0.826959 0.371906
vt 0.817546 0.356964
vt 0.806907 0.274988
vt 0.813990 0.213440
vt 0.817546 0.357612
vt 0.806907 0.371890
vt 0.906188 0.465957
vt 0.934910 0.465957
vt 0.877466 0.465957
vt 0.848744 0.465957
vt 0.820022 0.465957
vt 0.791299 0.465957
vt 0.762577 0.465957
vt 0.733855 0.465957
vt 0.921168 0.027451
vt 0.901401 0.374027
vt 0.934910 0.374027
vt 0.867892 0.374027
vt 0.834383 0.374027
vt 0.800873 0.374027
vt 0.767364 0.374027
vt 0.733855 0.374027
s 0
usemtl chunk
f 1/1/1 123/2/1 134/3/1 135/4/1
f 124/5/2 5/6/2 140/6/2 141/5/2
f 136/7/3 137/8/3 125/9/3 7/10/3
f 7/10/4 125/9/4 126/11/4 9/12/4
f 6/13/5 4/14/5 128/14/5 130/13/5
f 9/12/6 126/11/6 127/15/6 11/16/6
f 11/16/7 127/15/7 123/17/7 1/18/7
f 1/19/8 135/20/8 136/21/8 7/22/8 9/23/8 11/24/8
f 80/25/9 14/26/9 16/27/9 81/28/9
f 81/28/10 16/27/10 18/29/10 75/30/10
f 75/30/11 18/29/11 20/31/11 77/32/11
f 19/33/12 78/34/12 107/35/12 21/36/12
f 107/35/13 22/37/13 24/38/13 108/39/13
f 16/40/14 14/41/14 26/42/14 24/43/14 22/44/14 20/45/14 18/46/14
f 108/39/15 24/38/15 26/47/15 109/48/15
f 25/49/16 109/48/16 79/50/16 13/51/16
f 13/52/17 15/53/17 17/54/17 19/55/17 21/56/17 23/57/17 25/58/17
f 101/59/18 28/60/18 30/61/18 102/62/18
f 102/62/19 30/61/19 111/63/19 112/64/19
f 34/65/20 104/66/20 117/66/20 114/65/20
f 113/67/21 110/68/21 36/69/21 105/70/21
f 30/71/22 28/72/22 38/73/22 36/74/22 110/75/22 111/76/22
f 105/70/23 36/69/23 38/77/23 106/78/23
f 106/78/24 38/77/24 28/79/24 101/80/24
f 27/81/25 29/82/25 31/83/25 33/84/25 35/85/25 37/86/25
f 182/87/26 147/2/26 146/3/26 183/88/26
f 183/88/27 146/3/27 148/8/27 184/89/27
f 184/89/28 148/8/28 149/9/28 185/90/28
f 185/90/29 149/9/29 165/91/29 167/92/29 164/93/29 150/11/29 186/94/29
f 189/95/30 188/96/30 157/96/30 153/95/30
f 186/94/31 150/11/31 160/97/31 151/15/31 187/98/31
f 187/98/32 151/15/32 147/17/32 182/99/32
f 39/100/33 41/101/33 43/102/33 45/103/33 47/104/33 49/105/33
f 175/106/34 52/26/34 54/27/34 176/107/34
f 176/107/35 54/27/35 56/29/35 177/108/35
f 177/108/36 56/29/36 58/31/36 178/109/36
f 178/109/37 58/31/37 60/37/37 179/110/37
f 179/110/38 60/37/38 62/38/38 180/111/38
f 54/40/39 52/41/39 64/42/39 62/43/39 60/44/39 58/45/39 56/46/39
f 180/111/40 62/38/40 64/47/40 181/112/40
f 181/112/41 64/47/41 52/113/41 175/114/41
f 51/52/42 53/53/42 55/54/42 57/55/42 59/56/42 61/57/42 63/58/42
f 17/115/43 76/116/43 78/34/43 19/33/43
f 72/117/44 65/118/44 96/118/44 98/119/44
f 15/120/45 82/121/45 76/116/45 17/115/45
f 85/122/46 87/122/46 89/123/46 67/123/46
f 13/124/47 79/125/47 82/121/47 15/120/47
f 83/126/48 72/117/48 98/119/48 99/126/48
f 70/127/49 74/128/49 93/129/49 95/127/49
f 83/126/50 82/121/50 79/125/50 65/118/50 72/117/50
f 76/116/51 84/130/51 74/128/51 70/127/51 78/34/51
f 70/127/52 69/131/52 77/32/52 78/34/52
f 66/132/53 65/118/53 79/125/53 80/25/53
f 73/133/54 85/122/54 75/30/54 77/32/54 69/131/54
f 86/134/55 71/135/55 66/132/55 80/25/55 81/28/55
f 67/123/10 86/134/10 81/28/10 75/30/10 85/122/10
f 68/136/56 84/130/56 76/116/56 82/121/56 83/126/56
f 69/131/57 70/127/57 95/127/57 94/131/57
f 65/118/58 66/132/58 97/132/58 96/118/58
f 86/134/59 67/123/59 89/123/59 88/134/59
f 93/137/60 91/138/60 94/139/60 95/140/60
f 84/130/61 68/136/61 90/136/61 100/130/61
f 96/141/62 97/142/62 92/143/62 98/144/62
f 88/145/63 89/146/63 90/147/63 99/148/63
f 99/148/64 98/144/64 92/143/64 88/145/64
f 87/149/65 91/138/65 93/137/65 100/150/65
f 73/133/66 69/131/66 94/131/66 91/133/66
f 68/136/67 83/126/67 99/126/67 90/136/67
f 66/132/68 71/135/68 92/135/68 97/132/68
f 74/128/69 84/130/69 100/130/69 93/129/69
f 85/122/70 73/133/70 91/133/70 87/122/70
f 71/135/71 86/134/71 88/134/71 92/135/71
f 100/150/72 90/147/72 89/146/72 87/149/72
f 37/15/73 106/78/73 101/80/73 27/17/73
f 35/11/74 105/70/74 106/78/74 37/15/74
f 33/9/75 113/67/75 105/70/75 35/11/75
f 31/8/76 112/64/76 113/67/76 33/9/76
f 29/3/77 102/62/77 112/64/77 31/8/77
f 27/2/78 101/59/78 102/62/78 29/3/78
f 23/151/79 108/39/79 109/48/79 25/49/79
f 21/36/80 107/35/80 108/39/80 23/151/80
f 107/35/81 78/34/81 77/32/81 20/31/81 22/37/81
f 79/50/82 109/48/82 26/47/82 14/113/82 80/152/82
f 34/65/83 32/153/83 111/63/83 110/68/83
f 32/153/84 103/154/84 112/64/84 111/63/84
f 104/66/85 34/65/85 110/68/85 113/67/85
f 103/154/86 104/66/86 113/67/86 112/64/86
f 114/65/87 117/66/87 121/66/87 118/65/87
f 32/153/88 34/65/88 114/65/88 115/153/88
f 104/66/89 103/154/89 116/154/89 117/66/89
f 103/154/90 32/153/90 115/153/90 116/154/90
f 120/154/91 119/153/91 118/65/91 121/66/91
f 115/153/92 114/65/92 118/65/92 119/153/92
f 117/66/93 116/154/93 120/154/93 121/66/93
f 116/154/94 115/153/94 119/153/94 120/154/94
f 2/155/95 4/14/95 134/156/95 123/157/95
f 4/14/95 6/13/95 137/158/95 134/156/95
f 6/13/95 8/159/95 125/160/95 137/158/95
f 8/159/95 10/161/95 126/162/95 125/160/95
f 10/161/95 12/163/95 127/164/95 126/162/95
f 12/163/95 2/155/95 123/157/95 127/164/95
f 128/14/95 129/155/95 133/163/95 132/161/95 131/159/95 130/13/95
f 12/163/96 10/161/96 132/161/96 133/163/96
f 8/159/97 6/13/97 130/13/97 131/159/97
f 4/14/98 2/155/98 129/155/98 128/14/98
f 2/155/99 12/163/99 133/163/99 129/155/99
f 10/161/100 8/159/100 131/159/100 132/161/100
f 122/165/101 3/166/101 135/4/101 134/3/101
f 3/166/101 5/6/101 136/7/101 135/4/101
f 124/5/101 122/165/101 134/3/101 137/8/101
f 5/6/101 124/5/101 137/8/101 136/7/101
f 138/165/102 141/5/102 145/5/102 142/165/102
f 5/6/103 3/166/103 139/166/103 140/6/103
f 122/165/104 124/5/104 141/5/104 138/165/104
f 3/166/105 122/165/105 138/165/105 139/166/105
f 143/166/106 142/165/106 145/5/106 144/6/106
f 139/166/107 138/165/107 142/165/107 143/166/107
f 141/5/108 140/6/108 144/6/108 145/5/108
f 140/6/109 139/166/109 143/166/109 144/6/109
f 40/95/110 42/167/110 146/156/110 147/157/110
f 42/167/110 44/168/110 148/158/110 146/156/110
f 44/168/110 46/169/110 149/160/110 148/158/110
f 46/169/110 163/170/110 165/171/110 149/160/110
f 48/172/110 159/173/110 160/174/110 150/162/110
f 50/96/110 40/95/110 147/157/110 151/164/110
f 152/167/110 153/95/110 157/96/110 156/172/110 155/169/110 154/168/110
f 191/172/111 190/169/111 155/169/111 156/172/111
f 193/168/112 192/167/112 152/167/112 154/168/112
f 188/96/113 191/172/113 156/172/113 157/96/113
f 190/169/114 193/168/114 154/168/114 155/169/114
f 192/167/115 189/95/115 153/95/115 152/167/115
f 161/175/116 158/176/116 160/174/116
f 160/174/117 159/173/117 161/175/117
f 158/176/118 50/96/118 151/164/118 160/174/118
f 164/177/110 162/178/110 48/172/110 150/162/110
f 167/179/119 166/180/119 162/181/119 164/182/119
f 166/183/120 167/184/120 165/185/120 163/186/120
f 63/49/121 174/187/121 168/188/121 51/51/121
f 61/151/122 173/189/122 174/187/122 63/49/122
f 59/36/123 172/190/123 173/189/123 61/151/123
f 57/33/124 171/191/124 172/190/124 59/36/124
f 55/115/125 170/192/125 171/191/125 57/33/125
f 53/120/126 169/193/126 170/192/126 55/115/126
f 51/124/127 168/194/127 169/193/127 53/120/127
f 174/187/128 181/112/128 175/114/128 168/188/128
f 173/189/129 180/111/129 181/112/129 174/187/129
f 172/190/130 179/110/130 180/111/130 173/189/130
f 171/191/131 178/109/131 179/110/131 172/190/131
f 170/192/132 177/108/132 178/109/132 171/191/132
f 169/193/133 176/107/133 177/108/133 170/192/133
f 168/194/134 175/106/134 176/107/134 169/193/134
f 42/167/135 40/95/135 189/95/135 192/167/135
f 46/169/136 44/168/136 193/168/136 190/169/136
f 50/96/137 158/176/137 161/175/137 159/173/137 48/172/137 191/172/137 188/96/137
f 44/168/138 42/167/138 192/167/138 193/168/138
f 48/172/139 162/178/139 166/195/139 163/170/139 46/169/139 190/169/139 191/172/139
f 49/196/140 187/98/140 182/99/140 39/197/140
f 47/198/141 186/94/141 187/98/141 49/196/141
f 40/95/142 50/96/142 188/96/142 189/95/142
f 45/199/143 185/90/143 186/94/143 47/198/143
f 43/200/144 184/89/144 185/90/144 45/199/144
f 41/201/145 183/88/145 184/89/145 43/200/145
f 39/202/146 182/87/146 183/88/146 41/201/146
