# Blender 4.0.2
# www.blender.org
mtllib lvl_1-cnk_3.mtl
o Cube.034
v 54.266647 2.000000 77.346672
v 54.266647 2.000000 80.346672
v 153.266678 2.000000 107.346649
v 153.266678 2.000000 110.346649
v 54.266663 18.000000 77.746666
v 54.266663 17.600000 77.346664
v 116.866646 2.000000 77.346672
v 117.266647 2.000000 77.746674
v 54.266663 17.600000 80.346664
v 54.266663 18.000000 79.946663
v 114.266647 2.000000 80.746674
v 113.866646 2.000000 80.346672
v 114.266663 17.600000 80.746666
v 114.666664 18.000000 79.946663
v 113.866661 17.600000 80.346664
v 153.266693 17.600000 107.346642
v 153.266693 18.000000 107.746643
v 153.266693 18.000000 109.946640
v 153.266693 17.600000 110.346642
v 114.666649 2.000000 110.346672
v 114.266647 2.000000 109.946671
v 114.666664 17.600000 110.346664
v 114.666664 18.000000 109.946663
v 114.266663 17.600000 109.946663
v 116.866661 18.000000 77.746666
v 117.266663 17.600000 77.746666
v 116.866661 17.600000 77.346664
v 116.866699 18.000000 107.746635
v 117.666702 17.600000 107.346634
v 117.266701 17.600000 106.946632
v 117.266678 2.000000 106.946648
v 117.666679 2.000000 107.346649
vn -0.0000 1.0000 -0.0000
vn -1.0000 -0.0000 -0.0000
vn 1.0000 -0.0000 -0.0000
vn -0.0000 -0.0000 1.0000
vn -0.0000 -1.0000 -0.0000
vn -0.0000 -0.0000 -1.0000
vn -0.3015 0.9045 0.3015
vn -0.5773 0.5774 0.5774
vn 0.5773 0.5774 -0.5774
vn 0.3015 0.9045 -0.3015
vn -0.7071 -0.0000 0.7071
vn -0.0000 0.7071 0.7071
vn -0.0000 0.7071 -0.7071
vn 0.7071 -0.0000 -0.7071
vn -0.7071 0.7071 -0.0000
vn 0.7071 0.7071 -0.0000
vt 0.823407 0.390576
vt 0.823407 0.257530
vt 0.833164 0.267287
vt 0.163987 0.011024
vt 0.278733 0.072326
vt 0.163987 0.072326
vt 0.258299 0.072345
vt 0.373045 0.011042
vt 0.373045 0.072345
vt 0.010079 0.072326
vt 0.161765 0.011023
vt 0.161765 0.072326
vt 0.821633 0.387028
vt 0.819859 0.388802
vt 0.833164 0.402106
vt 0.280956 0.072326
vt 0.515164 0.011024
vt 0.515164 0.072326
vt 0.375268 0.011042
vt 0.515164 0.072345
vt 0.375268 0.072345
vt 0.821633 0.387028
vt 0.819859 0.388802
vt 0.823407 0.255756
vt 0.821633 0.257530
vt 0.833164 0.400333
vt 0.834938 0.400333
vt 0.833164 0.402107
vt 0.836712 0.269061
vt 0.834938 0.270835
vt 0.278733 0.011023
vt 0.280956 0.011023
vt 0.555541 0.390576
vt 0.555541 0.402107
vt 0.555541 0.400333
vt 0.256076 0.011042
vt 0.258299 0.011042
vt 0.994593 0.267287
vt 0.994593 0.255756
vt 0.994593 0.257530
vt 0.010080 0.011042
vt 0.256076 0.072345
vt 0.010080 0.072345
vt 0.010079 0.011023
vt 0.994593 0.269061
vt 0.994593 0.255756
vt 0.823407 0.255756
vt 0.834938 0.270835
vt 0.555541 0.388802
vt 0.555541 0.402106
vt 0.515164 0.011042
vt 0.555541 0.388802
vt 0.994593 0.269061
s 0
usemtl Wall_traslucent
f 14/1/1 23/2/1 28/3/1
f 24/4/2 11/5/2 21/6/2
f 8/7/3 30/8/3 31/9/3
f 4/10/4 22/11/4 20/12/4
f 11/13/5 12/14/5 7/15/5
f 12/16/4 9/17/4 2/18/4
f 29/19/6 3/20/6 32/21/6
f 13/22/7 14/1/7 15/23/7
f 22/24/8 23/2/8 24/25/8
f 25/26/9 26/27/9 27/28/9
f 28/3/10 29/29/10 30/30/10
f 12/16/11 13/31/11 15/32/11
f 10/33/12 15/23/12 14/1/12
f 22/11/11 21/6/11 20/12/11
f 25/26/13 6/34/13 5/35/13
f 8/7/14 27/36/14 26/37/14
f 23/2/15 13/22/15 24/25/15
f 25/26/16 30/30/16 26/27/16
f 32/21/14 30/8/14 29/19/14
f 17/38/13 29/29/13 28/3/13
f 23/2/12 19/39/12 18/40/12
f 6/41/6 7/42/6 1/43/6
f 25/26/1 5/35/1 14/1/1
f 5/35/1 10/33/1 14/1/1
f 18/40/1 17/38/1 28/3/1
f 28/3/1 25/26/1 14/1/1
f 23/2/1 18/40/1 28/3/1
f 24/4/2 13/31/2 11/5/2
f 8/7/3 26/37/3 30/8/3
f 4/10/4 19/44/4 22/11/4
f 32/29/5 3/45/5 4/46/5
f 4/46/5 20/47/5 32/29/5
f 20/47/5 21/25/5 32/29/5
f 7/15/5 8/27/5 11/13/5
f 8/27/5 31/48/5 11/13/5
f 31/48/5 32/29/5 21/25/5
f 31/48/5 21/25/5 11/13/5
f 2/49/5 1/50/5 12/14/5
f 1/50/5 7/15/5 12/14/5
f 12/16/4 15/32/4 9/17/4
f 29/19/6 16/51/6 3/20/6
f 12/16/11 11/5/11 13/31/11
f 10/33/12 9/52/12 15/23/12
f 22/11/11 24/4/11 21/6/11
f 25/26/13 27/28/13 6/34/13
f 8/7/14 7/42/14 27/36/14
f 23/2/15 14/1/15 13/22/15
f 25/26/16 28/3/16 30/30/16
f 32/21/14 31/9/14 30/8/14
f 17/38/13 16/53/13 29/29/13
f 23/2/12 22/24/12 19/39/12
f 6/41/6 27/36/6 7/42/6
o Cube.035
v 54.701256 2.000000 146.346634
v 153.266678 2.000000 146.346634
v 54.266678 2.000000 149.346634
v 153.266678 2.000000 149.346634
v 53.866684 18.000000 146.746643
v 54.701248 17.600000 146.346664
v 153.266663 17.600000 146.346664
v 153.266663 18.000000 146.746658
v 54.266670 17.600000 149.346664
v 53.866684 18.000000 148.946655
v 153.266663 18.000000 148.946671
v 153.266663 17.600000 149.346664
v 54.266693 2.000000 145.946625
v 54.266685 17.600000 145.946655
vn -0.0000 1.0000 -0.0000
vn -0.0000 -0.0000 1.0000
vn -0.0000 0.7071 -0.7071
vn -0.0000 0.7071 0.7071
vn -0.0000 -0.0000 -1.0000
vn 0.6773 -0.0000 -0.7358
vn 0.2858 0.9066 -0.3104
vn -0.0000 -1.0000 -0.0000
vt 0.810301 0.378540
vt 0.369475 0.368783
vt 0.810301 0.368783
vt 0.397671 0.072135
vt 0.009956 0.011041
vt 0.397671 0.011041
vt 0.373177 0.380313
vt 0.369475 0.378540
vt 0.371249 0.367009
vt 0.810301 0.367009
vt 0.011658 0.011041
vt 0.009956 0.072135
vt 0.011658 0.072135
vt 0.371249 0.382087
vt 0.810301 0.367009
vt 0.371249 0.367009
vt 0.373177 0.380314
vt 0.810301 0.380313
vt 0.810301 0.380314
vt 0.371249 0.382087
s 0
usemtl Wall_traslucent
f 40/54/17 42/55/17 43/56/17
f 44/57/18 35/58/18 36/59/18
f 40/54/19 38/60/19 37/61/19
f 43/56/20 41/62/20 44/63/20
f 33/64/21 39/57/21 34/59/21
f 33/64/22 46/65/22 38/66/22
f 38/60/23 46/67/23 37/61/23
f 36/68/24 35/69/24 33/70/24
f 40/54/17 37/61/17 42/55/17
f 44/57/18 41/65/18 35/58/18
f 40/54/19 39/71/19 38/60/19
f 43/56/20 42/55/20 41/62/20
f 33/64/21 38/66/21 39/57/21
f 33/64/22 45/58/22 46/65/22
f 33/70/24 34/72/24 36/68/24
f 35/69/24 45/73/24 33/70/24
o Cube.033
v 153.266663 2.000000 107.346642
v 153.266663 -2.000000 149.346634
v 153.266663 2.000000 149.346634
v 54.266678 2.000000 77.346634
v 117.266670 2.000000 77.346634
v 54.266678 -2.000000 149.346619
v 54.266678 2.000000 149.346619
v 117.266670 2.000000 107.346642
v 81.891541 2.000000 83.532753
v 88.856400 2.000000 83.532753
v 88.856392 2.000000 90.497604
v 81.891541 2.000000 90.497604
v 73.392975 2.000000 137.712738
v 56.875076 2.000000 83.532753
v 54.266678 2.000000 83.532753
v 54.266678 2.000000 90.497604
v 56.875076 2.000000 90.497604
v 65.789162 2.000000 98.158951
v 72.754028 2.000000 98.158951
v 65.789162 2.000000 105.123802
v 72.754028 2.000000 105.123810
v 56.875076 2.000000 112.785141
v 81.891541 2.000000 112.785141
v 54.266678 2.000000 112.785141
v 88.856392 2.000000 112.785141
v 54.266678 2.000000 119.750000
v 56.875076 2.000000 119.750000
v 81.891541 2.000000 119.750000
v 88.856392 2.000000 119.750000
v 66.428123 2.000000 130.747894
v 73.392975 2.000000 130.747894
v 66.428123 2.000000 137.712738
v 56.875076 -2.000000 83.532753
v 54.266678 -2.000000 83.532753
v 56.875076 -2.000000 90.497604
v 56.875076 -2.000000 112.785141
v 54.266678 -2.000000 112.785141
v 56.875076 -2.000000 119.750000
v 81.891541 -1.999999 83.532753
v 88.856400 -1.999999 83.532753
v 88.856392 -1.999999 90.497604
v 73.392975 -1.999999 137.712738
v 65.789162 -1.999999 98.158951
v 72.754028 -1.999999 98.158951
v 72.754028 -1.999999 105.123810
v 81.891541 -1.999999 112.785141
v 88.856392 -1.999999 112.785141
v 88.856392 -1.999999 119.750000
v 66.428123 -1.999999 130.747894
v 73.392975 -1.999999 130.747894
vn -0.0000 1.0000 -0.0000
vn -0.0000 -0.0000 1.0000
vn -1.0000 -0.0000 -0.0000
vt 0.428344 0.430507
vt 0.397925 0.479198
vt 0.345065 0.430507
vt 0.451529 0.551073
vt 0.336382 0.571667
vt 0.428344 0.551073
vt 0.397925 0.502383
vt 0.345065 0.551073
vt 0.374740 0.502383
vt 0.666561 0.311260
vt 0.335423 0.297881
vt 0.666561 0.297881
vt 0.389168 0.502304
vt 0.397828 0.484101
vt 0.397828 0.502304
vt 0.389204 0.502236
vt 0.397864 0.484032
vt 0.397864 0.502236
vt 0.420989 0.484032
vt 0.420989 0.502236
vt 0.420953 0.484100
vt 0.420953 0.502304
vt 0.397930 0.484100
vt 0.374805 0.502303
vt 0.374805 0.484100
vt 0.421055 0.484100
vt 0.397930 0.502303
vt 0.397930 0.484100
vt 0.397930 0.484100
vt 0.374805 0.502303
vt 0.421055 0.484100
vt 0.397930 0.502303
vt 0.397930 0.502303
vt 0.421055 0.484100
vt 0.421055 0.502303
vt 0.397930 0.502303
vt 0.374805 0.502303
vt 0.428344 0.453693
vt 0.374740 0.479198
vt 0.345065 0.453693
vt 0.376867 0.393896
vt 0.400052 0.393896
vt 0.546106 0.571667
vt 0.376867 0.370710
vt 0.336382 0.430507
vt 0.336382 0.331981
vt 0.665949 0.331981
vt 0.400052 0.370710
vt 0.665949 0.471798
vt 0.546106 0.471798
vt 0.451529 0.430507
vt 0.451530 0.527888
vt 0.428344 0.527888
vt 0.451530 0.453693
vt 0.336382 0.551073
vt 0.345065 0.527888
vt 0.336382 0.527888
vt 0.336382 0.453693
vt 0.335423 0.311260
vt 0.389168 0.484101
vt 0.389204 0.484032
vt 0.421055 0.502303
vt 0.374805 0.484100
s 0
usemtl lvl1
f 74/74/25 67/75/25 73/76/25
f 56/77/25 50/78/25 55/79/25
f 65/80/25 60/81/25 64/82/25
f 49/83/26 52/84/26 48/85/26
f 61/86/26 79/87/26 60/88/26
f 70/89/26 82/90/26 68/91/26
f 68/91/27 84/92/27 73/93/27
f 60/88/27 81/94/27 63/95/27
f 77/96/27 88/97/27 59/98/27
f 64/99/26 90/100/26 65/101/26
f 56/102/27 87/103/27 57/98/27
f 76/104/26 96/105/26 77/96/26
f 65/101/27 91/97/27 67/98/27
f 71/106/27 94/107/27 75/108/27
f 55/99/26 86/109/26 56/102/26
f 69/110/26 93/102/26 71/106/26
f 74/74/25 69/111/25 67/75/25
f 67/75/25 66/112/25 73/76/25
f 66/112/25 68/113/25 73/76/25
f 73/76/25 76/114/25 74/74/25
f 76/114/25 77/115/25 74/74/25
f 56/77/25 51/116/25 50/78/25
f 78/117/25 76/114/25 72/118/25
f 76/114/25 73/76/25 72/118/25
f 72/118/25 53/119/25 78/117/25
f 53/119/25 49/120/25 59/121/25
f 49/120/25 47/122/25 54/123/25
f 59/121/25 49/120/25 75/124/25
f 54/123/25 51/116/25 57/125/25
f 51/116/25 56/77/25 57/125/25
f 74/74/25 77/115/25 75/124/25
f 77/115/25 59/121/25 75/124/25
f 59/121/25 78/117/25 53/119/25
f 58/126/25 55/79/25 65/80/25
f 55/79/25 50/78/25 60/81/25
f 54/123/25 57/125/25 71/127/25
f 57/125/25 58/126/25 71/127/25
f 75/124/25 49/120/25 54/123/25
f 67/75/25 69/111/25 65/80/25
f 69/111/25 71/127/25 58/126/25
f 65/80/25 69/111/25 58/126/25
f 71/127/25 75/124/25 54/123/25
f 55/79/25 60/81/25 65/80/25
f 50/78/25 61/128/25 60/81/25
f 63/129/25 62/130/25 64/82/25
f 62/130/25 70/131/25 66/112/25
f 62/130/25 66/112/25 64/82/25
f 70/131/25 68/113/25 66/112/25
f 60/81/25 63/129/25 64/82/25
f 49/83/26 53/132/26 52/84/26
f 61/86/26 80/133/26 79/87/26
f 70/89/26 83/134/26 82/90/26
f 68/91/27 82/90/27 84/92/27
f 60/88/27 79/87/27 81/94/27
f 77/96/27 96/105/27 88/97/27
f 64/99/26 89/135/26 90/100/26
f 56/102/27 86/109/27 87/103/27
f 76/104/26 95/135/26 96/105/26
f 65/101/27 90/100/27 91/97/27
f 71/106/27 93/102/27 94/107/27
f 55/99/26 85/135/26 86/109/26
f 69/110/26 92/136/26 93/102/26
