# Blender 4.0.2
# www.blender.org
mtllib lvl_2-cnk_3.mtl
o Agua
v 5.504400 2.197381 146.131470
v 47.068535 2.623411 146.557510
v 5.504400 1.227557 112.859375
v 45.919765 1.412057 112.859375
v 5.504400 -2.000000 148.500000
v 49.500000 -2.000000 148.500000
v 49.500000 -2.000000 112.859375
v 5.504400 1.182556 121.769531
v 5.504400 2.866847 130.679688
v 5.504400 1.201506 139.589844
v 16.503300 1.975826 145.909927
v 27.242079 2.373743 145.343643
v 38.501099 1.933813 145.867905
v 47.392998 2.300298 139.631088
v 46.407009 1.899299 130.679688
v 46.487526 1.979819 121.769531
v 38.501099 1.486352 112.859375
v 27.502199 1.519466 112.859375
v 16.503300 1.140628 112.859375
v 16.503300 1.213048 139.589844
v 16.503300 2.459445 130.679688
v 16.503300 2.560666 121.769531
v 27.502199 2.678824 139.589844
v 27.502199 2.517153 130.679688
v 27.502199 0.927853 121.769531
v 38.501099 2.362215 139.589844
v 38.501099 1.555626 130.679688
v 38.501099 3.098768 121.769531
v 16.503300 -2.000000 148.500000
v 27.502199 -2.000000 148.500000
v 38.501099 -2.000000 148.500000
v 49.500000 -2.000000 139.589844
v 49.500000 -2.000000 130.679688
v 49.500000 -2.000000 121.769531
v 48.686638 0.350367 112.854980
v 49.256470 0.689723 148.150101
v 5.508961 0.419748 147.920151
v 49.239471 0.551770 139.579819
v 48.817673 -0.066770 130.216309
v 47.871891 0.778807 122.227913
v 16.500736 0.362086 147.815262
v 27.345978 0.164236 147.741241
v 38.356632 0.176830 147.745285
vn 0.0766 0.9894 -0.1235
vn 0.9036 0.4274 0.0302
vn -0.0232 0.2195 0.9753
vn -0.0584 0.9953 -0.0768
vn 0.0569 0.9973 -0.0464
vn -0.0966 0.9937 -0.0569
vn 0.0081 0.9907 -0.1355
vn 0.0178 0.9868 0.1612
vn -0.0439 0.9951 -0.0884
vn -0.0864 0.9955 -0.0396
vn -0.0690 0.9958 0.0606
vn 0.0712 0.9940 -0.0830
vn 0.0325 0.9976 0.0615
vn 0.0579 0.9969 -0.0542
vn -0.0549 0.9985 -0.0026
vn -0.0362 0.9993 0.0071
vn -0.0166 0.9976 -0.0665
vn 0.0485 0.9947 0.0908
vn 0.6407 0.7677 0.0093
vn 0.6483 0.7558 -0.0919
vn 0.6759 0.7370 -0.0085
vn 0.0053 0.2557 0.9668
vn -0.0021 0.7331 0.6802
vn 0.0128 0.7476 0.6640
vn 0.0194 0.7365 0.6762
vn 0.0060 0.3040 0.9526
vn -0.0004 0.3292 0.9443
vn 0.9954 0.0956 -0.0017
vn 0.9788 0.2027 -0.0295
vn 0.8975 0.4401 -0.0282
vn -0.0827 0.6579 0.7485
vn 0.4817 0.8754 -0.0412
vt 0.523318 0.218795
vt 0.554528 0.216572
vt 0.555226 0.252182
vt 0.525235 0.254020
vt 0.567470 0.251500
vt 0.561519 0.214218
vt 0.574346 0.214890
vt 0.577823 0.250604
vt 0.554600 0.122590
vt 0.520521 0.119810
vt 0.521810 0.111559
vt 0.559302 0.116943
vt 0.392667 0.221860
vt 0.436574 0.221146
vt 0.437068 0.257045
vt 0.392667 0.257533
vt 0.480047 0.221185
vt 0.481279 0.256361
vt 0.394423 0.124884
vt 0.437267 0.126711
vt 0.436640 0.151300
vt 0.393885 0.150654
vt 0.436558 0.186194
vt 0.393321 0.186064
vt 0.478540 0.130214
vt 0.479202 0.152006
vt 0.479493 0.186098
vt 0.520380 0.129200
vt 0.520126 0.151555
vt 0.521557 0.184398
vt 0.547816 0.128378
vt 0.551027 0.149582
vt 0.551152 0.182250
vt 0.563239 0.182853
vt 0.559764 0.148407
vt 0.437995 0.107503
vt 0.437575 0.117018
vt 0.394863 0.115093
vt 0.395315 0.105437
vt 0.479345 0.117876
vt 0.480340 0.109176
vt 0.568697 0.146828
vt 0.570978 0.180425
s 0
usemtl lvl2_water
f 28/1/1 16/2/1 4/3/1 17/4/1
f 35/5/2 40/6/2 34/7/2 7/8/2
f 36/9/3 43/10/3 31/11/3 6/12/3
f 8/13/4 22/14/4 19/15/4 3/16/4
f 22/14/5 25/17/5 18/18/5 19/15/5
f 25/17/6 28/1/6 17/4/6 18/18/6
f 1/19/7 11/20/7 20/21/7 10/22/7
f 10/22/8 20/21/8 21/23/8 9/24/8
f 9/24/9 21/23/9 22/14/9 8/13/9
f 11/20/10 12/25/10 23/26/10 20/21/10
f 20/21/11 23/26/11 24/27/11 21/23/11
f 21/23/12 24/27/12 25/17/12 22/14/12
f 12/25/13 13/28/13 26/29/13 23/26/13
f 23/26/14 26/29/14 27/30/14 24/27/14
f 24/27/15 27/30/15 28/1/15 25/17/15
f 13/28/16 2/31/16 14/32/16 26/29/16
f 26/29/17 14/32/17 15/33/17 27/30/17
f 27/30/18 15/33/18 16/2/18 28/1/18
f 40/6/19 16/2/19 15/33/19 39/34/19
f 39/34/20 15/33/20 14/32/20 38/35/20
f 38/35/21 14/32/21 2/31/21 36/9/21
f 29/36/22 41/37/22 37/38/22 5/39/22
f 43/10/23 13/28/23 12/25/23 42/40/23
f 42/40/24 12/25/24 11/20/24 41/37/24
f 41/37/25 11/20/25 1/19/25 37/38/25
f 30/41/26 42/40/26 41/37/26 29/36/26
f 31/11/27 43/10/27 42/40/27 30/41/27
f 32/42/28 38/35/28 36/9/28 6/12/28
f 33/43/29 39/34/29 38/35/29 32/42/29
f 34/7/30 40/6/30 39/34/30 33/43/30
f 2/31/31 13/28/31 43/10/31 36/9/31
f 4/3/32 16/2/32 40/6/32 35/5/32
o Icosphere.010
v -30.675642 4.135592 91.302826
v -31.142220 1.962834 89.243538
v -31.846790 2.450788 89.585335
v -28.773476 3.307149 91.847992
v -29.333773 1.660058 89.704590
v -29.346764 2.229312 90.973625
v -30.770781 4.397614 90.899055
v -31.197418 5.273020 90.009323
v -29.394533 4.133211 91.285446
v -30.558605 5.748118 89.369347
v -30.300076 6.585465 88.854538
v -31.412170 2.057390 88.234177
v -31.886509 2.534590 87.656342
v -29.461237 1.646908 87.955078
v -31.019075 2.066765 86.789505
v -30.403933 2.404599 84.763718
v -32.081882 3.122385 85.878166
v -31.423161 5.605043 87.748505
v -31.858871 4.423038 86.326431
v -30.836729 7.122120 87.314346
v -31.216711 5.848959 85.325676
v -31.145163 6.374144 85.807617
v -28.037933 3.752811 91.348335
v -28.028118 1.635748 88.498619
v -26.859823 4.098847 90.369987
v -26.002783 2.491530 89.063705
v -26.491325 3.679388 89.946983
v -28.447544 4.486001 90.569427
v -27.537727 5.152038 88.420921
v -28.815596 6.336866 88.129005
v -26.827118 4.084896 88.934822
v -27.993502 1.541887 85.824516
v -28.238087 3.042678 86.162399
v -29.224302 1.886345 84.060684
v -28.718550 3.930552 84.928185
v -26.158773 2.008156 86.561523
v -26.700216 3.773483 86.042778
v -27.631445 4.015752 85.123657
v -27.732538 6.336896 86.478401
v -28.810871 6.971608 86.661285
v -29.772503 5.637929 84.898117
v -29.507244 6.345965 85.764961
v -26.600702 5.776639 86.858650
v -27.696772 4.406667 85.277840
vn -0.2893 -0.8543 0.4318
vn -0.4470 -0.4455 0.7757
vn 0.0050 0.7493 0.6622
vn -0.3177 -0.9149 -0.2491
vn -0.3316 -0.9385 -0.0963
vn -0.9414 -0.3371 -0.0080
vn -0.9516 0.3069 -0.0147
vn -0.9212 0.3871 -0.0395
vn 0.0640 -0.6086 0.7909
vn 0.8807 0.0930 -0.4645
vn 0.1836 -0.0103 -0.9830
vn 0.2578 -0.7757 -0.5761
vn 0.2731 0.6897 -0.6706
vn 0.4464 0.4786 -0.7561
vn 0.5564 -0.6905 0.4621
vn 0.6171 -0.6420 0.4550
vn 0.3823 0.5022 0.7757
vn 0.2463 0.8517 0.4626
vn -0.3301 0.4538 -0.8277
vn -0.3058 -0.9490 -0.0769
vn -0.0443 0.7428 -0.6681
vn -0.0485 0.8758 -0.4803
vn -0.6358 -0.7716 0.0202
vn -0.1863 -0.9825 -0.0022
vn 0.9388 0.3365 -0.0739
vn 0.2923 -0.9512 0.0992
vn -0.7945 0.4496 0.4082
vn -0.4695 0.8656 0.1740
vn 0.5581 0.7446 0.3662
vn 0.3975 0.7447 0.5362
vn -0.8630 0.1519 0.4817
vn 0.0113 0.6682 0.7439
vn -0.9733 0.1415 0.1806
vn -0.9364 0.2466 -0.2496
vn 0.2645 0.8517 0.4523
vn 0.8088 0.5879 0.0127
vn 0.6873 0.2643 -0.6766
vn 0.2402 0.1845 -0.9530
vn -0.9808 0.1782 0.0798
vn 0.9944 0.1002 0.0328
vn 0.1653 0.7037 0.6910
vn -0.2571 -0.1366 -0.9567
vn -0.0171 -0.9996 0.0245
vn 0.2294 0.9200 0.3177
vt 0.667119 0.876889
vt 0.668756 0.888077
vt 0.660652 0.890625
vt 0.658859 0.873809
vt 0.648724 0.892258
vt 0.651979 0.893325
vt 0.653611 0.897676
vt 0.661145 0.910534
vt 0.656408 0.909848
vt 0.649134 0.903671
vt 0.679614 0.885533
vt 0.691048 0.874508
vt 0.709086 0.865574
vt 0.710090 0.890104
vt 0.680098 0.863372
vt 0.675677 0.871545
vt 0.660881 0.934445
vt 0.673123 0.924671
vt 0.679155 0.932808
vt 0.667558 0.945353
vt 0.666865 0.917465
vt 0.669693 0.914144
vt 0.673083 0.916952
vt 0.674841 0.918274
vt 0.676218 0.892698
vt 0.673236 0.898500
vt 0.668726 0.898356
vt 0.665777 0.898096
vt 0.710090 0.910753
vt 0.687301 0.913090
vt 0.686566 0.905770
vt 0.689395 0.900067
vt 0.680301 0.905583
vt 0.680871 0.901307
vt 0.682812 0.909602
vt 0.678128 0.914893
vt 0.674962 0.913323
vt 0.672799 0.911057
vt 0.674555 0.909283
vt 0.674898 0.907138
vt 0.681647 0.909606
vt 0.658827 0.895458
vt 0.669842 0.904262
vt 0.669084 0.909000
vt 0.665483 0.911400
vt 0.660234 0.900005
vt 0.698451 0.925750
vt 0.671169 0.900748
vt 0.644841 0.902887
vt 0.647211 0.926571
s 0
usemtl lvl2
f 45/44/33 48/45/33 49/46/33 46/47/33
f 44/48/34 46/47/34 49/46/34 47/49/34
f 52/50/35 53/51/35 51/52/35 50/53/35
f 57/54/36 58/55/36 60/56/36 59/57/36
f 56/58/37 58/55/37 57/54/37 55/59/37
f 56/60/38 62/61/38 60/62/38 58/63/38
f 61/64/39 63/65/39 65/66/39 64/67/39
f 61/64/40 64/67/40 62/61/40
f 67/68/41 69/69/41 70/70/41 68/71/41
f 77/72/42 78/73/42 76/74/42 75/75/42
f 76/74/43 80/76/43 79/77/43 75/75/43
f 76/74/44 78/73/44 81/78/44 80/76/44
f 84/79/45 85/80/45 83/81/45 82/82/45
f 86/83/46 87/84/46 84/79/46 82/82/46
f 48/45/47 67/68/47 68/71/47 49/46/47
f 47/49/48 49/46/48 68/71/48 66/85/48
f 53/51/49 72/86/49 73/87/49 54/88/49
f 71/89/50 72/86/50 53/51/50 52/50/50
f 60/62/51 78/73/51 77/72/51 59/90/51
f 57/54/52 59/57/52 77/72/52 75/75/52
f 65/66/53 85/80/53 84/79/53 64/67/53
f 83/81/54 85/80/54 65/66/54 63/65/54
f 45/44/55 46/47/55 56/58/55 55/59/55
f 45/44/56 55/59/56 57/54/56 48/45/56
f 79/77/57 80/76/57 70/70/57 69/69/57
f 67/68/58 75/75/58 79/77/58 69/69/58
f 53/51/59 54/88/59 63/65/59 61/64/59
f 53/51/60 61/64/60 51/52/60
f 82/82/61 83/81/61 73/87/61 72/86/61
f 74/91/62 86/83/62 82/82/62 72/86/62
f 44/92/63 50/53/63 51/52/63 46/93/63
f 44/48/64 47/49/64 52/50/64 50/53/64
f 56/60/65 61/64/65 62/61/65
f 62/61/66 64/67/66 60/62/66
f 68/71/67 72/86/67 71/89/67 66/85/67
f 68/71/68 70/70/68 74/91/68 72/86/68
f 81/78/69 87/84/69 86/83/69 80/76/69
f 84/79/70 87/84/70 81/78/70 78/73/70
f 46/93/71 51/52/71 61/64/71 56/60/71
f 80/76/72 86/83/72 74/91/72 70/70/72
f 47/49/73 66/85/73 71/89/73 52/50/73
f 64/67/74 84/79/74 78/73/74 60/62/74
f 48/45/75 57/54/75 75/75/75 67/68/75
f 73/87/76 83/81/76 63/65/76 54/88/76
o Icosphere.011
v -17.271482 4.135592 88.370430
v -15.746634 1.962834 86.909882
v -16.402489 2.450788 86.481979
v -16.759092 3.307149 90.281685
v -15.210410 1.660058 88.697479
v -16.304882 2.229312 89.339951
v -16.974382 4.397614 88.080917
v -16.431467 5.273020 87.256973
v -16.596762 4.133211 89.459595
v -15.553887 5.748118 87.474930
v -14.979460 6.585465 87.431389
v -15.020473 2.057390 86.158623
v -14.769478 2.534590 85.454430
v -13.776439 1.646908 87.687157
v -13.579692 2.066765 85.751518
v -11.526433 2.404599 85.235435
v -13.345905 3.122385 84.371132
v -14.609831 5.605043 85.899063
v -13.615290 4.423038 84.793167
v -13.935651 7.122120 86.178131
v -12.426739 5.848959 84.828178
v -12.802990 6.374144 85.137726
v -15.951971 3.752811 90.654823
v -13.504230 1.635748 89.195526
v -14.506592 4.098847 91.160774
v -12.945480 2.491530 91.222618
v -13.954216 3.679388 91.258774
v -15.495279 4.486001 89.902550
v -13.185061 5.152038 89.575851
v -13.592991 6.336866 88.330154
v -13.259569 4.084896 90.449646
v -11.194252 1.541887 87.847931
v -11.609844 3.042678 87.812302
v -10.316257 1.886345 85.884483
v -10.799374 3.930552 86.764801
v -10.881035 2.008156 89.800186
v -10.715247 3.773483 89.068909
v -10.407021 4.015752 87.797302
v -11.620331 6.336896 88.408394
v -12.332479 6.971608 87.578278
v -11.316427 5.637929 85.845901
v -11.922836 6.345965 86.519730
v -11.363333 5.776639 89.574409
v -10.572826 4.406667 87.820717
vn -0.5191 -0.8543 -0.0256
vn -0.8951 -0.4455 0.0164
vn -0.5651 0.7493 0.3453
vn 0.0498 -0.9149 -0.4006
vn -0.0882 -0.9385 -0.3339
vn -0.4780 -0.3371 -0.8111
vn -0.4775 0.3069 -0.8233
vn -0.4406 0.3871 -0.8100
vn -0.6450 -0.6086 0.4622
vn 0.8517 0.0930 0.5157
vn 0.9371 -0.0103 -0.3489
vn 0.6266 -0.7757 -0.0758
vn 0.7155 0.6897 -0.1113
vn 0.8780 0.4786 -0.0068
vn -0.1095 -0.6905 0.7150
vn -0.0722 -0.6420 0.7633
vn -0.4679 0.5022 0.7272
vn -0.2697 0.8517 0.4493
vn 0.5394 0.4538 -0.7093
vn -0.0915 -0.9490 -0.3017
vn 0.5499 0.7428 -0.3820
vn 0.3867 0.8758 -0.2889
vn -0.3447 -0.7716 -0.5346
vn -0.0941 -0.9825 -0.1608
vn 0.5469 0.3365 0.7666
vn 0.0655 -0.9512 0.3017
vn -0.7591 0.4496 -0.4708
vn -0.3909 0.8656 -0.3128
vn -0.0265 0.7446 0.6670
vn -0.2548 0.7447 0.6169
vn -0.8574 0.1519 -0.4917
vn -0.6318 0.6682 0.3929
vn -0.6561 0.1415 -0.7413
vn -0.2684 0.2466 -0.9312
vn -0.2515 0.8517 0.4597
vn 0.4057 0.5879 0.6999
vn 0.9339 0.2643 0.2407
vn 0.9406 0.1845 -0.2850
vn -0.5735 0.1782 -0.7996
vn 0.4840 0.1002 0.8693
vn -0.5072 0.7037 0.4976
vn 0.6876 -0.1366 -0.7131
vn -0.0298 -0.9996 -0.0020
vn -0.1542 0.9200 0.3603
vt 0.667119 0.876889
vt 0.668756 0.888077
vt 0.660652 0.890625
vt 0.658859 0.873809
vt 0.648724 0.892258
vt 0.651979 0.893325
vt 0.653611 0.897676
vt 0.661145 0.910534
vt 0.656408 0.909848
vt 0.649134 0.903671
vt 0.679614 0.885533
vt 0.691048 0.874508
vt 0.709086 0.865574
vt 0.710090 0.890104
vt 0.680098 0.863372
vt 0.675677 0.871545
vt 0.660881 0.934445
vt 0.673123 0.924671
vt 0.679155 0.932808
vt 0.667558 0.945353
vt 0.666865 0.917465
vt 0.669693 0.914144
vt 0.673083 0.916952
vt 0.674841 0.918274
vt 0.676218 0.892698
vt 0.673236 0.898500
vt 0.668726 0.898356
vt 0.665777 0.898096
vt 0.710090 0.910753
vt 0.687301 0.913090
vt 0.686566 0.905770
vt 0.689395 0.900067
vt 0.680301 0.905583
vt 0.680871 0.901307
vt 0.682812 0.909602
vt 0.678128 0.914893
vt 0.674962 0.913323
vt 0.672799 0.911057
vt 0.674555 0.909283
vt 0.674898 0.907138
vt 0.681647 0.909606
vt 0.658827 0.895458
vt 0.669842 0.904262
vt 0.669084 0.909000
vt 0.665483 0.911400
vt 0.660234 0.900005
vt 0.698451 0.925750
vt 0.671169 0.900748
vt 0.644841 0.902887
vt 0.647211 0.926571
s 0
usemtl lvl2
f 89/94/77 92/95/77 93/96/77 90/97/77
f 88/98/78 90/97/78 93/96/78 91/99/78
f 96/100/79 97/101/79 95/102/79 94/103/79
f 101/104/80 102/105/80 104/106/80 103/107/80
f 100/108/81 102/105/81 101/104/81 99/109/81
f 100/110/82 106/111/82 104/112/82 102/113/82
f 105/114/83 107/115/83 109/116/83 108/117/83
f 105/114/84 108/117/84 106/111/84
f 111/118/85 113/119/85 114/120/85 112/121/85
f 121/122/86 122/123/86 120/124/86 119/125/86
f 120/124/87 124/126/87 123/127/87 119/125/87
f 120/124/88 122/123/88 125/128/88 124/126/88
f 128/129/89 129/130/89 127/131/89 126/132/89
f 130/133/90 131/134/90 128/129/90 126/132/90
f 92/95/91 111/118/91 112/121/91 93/96/91
f 91/99/92 93/96/92 112/121/92 110/135/92
f 97/101/93 116/136/93 117/137/93 98/138/93
f 115/139/94 116/136/94 97/101/94 96/100/94
f 104/112/95 122/123/95 121/122/95 103/140/95
f 101/104/96 103/107/96 121/122/96 119/125/96
f 109/116/97 129/130/97 128/129/97 108/117/97
f 127/131/98 129/130/98 109/116/98 107/115/98
f 89/94/99 90/97/99 100/108/99 99/109/99
f 89/94/100 99/109/100 101/104/100 92/95/100
f 123/127/101 124/126/101 114/120/101 113/119/101
f 111/118/102 119/125/102 123/127/102 113/119/102
f 97/101/103 98/138/103 107/115/103 105/114/103
f 97/101/104 105/114/104 95/102/104
f 126/132/105 127/131/105 117/137/105 116/136/105
f 118/141/106 130/133/106 126/132/106 116/136/106
f 88/142/107 94/103/107 95/102/107 90/143/107
f 88/98/108 91/99/108 96/100/108 94/103/108
f 100/110/109 105/114/109 106/111/109
f 106/111/110 108/117/110 104/112/110
f 112/121/111 116/136/111 115/139/111 110/135/111
f 112/121/112 114/120/112 118/141/112 116/136/112
f 125/128/113 131/134/113 130/133/113 124/126/113
f 128/129/114 131/134/114 125/128/114 122/123/114
f 90/143/115 95/102/115 105/114/115 100/110/115
f 124/126/116 130/133/116 118/141/116 114/120/116
f 91/99/117 110/135/117 115/139/117 96/100/117
f 108/117/118 128/129/118 122/123/118 104/112/118
f 92/95/119 101/104/119 119/125/119 111/118/119
f 117/137/120 127/131/120 107/115/120 98/138/120
o chunk.005
v -49.500000 -2.000000 148.500000
v 49.500000 -2.000000 148.500000
v 49.500000 2.000000 73.500008
v 49.500000 29.000000 49.500000
v -40.498878 2.000000 73.500008
v -49.500000 20.000000 49.500000
v -49.500000 11.000000 121.500000
v -14.629056 20.000000 49.500000
v -5.639997 29.000000 49.500000
v -40.498878 2.000000 103.500000
v -49.499992 11.000000 73.500000
v -49.500000 11.000000 104.639999
v -48.359856 9.860000 103.500000
v 5.360000 2.000000 103.500000
v 6.500000 2.000000 104.639999
v 5.360000 9.860000 103.500000
v 5.360000 11.000000 104.639999
v 6.500000 9.860000 104.639999
v -14.156446 18.860001 73.500000
v -14.629056 20.000000 72.360001
v -5.167389 27.860001 73.500000
v -5.639999 29.000000 72.360001
v 49.500000 29.000000 72.360001
v 49.500000 27.860001 73.500000
v -49.500000 18.860001 73.500000
v -49.500000 20.000000 72.360001
v -49.500000 18.860001 148.500000
v -49.500000 20.000000 147.360001
v -49.500000 20.000000 122.639999
v -49.500000 18.860001 121.500000
v -31.500000 20.000000 147.360001
v -31.972828 18.860001 148.500000
v -24.127491 11.000000 121.500000
v -22.516790 11.000000 122.639999
v -31.972828 18.860001 121.500000
v -31.500000 20.000000 122.639999
v 5.360000 11.000000 147.360001
v 5.504400 9.860000 148.500000
v 6.500000 9.860000 147.360001
v -22.516790 9.860000 148.500000
v -22.516790 11.000000 147.360001
v 49.500000 2.000000 112.859375
v 6.500000 2.000000 112.859375
v 49.500000 -2.000000 112.859375
v 6.500000 -2.000000 147.360001
v 6.500000 -2.000000 112.859375
v 5.504400 -2.000000 148.500000
vn 0.5295 0.5424 0.6522
vn -0.0000 1.0000 -0.0000
vn -0.0000 -0.0000 1.0000
vn -0.0000 -0.0000 -1.0000
vn 0.7078 0.7064 -0.0000
vn -0.7075 0.7067 -0.0000
vn 0.5773 0.5774 -0.5773
vn 0.7071 -0.0000 -0.7071
vn 1.0000 -0.0000 -0.0000
vn -0.5003 0.4997 0.7071
vn -0.0000 0.7071 0.7071
vn 0.5005 0.4995 -0.7071
vn -0.0000 0.7071 -0.7071
vn 0.7071 0.7071 -0.0000
vn 0.7071 0.7072 -0.0000
vn 0.6016 0.6016 0.5254
vn 0.7532 -0.0000 0.6578
vt 0.410185 0.366619
vt 0.381990 0.366619
vt 0.380506 0.363041
vt 0.410185 0.363041
vt 0.381990 0.444207
vt 0.325494 0.444207
vt 0.325494 0.366619
vt 0.636221 0.673768
vt 0.463155 0.673768
vt 0.463155 0.602018
vt 0.636221 0.602018
vt 0.898173 0.975458
vt 0.898173 0.803884
vt 0.926420 0.775671
vt 0.926420 0.664745
vt 0.951088 0.664745
vt 0.979335 0.692995
vt 0.979335 0.975458
vt 0.090773 0.162953
vt 0.090773 0.187426
vt 0.036201 0.187426
vt 0.011774 0.162953
vt 0.434942 0.673768
vt 0.325494 0.673768
vt 0.325494 0.602018
vt 0.434942 0.602018
vt 0.303463 0.250217
vt 0.328185 0.274937
vt 0.159238 0.274937
vt 0.159238 0.250217
vt 0.410185 0.444207
vt 0.497681 0.504281
vt 0.497681 0.500703
vt 0.501259 0.500703
vt 0.154167 0.274937
vt 0.154167 0.250217
vt 0.019125 0.274968
vt 0.019125 0.237489
vt 0.128151 0.237489
vt 0.128151 0.250129
vt 0.154125 0.250129
vt 0.154125 0.274968
vt 0.801491 0.017969
vt 0.801491 0.055065
vt 0.713845 0.055065
vt 0.684268 0.083215
vt 0.629446 0.083215
vt 0.629446 0.017969
vt 0.436425 0.598440
vt 0.464639 0.598440
vt 0.636221 0.598440
vt 0.405130 0.447785
vt 0.380506 0.447785
vt 0.325494 0.363041
vt 0.325494 0.500703
vt 0.329073 0.504281
vt 0.325494 0.598440
vt 0.325494 0.447785
vt 0.497681 0.366619
vt 0.501259 0.366619
vt 0.353746 0.598440
vt 0.353746 0.504281
vt 0.498134 0.363041
vt 0.636445 0.598553
vt 0.353898 0.598553
vt 0.353898 0.504370
vt 0.497870 0.504370
vt 0.501449 0.500791
vt 0.501449 0.474987
vt 0.636445 0.474987
vt 0.501449 0.366674
vt 0.498323 0.363095
vt 0.636445 0.363095
vt 0.014342 0.274968
vt 0.014342 0.237489
vt 0.264556 0.250121
vt 0.128189 0.250121
vt 0.128189 0.237436
vt 0.264556 0.237436
s 0
usemtl lvl2
f 172/144/121 162/145/121 163/146/121 171/147/121
f 167/148/122 160/149/122 159/150/122 162/145/122
f 135/151/122 140/152/122 153/153/122 154/154/122
f 155/155/123 152/156/123 150/157/123 156/158/123 142/159/123 136/160/123 134/161/123
f 138/162/124 161/163/124 166/164/124 164/165/124
f 139/166/122 137/167/122 157/168/122 151/169/122
f 141/170/124 144/171/124 147/172/124 145/173/124
f 165/174/125 167/148/125 162/145/125 172/144/125
f 151/169/126 153/153/126 140/152/126 139/166/126
f 147/175/127 148/176/127 149/177/127
f 149/178/128 146/179/128 145/173/128 147/172/128
f 170/180/129 176/181/129 177/182/129 174/183/129 146/184/129 149/185/129
f 178/186/123 169/187/123 171/188/123 163/189/123 158/190/123 132/191/123
f 153/153/130 151/169/130 150/192/130 152/193/130
f 154/154/131 153/153/131 152/193/131 155/194/131
f 167/148/132 165/174/132 164/195/132 166/196/132
f 162/145/131 159/150/131 158/197/131 163/146/131
f 143/198/133 148/176/133 147/175/133 144/199/133
f 151/169/131 157/168/131 156/200/131 150/192/131
f 160/149/133 167/148/133 166/196/133 161/201/133
f 148/176/134 168/202/134 170/203/134 149/177/134
f 136/204/135 142/200/135 143/198/135 144/199/135 141/205/135
f 168/202/136 169/206/136 170/203/136
f 171/147/131 169/206/131 168/202/131 172/144/131
f 148/176/122 143/198/122 138/201/122 164/195/122 165/174/122 172/144/122 168/202/122
f 134/207/122 136/208/122 141/209/122 145/210/122 146/211/122 174/212/122 173/213/122
f 175/213/122 177/212/122 176/214/122 178/215/122 133/216/122
f 170/180/137 169/217/137 178/218/137 176/181/137
f 173/219/123 174/220/123 177/221/123 175/222/123
