# Blender 4.0.2
# www.blender.org
mtllib lvl_2-cnk_2.mtl
o Icosphere.007
v -94.195068 22.010590 131.612732
v -93.443588 19.837833 133.585953
v -92.794075 20.325787 133.148499
v -96.154991 21.182146 131.340424
v -95.298897 19.535057 133.383759
v -95.464462 20.104311 132.125504
v -94.044106 22.272612 131.999115
v -93.496613 23.148018 132.820023
v -95.461006 22.008209 131.810059
v -94.039093 23.623116 133.543457
v -94.222672 24.460464 134.089493
v -93.034401 19.932388 134.547333
v -92.483528 20.409588 135.052734
v -94.926712 19.521906 135.097961
v -93.220467 19.941763 136.032928
v -93.544670 20.279596 138.125076
v -92.040085 20.997383 136.785782
v -92.955231 23.480042 135.026642
v -92.323906 22.298037 136.373322
v -93.474792 24.997118 135.538940
v -92.818977 23.723957 137.454422
v -92.957573 24.249142 136.987335
v -96.812973 21.627810 131.938538
v -96.422020 19.510746 134.761322
v -97.841827 21.973845 133.072815
v -98.506683 20.366528 134.486618
v -98.147186 21.554386 133.543427
v -96.297920 22.361000 132.652115
v -96.896614 23.027037 134.907196
v -95.590393 24.211864 135.016541
v -97.672417 21.959894 134.498322
v -96.080307 19.416885 137.413727
v -95.885658 20.917675 137.044815
v -94.613731 19.761343 138.986984
v -95.236435 21.805550 138.199219
v -98.000435 19.883154 136.942017
v -97.391434 21.648481 137.379471
v -96.340225 21.890751 138.158539
v -96.430611 24.211895 136.803040
v -95.388710 24.846607 136.470352
v -94.188721 23.512928 138.080795
v -94.573227 24.220964 137.259857
v -97.604668 23.651636 136.585693
v -96.297226 22.281666 137.996704
vn 0.2257 -0.8543 -0.4682
vn 0.3334 -0.4455 -0.8308
vn -0.0980 0.7493 -0.6549
vn 0.3496 -0.9149 0.2019
vn 0.3419 -0.9385 0.0487
vn 0.9332 -0.3371 -0.1245
vn 0.9442 0.3069 -0.1193
vn 0.9176 0.3871 -0.0904
vn -0.1746 -0.6086 -0.7740
vn -0.8066 0.0930 0.5837
vn -0.0435 -0.0103 0.9990
vn -0.1742 -0.7757 0.6066
vn -0.1761 0.6897 0.7024
vn -0.3357 0.4786 0.8114
vn -0.6159 -0.6905 -0.3792
vn -0.6749 -0.6420 -0.3638
vn -0.4876 0.5022 -0.7142
vn -0.3088 0.8517 -0.4233
vn 0.4432 0.4538 0.7730
vn 0.3136 -0.9490 0.0332
vn 0.1378 0.7428 0.6552
vn 0.1155 0.8758 0.4687
vn 0.6266 -0.7716 -0.1094
vn 0.1848 -0.9825 -0.0241
vn -0.9190 0.3365 0.2052
vn -0.3033 -0.9512 -0.0571
vn 0.7292 0.4496 -0.5158
vn 0.4403 0.8656 -0.2383
vn -0.6040 0.7446 -0.2841
vn -0.4690 0.7447 -0.4749
vn 0.7867 0.1519 -0.5983
vn -0.1158 0.6682 -0.7350
vn 0.9383 0.1415 -0.3157
vn 0.9622 0.2466 0.1154
vn -0.3255 0.8517 -0.4106
vn -0.8026 0.5879 0.1011
vn -0.5853 0.2643 0.7665
vn -0.1038 0.1845 0.9773
vn 0.9598 0.1782 -0.2169
vn -0.9892 0.1002 0.1073
vn -0.2608 0.7037 -0.6609
vn 0.3891 -0.1366 0.9110
vn 0.0135 -0.9996 -0.0267
vn -0.2718 0.9200 -0.2823
vt 0.667119 0.876889
vt 0.668756 0.888077
vt 0.660652 0.890625
vt 0.658859 0.873809
vt 0.648724 0.892258
vt 0.651979 0.893325
vt 0.653611 0.897676
vt 0.661145 0.910534
vt 0.656408 0.909848
vt 0.649134 0.903671
vt 0.679614 0.885533
vt 0.691048 0.874508
vt 0.709086 0.865574
vt 0.710090 0.890104
vt 0.680098 0.863372
vt 0.675677 0.871545
vt 0.660881 0.934445
vt 0.673123 0.924671
vt 0.679155 0.932808
vt 0.667558 0.945353
vt 0.666865 0.917465
vt 0.669693 0.914144
vt 0.673083 0.916952
vt 0.674841 0.918274
vt 0.676218 0.892698
vt 0.673236 0.898500
vt 0.668726 0.898356
vt 0.665777 0.898096
vt 0.710090 0.910753
vt 0.687301 0.913090
vt 0.686566 0.905770
vt 0.689395 0.900067
vt 0.680301 0.905583
vt 0.680871 0.901307
vt 0.682812 0.909602
vt 0.678128 0.914893
vt 0.674962 0.913323
vt 0.672799 0.911057
vt 0.674555 0.909283
vt 0.674898 0.907138
vt 0.681647 0.909606
vt 0.658827 0.895458
vt 0.669842 0.904262
vt 0.669084 0.909000
vt 0.665483 0.911400
vt 0.660234 0.900005
vt 0.698451 0.925750
vt 0.671169 0.900748
vt 0.644841 0.902887
vt 0.647211 0.926571
s 0
usemtl lvl2
f 2/1/1 5/2/1 6/3/1 3/4/1
f 1/5/2 3/4/2 6/3/2 4/6/2
f 9/7/3 10/8/3 8/9/3 7/10/3
f 14/11/4 15/12/4 17/13/4 16/14/4
f 13/15/5 15/12/5 14/11/5 12/16/5
f 13/17/6 19/18/6 17/19/6 15/20/6
f 18/21/7 20/22/7 22/23/7 21/24/7
f 18/21/8 21/24/8 19/18/8
f 24/25/9 26/26/9 27/27/9 25/28/9
f 34/29/10 35/30/10 33/31/10 32/32/10
f 33/31/11 37/33/11 36/34/11 32/32/11
f 33/31/12 35/30/12 38/35/12 37/33/12
f 41/36/13 42/37/13 40/38/13 39/39/13
f 43/40/14 44/41/14 41/36/14 39/39/14
f 5/2/15 24/25/15 25/28/15 6/3/15
f 4/6/16 6/3/16 25/28/16 23/42/16
f 10/8/17 29/43/17 30/44/17 11/45/17
f 28/46/18 29/43/18 10/8/18 9/7/18
f 17/19/19 35/30/19 34/29/19 16/47/19
f 14/11/20 16/14/20 34/29/20 32/32/20
f 22/23/21 42/37/21 41/36/21 21/24/21
f 40/38/22 42/37/22 22/23/22 20/22/22
f 2/1/23 3/4/23 13/15/23 12/16/23
f 2/1/24 12/16/24 14/11/24 5/2/24
f 36/34/25 37/33/25 27/27/25 26/26/25
f 24/25/26 32/32/26 36/34/26 26/26/26
f 10/8/27 11/45/27 20/22/27 18/21/27
f 10/8/28 18/21/28 8/9/28
f 39/39/29 40/38/29 30/44/29 29/43/29
f 31/48/30 43/40/30 39/39/30 29/43/30
f 1/49/31 7/10/31 8/9/31 3/50/31
f 1/5/32 4/6/32 9/7/32 7/10/32
f 13/17/33 18/21/33 19/18/33
f 19/18/34 21/24/34 17/19/34
f 25/28/35 29/43/35 28/46/35 23/42/35
f 25/28/36 27/27/36 31/48/36 29/43/36
f 38/35/37 44/41/37 43/40/37 37/33/37
f 41/36/38 44/41/38 38/35/38 35/30/38
f 3/50/39 8/9/39 18/21/39 13/17/39
f 37/33/40 43/40/40 31/48/40 27/27/40
f 4/6/41 23/42/41 28/46/41 9/7/41
f 21/24/42 41/36/42 35/30/42 17/19/42
f 5/2/43 14/11/43 32/32/43 24/25/43
f 30/44/44 40/38/44 20/22/44 11/45/44
o Icosphere.008
v -73.134155 22.010590 134.495026
v -74.580475 19.837833 136.033386
v -73.903130 20.325787 136.426376
v -73.745872 21.182146 132.613220
v -75.209518 19.535057 134.276291
v -74.150177 20.104311 133.577423
v -73.415695 22.272612 134.799698
v -73.914749 23.148018 135.650925
v -73.864960 22.008209 133.442673
v -74.802536 23.623116 135.479187
v -75.373894 24.460464 135.552734
v -75.266327 19.932388 136.821609
v -75.480125 20.409588 137.537979
v -76.588654 19.521906 135.360275
v -76.683823 19.941763 137.303574
v -78.707260 20.279596 137.926392
v -76.845047 20.997383 138.694290
v -75.662819 23.480042 137.102310
v -76.598122 22.298037 138.258743
v -76.350685 24.997118 136.858917
v -77.786873 23.723957 138.285980
v -77.427338 24.249142 137.957169
v -74.571419 21.627810 132.282822
v -76.939430 19.510746 133.868225
v -76.041298 21.973845 131.853210
v -77.603500 20.366528 131.873154
v -76.598045 21.554386 131.784256
v -74.988113 22.361000 133.057968
v -77.278069 23.027037 133.505127
v -76.805504 24.211864 134.727768
v -77.249390 21.959894 132.628632
v -79.175713 19.416885 135.334869
v -78.758827 20.917675 135.348694
v -79.949745 19.761343 137.341568
v -79.513367 21.805550 136.437180
v -79.590675 19.883154 133.401688
v -79.717964 21.648481 134.140640
v -79.959221 21.890751 135.426636
v -78.779549 24.211895 134.752869
v -78.024933 24.846607 135.544586
v -78.948929 23.512928 137.327759
v -78.378616 24.220964 136.623123
v -79.097221 23.651636 133.601913
v -79.794861 22.281666 135.394562
vn 0.5198 -0.8543 -0.0016
vn 0.8930 -0.4455 -0.0632
vn 0.5462 0.7493 -0.3744
vn -0.0288 -0.9149 0.4027
vn 0.1056 -0.9385 0.3288
vn 0.5198 -0.3371 0.7850
vn 0.5200 0.3069 0.7971
vn 0.4824 0.3871 0.7858
vn 0.6199 -0.6086 -0.4953
vn -0.8775 0.0930 -0.4704
vn -0.9176 -0.0103 0.3975
vn -0.6217 -0.7757 0.1084
vn -0.7087 0.6897 0.1486
vn -0.8765 0.4786 0.0527
vn 0.0719 -0.6905 -0.7197
vn 0.0322 -0.6420 -0.7660
vn 0.4292 0.5022 -0.7507
vn 0.2458 0.8517 -0.4628
vn -0.5016 0.4538 0.7365
vn 0.1072 -0.9490 0.2965
vn -0.5291 0.7428 0.4103
vn -0.3711 0.8758 0.3088
vn 0.3722 -0.7716 0.5158
vn 0.1024 -0.9825 0.1557
vn -0.5862 0.3365 -0.7369
vn -0.0812 -0.9512 -0.2978
vn 0.7827 0.4496 0.4304
vn 0.4068 0.8656 0.2919
vn -0.0085 0.7446 -0.6674
vn 0.2222 0.7447 -0.6294
vn 0.8820 0.1519 0.4461
vn 0.6104 0.6682 -0.4254
vn 0.6940 0.1415 0.7059
vn 0.3168 0.2466 0.9159
vn 0.2271 0.8517 -0.4722
vn -0.4418 0.5879 -0.6777
vn -0.9452 0.2643 -0.1914
vn -0.9244 0.1845 0.3338
vn 0.6146 0.1782 0.7684
vn -0.5288 0.1002 -0.8428
vn 0.4804 0.7037 -0.5234
vn -0.6493 -0.1366 0.7481
vn 0.0299 -0.9996 0.0004
vn 0.1351 0.9200 -0.3678
vt 0.667119 0.876889
vt 0.668756 0.888077
vt 0.660652 0.890625
vt 0.658859 0.873809
vt 0.648724 0.892258
vt 0.651979 0.893325
vt 0.653611 0.897676
vt 0.661145 0.910534
vt 0.656408 0.909848
vt 0.649134 0.903671
vt 0.679614 0.885533
vt 0.691048 0.874508
vt 0.709086 0.865574
vt 0.710090 0.890104
vt 0.680098 0.863372
vt 0.675677 0.871545
vt 0.660881 0.934445
vt 0.673123 0.924671
vt 0.679155 0.932808
vt 0.667558 0.945353
vt 0.666865 0.917465
vt 0.669693 0.914144
vt 0.673083 0.916952
vt 0.674841 0.918274
vt 0.676218 0.892698
vt 0.673236 0.898500
vt 0.668726 0.898356
vt 0.665777 0.898096
vt 0.710090 0.910753
vt 0.687301 0.913090
vt 0.686566 0.905770
vt 0.689395 0.900067
vt 0.680301 0.905583
vt 0.680871 0.901307
vt 0.682812 0.909602
vt 0.678128 0.914893
vt 0.674962 0.913323
vt 0.672799 0.911057
vt 0.674555 0.909283
vt 0.674898 0.907138
vt 0.681647 0.909606
vt 0.658827 0.895458
vt 0.669842 0.904262
vt 0.669084 0.909000
vt 0.665483 0.911400
vt 0.660234 0.900005
vt 0.698451 0.925750
vt 0.671169 0.900748
vt 0.644841 0.902887
vt 0.647211 0.926571
s 0
usemtl lvl2
f 46/51/45 49/52/45 50/53/45 47/54/45
f 45/55/46 47/54/46 50/53/46 48/56/46
f 53/57/47 54/58/47 52/59/47 51/60/47
f 58/61/48 59/62/48 61/63/48 60/64/48
f 57/65/49 59/62/49 58/61/49 56/66/49
f 57/67/50 63/68/50 61/69/50 59/70/50
f 62/71/51 64/72/51 66/73/51 65/74/51
f 62/71/52 65/74/52 63/68/52
f 68/75/53 70/76/53 71/77/53 69/78/53
f 78/79/54 79/80/54 77/81/54 76/82/54
f 77/81/55 81/83/55 80/84/55 76/82/55
f 77/81/56 79/80/56 82/85/56 81/83/56
f 85/86/57 86/87/57 84/88/57 83/89/57
f 87/90/58 88/91/58 85/86/58 83/89/58
f 49/52/59 68/75/59 69/78/59 50/53/59
f 48/56/60 50/53/60 69/78/60 67/92/60
f 54/58/61 73/93/61 74/94/61 55/95/61
f 72/96/62 73/93/62 54/58/62 53/57/62
f 61/69/63 79/80/63 78/79/63 60/97/63
f 58/61/64 60/64/64 78/79/64 76/82/64
f 66/73/65 86/87/65 85/86/65 65/74/65
f 84/88/66 86/87/66 66/73/66 64/72/66
f 46/51/67 47/54/67 57/65/67 56/66/67
f 46/51/68 56/66/68 58/61/68 49/52/68
f 80/84/69 81/83/69 71/77/69 70/76/69
f 68/75/70 76/82/70 80/84/70 70/76/70
f 54/58/71 55/95/71 64/72/71 62/71/71
f 54/58/72 62/71/72 52/59/72
f 83/89/73 84/88/73 74/94/73 73/93/73
f 75/98/74 87/90/74 83/89/74 73/93/74
f 45/99/75 51/60/75 52/59/75 47/100/75
f 45/55/76 48/56/76 53/57/76 51/60/76
f 57/67/77 62/71/77 63/68/77
f 63/68/78 65/74/78 61/69/78
f 69/78/79 73/93/79 72/96/79 67/92/79
f 69/78/80 71/77/80 75/98/80 73/93/80
f 82/85/81 88/91/81 87/90/81 81/83/81
f 85/86/82 88/91/82 82/85/82 79/80/82
f 47/100/83 52/59/83 62/71/83 57/67/83
f 81/83/84 87/90/84 75/98/84 71/77/84
f 48/56/85 67/92/85 72/96/85 53/57/85
f 65/74/86 85/86/86 79/80/86 61/69/86
f 49/52/87 58/61/87 76/82/87 68/75/87
f 74/94/88 84/88/88 64/72/88 55/95/88
o Icosphere.009
v -54.170589 22.010590 138.949951
v -55.994862 19.837833 137.886749
v -56.225407 20.325787 138.635147
v -52.474606 21.182146 137.930603
v -54.424313 19.535057 136.878571
v -53.505054 20.104311 137.753555
v -54.530773 22.272612 138.744156
v -55.472450 23.148018 138.449387
v -53.309589 22.008209 138.001144
v -55.504829 23.623116 137.545731
v -55.705017 24.460464 137.005554
v -56.917171 19.932388 137.395798
v -57.663269 20.409588 137.348633
v -55.790752 19.521906 135.778625
v -57.705643 19.941763 136.123047
v -58.767685 20.279596 134.291580
v -59.096989 20.997383 136.278793
v -57.279865 23.480042 137.072601
v -58.617050 22.298037 136.421417
v -57.197441 24.997118 136.347626
v -58.911007 23.723957 135.269257
v -58.509743 24.249142 135.545609
v -52.338394 21.627810 137.051895
v -54.415852 19.510746 135.101212
v -52.250443 21.973845 135.523041
v -52.621296 20.366528 134.005356
v -52.308491 21.554386 134.965057
v -53.187405 22.361000 136.820251
v -54.138229 23.027037 134.689575
v -55.223228 24.211864 135.425064
v -53.277752 21.959894 134.520340
v -56.347954 19.416885 133.252167
v -56.267651 20.917675 133.661469
v -58.477348 19.761343 132.949371
v -57.497971 21.805550 133.171127
v -54.557659 19.883154 132.412964
v -55.306309 21.648481 132.455170
v -56.613613 21.890751 132.509384
v -55.691761 24.211895 133.507248
v -56.293427 24.846607 134.420624
v -58.238754 23.512928 133.921432
v -57.423882 24.220964 134.318619
v -54.641750 23.651636 132.938812
v -56.545403 22.281666 132.662308
vn 0.1185 -0.8543 0.5061
vn 0.2625 -0.4455 0.8559
vn 0.4877 0.7493 0.4480
vn -0.3988 -0.9149 0.0625
vn -0.2966 -0.9385 0.1768
vn -0.6479 -0.3371 0.6831
vn -0.6597 0.3069 0.6860
vn -0.6571 0.3871 0.6468
vn 0.6220 -0.6086 0.4926
vn 0.2610 0.0930 -0.9609
vn -0.5937 -0.0103 -0.8046
vn -0.2455 -0.7757 -0.5814
vn -0.3042 0.6897 -0.6571
vn -0.2485 0.4786 -0.8422
vn 0.7174 -0.6905 -0.0918
vn 0.7536 -0.6420 -0.1410
vn 0.8280 0.5022 0.2494
vn 0.5062 0.8517 0.1354
vn -0.8305 0.4538 -0.3230
vn -0.2648 -0.9490 0.1712
vn -0.5188 0.7428 -0.4232
vn -0.3844 0.8758 -0.2921
vn -0.4188 -0.7716 0.4787
vn -0.1286 -0.9825 0.1348
vn 0.5862 0.3365 -0.7370
vn 0.2719 -0.9512 -0.1461
vn -0.2433 0.4496 0.8594
vn -0.1929 0.8656 0.4620
vn 0.6484 0.7446 -0.1584
vn 0.6632 0.7447 0.0749
vn -0.2363 0.1519 0.9597
vn 0.5518 0.6682 0.4991
vn -0.5317 0.1415 0.8350
vn -0.8212 0.2466 0.5147
vn 0.5112 0.8517 0.1150
vn 0.5609 0.5879 -0.5829
vn -0.0261 0.2643 -0.9641
vn -0.5332 0.1845 -0.8256
vn -0.6105 0.1782 0.7717
vn 0.7022 0.1002 -0.7049
vn 0.6181 0.7037 0.3504
vn -0.8750 -0.1366 -0.4644
vn 0.0063 -0.9996 0.0292
vn 0.3888 0.9200 0.0489
vt 0.667119 0.876889
vt 0.668756 0.888077
vt 0.660652 0.890625
vt 0.658859 0.873809
vt 0.648724 0.892258
vt 0.651979 0.893325
vt 0.653611 0.897676
vt 0.661145 0.910534
vt 0.656408 0.909848
vt 0.649134 0.903671
vt 0.679614 0.885533
vt 0.691048 0.874508
vt 0.709086 0.865574
vt 0.710090 0.890104
vt 0.680098 0.863372
vt 0.675677 0.871545
vt 0.660881 0.934445
vt 0.673123 0.924671
vt 0.679155 0.932808
vt 0.667558 0.945353
vt 0.666865 0.917465
vt 0.669693 0.914144
vt 0.673083 0.916952
vt 0.674841 0.918274
vt 0.676218 0.892698
vt 0.673236 0.898500
vt 0.668726 0.898356
vt 0.665777 0.898096
vt 0.710090 0.910753
vt 0.687301 0.913090
vt 0.686566 0.905770
vt 0.689395 0.900067
vt 0.680301 0.905583
vt 0.680871 0.901307
vt 0.682812 0.909602
vt 0.678128 0.914893
vt 0.674962 0.913323
vt 0.672799 0.911057
vt 0.674555 0.909283
vt 0.674898 0.907138
vt 0.681647 0.909606
vt 0.658827 0.895458
vt 0.669842 0.904262
vt 0.669084 0.909000
vt 0.665483 0.911400
vt 0.660234 0.900005
vt 0.698451 0.925750
vt 0.671169 0.900748
vt 0.644841 0.902887
vt 0.647211 0.926571
s 0
usemtl lvl2
f 90/101/89 93/102/89 94/103/89 91/104/89
f 89/105/90 91/104/90 94/103/90 92/106/90
f 97/107/91 98/108/91 96/109/91 95/110/91
f 102/111/92 103/112/92 105/113/92 104/114/92
f 101/115/93 103/112/93 102/111/93 100/116/93
f 101/117/94 107/118/94 105/119/94 103/120/94
f 106/121/95 108/122/95 110/123/95 109/124/95
f 106/121/96 109/124/96 107/118/96
f 112/125/97 114/126/97 115/127/97 113/128/97
f 122/129/98 123/130/98 121/131/98 120/132/98
f 121/131/99 125/133/99 124/134/99 120/132/99
f 121/131/100 123/130/100 126/135/100 125/133/100
f 129/136/101 130/137/101 128/138/101 127/139/101
f 131/140/102 132/141/102 129/136/102 127/139/102
f 93/102/103 112/125/103 113/128/103 94/103/103
f 92/106/104 94/103/104 113/128/104 111/142/104
f 98/108/105 117/143/105 118/144/105 99/145/105
f 116/146/106 117/143/106 98/108/106 97/107/106
f 105/119/107 123/130/107 122/129/107 104/147/107
f 102/111/108 104/114/108 122/129/108 120/132/108
f 110/123/109 130/137/109 129/136/109 109/124/109
f 128/138/110 130/137/110 110/123/110 108/122/110
f 90/101/111 91/104/111 101/115/111 100/116/111
f 90/101/112 100/116/112 102/111/112 93/102/112
f 124/134/113 125/133/113 115/127/113 114/126/113
f 112/125/114 120/132/114 124/134/114 114/126/114
f 98/108/115 99/145/115 108/122/115 106/121/115
f 98/108/116 106/121/116 96/109/116
f 127/139/117 128/138/117 118/144/117 117/143/117
f 119/148/118 131/140/118 127/139/118 117/143/118
f 89/149/119 95/110/119 96/109/119 91/150/119
f 89/105/120 92/106/120 97/107/120 95/110/120
f 101/117/121 106/121/121 107/118/121
f 107/118/122 109/124/122 105/119/122
f 113/128/123 117/143/123 116/146/123 111/142/123
f 113/128/124 115/127/124 119/148/124 117/143/124
f 126/135/125 132/141/125 131/140/125 125/133/125
f 129/136/126 132/141/126 126/135/126 123/130/126
f 91/150/127 96/109/127 106/121/127 101/117/127
f 125/133/128 131/140/128 119/148/128 115/127/128
f 92/106/129 111/142/129 116/146/129 97/107/129
f 109/124/130 129/136/130 123/130/130 105/119/130
f 93/102/131 102/111/131 120/132/131 112/125/131
f 118/144/132 128/138/132 108/122/132 99/145/132
o Cube.001
v -148.500000 -2.000000 49.500000
v -49.500000 -2.000000 148.500000
v -49.500000 20.000000 49.500000
v -49.500000 11.000000 73.500000
v -148.500000 11.000000 49.500000
v -73.500000 11.000000 49.500000
v -49.500000 11.000000 121.500000
v -121.500000 11.000000 100.500000
v -147.360001 -2.000000 148.500000
v -148.500000 -2.000000 147.360001
v -49.500000 20.000000 72.360001
v -49.500000 18.860001 73.500000
v -72.360001 18.860001 73.500000
v -72.360001 20.000000 72.360001
v -73.500000 18.860001 72.360001
v -73.500000 18.860001 49.500000
v -72.360001 20.000000 49.500000
v -148.500000 11.000000 77.639999
v -147.360001 11.000000 76.500000
v -72.360001 11.000000 73.500000
v -73.500000 11.000000 72.360001
v -148.500000 9.860001 147.360001
v -147.360001 9.860001 148.500000
v -147.360001 11.000000 147.360001
v -148.500000 18.860001 112.027802
v -147.360001 20.000000 112.500000
v -148.500000 18.860001 77.639999
v -147.360001 20.000000 77.639999
v -147.360001 18.860001 76.500000
v -121.972137 18.860001 76.500000
v -121.500000 20.000000 77.639999
v -121.500000 11.000000 120.836601
v -121.332581 11.000000 121.500000
v -49.500000 20.000000 147.360001
v -49.500000 18.860001 148.500000
v -49.500000 18.860001 121.500000
v -49.500000 20.000000 122.639999
v -122.639999 20.000000 112.500000
v -121.500000 20.000000 110.727516
v -148.500000 9.860001 122.118896
v -147.360001 11.000000 122.639999
v -113.664963 11.000000 76.500000
v -112.052605 11.000000 77.639999
v -121.500000 18.387955 100.500000
v -121.500000 20.000000 99.360001
v -112.052605 11.000000 99.360001
v -113.664963 11.000000 100.500000
v -122.631966 11.000000 147.360001
v -121.332581 9.860001 148.500000
v -122.631966 18.700008 122.639999
v -121.332581 20.000000 122.645142
v -121.332581 18.700008 121.500000
v -121.333778 20.000000 147.360001
v -122.631966 18.701260 147.360001
v -121.332581 18.701260 148.500000
v -122.631966 11.000000 122.639999
vn -1.0000 -0.0000 -0.0000
vn 1.0000 -0.0000 -0.0000
vn -0.0000 -0.0000 1.0000
vn -0.0000 -0.0000 -1.0000
vn 0.6898 0.7240 -0.0000
vn -0.0008 0.6829 0.7305
vn -0.0000 1.0000 -0.0000
vn -0.5773 0.5774 0.5774
vn -0.5774 0.5773 0.5773
vn -0.5774 0.5774 -0.5773
vn -0.0000 0.7071 0.7071
vn -0.7071 0.7071 -0.0000
vn -0.0000 0.7071 -0.7071
vn -0.7071 -0.0000 0.7071
vn -0.6595 -0.0000 0.7517
vn -0.7197 0.5187 0.4615
vn 0.4888 0.5148 -0.7043
vn -0.7071 -0.0000 -0.7071
vn 0.4866 0.5132 0.7070
vn -0.0008 0.6836 -0.7299
vn -0.5499 0.5521 -0.6268
vn -0.5506 0.5504 0.6276
vn -0.7073 0.7069 -0.0000
vn -0.6595 -0.0000 -0.7517
vn 0.7226 0.5168 0.4591
vn -0.0000 0.7479 0.6638
vt 0.951102 0.587977
vt 0.926404 0.587977
vt 0.926404 0.516145
vt 0.951102 0.516145
vt 0.777174 0.957040
vt 0.772117 0.960616
vt 0.772117 0.924957
vt 0.800350 0.893245
vt 0.800350 0.957040
vt 0.951102 0.664876
vt 0.926404 0.664876
vt 0.926404 0.593043
vt 0.951102 0.593043
vt 0.116031 0.201641
vt 0.116031 0.226244
vt 0.036563 0.226244
vt 0.010560 0.201641
vt 0.129163 0.585446
vt 0.099511 0.585446
vt 0.099511 0.517275
vt 0.129163 0.517275
vt 0.325494 0.366619
vt 0.100033 0.366619
vt 0.100037 0.363041
vt 0.325494 0.363041
vt 0.800350 0.981619
vt 0.399124 0.058712
vt 0.399086 0.082782
vt 0.321824 0.082655
vt 0.321863 0.058589
vt 0.018346 0.585446
vt 0.018346 0.476033
vt 0.095933 0.476033
vt 0.099511 0.481596
vt 0.253745 0.673768
vt 0.253745 0.602018
vt 0.325494 0.602018
vt 0.325494 0.673768
vt 0.253745 0.598440
vt 0.250167 0.602018
vt 0.014768 0.366619
vt 0.018346 0.363041
vt 0.018346 0.366619
vt 0.014768 0.585446
vt 0.018346 0.589024
vt 0.325494 0.598440
vt 0.250167 0.673768
vt 0.014768 0.477515
vt 0.098029 0.589024
vt 0.323013 0.018028
vt 0.323013 0.055152
vt 0.317966 0.055152
vt 0.317966 0.018028
vt 0.404489 0.082790
vt 0.404533 0.055157
vt 0.018346 0.444207
vt 0.014768 0.445842
vt 0.100037 0.444191
vt 0.325494 0.444207
vt 0.124103 0.589024
vt 0.121077 0.201641
vt 0.121077 0.226244
vt 0.317928 0.018041
vt 0.317928 0.055165
vt 0.238919 0.055165
vt 0.207333 0.083336
vt 0.099694 0.083336
vt 0.099694 0.058733
vt 0.011611 0.058733
vt 0.011611 0.018041
vt 0.099511 0.513697
vt 0.124103 0.513697
vt 0.095959 0.366619
vt 0.629329 0.018028
vt 0.629330 0.083323
vt 0.404483 0.082826
vt 0.404483 0.055152
vt 0.325494 0.447785
vt 0.100037 0.447785
vt 0.315254 0.163303
vt 0.315216 0.187369
vt 0.090704 0.187513
vt 0.090743 0.162946
vt 0.095959 0.444207
vt 0.316422 0.082647
vt 0.316460 0.058580
vt 0.099511 0.449867
vt 0.014768 0.673768
s 0
usemtl lvl2
f 153/151/133 147/152/133 148/153/133 138/154/133
f 176/155/134 177/156/134 171/157/134 164/158/134 140/159/134
f 136/160/135 144/161/135 145/162/135 152/163/135
f 151/164/136 161/165/136 162/166/136 174/167/136
f 175/168/137 163/169/137 177/170/137 178/171/137
f 166/172/138 185/173/138 187/174/138 167/175/138
f 179/176/135 176/155/135 140/159/135
f 180/177/133 186/178/133 182/179/133 188/180/133
f 163/169/139 160/181/139 158/182/139 170/183/139 171/184/139
f 149/185/139 146/186/139 143/187/139 135/188/139
f 145/189/140 146/186/140 147/190/140
f 154/191/141 155/192/141 156/193/141
f 159/194/142 160/181/142 161/195/142
f 143/187/143 146/186/143 145/189/143 144/196/143
f 146/186/144 149/185/144 148/197/144 147/190/144
f 158/182/144 160/181/144 159/194/144 157/198/144
f 160/181/145 163/169/145 162/199/145 161/195/145
f 147/152/146 153/151/146 152/163/146 145/162/146
f 141/200/146 155/201/146 154/202/146 142/203/146
f 187/204/147 186/178/147 180/177/147 181/205/147
f 156/193/144 173/206/144 172/207/144 154/191/144
f 183/208/139 185/173/139 166/172/139 169/209/139
f 173/206/148 158/182/148 157/198/148 172/207/148
f 163/169/149 175/168/149 174/210/149 162/199/149
f 161/165/150 151/164/150 150/211/150 159/212/150
f 142/213/133 154/214/133 172/215/133 157/216/133 159/217/133 150/218/133 137/219/133 133/220/133
f 178/171/151 177/170/151 176/221/151 179/222/151
f 181/174/143 180/223/143 156/193/143 155/192/143
f 134/224/135 167/225/135 187/226/135 181/227/135 155/201/135 141/200/135
f 183/208/152 169/209/152 168/228/152 184/229/152
f 165/230/136 184/231/136 168/232/136 139/233/136
f 183/208/153 184/229/153 182/234/153
f 186/223/154 187/174/154 185/173/154
f 185/173/155 183/208/155 182/234/155 186/223/155
f 182/179/156 184/235/156 165/236/156 188/180/156
f 164/237/157 171/184/157 170/183/157 188/234/157
f 173/206/158 188/234/158 170/183/158 158/182/158
f 138/197/139 137/238/139 150/194/139 151/195/139 174/210/139 175/168/139 178/171/139 179/222/139 140/221/139 164/237/139 188/234/139 165/229/139 139/228/139 136/196/139 152/189/139 153/190/139
f 188/234/139 173/206/139 156/193/139 180/223/139
