# Blender 4.0.2
# www.blender.org
mtllib lvl_2-cnk_0.mtl
o Icosphere.014
v -14.519432 49.419731 -39.156460
v -14.366586 47.246975 -41.262402
v -15.140124 47.734928 -41.140423
v -12.858220 48.591290 -38.081371
v -12.770558 46.944199 -40.295063
v -13.152267 47.513451 -39.084717
v -14.492961 49.681751 -39.570442
v -14.642231 50.557159 -40.545818
v -13.288704 49.417351 -38.800301
v -13.844834 51.032257 -40.972214
v -13.447689 51.869606 -41.389511
v -14.331138 47.341530 -42.306641
v -14.616806 47.818729 -42.997494
v -12.383415 46.931046 -42.005951
v -13.534667 47.350906 -43.574406
v -12.356659 47.688740 -45.333527
v -14.286289 48.406525 -44.755577
v -14.200325 50.889183 -42.774494
v -14.203372 49.707180 -44.261810
v -13.512935 52.406261 -43.019218
v -13.297791 51.133099 -45.032394
v -13.369578 51.658283 -44.550495
v -12.009111 49.036949 -38.345367
v -11.170478 46.919888 -41.068913
v -10.597293 49.382988 -38.938560
v -9.397224 47.775669 -39.938923
v -10.121651 48.963528 -39.236027
v -12.174340 49.770142 -39.209763
v -10.678700 50.436176 -41.000549
v -11.816325 51.621006 -41.651680
v -10.148381 49.369034 -40.302105
v -10.359221 46.826027 -43.617218
v -10.691543 48.326817 -43.365128
v -11.023499 47.170483 -45.662880
v -10.792069 49.214691 -44.685741
v -8.818352 47.292297 -42.378212
v -9.185413 49.057621 -43.032066
v -9.808887 49.299892 -44.182396
v -10.299824 51.621037 -42.915695
v -11.384711 52.255749 -43.054508
v -11.791664 50.922070 -45.021202
v -11.790128 51.630104 -44.114681
v -9.327618 51.060780 -42.222542
v -9.916252 49.690807 -44.053898
vn -0.4580 -0.8149 0.3551
vn -0.6318 -0.4288 0.6458
vn -0.2301 0.7518 0.6179
vn -0.0525 -0.9736 -0.2221
vn -0.5176 -0.7890 -0.3310
vn -0.5245 -0.7729 -0.3570
vn -0.9182 0.1922 -0.3463
vn -0.8698 0.3871 -0.3059
vn -0.0870 -0.6400 0.7634
vn 0.9324 0.2503 -0.2606
vn 0.5575 0.2561 -0.7897
vn 0.4697 -0.7774 -0.4183
vn 0.4475 0.7044 -0.5509
vn 0.6757 0.4694 -0.5684
vn 0.4953 -0.7155 0.4927
vn 0.5155 -0.6550 0.5525
vn 0.2012 0.3588 0.9115
vn -0.0316 0.7982 0.6016
vn -0.0902 0.4661 -0.8801
vn -0.2229 -0.9501 -0.2181
vn 0.2070 0.6767 -0.7066
vn 0.0515 0.8513 -0.5221
vn -0.5417 -0.8353 -0.0940
vn -0.1684 -0.9852 -0.0305
vn 0.9494 0.2617 0.1735
vn 0.2862 -0.9247 0.2512
vn -0.8681 0.4782 0.1333
vn -0.4998 0.8656 0.0299
vn 0.4445 0.7198 0.5332
vn 0.3422 0.6277 0.6992
vn -0.9649 0.2453 0.0936
vn -0.1494 0.8398 0.5220
vn -0.9838 0.1415 -0.1104
vn -0.8233 0.2466 -0.5113
vn 0.0791 0.7676 0.6360
vn 0.7895 0.5587 0.2542
vn 0.8499 0.3599 -0.3848
vn 0.5265 0.1436 -0.8380
vn -0.9536 0.1484 -0.2620
vn 0.7775 0.5941 0.2065
vn -0.0886 0.6272 0.7738
vn -0.0064 -0.0987 -0.9951
vn -0.0129 -0.9999 0.0048
vn 0.1907 0.9346 0.3001
vn -0.3526 -0.8847 0.3049
vn -0.6644 -0.4542 0.5935
vn -0.0788 0.7359 0.6725
vn -0.4257 -0.7923 -0.4372
vn -0.1862 -0.9746 -0.1242
vn -0.9824 0.1178 -0.1453
vn -0.8944 0.3631 -0.2611
vn -0.2117 -0.5901 0.7791
vn 0.9918 -0.0577 -0.1143
vn 0.3297 -0.2668 -0.9056
vn 0.3438 -0.7670 -0.5418
vn 0.4667 0.6720 -0.5750
vn 0.6306 0.4834 -0.6072
vn 0.3184 -0.6614 0.6791
vn 0.4265 -0.6334 0.6457
vn 0.1127 0.5595 0.8212
vn 0.1679 0.8699 0.4638
vn -0.0527 0.4355 -0.8986
vn -0.3699 -0.9284 -0.0362
vn 0.1142 0.7828 -0.6116
vn 0.1332 0.8954 -0.4249
vn -0.6639 -0.7150 -0.2193
vn -0.1912 -0.9769 -0.0950
vn 0.8854 0.4048 0.2284
vn 0.2113 -0.9720 0.1031
vn -0.8854 0.4297 0.1770
vn 0.3976 0.7839 0.4770
vn 0.0992 0.8373 0.5377
vn -0.9608 0.1165 0.2516
vn -0.2276 0.5691 0.7902
vn 0.1403 0.8840 0.4460
vn 0.7207 0.6537 0.2306
vn 0.8540 0.2459 -0.4584
vn 0.3945 0.3829 -0.8353
vn -0.9656 0.2043 -0.1610
vn 0.9382 -0.0704 0.3390
vn -0.0035 0.7623 0.6472
vn 0.0568 -0.1604 -0.9854
vn -0.0302 -0.9992 0.0272
vn 0.0708 0.9004 0.4292
vt 0.667119 0.876889
vt 0.660652 0.890625
vt 0.658859 0.873809
vt 0.648724 0.892258
vt 0.651979 0.893325
vt 0.661145 0.910534
vt 0.649134 0.903671
vt 0.653611 0.897676
vt 0.691048 0.874508
vt 0.710090 0.890104
vt 0.679614 0.885533
vt 0.675677 0.871545
vt 0.680098 0.863372
vt 0.660881 0.934445
vt 0.679155 0.932808
vt 0.667558 0.945353
vt 0.666865 0.917465
vt 0.673083 0.916952
vt 0.674841 0.918274
vt 0.673123 0.924671
vt 0.676218 0.892698
vt 0.668726 0.898356
vt 0.665777 0.898096
vt 0.710090 0.910753
vt 0.686566 0.905770
vt 0.689395 0.900067
vt 0.680871 0.901307
vt 0.682812 0.909602
vt 0.680301 0.905583
vt 0.674962 0.913323
vt 0.674555 0.909283
vt 0.678128 0.914893
vt 0.681647 0.909606
vt 0.674898 0.907138
vt 0.668756 0.888077
vt 0.658827 0.895458
vt 0.669084 0.909000
vt 0.665483 0.911400
vt 0.660234 0.900005
vt 0.687301 0.913090
vt 0.698451 0.925750
vt 0.669693 0.914144
vt 0.672799 0.911057
vt 0.673236 0.898500
vt 0.656408 0.909848
vt 0.669842 0.904262
vt 0.671169 0.900748
vt 0.647211 0.926571
vt 0.644841 0.902887
vt 0.709086 0.865574
s 0
usemtl lvl2
f 2/1/1 6/2/1 3/3/1
f 1/4/2 6/2/2 4/5/2
f 10/6/3 7/7/3 9/8/3
f 15/9/4 16/10/4 14/11/4
f 15/9/5 12/12/5 13/13/5
f 13/14/6 17/15/6 15/16/6
f 18/17/7 22/18/7 21/19/7
f 18/17/8 21/19/8 19/20/8
f 24/21/9 27/22/9 25/23/9
f 34/24/10 33/25/10 32/26/10
f 33/25/11 36/27/11 32/26/11
f 33/25/12 38/28/12 37/29/12
f 42/30/13 39/31/13 41/32/13
f 44/33/14 39/31/14 43/34/14
f 5/35/15 25/23/15 6/2/15
f 6/2/16 23/36/16 4/5/16
f 10/6/17 30/37/17 11/38/17
f 28/39/18 10/6/18 9/8/18
f 35/40/19 16/41/19 17/15/19
f 16/10/20 32/26/20 14/11/20
f 42/30/21 21/19/21 22/18/21
f 42/30/22 20/42/22 40/43/22
f 3/3/23 12/12/23 2/1/23
f 2/1/24 14/11/24 5/35/24
f 37/29/25 26/44/25 36/27/25
f 24/21/26 36/27/26 26/44/26
f 11/38/27 18/17/27 10/6/27
f 10/6/28 18/17/28 8/45/28
f 39/31/29 30/37/29 29/46/29
f 43/34/30 29/46/30 31/47/30
f 7/7/31 3/48/31 1/49/31
f 1/4/32 9/8/32 7/7/32
f 13/14/33 18/17/33 19/20/33
f 19/20/34 21/19/34 17/15/34
f 25/23/35 28/39/35 23/36/35
f 25/23/36 31/47/36 29/46/36
f 44/33/37 37/29/37 38/28/37
f 44/33/38 35/40/38 41/32/38
f 3/48/39 18/17/39 13/14/39
f 37/29/40 31/47/40 27/22/40
f 23/36/41 9/8/41 4/5/41
f 41/32/42 17/15/42 21/19/42
f 14/11/43 24/21/43 5/35/43
f 30/37/44 20/42/44 11/38/44
f 2/1/45 5/35/45 6/2/45
f 1/4/46 3/3/46 6/2/46
f 10/6/47 8/45/47 7/7/47
f 15/9/48 17/50/48 16/10/48
f 15/9/49 14/11/49 12/12/49
f 13/14/50 19/20/50 17/15/50
f 18/17/51 20/42/51 22/18/51
f 24/21/52 26/44/52 27/22/52
f 34/24/53 35/40/53 33/25/53
f 33/25/54 37/29/54 36/27/54
f 33/25/55 35/40/55 38/28/55
f 42/30/56 40/43/56 39/31/56
f 44/33/57 41/32/57 39/31/57
f 5/35/58 24/21/58 25/23/58
f 6/2/59 25/23/59 23/36/59
f 10/6/60 29/46/60 30/37/60
f 28/39/61 29/46/61 10/6/61
f 35/40/62 34/24/62 16/41/62
f 16/10/63 34/24/63 32/26/63
f 42/30/64 41/32/64 21/19/64
f 42/30/65 22/18/65 20/42/65
f 3/3/66 13/13/66 12/12/66
f 2/1/67 12/12/67 14/11/67
f 37/29/68 27/22/68 26/44/68
f 24/21/69 32/26/69 36/27/69
f 11/38/70 20/42/70 18/17/70
f 39/31/71 40/43/71 30/37/71
f 43/34/72 39/31/72 29/46/72
f 7/7/73 8/45/73 3/48/73
f 1/4/74 4/5/74 9/8/74
f 25/23/75 29/46/75 28/39/75
f 25/23/76 27/22/76 31/47/76
f 44/33/77 43/34/77 37/29/77
f 44/33/78 38/28/78 35/40/78
f 3/48/79 8/45/79 18/17/79
f 37/29/80 43/34/80 31/47/80
f 23/36/81 28/39/81 9/8/81
f 41/32/82 35/40/82 17/15/82
f 14/11/83 32/26/83 24/21/83
f 30/37/84 40/43/84 20/42/84
o Icosphere.015
v -30.520145 49.419731 -45.254589
v -28.492001 47.246975 -44.667233
v -28.450485 47.734928 -45.449230
v -31.917126 48.591290 -43.853203
v -29.770033 46.944199 -43.307205
v -30.874567 47.513451 -43.932217
v -30.120712 49.681751 -45.142624
v -29.135614 50.557159 -45.085842
v -31.124405 49.417351 -44.124805
v -28.884327 51.032257 -44.217216
v -28.558718 51.869606 -43.741989
v -27.477951 47.341530 -44.415451
v -26.742800 47.818729 -44.551239
v -28.177021 46.931046 -42.572807
v -26.403484 47.350906 -43.372803
v -24.927727 47.688740 -41.854794
v -25.091854 48.406525 -43.862419
v -27.047518 50.889183 -44.190224
v -25.592072 49.707180 -43.883976
v -26.951059 52.406261 -43.466972
v -25.026606 51.133099 -42.837967
v -25.483051 51.658283 -43.008381
v -31.835436 49.036949 -42.967762
v -29.345770 46.919888 -41.581196
v -31.548740 49.382988 -41.463463
v -30.819746 47.775669 -40.081631
v -31.356665 48.963528 -40.936367
v -30.955576 49.770142 -42.949661
v -29.514887 50.436176 -41.114380
v -28.641459 51.621006 -42.091766
v -30.308327 49.369034 -40.740864
v -27.021820 46.826027 -40.257843
v -27.199308 48.326817 -40.635315
v -24.882751 47.170483 -40.482292
v -25.886650 49.214691 -40.459076
v -28.554113 47.292297 -39.008251
v -27.838234 49.057621 -39.231346
v -26.583412 49.299892 -39.602028
v -27.720364 51.621037 -40.345600
v -27.359024 52.255749 -41.377918
v -25.350697 50.922070 -41.367081
v -26.237724 51.630104 -41.554054
v -28.600500 51.060780 -39.538754
v -26.686783 49.690807 -39.733765
vn -0.2521 -0.8149 -0.5219
vn -0.5003 -0.4288 -0.7522
vn -0.5566 0.7518 -0.3536
vn 0.2282 -0.9736 -0.0051
vn 0.4314 -0.7890 -0.4374
vn 0.4583 -0.7729 -0.4388
vn 0.5296 0.1922 -0.8262
vn 0.4800 0.3871 -0.7872
vn -0.7286 -0.6400 -0.2438
vn 0.0611 0.2503 0.9663
vn 0.6565 0.2561 0.7095
vn 0.3115 -0.7774 0.5464
vn 0.4458 0.7044 0.5523
vn 0.4154 0.4694 0.7791
vn -0.5849 -0.7155 0.3821
vn -0.6476 -0.6550 0.3894
vn -0.9334 0.3588 0.0073
vn -0.5819 0.7982 -0.1560
vn 0.8796 0.4661 0.0947
vn 0.2597 -0.9501 -0.1727
vn 0.6481 0.6767 0.3494
vn 0.5000 0.8513 0.1590
vn 0.2046 -0.8353 -0.5103
vn 0.0649 -0.9852 -0.1584
vn -0.3671 0.2617 0.8926
vn -0.3052 -0.9247 0.2277
vn 0.0501 0.4782 -0.8768
vn 0.0747 0.8656 -0.4951
vn -0.6140 0.7198 0.3239
vn -0.7551 0.6277 0.1894
vn 0.1091 0.2453 -0.9633
vn -0.4795 0.8398 -0.2547
vn 0.3125 0.1415 -0.9393
vn 0.6713 0.2466 -0.6990
vn -0.6385 0.7676 -0.0549
vn -0.4128 0.5587 0.7194
vn 0.1997 0.3599 0.9113
vn 0.7102 0.1436 0.6892
vn 0.4546 0.1484 -0.8783
vn -0.3636 0.5941 0.7175
vn -0.7384 0.6272 -0.2476
vn 0.9747 -0.0987 0.2006
vn -0.0020 -0.9999 -0.0136
vn -0.3332 0.9346 0.1241
vn -0.2249 -0.8847 -0.4083
vn -0.4424 -0.4542 -0.7733
vn -0.6414 0.7359 -0.2169
vn 0.5161 -0.7923 -0.3255
vn 0.1602 -0.9746 -0.1563
vn 0.3464 0.1178 -0.9307
vn 0.4414 0.3631 -0.8206
vn -0.7180 -0.5901 -0.3690
vn -0.0944 -0.0577 0.9939
vn 0.8172 -0.2668 0.5108
vn 0.4585 -0.7670 0.4490
vn 0.4654 0.6720 0.5761
vn 0.4629 0.4834 0.7430
vn -0.7304 -0.6614 0.1702
vn -0.7202 -0.6334 0.2830
vn -0.8266 0.5595 -0.0605
vn -0.4886 0.8699 0.0678
vn 0.8900 0.4355 0.1353
vn 0.1123 -0.9284 -0.3542
vn 0.5745 0.7828 0.2389
vn 0.3879 0.8954 0.2186
vn 0.3526 -0.7150 -0.6038
vn 0.1326 -0.9769 -0.1673
vn -0.4075 0.4048 0.8186
vn -0.1447 -0.9720 0.1852
vn 0.0110 0.4297 -0.9029
vn -0.5492 0.7839 0.2897
vn -0.5465 0.8373 -0.0148
vn -0.0463 0.1165 -0.9921
vn -0.7256 0.5691 -0.3869
vn -0.4654 0.8840 0.0445
vn -0.3754 0.6537 0.6570
vn 0.2709 0.2459 0.9307
vn 0.7351 0.3829 0.5595
vn 0.3583 0.2043 -0.9110
vn -0.5266 -0.0704 0.8472
vn -0.6324 0.7623 -0.1380
vn 0.9521 -0.1604 0.2604
vn -0.0203 -0.9992 -0.0352
vn -0.4345 0.9004 -0.0200
vt 0.667119 0.876889
vt 0.660652 0.890625
vt 0.658859 0.873809
vt 0.648724 0.892258
vt 0.651979 0.893325
vt 0.661145 0.910534
vt 0.649134 0.903671
vt 0.653611 0.897676
vt 0.691048 0.874508
vt 0.710090 0.890104
vt 0.679614 0.885533
vt 0.675677 0.871545
vt 0.680098 0.863372
vt 0.660881 0.934445
vt 0.679155 0.932808
vt 0.667558 0.945353
vt 0.666865 0.917465
vt 0.673083 0.916952
vt 0.674841 0.918274
vt 0.673123 0.924671
vt 0.676218 0.892698
vt 0.668726 0.898356
vt 0.665777 0.898096
vt 0.710090 0.910753
vt 0.686566 0.905770
vt 0.689395 0.900067
vt 0.680871 0.901307
vt 0.682812 0.909602
vt 0.680301 0.905583
vt 0.674962 0.913323
vt 0.674555 0.909283
vt 0.678128 0.914893
vt 0.681647 0.909606
vt 0.674898 0.907138
vt 0.668756 0.888077
vt 0.658827 0.895458
vt 0.669084 0.909000
vt 0.665483 0.911400
vt 0.660234 0.900005
vt 0.687301 0.913090
vt 0.698451 0.925750
vt 0.669693 0.914144
vt 0.672799 0.911057
vt 0.673236 0.898500
vt 0.656408 0.909848
vt 0.669842 0.904262
vt 0.671169 0.900748
vt 0.647211 0.926571
vt 0.644841 0.902887
vt 0.709086 0.865574
s 0
usemtl lvl2
f 46/51/85 50/52/85 47/53/85
f 45/54/86 50/52/86 48/55/86
f 54/56/87 51/57/87 53/58/87
f 59/59/88 60/60/88 58/61/88
f 59/59/89 56/62/89 57/63/89
f 57/64/90 61/65/90 59/66/90
f 62/67/91 66/68/91 65/69/91
f 62/67/92 65/69/92 63/70/92
f 68/71/93 71/72/93 69/73/93
f 78/74/94 77/75/94 76/76/94
f 77/75/95 80/77/95 76/76/95
f 77/75/96 82/78/96 81/79/96
f 86/80/97 83/81/97 85/82/97
f 88/83/98 83/81/98 87/84/98
f 49/85/99 69/73/99 50/52/99
f 50/52/100 67/86/100 48/55/100
f 54/56/101 74/87/101 55/88/101
f 72/89/102 54/56/102 53/58/102
f 79/90/103 60/91/103 61/65/103
f 60/60/104 76/76/104 58/61/104
f 86/80/105 65/69/105 66/68/105
f 86/80/106 64/92/106 84/93/106
f 47/53/107 56/62/107 46/51/107
f 46/51/108 58/61/108 49/85/108
f 81/79/109 70/94/109 80/77/109
f 68/71/110 80/77/110 70/94/110
f 55/88/111 62/67/111 54/56/111
f 54/56/112 62/67/112 52/95/112
f 83/81/113 74/87/113 73/96/113
f 87/84/114 73/96/114 75/97/114
f 51/57/115 47/98/115 45/99/115
f 45/54/116 53/58/116 51/57/116
f 57/64/117 62/67/117 63/70/117
f 63/70/118 65/69/118 61/65/118
f 69/73/119 72/89/119 67/86/119
f 69/73/120 75/97/120 73/96/120
f 88/83/121 81/79/121 82/78/121
f 88/83/122 79/90/122 85/82/122
f 47/98/123 62/67/123 57/64/123
f 81/79/124 75/97/124 71/72/124
f 67/86/125 53/58/125 48/55/125
f 85/82/126 61/65/126 65/69/126
f 58/61/127 68/71/127 49/85/127
f 74/87/128 64/92/128 55/88/128
f 46/51/129 49/85/129 50/52/129
f 45/54/130 47/53/130 50/52/130
f 54/56/131 52/95/131 51/57/131
f 59/59/132 61/100/132 60/60/132
f 59/59/133 58/61/133 56/62/133
f 57/64/134 63/70/134 61/65/134
f 62/67/135 64/92/135 66/68/135
f 68/71/136 70/94/136 71/72/136
f 78/74/137 79/90/137 77/75/137
f 77/75/138 81/79/138 80/77/138
f 77/75/139 79/90/139 82/78/139
f 86/80/140 84/93/140 83/81/140
f 88/83/141 85/82/141 83/81/141
f 49/85/142 68/71/142 69/73/142
f 50/52/143 69/73/143 67/86/143
f 54/56/144 73/96/144 74/87/144
f 72/89/145 73/96/145 54/56/145
f 79/90/146 78/74/146 60/91/146
f 60/60/147 78/74/147 76/76/147
f 86/80/148 85/82/148 65/69/148
f 86/80/149 66/68/149 64/92/149
f 47/53/150 57/63/150 56/62/150
f 46/51/151 56/62/151 58/61/151
f 81/79/152 71/72/152 70/94/152
f 68/71/153 76/76/153 80/77/153
f 55/88/154 64/92/154 62/67/154
f 83/81/155 84/93/155 74/87/155
f 87/84/156 83/81/156 73/96/156
f 51/57/157 52/95/157 47/98/157
f 45/54/158 48/55/158 53/58/158
f 69/73/159 73/96/159 72/89/159
f 69/73/160 71/72/160 75/97/160
f 88/83/161 87/84/161 81/79/161
f 88/83/162 82/78/162 79/90/162
f 47/98/163 52/95/163 62/67/163
f 81/79/164 87/84/164 75/97/164
f 67/86/165 72/89/165 53/58/165
f 85/82/166 79/90/166 61/65/166
f 58/61/167 76/76/167 68/71/167
f 74/87/168 84/93/168 64/92/168
o chunk.001
v 31.500006 38.000000 40.499996
v -14.629056 20.000000 49.500000
v -4.500004 38.000000 -31.500008
v -49.500008 29.000002 -49.500015
v 49.500008 47.000000 -49.500015
v -4.499998 38.000000 40.499996
v 6.277192 38.000000 -13.500006
v 31.500000 38.000000 -4.484032
v -49.499992 20.000000 31.473572
v -49.500000 29.000000 22.500002
v 49.500008 29.000000 49.500000
v -48.360008 19.999996 49.500000
v -49.500008 19.999996 48.360001
v -48.360008 45.860001 49.500000
v -48.360008 47.000000 48.360001
v -49.500008 45.860001 48.360001
v -49.500008 45.860001 4.972794
v -48.360008 47.000000 4.499996
v -4.500003 45.860001 48.360001
v -5.640004 47.000000 48.360001
v -5.640003 45.860001 49.500000
v -4.500004 45.860001 4.972794
v -5.640004 47.000000 4.499996
v -48.360008 45.860001 -31.500008
v -48.360008 47.000000 -32.640007
v -49.500008 45.860001 -32.640007
v -49.500008 45.860001 -49.500015
v -48.360008 47.000000 -49.500015
v 49.500008 47.000000 48.360001
v 49.500008 45.860001 49.500000
v 32.640003 45.860001 49.500000
v 32.640003 47.000000 48.360001
v 31.500002 45.860001 48.360001
v -4.500002 45.860001 -14.640003
v -3.360002 45.708931 -13.500003
v -3.360002 47.000000 -14.640003
v -4.500002 45.860001 -31.500008
v -3.360002 47.000000 -32.640007
v 7.417191 38.000000 -4.484032
v 6.277192 38.000000 -5.795528
v 7.417191 47.000000 -14.640003
v 6.277192 45.702888 -13.500000
v -3.360002 38.000000 -13.500002
v -4.500002 38.000000 -14.640000
v -48.360008 38.000000 -31.500008
v 32.640003 46.997978 -13.501797
v -5.640004 38.000000 -4.484032
v -4.500004 38.000000 -2.873258
v -49.500008 38.000000 -2.873258
v -48.360008 38.000000 -4.484028
v 32.640003 29.000000 49.500000
v 31.500002 30.139999 48.360001
v -4.499998 30.139999 48.360001
v -5.639997 29.000000 49.500000
v 7.417191 47.002022 -13.498215
v 31.500000 45.860001 -12.249124
v -49.500000 20.000000 49.500000
v -49.500004 29.000002 -33.780006
v -49.500000 29.000000 -16.500000
v -49.500008 38.000000 -17.639999
v -49.500008 38.000000 -32.640007
v -49.500004 36.384666 -16.500000
v -49.499996 36.384666 -33.780006
vn -0.0000 1.0000 -0.0000
vn -0.0000 0.7065 -0.7077
vn -1.0000 -0.0000 -0.0000
vn -0.0000 0.7071 0.7071
vn -0.0031 0.7076 0.7066
vn -0.0000 -0.0000 1.0000
vn 1.0000 -0.0000 -0.0000
vn -0.5774 0.5774 0.5774
vn 0.5774 0.5774 0.5774
vn -0.5519 0.5519 0.6251
vn -0.7071 -0.0000 0.7071
vn -0.7071 0.7071 -0.0000
vn 0.7071 0.7071 -0.0000
vn -0.6308 0.5491 0.5483
vn 0.0004 0.6619 0.7496
vn 0.7071 0.4996 -0.5004
vn -0.7071 0.4996 -0.5004
vn 0.7071 -0.0000 0.7071
vn -0.7516 0.6596 -0.0012
vn -0.0000 1.0000 0.0001
vn -0.0000 0.7028 0.7114
vn 0.0002 0.7401 0.6725
vn -0.6280 0.5503 0.5502
vn -0.0000 0.6602 0.7511
vn -0.7065 0.7077 -0.0000
vn 0.0002 1.0000 -0.0018
vn 0.0001 1.0000 -0.0000
vn -0.0001 1.0000 -0.0000
vt 0.329072 0.815007
vt 0.463155 0.677346
vt 0.463155 0.815007
vt 0.463155 0.843205
vt 0.329072 0.843205
vt 0.796968 0.798828
vt 0.772384 0.823412
vt 0.772384 0.633844
vt 0.579725 0.677346
vt 0.466734 0.677346
vt 0.583303 0.673768
vt 0.579725 0.867577
vt 0.499642 0.871058
vt 0.499642 0.843205
vt 0.735422 0.708128
vt 0.761316 0.691800
vt 0.761322 0.708128
vt 0.466782 0.701824
vt 0.579892 0.701824
vt 0.499713 0.843161
vt 0.735617 0.665915
vt 0.735436 0.691800
vt 0.772384 0.881187
vt 0.825117 0.828454
vt 0.825117 0.881187
vt 0.761829 0.713545
vt 0.735422 0.770190
vt 0.735422 0.713545
vt 0.811485 0.643859
vt 0.860897 0.643859
vt 0.836191 0.668565
vt 0.761829 0.917548
vt 0.735422 0.917548
vt 0.329072 0.673768
vt 0.329072 0.677346
vt 0.325494 0.677346
vt 0.466734 0.677346
vt 0.463155 0.673768
vt 0.329072 0.927999
vt 0.329072 0.931577
vt 0.325494 0.931577
vt 0.583303 0.677346
vt 0.466734 0.875081
vt 0.470312 0.871503
vt 0.470312 0.875081
vt 0.811485 0.504511
vt 0.892769 0.499443
vt 0.892769 0.504511
vt 0.325494 0.813523
vt 0.466734 0.813523
vt 0.735422 0.922965
vt 0.329072 0.984494
vt 0.466734 0.927999
vt 0.470312 0.931577
vt 0.636221 0.673768
vt 0.636221 0.677346
vt 0.496063 0.847321
vt 0.496063 0.871503
vt 0.466734 0.838149
vt 0.325494 0.838149
vt 0.821551 0.823412
vt 0.772384 0.828454
vt 0.811485 0.638791
vt 0.811485 0.363066
vt 0.836191 0.338404
vt 0.864480 0.418159
vt 0.499642 0.875081
vt 0.583303 0.871069
vt 0.636221 0.984494
vt 0.892769 0.614119
vt 0.325494 0.673768
vt 0.705184 0.979610
vt 0.705184 0.926795
vt 0.729995 0.926795
vt 0.796968 0.658131
vt 0.579725 0.702016
vt 0.466734 0.702016
vt 0.466734 0.673768
vt 0.579725 0.843205
vt 0.466782 0.875071
vt 0.466782 0.928044
vt 0.328976 0.928044
vt 0.325394 0.931626
vt 0.325394 0.884497
vt 0.325394 0.838100
vt 0.328976 0.843161
vt 0.463200 0.843161
vt 0.496131 0.847282
vt 0.496132 0.871489
vt 0.470364 0.871489
vt 0.466782 0.838100
vt 0.579892 0.843161
vt 0.761829 0.770190
vt 0.836191 0.804898
vt 0.811485 0.780236
vt 0.811485 0.499443
vt 0.761829 0.922965
vt 0.325494 0.984494
vt 0.864480 0.638791
vt 0.836191 0.291988
vt 0.841268 0.295571
vt 0.864480 0.295571
vt 0.892769 0.446365
vt 0.761829 0.979610
s 0
usemtl lvl2
f 106/101/169 108/102/169 111/103/169
f 106/101/170 135/104/170 138/105/170
f 89/106/171 121/107/171 144/108/171
f 140/109/172 141/110/172 139/111/172
f 144/112/173 143/113/173 127/114/173
f 131/115/174 130/116/174 123/117/174
f 94/118/169 89/119/169 127/120/169
f 128/121/171 130/116/171 95/122/171
f 118/123/174 139/124/174 99/125/174
f 122/126/171 91/127/171 132/128/171
f 107/129/175 141/130/175 94/131/175
f 91/127/174 112/132/174 133/133/174
f 102/134/176 103/135/176 104/136/176
f 107/137/177 108/102/177 109/138/177
f 112/139/176 113/140/176 114/141/176
f 119/111/176 120/142/176 121/109/176
f 122/143/178 123/144/178 124/145/178
f 102/146/179 101/147/179 100/148/179
f 103/135/180 105/149/180 104/136/180
f 108/102/181 110/150/181 111/103/181
f 103/135/172 109/138/172 108/102/172
f 112/132/179 149/151/179 133/133/179
f 116/152/180 114/141/180 113/140/180
f 113/140/172 125/153/172 126/154/172
f 120/142/172 118/155/172 117/156/172
f 124/145/180 125/153/180 122/143/180
f 143/113/182 128/157/182 127/114/182
f 130/158/183 124/145/183 123/144/183
f 111/103/184 136/159/184 135/104/184
f 106/101/185 137/160/185 105/149/185
f 140/161/179 119/162/179 121/107/179
f 109/163/186 141/130/186 107/129/186
f 132/128/179 123/117/179 122/126/179
f 105/164/171 137/165/171 98/166/171
f 130/158/187 143/113/187 129/167/187
f 120/142/180 144/112/180 121/109/180
f 126/154/188 134/168/188 93/169/188
f 102/146/174 100/148/174 90/170/174
f 100/134/169 101/136/169 145/171/169
f 92/172/171 146/173/171 151/174/171
f 106/101/169 103/135/169 108/102/169
f 106/101/170 111/103/170 135/104/170
f 144/108/171 96/175/171 89/106/171
f 89/106/171 140/161/171 121/107/171
f 140/109/172 89/176/172 94/177/172
f 141/110/172 142/178/172 139/111/172
f 140/109/172 94/177/172 141/110/172
f 127/114/189 96/179/189 144/112/189
f 144/112/190 134/168/190 143/113/190
f 131/115/174 95/122/174 130/116/174
f 132/180/169 91/181/169 133/182/169
f 133/182/169 149/183/169 148/184/169
f 148/184/169 137/185/169 138/186/169
f 148/184/169 138/186/169 132/180/169
f 138/186/169 135/187/169 132/180/169
f 132/180/169 133/182/169 148/184/169
f 128/188/169 95/189/169 131/190/169
f 131/190/169 132/180/169 135/187/169
f 127/120/169 128/188/169 136/191/169
f 128/188/169 131/190/169 135/187/169
f 136/191/169 128/188/169 135/187/169
f 89/119/169 96/192/169 127/120/169
f 136/191/169 94/118/169 127/120/169
f 118/123/174 119/162/174 139/124/174
f 122/126/171 125/193/171 91/127/171
f 136/194/175 110/195/175 94/131/175
f 110/195/175 107/129/175 94/131/175
f 91/127/174 125/193/174 112/132/174
f 102/146/179 104/196/179 101/147/179
f 103/135/180 106/101/180 105/149/180
f 108/102/181 107/137/181 110/150/181
f 103/135/172 102/134/172 109/138/172
f 112/132/179 114/197/179 149/151/179
f 116/152/180 115/198/180 114/141/180
f 113/140/172 112/139/172 125/153/172
f 120/142/172 119/111/172 118/155/172
f 124/145/180 126/154/180 125/153/180
f 143/113/191 130/158/191 128/157/191
f 130/158/192 129/167/192 124/145/192
f 111/103/184 110/150/184 136/159/184
f 106/101/185 138/105/185 137/160/185
f 140/161/179 139/124/179 119/162/179
f 109/163/186 142/199/186 141/130/186
f 132/128/179 131/115/179 123/117/179
f 137/165/171 148/200/171 150/201/171
f 150/201/171 147/202/171 137/165/171
f 147/202/171 98/166/171 137/165/171
f 98/166/171 97/203/171 104/196/171
f 97/203/171 101/147/171 104/196/171
f 104/196/171 105/164/171 98/166/171
f 120/142/193 134/168/193 144/112/193
f 126/154/169 124/145/169 129/167/169
f 129/167/194 143/113/194 134/168/194
f 134/168/169 120/142/169 117/156/169
f 93/169/169 116/152/169 126/154/169
f 116/152/169 113/140/169 126/154/169
f 126/154/195 129/167/195 134/168/195
f 134/168/196 117/156/196 93/169/196
f 90/170/174 142/199/174 109/163/174
f 109/163/174 102/146/174 90/170/174
f 151/174/171 149/151/171 114/197/171
f 114/197/171 115/204/171 151/174/171
f 115/204/171 92/172/171 151/174/171
