# Blender 4.0.2
# www.blender.org
mtllib Baston_malo.mtl
o Cylinder.008
v 0.000000 -2.590259 -0.111609
v 0.000000 1.635544 -0.111609
v 0.078920 -2.590259 -0.078920
v 0.078920 1.635544 -0.078920
v 0.111609 -2.590259 0.000000
v 0.111609 1.635544 -0.000000
v 0.078920 -2.590259 0.078920
v 0.078920 1.635544 0.078920
v 0.000000 -2.590259 0.111609
v 0.000000 1.635544 0.111609
v -0.078920 -2.590259 0.078920
v -0.078920 1.635544 0.078920
v -0.111609 -2.590259 0.000000
v -0.111609 1.635544 -0.000000
v -0.078920 -2.590259 -0.078920
v -0.078920 1.635544 -0.078920
v 0.070163 1.639108 -0.070163
v 0.000000 1.639108 -0.099225
v 0.099225 1.639108 -0.000000
v 0.070163 1.639108 0.070163
v 0.000000 1.639108 0.099225
v -0.070163 1.639108 0.070163
v -0.099225 1.639108 -0.000000
v -0.070163 1.639108 -0.070163
v 0.070163 1.713485 -0.070163
v -0.000000 1.713485 -0.099225
v 0.099225 1.713485 -0.000000
v 0.070163 1.713485 0.070163
v -0.000000 1.713485 0.099225
v -0.070163 1.713485 0.070163
v -0.099225 1.713485 -0.000000
v -0.070163 1.713485 -0.070163
v 0.074545 1.717037 -0.074545
v -0.000000 1.717037 -0.105422
v 0.105422 1.717037 -0.000000
v 0.074545 1.717037 0.074545
v -0.000000 1.717037 0.105422
v -0.074545 1.717037 0.074545
v -0.105422 1.717037 -0.000000
v -0.074545 1.717037 -0.074545
v 0.074545 2.534223 -0.074545
v -0.000000 2.534223 -0.105422
v 0.105422 2.534223 -0.000000
v 0.074545 2.534223 0.074545
v -0.000000 2.534223 0.105422
v -0.074545 2.534223 0.074545
v -0.105422 2.534223 -0.000000
v -0.074545 2.534223 -0.074545
vn -0.3827 -0.0000 0.9239
vn -0.0000 -1.0000 -0.0000
vn 0.1138 0.9548 0.2747
vn -0.9239 -0.0000 0.3827
vn 0.9239 -0.0000 0.3827
vn 0.3827 -0.0000 0.9239
vn 0.9239 -0.0000 -0.3827
vn -0.9239 -0.0000 -0.3827
vn 0.3827 -0.0000 -0.9239
vn -0.3827 -0.0000 -0.9239
vn 0.2747 0.9548 0.1138
vn 0.2747 0.9548 -0.1138
vn 0.1138 0.9548 -0.2747
vn -0.1138 0.9548 -0.2747
vn -0.2747 0.9548 -0.1138
vn -0.2747 0.9548 0.1138
vn -0.1138 0.9548 0.2747
vn -0.2018 -0.8497 -0.4871
vn -0.4871 -0.8497 0.2017
vn 0.2018 -0.8497 0.4871
vn 0.4871 -0.8497 -0.2017
vn -0.4871 -0.8497 -0.2018
vn -0.2017 -0.8497 0.4871
vn 0.4871 -0.8497 0.2018
vn 0.2017 -0.8497 -0.4871
vn -0.0000 1.0000 -0.0000
vn -0.4871 -0.8497 -0.2017
vn -0.2018 -0.8497 0.4871
vn 0.4871 -0.8497 0.2017
vn 0.2018 -0.8497 -0.4871
vt 0.027905 0.134829
vt 0.987561 0.119980
vt 0.987433 0.142112
vt 0.532021 0.384022
vt 0.546525 0.349004
vt 0.581544 0.363509
vt 0.025887 0.154485
vt 0.024531 0.134590
vt 0.028753 0.114966
vt 0.987621 0.097856
vt 0.019666 0.173840
vt 0.987237 0.164256
vt 0.987036 0.183810
vt 0.987261 0.011909
vt 0.025867 0.038881
vt 0.019668 0.019519
vt 0.029021 0.096666
vt 0.987616 0.075731
vt 0.027905 0.058514
vt 0.987415 0.031469
vt 0.987552 0.053603
vt 0.028774 0.078365
vt 0.023012 0.153878
vt 0.017200 0.021553
vt 0.022993 0.039488
vt 0.024534 0.058757
vt 0.025736 0.078440
vt 0.026335 0.096664
vt 0.025714 0.114892
vt 0.709059 0.337288
vt 0.727296 0.355148
vt 0.709059 0.355148
vt 0.636111 0.337288
vt 0.654348 0.355148
vt 0.636111 0.355148
vt 0.508832 0.406612
vt 0.508024 0.388334
vt 0.509712 0.388460
vt 0.599637 0.337288
vt 0.617874 0.355148
vt 0.599637 0.355148
vt 0.690822 0.337288
vt 0.690822 0.355148
vt 0.654348 0.337288
vt 0.672585 0.355148
vt 0.617874 0.337288
vt 0.727296 0.337288
vt 0.745533 0.355148
vt 0.516313 0.497145
vt 0.320278 0.492613
vt 0.510489 0.478967
vt 0.509248 0.442281
vt 0.507060 0.424138
vt 0.508587 0.424122
vt 0.512035 0.478625
vt 0.508388 0.461079
vt 0.510056 0.460935
vt 0.511924 0.369873
vt 0.516214 0.350149
vt 0.517687 0.351242
vt 0.507198 0.406575
vt 0.507453 0.442348
vt 0.517687 0.496098
vt 0.510176 0.369507
vt 0.453042 0.452663
vt 0.486118 0.438962
vt 0.499819 0.472039
vt 0.316845 0.363988
vt 0.316531 0.385570
vt 0.316962 0.428533
vt 0.318830 0.471298
vt 0.317518 0.342330
vt 0.316575 0.407085
vt 0.317709 0.449936
vt 0.467731 0.441887
vt 0.498864 0.454782
vt 0.485968 0.485915
vt 0.581544 0.384022
vt 0.567039 0.398527
vt 0.546526 0.398527
vt 0.532021 0.363509
vt 0.567039 0.349004
vt 0.017200 0.171804
vt 0.672585 0.337288
vt 0.745533 0.337288
vt 0.321727 0.511826
vt 0.486119 0.485740
vt 0.466743 0.485740
vt 0.453042 0.472039
vt 0.466743 0.438962
vt 0.499819 0.452663
vt 0.467731 0.485915
vt 0.454836 0.473019
vt 0.454836 0.454782
vt 0.485968 0.441887
vt 0.498864 0.473019
s 0
usemtl Baton
f 10/1/1 11/2/1 9/3/1
f 7/4/2 11/5/2 15/6/2
f 8/7/3 21/8/3 10/1/3
f 12/9/4 13/10/4 11/2/4
f 6/11/5 7/12/5 5/13/5
f 8/7/6 9/3/6 7/12/6
f 5/14/7 4/15/7 6/16/7
f 14/17/8 15/18/8 13/10/8
f 2/19/9 3/20/9 1/21/9
f 16/22/10 1/21/10 15/18/10
f 6/11/11 20/23/11 8/7/11
f 4/15/12 19/24/12 6/16/12
f 2/19/13 17/25/13 4/15/13
f 16/22/14 18/26/14 2/19/14
f 14/17/15 24/27/15 16/22/15
f 12/9/16 23/28/16 14/17/16
f 10/1/17 22/29/17 12/9/17
f 26/30/9 17/31/9 18/32/9
f 29/33/1 22/34/1 21/35/1
f 27/39/5 20/40/5 19/41/5
f 32/42/10 18/32/10 24/43/10
f 30/44/4 23/45/4 22/34/4
f 28/46/6 21/35/6 20/40/6
f 25/47/7 19/48/7 17/31/7
f 23/45/8 32/42/8 24/43/8
f 10/1/1 12/9/1 11/2/1
f 15/6/2 1/78/2 3/79/2
f 3/79/2 5/80/2 7/4/2
f 7/4/2 9/81/2 11/5/2
f 11/5/2 13/82/2 15/6/2
f 15/6/2 3/79/2 7/4/2
f 8/7/3 20/23/3 21/8/3
f 12/9/4 14/17/4 13/10/4
f 6/11/5 8/7/5 7/12/5
f 8/7/6 10/1/6 9/3/6
f 5/14/7 3/20/7 4/15/7
f 14/17/8 16/22/8 15/18/8
f 2/19/9 4/15/9 3/20/9
f 16/22/10 2/19/10 1/21/10
f 6/11/11 19/83/11 20/23/11
f 4/15/12 17/25/12 19/24/12
f 2/19/13 18/26/13 17/25/13
f 16/22/14 24/27/14 18/26/14
f 14/17/15 23/28/15 24/27/15
f 12/9/16 22/29/16 23/28/16
f 10/1/17 21/8/17 22/29/17
f 26/30/9 25/47/9 17/31/9
f 29/33/1 30/44/1 22/34/1
f 27/39/5 28/46/5 20/40/5
f 32/42/10 26/30/10 18/32/10
f 30/44/4 31/84/4 23/45/4
f 28/46/6 29/33/6 21/35/6
f 25/47/7 27/85/7 19/48/7
f 23/45/8 31/84/8 32/42/8
usemtl Baton_magia
f 32/36/18 34/37/18 26/38/18
f 35/49/5 44/50/5 36/51/5
f 30/52/19 39/53/19 31/54/19
f 28/55/20 37/56/20 29/57/20
f 25/58/21 35/59/21 27/60/21
f 31/54/22 40/61/22 32/36/22
f 29/57/23 38/62/23 30/52/23
f 27/63/24 36/51/24 28/55/24
f 26/38/25 33/64/25 25/58/25
f 47/65/26 45/66/26 43/67/26
f 34/37/9 41/68/9 33/64/9
f 40/61/10 42/69/10 34/37/10
f 38/62/4 47/70/4 39/53/4
f 36/51/6 45/71/6 37/56/6
f 33/64/7 43/72/7 35/59/7
f 39/53/8 48/73/8 40/61/8
f 37/56/1 46/74/1 38/62/1
f 29/75/2 31/76/2 26/77/2
f 32/36/18 40/61/18 34/37/18
f 35/49/5 43/86/5 44/50/5
f 30/52/19 38/62/19 39/53/19
f 28/55/20 36/51/20 37/56/20
f 25/58/21 33/64/21 35/59/21
f 31/54/27 39/53/27 40/61/27
f 29/57/28 37/56/28 38/62/28
f 27/63/29 35/49/29 36/51/29
f 26/38/30 34/37/30 33/64/30
f 43/67/26 41/87/26 42/88/26
f 42/88/26 48/89/26 47/65/26
f 47/65/26 46/90/26 45/66/26
f 45/66/26 44/91/26 43/67/26
f 43/67/26 42/88/26 47/65/26
f 34/37/9 42/69/9 41/68/9
f 40/61/10 48/73/10 42/69/10
f 38/62/4 46/74/4 47/70/4
f 36/51/6 44/50/6 45/71/6
f 33/64/7 41/68/7 43/72/7
f 39/53/8 47/70/8 48/73/8
f 37/56/1 45/71/1 46/74/1
f 26/77/2 25/92/2 27/93/2
f 27/93/2 28/94/2 29/75/2
f 29/75/2 30/95/2 31/76/2
f 31/76/2 32/96/2 26/77/2
f 26/77/2 27/93/2 29/75/2
