# Blender 4.0.2
# www.blender.org
mtllib Varita.mtl
o varita.001
v -0.800903 -0.051698 -0.530277
v -0.677849 -0.043513 -0.466087
v -0.829193 -0.151204 -0.463352
v -0.706146 -0.143020 -0.399166
v -0.885376 -0.113196 -0.360497
v -0.762329 -0.105012 -0.296307
v -0.891808 0.009801 -0.363850
v -0.768761 0.017984 -0.299660
v -0.839600 0.047809 -0.468781
v -0.716545 0.055992 -0.404591
v 0.345375 -0.022280 0.182926
v 0.362053 0.036394 0.143463
v 0.312241 0.000132 0.243576
v 0.308449 0.072659 0.241600
v 0.339233 0.095070 0.179726
v 1.442657 0.090458 0.752396
v 1.447212 0.106475 0.741623
v 1.433609 0.096576 0.768951
v 1.432579 0.116374 0.768414
v 1.440979 0.122492 0.751522
v 0.807060 0.069198 0.444695
v 0.828285 0.084648 0.402039
v 0.832520 0.003747 0.404243
v 0.809677 0.019197 0.446056
v 0.844017 0.044196 0.377037
v -0.654976 -0.041410 -0.432789
v -0.215416 -0.030306 -0.214695
v -0.235161 -0.099744 -0.167992
v -0.678154 -0.122930 -0.377960
v -0.724182 -0.091792 -0.293697
v -0.274368 -0.073220 -0.096214
v -0.278854 0.012611 -0.098557
v -0.729454 0.008973 -0.296444
v -0.242424 0.039135 -0.171780
v -0.686684 0.040111 -0.382408
v -0.865318 -0.055260 -0.537369
v -0.887268 -0.132449 -0.485455
v -0.930855 -0.102965 -0.405666
v -0.935837 -0.007553 -0.408268
v -0.895340 0.021931 -0.489666
vn 0.4048 -0.5868 -0.7013
vn -0.0933 -0.9494 0.2999
vn -0.4625 -0.0000 0.8866
vn -0.1926 0.9494 0.2481
vn 0.3435 0.5868 -0.7333
vn -0.7066 -0.0176 0.7074
vn 0.4767 -0.5799 -0.6607
vn -0.1984 0.9490 0.2450
vn -0.2292 0.9461 0.2287
vn -0.0640 -0.9469 0.3149
vn 0.3759 0.5885 -0.7157
vn -0.5010 -0.0026 0.8655
vn 0.8851 0.0589 0.4618
vn -0.0495 -0.9454 0.3223
vn 0.3729 0.5884 -0.7174
vn -0.4596 0.0002 0.8881
vn 0.4640 -0.5814 -0.6683
vn 0.3601 -0.5890 -0.7235
vn -0.3772 0.0055 0.9261
vn 0.3454 0.5869 -0.7323
vn -0.0870 -0.9490 0.3031
vn -0.1112 0.9508 0.2891
vn 0.6645 0.5625 -0.4919
vn 0.3479 0.5871 -0.7310
vn 0.2630 -0.8494 0.4575
vn -0.0926 -0.9494 0.3002
vn 0.1718 0.8958 0.4100
vn -0.1305 0.9512 0.2796
vn -0.0762 0.0232 0.9968
vn -0.4021 0.0039 0.9156
vn 0.7209 -0.5161 -0.4626
vn 0.3712 -0.5886 -0.7182
vn -0.8851 -0.0589 -0.4617
vn -0.4491 0.8881 0.0982
vn -0.3544 -0.9234 0.1476
vn 0.0623 0.5421 -0.8380
vn 0.1208 -0.5774 -0.8075
vt 0.955384 0.656668
vt 0.936336 0.659054
vt 0.934665 0.642613
vt 0.952670 0.640600
vt 0.932860 0.626651
vt 0.951319 0.625079
vt 0.930972 0.609954
vt 0.950541 0.608830
vt 0.929174 0.591860
vt 0.950294 0.591133
vt 0.927532 0.571498
vt 0.950971 0.571407
vt 0.960374 0.608864
vt 0.960350 0.624546
vt 0.847343 0.165580
vt 0.846422 0.271351
vt 0.833288 0.270584
vt 0.834042 0.164971
vt 0.796270 0.353619
vt 0.808249 0.352922
vt 0.809167 0.466065
vt 0.798446 0.466445
vt 0.793384 0.165096
vt 0.806999 0.164781
vt 0.807513 0.270155
vt 0.794698 0.270618
vt 0.820326 0.270161
vt 0.820623 0.164737
vt 0.781718 0.271496
vt 0.779995 0.165743
vt 0.896932 0.260303
vt 0.896932 0.247302
vt 0.909299 0.243286
vt 0.916940 0.253804
vt 0.909298 0.264322
vt 0.820240 0.352972
vt 0.832091 0.353656
vt 0.830648 0.465690
vt 0.819885 0.465663
vt 0.784446 0.354802
vt 0.787697 0.467051
vt 0.843887 0.354641
vt 0.841416 0.466661
vt 0.922732 0.592590
vt 0.919918 0.573609
vt 0.774653 0.090201
vt 0.790155 0.088442
vt 0.929274 0.643077
vt 0.927259 0.627367
vt 0.821358 0.087988
vt 0.836915 0.089214
vt 0.925000 0.610671
vt 0.805745 0.087464
vt 0.930546 0.657911
vt 0.852475 0.089998
vt 0.950262 0.632847
vt 0.936535 0.630214
vt 0.934797 0.616344
vt 0.947451 0.610405
vt 0.957009 0.620605
vt 0.960512 0.591613
vt 0.961251 0.639174
vt 0.961777 0.574639
vt 0.963924 0.652949
s 0
usemtl lvl5-extras.007
f 27/15/7 12/16/7 11/17/7 28/18/7
f 22/19/8 21/20/8 19/21/8 20/22/8
f 34/23/9 32/24/9 14/25/9 15/26/9
f 11/17/10 13/27/10 31/28/10 28/18/10
f 15/26/11 12/29/11 27/30/11 34/23/11
f 31/28/12 13/27/12 14/25/12 32/24/12
f 16/31/13 17/32/13 20/33/13 19/34/13 18/35/13
f 24/36/14 23/37/14 16/38/14 18/39/14
f 25/40/15 22/19/15 20/22/15 17/41/15
f 21/20/16 24/36/16 18/39/16 19/21/16
f 23/37/17 25/42/17 17/43/17 16/38/17
f 11/17/18 12/16/18 25/42/18 23/37/18
f 14/25/19 13/27/19 24/36/19 21/20/19
f 12/29/20 15/26/20 22/19/20 25/40/20
f 13/27/21 11/17/21 23/37/21 24/36/21
f 15/26/22 14/25/22 21/20/22 22/19/22
f 26/46/24 35/47/24 34/23/24 27/30/24
f 30/50/26 29/51/26 28/18/26 31/28/26
f 35/47/28 33/53/28 32/24/28 34/23/28
f 33/53/30 30/50/30 31/28/30 32/24/30
f 29/51/32 26/55/32 27/15/32 28/18/32
usemtl lvl5-extras_luces.002
f 1/1/1 2/2/1 4/3/1 3/4/1
f 3/4/2 4/3/2 6/5/2 5/6/2
f 5/6/3 6/5/3 8/7/3 7/8/3
f 7/8/4 8/7/4 10/9/4 9/10/4
f 9/10/5 10/9/5 2/11/5 1/12/5
f 5/6/6 7/8/6 39/13/6 38/14/6
f 2/11/23 10/9/23 35/44/23 26/45/23
f 6/5/25 4/3/25 29/48/25 30/49/25
f 10/9/27 8/7/27 33/52/27 35/44/27
f 8/7/29 6/5/29 30/49/29 33/52/29
f 4/3/31 2/2/31 26/54/31 29/48/31
f 36/56/33 37/57/33 38/58/33 39/59/33 40/60/33
f 7/8/34 9/10/34 40/61/34 39/13/34
f 3/4/35 5/6/35 38/14/35 37/62/35
f 9/10/36 1/12/36 36/63/36 40/61/36
f 1/1/37 3/4/37 37/62/37 36/64/37
