# Blender 4.0.2
# www.blender.org
mtllib Fuego_1.mtl
o Icosphere.009
v 1.096520 0.066677 2.135060
v -0.018618 -1.261482 1.485152
v -0.159544 -0.963206 1.942627
v 2.133237 -0.439732 1.511952
v 0.941423 -1.446562 0.868873
v 1.503346 -1.098590 1.403732
v 0.876347 0.226845 2.009264
v 0.300722 0.761962 1.829076
v 1.622831 0.065221 1.555080
v 1.005730 1.121327 1.306958
v 0.572249 1.402790 0.795141
v -0.582405 -1.203682 1.185041
v -1.038477 -0.911980 1.156206
v 0.106149 -1.454601 0.196504
v -1.064381 -1.197951 0.407034
v -1.713583 -0.991441 -0.712502
v -1.914880 -0.552674 0.502244
v -0.804111 1.025460 1.108562
v -1.621504 0.242387 0.589425
v -0.340037 1.841825 0.766296
v -1.557404 1.092664 0.108287
v -1.142218 1.384604 0.276044
v 2.216501 -0.167309 0.974817
v 0.946597 -1.461422 -0.217592
v 2.270263 0.044216 0.040267
v 1.816337 -0.825024 -0.877802
v 2.234779 -0.212191 -0.300820
v 1.966586 0.381775 0.833218
v 1.797377 1.133651 -0.469216
v 0.866756 1.412267 -0.191160
v 1.743192 0.111363 -0.572662
v -0.234455 -1.206006 -1.166252
v -0.374814 -0.761882 -1.438382
v -1.314126 -0.995447 -1.300887
v -0.796175 -0.058660 -1.589115
v 0.859912 -0.920987 -1.679235
v 0.402279 -0.154672 -1.835058
v -0.396846 -0.006578 -1.801918
v 0.166662 1.311385 -0.959872
v 0.212568 1.749820 -0.411638
v -1.174546 1.008762 -0.772596
v -0.478455 1.337109 -0.766597
v 1.203702 0.745250 -1.428427
v -0.355151 0.232379 -1.708436
vn 0.1176 -0.8149 0.5675
vn 0.3022 -0.4288 0.8513
vn 0.5302 0.4748 0.7024
vn -0.2226 -0.9736 -0.0505
vn -0.5248 -0.7890 0.3193
vn -0.5513 -0.7729 0.3141
vn -0.6232 0.5936 0.5092
vn -0.7268 0.3789 0.5728
vn 0.6474 -0.6400 0.4138
vn 0.0047 -0.5214 -0.8533
vn -0.2276 -0.5600 -0.7966
vn -0.1174 -0.4335 -0.8935
vn -0.2297 0.5023 -0.8336
vn -0.0468 0.5846 -0.8100
vn 0.6603 -0.7155 -0.2283
vn 0.7229 -0.6550 -0.2201
vn 0.4227 0.8962 0.1348
vn 0.6638 0.5152 0.5421
vn -0.8076 0.4991 -0.3141
vn -0.1819 -0.9744 -0.1323
vn -0.4718 0.8345 -0.2846
vn -0.3649 0.8992 -0.2414
vn -0.3226 -0.8353 0.4452
vn -0.1015 -0.9852 0.1378
vn 0.6149 0.2128 -0.7593
vn 0.3725 -0.8630 -0.3412
vn -0.1038 0.8318 0.5454
vn -0.0981 0.8767 0.4710
vn 0.1913 0.9355 -0.2970
vn 0.8487 0.0085 -0.5287
vn -0.3402 0.2453 0.9078
vn 0.4031 0.8398 0.3637
vn -0.5949 0.0916 0.7985
vn -0.8797 0.2827 0.3824
vn 0.8845 0.4415 0.1508
vn 0.7593 0.0255 -0.6502
vn 0.0280 0.3599 -0.9326
vn -0.4835 0.4172 -0.7695
vn -0.6604 0.0982 0.7445
vn 0.6128 0.3264 -0.7197
vn 0.6560 0.6272 0.4198
vn -0.9089 0.1006 -0.4046
vn -0.0014 -0.9999 0.0137
vn 0.4185 0.8983 0.1336
vn 0.1188 -0.8847 0.4508
vn 0.2410 -0.4542 0.8577
vn 0.2843 0.5663 0.7736
vn -0.5798 -0.7923 0.1901
vn -0.1934 -0.9746 0.1127
vn -0.5624 0.1178 0.8184
vn -0.6394 0.5767 0.5085
vn 0.6843 -0.6898 0.2365
vn -0.0781 -0.2535 -0.9642
vn -0.2209 -0.3193 -0.9215
vn -0.3870 -0.4090 -0.8264
vn -0.1516 0.7781 -0.6096
vn -0.2450 0.6298 -0.7371
vn 0.7499 -0.6614 0.0126
vn 0.7674 -0.6334 -0.0992
vn 0.3247 0.9337 0.1512
vn 0.6706 0.6768 0.3036
vn -0.7951 0.2729 -0.5416
vn -0.1766 -0.9778 -0.1132
vn -0.4052 0.8645 -0.2974
vn -0.3807 0.8805 -0.2825
vn -0.4889 -0.7150 0.4998
vn -0.1694 -0.9769 0.1300
vn 0.6237 0.2661 -0.7350
vn 0.0791 -0.9335 -0.3498
vn 0.1254 0.3221 0.9384
vn 0.5211 0.6447 -0.5592
vn 0.2382 0.8400 -0.4876
vn -0.1965 0.1165 0.9736
vn 0.6096 0.5691 0.5518
vn 0.8809 0.4504 0.1456
vn 0.6518 0.5721 -0.4979
vn 0.0404 0.3813 -0.9236
vn -0.4720 0.3914 -0.7899
vn -0.5041 0.1899 0.8425
vn 0.6836 -0.3102 -0.6607
vn 0.7062 0.4602 0.5381
vn -0.8850 0.0410 -0.4637
vn -0.0858 -0.9837 -0.1580
vn 0.4266 0.8950 0.1302
vt 0.788572 0.458598
vt 0.782781 0.514003
vt 0.754469 0.442178
vt 0.725929 0.568347
vt 0.782704 0.545464
vt 0.801244 0.618689
vt 0.727277 0.597933
vt 0.770336 0.572890
vt 0.880208 0.430692
vt 0.967069 0.479410
vt 0.853149 0.467732
vt 0.814115 0.433117
vt 0.825656 0.396371
vt 0.879405 0.770252
vt 0.973151 0.668898
vt 0.971717 0.797452
vt 0.852651 0.676446
vt 0.880886 0.642809
vt 0.898432 0.647311
vt 0.937647 0.700997
vt 0.843912 0.507763
vt 0.835697 0.551296
vt 0.826353 0.556161
vt 0.938314 0.530338
vt 0.911830 0.538063
vt 0.904698 0.515203
vt 0.872116 0.539898
vt 0.901264 0.566593
vt 0.881673 0.557797
vt 0.882065 0.609150
vt 0.871316 0.596426
vt 0.902398 0.615584
vt 0.898188 0.573180
vt 0.861485 0.572616
vt 0.807408 0.491772
vt 0.799727 0.552720
vt 0.847828 0.597989
vt 0.828650 0.621584
vt 0.805637 0.571321
vt 0.916173 0.571609
vt 0.973151 0.567757
vt 0.861726 0.608329
vt 0.853981 0.635537
vt 0.849597 0.541428
vt 0.785866 0.661022
vt 0.841361 0.578715
vt 0.844604 0.559300
vt 0.752945 0.769352
vt 0.694401 0.599634
vt 0.945785 0.382383
s 0
usemtl Fuego
f 2/1/1 6/2/1 3/3/1
f 1/4/2 6/2/2 4/5/2
f 10/6/3 7/7/3 9/8/3
f 15/9/4 16/10/4 14/11/4
f 15/9/5 12/12/5 13/13/5
f 13/14/6 17/15/6 15/16/6
f 18/17/7 22/18/7 21/19/7
f 18/17/8 21/19/8 19/20/8
f 24/21/9 27/22/9 25/23/9
f 34/24/10 33/25/10 32/26/10
f 33/25/11 36/27/11 32/26/11
f 33/25/12 38/28/12 37/29/12
f 42/30/13 39/31/13 41/32/13
f 44/33/14 39/31/14 43/34/14
f 5/35/15 25/23/15 6/2/15
f 6/2/16 23/36/16 4/5/16
f 10/6/17 30/37/17 11/38/17
f 28/39/18 10/6/18 9/8/18
f 35/40/19 16/41/19 17/15/19
f 16/10/20 32/26/20 14/11/20
f 22/18/21 41/32/21 21/19/21
f 40/42/22 22/18/22 20/43/22
f 3/3/23 12/12/23 2/1/23
f 2/1/24 14/11/24 5/35/24
f 37/29/25 26/44/25 36/27/25
f 24/21/26 36/27/26 26/44/26
f 11/38/27 18/17/27 10/6/27
f 10/6/28 18/17/28 8/45/28
f 39/31/29 30/37/29 29/46/29
f 43/34/30 29/46/30 31/47/30
f 7/7/31 3/48/31 1/49/31
f 1/4/32 9/8/32 7/7/32
f 13/14/33 18/17/33 19/20/33
f 19/20/34 21/19/34 17/15/34
f 25/23/35 28/39/35 23/36/35
f 25/23/36 31/47/36 29/46/36
f 44/33/37 37/29/37 38/28/37
f 44/33/38 35/40/38 41/32/38
f 3/48/39 18/17/39 13/14/39
f 37/29/40 31/47/40 27/22/40
f 23/36/41 9/8/41 4/5/41
f 41/32/42 17/15/42 21/19/42
f 14/11/43 24/21/43 5/35/43
f 40/42/44 11/38/44 30/37/44
f 2/1/45 5/35/45 6/2/45
f 1/4/46 3/3/46 6/2/46
f 10/6/47 8/45/47 7/7/47
f 15/9/48 17/50/48 16/10/48
f 15/9/49 14/11/49 12/12/49
f 13/14/50 19/20/50 17/15/50
f 18/17/51 20/43/51 22/18/51
f 24/21/52 26/44/52 27/22/52
f 34/24/53 35/40/53 33/25/53
f 33/25/54 37/29/54 36/27/54
f 33/25/55 35/40/55 38/28/55
f 42/30/56 40/42/56 39/31/56
f 44/33/57 41/32/57 39/31/57
f 5/35/58 24/21/58 25/23/58
f 6/2/59 25/23/59 23/36/59
f 10/6/60 29/46/60 30/37/60
f 28/39/61 29/46/61 10/6/61
f 35/40/62 34/24/62 16/41/62
f 16/10/63 34/24/63 32/26/63
f 22/18/64 42/30/64 41/32/64
f 40/42/65 42/30/65 22/18/65
f 3/3/66 13/13/66 12/12/66
f 2/1/67 12/12/67 14/11/67
f 37/29/68 27/22/68 26/44/68
f 24/21/69 32/26/69 36/27/69
f 11/38/70 20/43/70 18/17/70
f 39/31/71 40/42/71 30/37/71
f 43/34/72 39/31/72 29/46/72
f 7/7/73 8/45/73 3/48/73
f 1/4/74 4/5/74 9/8/74
f 25/23/75 29/46/75 28/39/75
f 25/23/76 27/22/76 31/47/76
f 44/33/77 43/34/77 37/29/77
f 44/33/78 38/28/78 35/40/78
f 3/48/79 8/45/79 18/17/79
f 37/29/80 43/34/80 31/47/80
f 23/36/81 28/39/81 9/8/81
f 41/32/82 35/40/82 17/15/82
f 14/11/83 32/26/83 24/21/83
f 40/42/84 20/43/84 11/38/84
