# Blender 4.0.2
# www.blender.org
mtllib Hielo_1.mtl
o Roundcube.011
v 2.727172 1.389903 -2.727172
v 1.363586 0.919182 -3.197893
v 0.000000 0.776985 -3.340091
v -1.363586 0.919182 -3.197893
v 3.197893 2.753489 -3.197893
v 1.598947 2.518129 -4.147186
v 0.000000 2.447030 -4.418524
v -1.598947 2.518129 -4.147186
v 3.340091 4.117075 -3.340091
v 1.670045 4.117075 -4.418524
v 0.000000 4.117075 -4.723601
v -1.670045 4.117075 -4.418524
v 3.197893 5.480661 -3.197893
v 1.598947 5.716022 -4.147186
v 0.000000 5.787121 -4.418524
v -1.598947 5.716022 -4.147186
v -2.727172 1.389903 -2.727172
v -3.197893 0.919182 -1.363586
v -3.340091 0.776985 0.000000
v -3.197893 0.919182 1.363586
v -3.197893 2.753489 -3.197893
v -4.147186 2.518129 -1.598947
v -4.418524 2.447030 0.000000
v -4.147186 2.518129 1.598947
v -3.340091 4.117075 -3.340091
v -4.418524 4.117075 -1.670045
v -4.723601 4.117075 0.000000
v -4.418524 4.117075 1.670045
v -3.197893 5.480661 -3.197893
v -4.147186 5.716022 -1.598947
v -4.418524 5.787121 0.000000
v -4.147186 5.716022 1.598947
v -2.727172 1.389903 2.727172
v -1.363586 0.919182 3.197893
v 0.000000 0.776985 3.340091
v 1.363586 0.919182 3.197893
v -3.197893 2.753489 3.197893
v -1.598947 2.518129 4.147186
v 0.000000 2.447030 4.418524
v 1.598947 2.518129 4.147186
v -3.340091 4.117075 3.340091
v -1.670045 4.117075 4.418524
v 0.000000 4.117075 4.723601
v 1.670045 4.117075 4.418524
v -3.197893 5.480661 3.197893
v -1.598947 5.716022 4.147186
v 0.000000 5.787121 4.418524
v 1.598947 5.716022 4.147186
v 2.727172 1.389903 2.727172
v 3.197893 0.919182 1.363586
v 3.340091 0.776985 0.000000
v 3.197893 0.919182 -1.363586
v 3.197893 2.753489 3.197893
v 4.147186 2.518129 1.598947
v 4.418524 2.447030 0.000000
v 4.147186 2.518129 -1.598947
v 3.340091 4.117075 3.340091
v 4.418524 4.117075 1.670045
v 4.723601 4.117075 0.000000
v 4.418524 4.117075 -1.670045
v 3.197893 5.480661 3.197893
v 4.147186 5.716022 1.598947
v 4.418524 5.787121 0.000000
v 4.147186 5.716022 -1.598947
v 1.598947 -0.030110 1.598947
v 0.000000 -0.301449 1.670045
v -1.598947 -0.030110 1.598947
v 1.670045 -0.301449 0.000000
v 0.000000 -0.606526 0.000000
v -1.670045 -0.301449 0.000000
v 1.598947 -0.030110 -1.598947
v 0.000000 -0.301449 -1.670045
v -1.598947 -0.030110 -1.598947
v 2.727172 6.844248 -2.727172
v 1.363586 7.314969 -3.197893
v 0.000000 7.457166 -3.340091
v -1.363586 7.314969 -3.197893
v -2.727172 6.844248 -2.727172
v 3.197893 7.314969 -1.363586
v 1.598947 8.264261 -1.598947
v 0.000000 8.535600 -1.670045
v -1.598947 8.264261 -1.598947
v -3.197893 7.314969 -1.363586
v 3.340091 7.457166 0.000000
v 1.670045 8.535600 0.000000
v 0.000000 8.840677 0.000000
v -1.670045 8.535600 0.000000
v -3.340091 7.457166 0.000000
v 3.197893 7.314969 1.363586
v 1.598947 8.264261 1.598947
v 0.000000 8.535600 1.670045
v -1.598947 8.264261 1.598947
v -3.197893 7.314969 1.363586
v 2.727172 6.844248 2.727172
v 1.363586 7.314969 3.197893
v 0.000000 7.457166 3.340091
v -1.363586 7.314969 3.197893
v -2.727172 6.844248 2.727172
vn 0.5774 -0.5774 -0.5774
vn 0.3405 -0.3405 -0.8764
vn 0.6781 -0.2835 -0.6781
vn 0.2835 -0.6781 -0.6781
vn -0.0000 -0.3615 -0.9324
vn -0.2835 -0.6781 -0.6781
vn -0.0000 -0.7071 -0.7071
vn -0.5774 -0.5774 -0.5774
vn -0.3405 -0.3405 -0.8764
vn 0.3615 -0.0000 -0.9324
vn 0.7071 -0.0000 -0.7071
vn -0.0000 -0.0000 -1.0000
vn -0.6781 -0.2835 -0.6781
vn -0.3615 -0.0000 -0.9324
vn 0.6781 0.2835 -0.6781
vn 0.3405 0.3405 -0.8764
vn -0.3405 0.3405 -0.8764
vn -0.0000 0.3615 -0.9324
vn -0.6781 0.2835 -0.6781
vn 0.5774 0.5774 -0.5774
vn 0.2835 0.6781 -0.6781
vn -0.2835 0.6781 -0.6781
vn -0.0000 0.7071 -0.7071
vn -0.5774 0.5774 -0.5774
vn -0.8764 -0.3405 -0.3405
vn -0.6781 -0.6781 -0.2835
vn -0.9324 -0.3615 -0.0000
vn -0.6781 -0.6781 0.2835
vn -0.7071 -0.7071 -0.0000
vn -0.5774 -0.5774 0.5774
vn -0.8764 -0.3405 0.3405
vn -0.9324 -0.0000 -0.3615
vn -0.7071 -0.0000 -0.7071
vn -1.0000 -0.0000 -0.0000
vn -0.6781 -0.2835 0.6781
vn -0.9324 -0.0000 0.3615
vn -0.8764 0.3405 -0.3405
vn -0.8764 0.3405 0.3405
vn -0.9324 0.3615 -0.0000
vn -0.6781 0.2835 0.6781
vn -0.6781 0.6781 -0.2835
vn -0.6781 0.6781 0.2835
vn -0.7071 0.7071 -0.0000
vn -0.5774 0.5774 0.5774
vn -0.3405 -0.3405 0.8764
vn -0.2835 -0.6781 0.6781
vn -0.0000 -0.3615 0.9324
vn 0.2835 -0.6781 0.6781
vn -0.0000 -0.7071 0.7071
vn 0.5774 -0.5774 0.5774
vn 0.3405 -0.3405 0.8764
vn -0.3615 -0.0000 0.9324
vn -0.7071 -0.0000 0.7071
vn -0.0000 -0.0000 1.0000
vn 0.6781 -0.2835 0.6781
vn 0.3615 -0.0000 0.9324
vn -0.3405 0.3405 0.8764
vn 0.3405 0.3405 0.8764
vn -0.0000 0.3615 0.9324
vn 0.6781 0.2835 0.6781
vn -0.2835 0.6781 0.6781
vn 0.2835 0.6781 0.6781
vn -0.0000 0.7071 0.7071
vn 0.5774 0.5774 0.5774
vn 0.8764 -0.3405 0.3405
vn 0.6781 -0.6781 0.2835
vn 0.9324 -0.3615 -0.0000
vn 0.6781 -0.6781 -0.2835
vn 0.7071 -0.7071 -0.0000
vn 0.8764 -0.3405 -0.3405
vn 0.9324 -0.0000 0.3615
vn 0.7071 -0.0000 0.7071
vn 1.0000 -0.0000 -0.0000
vn 0.9324 -0.0000 -0.3615
vn 0.8764 0.3405 0.3405
vn 0.8764 0.3405 -0.3405
vn 0.9324 0.3615 -0.0000
vn 0.6781 0.6781 0.2835
vn 0.6781 0.6781 -0.2835
vn 0.7071 0.7071 -0.0000
vn 0.3405 -0.8764 0.3405
vn -0.0000 -0.9324 0.3615
vn -0.3405 -0.8764 0.3405
vn 0.3615 -0.9324 -0.0000
vn -0.0000 -1.0000 -0.0000
vn -0.3615 -0.9324 -0.0000
vn 0.3405 -0.8764 -0.3405
vn -0.3405 -0.8764 -0.3405
vn -0.0000 -0.9324 -0.3615
vn 0.3405 0.8764 -0.3405
vn -0.0000 0.9324 -0.3615
vn -0.3405 0.8764 -0.3405
vn 0.3615 0.9324 -0.0000
vn -0.0000 1.0000 -0.0000
vn -0.3615 0.9324 -0.0000
vn 0.3405 0.8764 0.3405
vn -0.3405 0.8764 0.3405
vn -0.0000 0.9324 0.3615
vt 0.308321 0.968212
vt 0.341005 0.916930
vt 0.356847 0.967534
vt 0.288506 0.923928
vt 0.333899 0.879531
vt 0.284237 0.840443
vt 0.281973 0.882300
vt 0.304489 0.795288
vt 0.334024 0.844683
vt 0.377860 0.907636
vt 0.397428 0.955858
vt 0.367713 0.875186
vt 0.344301 0.808403
vt 0.364252 0.845473
vt 0.434532 0.935945
vt 0.408975 0.892937
vt 0.388567 0.843665
vt 0.396061 0.866474
vt 0.386018 0.819358
vt 0.466651 0.897381
vt 0.435415 0.869198
vt 0.411594 0.837730
vt 0.421321 0.851914
vt 0.403648 0.822259
vt 0.356114 0.774466
vt 0.316382 0.746837
vt 0.375147 0.751113
vt 0.378289 0.692215
vt 0.343364 0.715048
vt 0.428549 0.687506
vt 0.400008 0.735176
vt 0.378686 0.788986
vt 0.368018 0.815039
vt 0.392989 0.770763
vt 0.432473 0.728970
vt 0.411555 0.757928
vt 0.396357 0.799596
vt 0.420819 0.774765
vt 0.407768 0.785897
vt 0.438196 0.765774
vt 0.413473 0.809574
vt 0.430797 0.790097
vt 0.422193 0.799416
vt 0.440946 0.780498
vt 0.463261 0.727596
vt 0.471780 0.692833
vt 0.487823 0.733750
vt 0.526188 0.712105
vt 0.499417 0.701140
vt 0.563134 0.734887
vt 0.510944 0.744847
vt 0.459860 0.750147
vt 0.435630 0.750352
vt 0.479933 0.755209
vt 0.535417 0.766194
vt 0.498616 0.764979
vt 0.457257 0.768069
vt 0.487875 0.780730
vt 0.472786 0.773225
vt 0.504817 0.793477
vt 0.453881 0.785501
vt 0.476924 0.796153
vt 0.465214 0.790563
vt 0.490710 0.803303
vt 0.560778 0.792306
vt 0.602607 0.765227
vt 0.576764 0.822747
vt 0.637292 0.841368
vt 0.623994 0.801342
vt 0.639763 0.889891
vt 0.587409 0.859051
vt 0.534910 0.806609
vt 0.518344 0.782141
vt 0.545071 0.834155
vt 0.596134 0.911293
vt 0.550525 0.867347
vt 0.512945 0.815627
vt 0.516369 0.868063
vt 0.516240 0.838931
vt 0.512534 0.917836
vt 0.490185 0.820212
vt 0.482439 0.858425
vt 0.487593 0.836910
vt 0.549186 0.675215
vt 0.596900 0.698942
vt 0.513658 0.660839
vt 0.476975 0.649715
vt 0.566553 0.638486
vt 0.617483 0.661464
vt 0.527093 0.622798
vt 0.424853 0.638203
vt 0.486526 0.610209
vt 0.632070 0.621171
vt 0.581639 0.598410
vt 0.499979 0.569539
vt 0.541391 0.582340
vt 0.446419 0.555529
vt 0.639763 0.573245
vt 0.599543 0.546081
vt 0.518959 0.517574
vt 0.560272 0.528950
vt 0.470583 0.513404
vt 0.455229 0.847308
vt 0.438847 0.835208
vt 0.426188 0.823279
vt 0.464844 0.829428
vt 0.449325 0.820804
vt 0.436067 0.811130
vt 0.471211 0.813461
vt 0.444761 0.799376
vt 0.457388 0.806584
vt 0.554621 0.919088
vt 0.432418 0.596064
s 1
usemtl Hielo_escudo
f 1/1/1 6/2/2 5/3/3
f 2/4/4 7/5/5 6/2/2
f 4/6/6 7/5/5 3/7/7
f 17/8/8 8/9/9 4/6/6
f 5/3/3 10/10/10 9/11/11
f 6/2/2 11/12/12 10/10/10
f 8/9/9 11/12/12 7/5/5
f 21/13/13 12/14/14 8/9/9
f 10/10/10 13/15/15 9/11/11
f 11/12/12 14/16/16 10/10/10
f 11/12/12 16/17/17 15/18/18
f 12/14/14 29/19/19 16/17/17
f 14/16/16 74/20/20 13/15/15
f 15/18/18 75/21/21 14/16/16
f 15/18/18 77/22/22 76/23/23
f 16/17/17 78/24/24 77/22/22
f 17/8/8 22/25/25 21/13/13
f 18/26/26 23/27/27 22/25/25
f 20/28/28 23/27/27 19/29/29
f 33/30/30 24/31/31 20/28/28
f 21/13/13 26/32/32 25/33/33
f 22/25/25 27/34/34 26/32/32
f 24/31/31 27/34/34 23/27/27
f 37/35/35 28/36/36 24/31/31
f 26/32/32 29/19/19 25/33/33
f 27/34/34 30/37/37 26/32/32
f 27/34/34 32/38/38 31/39/39
f 28/36/36 45/40/40 32/38/38
f 30/37/37 78/24/24 29/19/19
f 31/39/39 83/41/41 30/37/37
f 31/39/39 93/42/42 88/43/43
f 32/38/38 98/44/44 93/42/42
f 33/30/30 38/45/45 37/35/35
f 34/46/46 39/47/47 38/45/45
f 36/48/48 39/47/47 35/49/49
f 49/50/50 40/51/51 36/48/48
f 37/35/35 42/52/52 41/53/53
f 38/45/45 43/54/54 42/52/52
f 40/51/51 43/54/54 39/47/47
f 53/55/55 44/56/56 40/51/51
f 42/52/52 45/40/40 41/53/53
f 43/54/54 46/57/57 42/52/52
f 43/54/54 48/58/58 47/59/59
f 44/56/56 61/60/60 48/58/58
f 46/57/57 98/44/44 45/40/40
f 47/59/59 97/61/61 46/57/57
f 47/59/59 95/62/62 96/63/63
f 48/58/58 94/64/64 95/62/62
f 49/50/50 54/65/65 53/55/55
f 50/66/66 55/67/67 54/65/65
f 52/68/68 55/67/67 51/69/69
f 1/70/1 56/71/70 52/68/68
f 53/55/55 58/72/71 57/73/72
f 54/65/65 59/74/73 58/72/71
f 56/71/70 59/74/73 55/67/67
f 5/75/3 60/76/74 56/71/70
f 58/72/71 61/60/60 57/73/72
f 59/74/73 62/77/75 58/72/71
f 59/74/73 64/78/76 63/79/77
f 60/76/74 13/80/15 64/78/76
f 62/77/75 94/64/64 61/60/60
f 63/79/77 89/81/78 62/77/75
f 63/79/77 79/82/79 84/83/80
f 64/78/76 74/20/20 79/82/79
f 49/50/50 65/84/81 50/85/66
f 36/48/48 66/86/82 65/84/81
f 34/46/46 66/86/82 35/49/49
f 33/30/30 67/87/83 34/46/46
f 50/85/66 68/88/84 51/89/69
f 65/84/81 69/90/85 68/88/84
f 67/87/83 69/90/85 66/86/82
f 20/91/28 70/92/86 67/87/83
f 68/88/84 52/93/68 51/89/69
f 69/90/85 71/94/87 68/88/84
f 69/90/85 73/95/88 72/96/89
f 70/92/86 18/97/26 73/95/88
f 71/94/87 1/98/1 52/93/68
f 72/96/89 2/99/4 71/94/87
f 72/96/89 4/100/6 3/101/7
f 73/95/88 17/102/8 4/100/6
f 74/20/20 80/103/90 79/82/79
f 75/21/21 81/104/91 80/103/90
f 77/22/22 81/104/91 76/23/23
f 78/24/24 82/105/92 77/22/22
f 79/82/79 85/106/93 84/83/80
f 80/103/90 86/107/94 85/106/93
f 82/105/92 86/107/94 81/104/91
f 83/41/41 87/108/95 82/105/92
f 85/106/93 89/81/78 84/83/80
f 86/107/94 90/109/96 85/106/93
f 86/107/94 92/110/97 91/111/98
f 87/108/95 93/42/42 92/110/97
f 90/109/96 94/64/64 89/81/78
f 91/111/98 95/62/62 90/109/96
f 91/111/98 97/61/61 96/63/63
f 92/110/97 98/44/44 97/61/61
f 1/1/1 2/4/4 6/2/2
f 2/4/4 3/7/7 7/5/5
f 4/6/6 8/9/9 7/5/5
f 17/8/8 21/13/13 8/9/9
f 5/3/3 6/2/2 10/10/10
f 6/2/2 7/5/5 11/12/12
f 8/9/9 12/14/14 11/12/12
f 21/13/13 25/33/33 12/14/14
f 10/10/10 14/16/16 13/15/15
f 11/12/12 15/18/18 14/16/16
f 11/12/12 12/14/14 16/17/17
f 12/14/14 25/33/33 29/19/19
f 14/16/16 75/21/21 74/20/20
f 15/18/18 76/23/23 75/21/21
f 15/18/18 16/17/17 77/22/22
f 16/17/17 29/19/19 78/24/24
f 17/8/8 18/26/26 22/25/25
f 18/26/26 19/29/29 23/27/27
f 20/28/28 24/31/31 23/27/27
f 33/30/30 37/35/35 24/31/31
f 21/13/13 22/25/25 26/32/32
f 22/25/25 23/27/27 27/34/34
f 24/31/31 28/36/36 27/34/34
f 37/35/35 41/53/53 28/36/36
f 26/32/32 30/37/37 29/19/19
f 27/34/34 31/39/39 30/37/37
f 27/34/34 28/36/36 32/38/38
f 28/36/36 41/53/53 45/40/40
f 30/37/37 83/41/41 78/24/24
f 31/39/39 88/43/43 83/41/41
f 31/39/39 32/38/38 93/42/42
f 32/38/38 45/40/40 98/44/44
f 33/30/30 34/46/46 38/45/45
f 34/46/46 35/49/49 39/47/47
f 36/48/48 40/51/51 39/47/47
f 49/50/50 53/55/55 40/51/51
f 37/35/35 38/45/45 42/52/52
f 38/45/45 39/47/47 43/54/54
f 40/51/51 44/56/56 43/54/54
f 53/55/55 57/73/72 44/56/56
f 42/52/52 46/57/57 45/40/40
f 43/54/54 47/59/59 46/57/57
f 43/54/54 44/56/56 48/58/58
f 44/56/56 57/73/72 61/60/60
f 46/57/57 97/61/61 98/44/44
f 47/59/59 96/63/63 97/61/61
f 47/59/59 48/58/58 95/62/62
f 48/58/58 61/60/60 94/64/64
f 49/50/50 50/66/66 54/65/65
f 50/66/66 51/69/69 55/67/67
f 52/68/68 56/71/70 55/67/67
f 1/70/1 5/75/3 56/71/70
f 53/55/55 54/65/65 58/72/71
f 54/65/65 55/67/67 59/74/73
f 56/71/70 60/76/74 59/74/73
f 5/75/3 9/112/11 60/76/74
f 58/72/71 62/77/75 61/60/60
f 59/74/73 63/79/77 62/77/75
f 59/74/73 60/76/74 64/78/76
f 60/76/74 9/112/11 13/80/15
f 62/77/75 89/81/78 94/64/64
f 63/79/77 84/83/80 89/81/78
f 63/79/77 64/78/76 79/82/79
f 64/78/76 13/80/15 74/20/20
f 49/50/50 36/48/48 65/84/81
f 36/48/48 35/49/49 66/86/82
f 34/46/46 67/87/83 66/86/82
f 33/30/30 20/91/28 67/87/83
f 50/85/66 65/84/81 68/88/84
f 65/84/81 66/86/82 69/90/85
f 67/87/83 70/92/86 69/90/85
f 20/91/28 19/113/29 70/92/86
f 68/88/84 71/94/87 52/93/68
f 69/90/85 72/96/89 71/94/87
f 69/90/85 70/92/86 73/95/88
f 70/92/86 19/113/29 18/97/26
f 71/94/87 2/99/4 1/98/1
f 72/96/89 3/101/7 2/99/4
f 72/96/89 73/95/88 4/100/6
f 73/95/88 18/97/26 17/102/8
f 74/20/20 75/21/21 80/103/90
f 75/21/21 76/23/23 81/104/91
f 77/22/22 82/105/92 81/104/91
f 78/24/24 83/41/41 82/105/92
f 79/82/79 80/103/90 85/106/93
f 80/103/90 81/104/91 86/107/94
f 82/105/92 87/108/95 86/107/94
f 83/41/41 88/43/43 87/108/95
f 85/106/93 90/109/96 89/81/78
f 86/107/94 91/111/98 90/109/96
f 86/107/94 87/108/95 92/110/97
f 87/108/95 88/43/43 93/42/42
f 90/109/96 95/62/62 94/64/64
f 91/111/98 96/63/63 95/62/62
f 91/111/98 92/110/97 97/61/61
f 92/110/97 93/42/42 98/44/44
