# Blender 4.0.2
# www.blender.org
mtllib Hielo_2.mtl
o Cone.001
v -0.001629 0.290880 -1.006626
v 0.213467 0.123245 -0.966235
v 0.266266 -0.131315 -1.026850
v 0.000000 -0.253795 -0.971098
v -0.265043 -0.135747 -1.028414
v -0.218194 0.125974 -0.969869
v 0.000000 -0.000000 1.000000
v 0.021172 0.248023 -0.492638
v 0.000000 0.156219 0.001131
v 0.000705 0.060934 0.491320
v 0.074134 0.042801 0.501679
v 0.073285 0.042311 -0.009508
v 0.200697 0.115873 -0.498687
v 0.062815 -0.036266 0.499737
v 0.137975 -0.079660 0.001592
v 0.167224 -0.096547 -0.504431
v 0.000000 -0.127624 0.507924
v 0.000000 -0.197434 0.007256
v 0.000000 -0.251416 -0.495764
v -0.094475 -0.054545 0.505170
v -0.165172 -0.095362 0.006259
v -0.165256 -0.095411 -0.504768
v -0.121959 0.070413 0.509886
v -0.148160 0.085540 0.003340
v -0.169167 0.097669 -0.504097
v -0.001314 -0.001857 -0.994949
vn 0.2226 0.9679 0.1163
vn 0.9806 -0.1437 0.1335
vn 0.8215 -0.5520 0.1432
vn -0.6031 -0.7721 0.2003
vn -0.9540 -0.2176 0.2061
vn 0.0943 0.9885 0.1185
vn -0.5932 0.7997 0.0930
vn -0.6199 0.7758 0.1177
vn -0.4219 0.8899 0.1736
vn -0.9752 0.1353 0.1754
vn -0.9990 -0.0204 0.0409
vn -0.9867 0.0949 0.1321
vn -0.4292 -0.8906 0.1504
vn -0.6866 -0.7229 0.0776
vn -0.5209 -0.8416 0.1427
vn 0.4381 -0.8876 0.1421
vn 0.6799 -0.7306 0.0637
vn 0.6445 -0.7472 0.1623
vn 0.9717 0.1602 0.1736
vn 0.9611 -0.1576 0.2266
vn 0.8763 0.4731 0.0910
vn 0.6097 0.7917 0.0390
vn 0.5772 0.7719 0.2664
vn 0.8409 0.5315 0.1021
vn 0.1548 -0.0392 -0.9872
vn -0.0043 0.2308 -0.9730
vn -0.1625 -0.0938 -0.9822
vn 0.1712 -0.0920 -0.9809
vn 0.0143 0.2158 -0.9763
vn -0.1378 -0.0396 -0.9897
vn -0.6201 0.7764 0.1125
vn -0.4297 0.9021 0.0394
vn 0.0809 0.9964 0.0256
vn -0.9944 -0.0205 0.1034
vn -0.9956 0.0936 0.0002
vn -0.9754 -0.2162 0.0440
vn -0.6866 -0.7271 0.0036
vn -0.5257 -0.8507 0.0002
vn -0.6102 -0.7847 0.1094
vn 0.6796 -0.7336 0.0037
vn 0.6490 -0.7564 0.0812
vn 0.8248 -0.5601 0.0781
vn 0.9874 -0.1563 0.0245
vn 0.8816 0.4708 0.0352
vn 0.9899 -0.1417 -0.0015
vn 0.5932 0.8045 0.0289
vn 0.8390 0.5273 0.1340
vn 0.2399 0.9708 -0.0013
vt 0.674965 0.939014
vt 0.620357 0.965956
vt 0.669733 0.931875
vt 0.664512 0.924023
vt 0.654938 0.914541
vt 0.680707 0.981693
vt 0.681148 0.967342
vt 0.678563 0.952771
vt 0.854359 0.906384
vt 0.788696 0.895020
vt 0.847142 0.872805
vt 0.798234 0.923179
vt 0.731114 0.916849
vt 0.736077 0.936481
vt 0.803434 0.947283
vt 0.869840 0.935611
vt 0.740400 0.958162
vt 0.864548 0.971162
vt 0.743066 0.981781
vt 0.805882 0.976150
vt 0.764300 0.849473
vt 0.791042 0.790822
vt 0.819393 0.813404
vt 0.713980 0.887417
vt 0.745615 0.827924
vt 0.699282 0.870566
vt 0.827469 0.844719
vt 0.723874 0.901371
vt 0.778248 0.871184
vt 0.993892 0.952596
vt 0.938923 0.967935
vt 0.944720 0.915750
vt 0.888960 0.944400
vt 0.902156 0.884026
vt 0.955724 0.854309
vt 0.993892 0.895743
s 0
usemtl Hielo_estaca
f 10/1/1 7/2/1 11/3/1
f 11/3/2 7/2/2 14/4/2
f 14/4/3 7/2/3 17/5/3
f 17/6/4 7/2/4 20/7/4
f 20/7/5 7/2/5 23/8/5
f 23/8/6 7/2/6 10/1/6
f 6/9/7 8/10/7 1/11/7
f 25/12/8 9/13/8 8/10/8
f 24/14/9 10/1/9 9/13/9
f 22/15/10 6/9/10 5/16/10
f 22/15/11 24/14/11 25/12/11
f 20/7/12 24/14/12 21/17/12
f 4/18/13 22/15/13 5/16/13
f 18/19/14 22/15/14 19/20/14
f 18/19/15 20/7/15 21/17/15
f 16/21/16 4/22/16 3/23/16
f 15/24/17 19/25/17 16/21/17
f 14/4/18 18/26/18 15/24/18
f 2/27/19 16/21/19 3/23/19
f 12/28/20 16/21/20 13/29/20
f 12/28/21 14/4/21 15/24/21
f 8/10/22 2/27/22 1/11/22
f 8/10/23 12/28/23 13/29/23
f 10/1/24 12/28/24 9/13/24
f 1/30/25 2/31/25 26/32/25
f 2/31/26 3/33/26 26/32/26
f 3/33/27 4/34/27 26/32/27
f 4/34/28 5/35/28 26/32/28
f 5/35/29 6/36/29 26/32/29
f 6/36/30 1/30/30 26/32/30
f 6/9/31 25/12/31 8/10/31
f 25/12/32 24/14/32 9/13/32
f 24/14/33 23/8/33 10/1/33
f 22/15/34 25/12/34 6/9/34
f 22/15/35 21/17/35 24/14/35
f 20/7/36 23/8/36 24/14/36
f 4/18/37 19/20/37 22/15/37
f 18/19/38 21/17/38 22/15/38
f 18/19/39 17/6/39 20/7/39
f 16/21/40 19/25/40 4/22/40
f 15/24/41 18/26/41 19/25/41
f 14/4/42 17/5/42 18/26/42
f 2/27/43 13/29/43 16/21/43
f 12/28/44 15/24/44 16/21/44
f 12/28/45 11/3/45 14/4/45
f 8/10/46 13/29/46 2/27/46
f 8/10/47 9/13/47 12/28/47
f 10/1/48 11/3/48 12/28/48
