# Blender 4.0.2
# www.blender.org
mtllib Spiderweb_grounded.mtl
o Cone.004
v 0.000000 0.098899 -4.915444
v 3.475744 0.098899 -3.475744
v 4.915445 0.098899 0.000000
v 3.475744 0.098899 3.475744
v 0.000000 0.098899 4.915445
v -3.475744 0.098899 3.475744
v -4.915444 0.098899 0.000000
v -3.475744 0.098899 -3.475744
v 0.000000 0.132238 0.000000
v 0.000000 0.292983 -3.025506
v 2.064970 0.279737 -2.064970
v 3.078177 0.299615 -0.000000
v 2.073926 0.281331 2.073926
v -0.000000 0.281491 2.934244
v -2.182643 0.300691 2.182643
v -2.935960 0.281707 -0.000000
v -2.135006 0.292208 -2.135006
v 0.172906 0.286057 -2.778232
v 0.172905 0.148299 -0.412084
v 1.787850 0.275698 -2.027029
v 2.030336 0.276234 -1.793066
v 0.410675 0.148624 -0.173406
v 2.825046 0.291825 -0.173406
v 2.827076 0.291998 0.173243
v 0.410925 0.148732 0.173243
v 2.038810 0.277647 1.801128
v 1.786041 0.276073 2.028496
v 0.171488 0.147762 0.413943
v 0.171488 0.276198 2.698255
v -0.167874 0.277873 2.717365
v -0.167874 0.148793 0.412960
v -1.882010 0.292951 2.127095
v -2.127274 0.292975 1.882219
v -0.412968 0.148808 0.167914
v -2.718949 0.278065 0.167914
v -3.022656 0.105781 -3.254356
v -2.026575 0.282419 -2.257968
v -0.163588 0.283115 -3.035793
v -0.163369 0.105762 -4.437987
v -2.711112 0.277369 -0.169595
v -0.413676 0.148386 -0.169595
v -2.084353 0.285586 -1.840271
v -1.850407 0.286680 -2.092161
v -0.171165 0.149060 -0.412919
v -0.171165 0.287289 -2.792563
v -4.438145 0.105809 -0.166956
v -2.949847 0.272491 -0.164124
v -2.260812 0.281945 -2.029287
v -3.246496 0.105533 -3.019584
v -3.244561 0.105514 3.021805
v -2.306539 0.289892 2.075231
v -2.947281 0.272818 0.164299
v -4.444073 0.105983 0.169004
v -0.169067 0.105985 4.444081
v -0.164313 0.272614 2.945639
v -2.075283 0.289882 2.306601
v -3.021755 0.105509 3.244407
v 3.016816 0.105566 3.248926
v 1.970382 0.271719 2.202425
v 0.164073 0.271863 2.951897
v 0.164025 0.105561 4.430435
v 4.430705 0.105507 0.157758
v 3.090294 0.288868 0.163585
v 2.198415 0.272421 1.966065
v 3.261323 0.105964 3.022508
v 3.261698 0.105973 -3.022226
v 2.189914 0.270912 -1.957418
v 3.090894 0.288798 -0.163641
v 4.429632 0.105471 -0.157212
v 0.159538 0.105485 -4.429446
v 0.163740 0.282587 -3.040207
v 1.958934 0.270661 -2.191218
v 3.020040 0.105836 -3.257292
v 0.159525 0.023703 -4.429459
v 3.020026 0.024054 -3.257305
v -0.000014 0.211201 -3.025519
v -0.000014 0.050456 -0.000013
v 2.064956 0.197955 -2.064983
v 3.475730 0.011205 -3.475758
v 3.261684 0.024191 -3.022240
v 4.429618 0.023689 -0.157225
v 3.078163 0.217833 -0.000013
v 4.915430 0.011205 -0.000014
v 4.430692 0.023726 0.157744
v 3.261310 0.024182 3.022495
v 2.073912 0.199549 2.073912
v 3.475730 0.011205 3.475730
v 3.016803 0.023784 3.248913
v 0.164011 0.023779 4.430421
v -0.000014 0.199709 2.934231
v -0.000014 0.011205 4.915431
v -0.169080 0.024203 4.444068
v -3.021768 0.023727 3.244393
v -2.182656 0.218909 2.182629
v -3.475758 0.011205 3.475730
v -3.244575 0.023732 3.021791
v -4.444086 0.024201 0.168991
v -2.935973 0.199925 -0.000013
v -4.915459 0.011205 -0.000014
v -4.438159 0.024027 -0.166969
v -3.246510 0.023751 -3.019598
v -2.135020 0.210426 -2.135020
v -3.475758 0.011205 -3.475758
v -3.022670 0.023999 -3.254369
v -0.163383 0.023980 -4.438000
v -0.000014 0.011205 -4.915458
v 0.172892 0.204275 -2.778246
v 0.172892 0.066517 -0.412097
v 1.787837 0.193916 -2.027042
v 0.410662 0.066842 -0.173419
v 2.030322 0.194452 -1.793080
v 2.825032 0.210043 -0.173419
v 0.410912 0.066950 0.173229
v 2.827063 0.210216 0.173229
v 2.038796 0.195865 1.801115
v 0.171474 0.065980 0.413930
v 1.786028 0.194291 2.028483
v 0.171474 0.194416 2.698242
v -0.167888 0.067012 0.412947
v -0.167888 0.196091 2.717351
v -1.882023 0.211170 2.127082
v -0.412982 0.067026 0.167901
v -2.127287 0.211193 1.882206
v -2.718962 0.196283 0.167900
v -2.026588 0.200637 -2.257982
v -0.163601 0.201333 -3.035807
v -0.413690 0.066604 -0.169608
v -2.711125 0.195587 -0.169608
v -2.084367 0.203804 -1.840285
v -0.171179 0.067278 -0.412932
v -1.850420 0.204898 -2.092174
v -0.171179 0.205507 -2.792577
v -2.949861 0.190709 -0.164138
v -2.260825 0.200163 -2.029300
v -2.306553 0.208110 2.075217
v -2.947295 0.191036 0.164286
v -0.164327 0.190832 2.945626
v -2.075296 0.208100 2.306588
v 1.970369 0.189937 2.202411
v 0.164059 0.190081 2.951884
v 3.090280 0.207086 0.163572
v 2.198401 0.190639 1.966052
v 2.189901 0.189130 -1.957432
v 3.090881 0.207016 -0.163654
v 0.163726 0.200806 -3.040221
v 1.958920 0.188879 -2.191232
vn -0.0337 -0.9980 -0.0530
vn 0.0558 -0.9983 -0.0155
vn 0.0098 -0.9993 -0.0348
vn 0.0168 -0.9984 -0.0545
vn 0.0543 -0.9979 0.0342
vn 0.0364 -0.9993 -0.0082
vn 0.0543 -0.9980 -0.0337
vn 0.0170 -0.9984 0.0548
vn 0.0364 -0.9993 0.0088
vn 0.0586 -0.9982 0.0132
vn -0.0322 -0.9982 0.0508
vn 0.0132 -0.9994 0.0320
vn 0.0265 -0.9984 0.0508
vn -0.0624 -0.9979 0.0147
vn -0.0198 -0.9993 0.0320
vn -0.0147 -0.9979 0.0623
vn -0.0508 -0.9984 -0.0265
vn -0.0321 -0.9993 0.0198
vn 0.0341 -0.9934 0.1091
vn 0.0520 -0.9909 0.1238
vn 0.0535 -0.9933 0.1020
vn 0.0070 -0.9998 0.0168
vn -0.0508 -0.9983 0.0289
vn -0.0141 -0.9981 -0.0607
vn -0.0321 -0.9993 -0.0169
vn -0.0583 -0.9982 -0.0165
vn 0.0298 -0.9981 -0.0530
vn -0.0142 -0.9993 -0.0348
vn 0.0898 -0.9722 0.2164
vn 0.1123 -0.9930 0.0373
vn 0.1094 -0.9934 0.0338
vn 0.0169 -0.9998 0.0070
vn 0.1182 -0.9923 -0.0366
vn 0.1128 -0.9932 -0.0303
vn 0.0899 -0.9736 -0.2100
vn 0.0176 -0.9998 -0.0073
vn 0.2094 -0.9737 -0.0897
vn 0.0300 -0.9932 -0.1126
vn 0.0366 -0.9923 -0.1182
vn 0.0073 -0.9998 -0.0177
vn -0.0305 -0.9946 -0.0990
vn -0.0463 -0.9927 -0.1114
vn -0.0485 -0.9946 -0.0917
vn -0.0066 -0.9999 -0.0160
vn -0.1084 -0.9925 -0.0572
vn -0.1012 -0.9932 -0.0578
vn -0.2117 -0.9736 0.0850
vn -0.0176 -0.9998 -0.0073
vn -0.2078 -0.9747 -0.0829
vn -0.0987 -0.9934 0.0580
vn -0.1084 -0.9925 0.0572
vn -0.0176 -0.9998 0.0073
vn -0.0539 -0.9933 0.1020
vn -0.0539 -0.9933 0.1022
vn 0.0864 -0.9736 0.2112
vn -0.0071 -0.9998 0.0170
vn -0.0431 0.9974 0.0581
vn -0.0558 0.9983 0.0155
vn -0.0098 0.9993 0.0348
vn -0.0753 0.9972 0.0033
vn -0.0543 0.9979 -0.0342
vn -0.0364 0.9993 0.0082
vn -0.0591 0.9974 -0.0419
vn -0.0170 0.9984 -0.0548
vn -0.0364 0.9993 -0.0088
vn -0.0068 0.9973 -0.0725
vn 0.0322 0.9982 -0.0508
vn -0.0132 0.9994 -0.0320
vn 0.0507 0.9972 -0.0559
vn 0.0624 0.9979 -0.0147
vn 0.0198 0.9993 -0.0320
vn 0.0714 0.9974 -0.0125
vn 0.0508 0.9984 0.0265
vn 0.0321 0.9993 -0.0198
vn 0.0842 0.9700 -0.2283
vn -0.0527 0.9907 -0.1253
vn -0.0519 0.9908 -0.1253
vn -0.0129 0.9994 -0.0312
vn 0.0560 0.9972 0.0487
vn 0.0141 0.9981 0.0607
vn 0.0321 0.9993 0.0169
vn 0.0083 0.9973 0.0734
vn -0.0298 0.9981 0.0530
vn 0.0142 0.9993 0.0348
vn -0.0932 0.9771 -0.1913
vn -0.1335 0.9901 -0.0443
vn -0.1248 0.9908 -0.0523
vn -0.0298 0.9995 -0.0125
vn -0.2602 0.9597 -0.1060
vn -0.1128 0.9932 0.0303
vn -0.1105 0.9928 0.0461
vn -0.0324 0.9994 0.0134
vn -0.1843 0.9784 0.0931
vn -0.0426 0.9871 0.1542
vn -0.0577 0.9890 0.1362
vn -0.0126 0.9995 0.0295
vn -0.0752 0.9756 0.2063
vn 0.0464 0.9927 0.1117
vn 0.0462 0.9927 0.1117
vn 0.0125 0.9995 0.0301
vn 0.1080 0.9607 0.2557
vn 0.1012 0.9932 0.0578
vn 0.1104 0.9929 0.0454
vn 0.0322 0.9994 0.0134
vn 0.1924 0.9793 0.0628
vn 0.1378 0.9873 -0.0790
vn 0.1357 0.9892 -0.0548
vn 0.0295 0.9995 -0.0119
vn 0.2358 0.9664 -0.1023
vn 0.0539 0.9933 -0.1022
vn 0.0448 0.9930 -0.1090
vn 0.0131 0.9994 -0.0315
vn 0.9000 -0.0002 0.4358
vn -0.0032 0.0002 -1.0000
vn -0.7071 -0.0000 0.7071
vn -0.9239 0.0002 -0.3827
vn 0.3827 -0.0002 0.9239
vn -0.7048 0.0002 -0.7094
vn -0.0000 -0.0002 1.0000
vn 0.7071 -0.0000 -0.7071
vn -0.8936 0.0001 0.4488
vn 0.9239 -0.0001 -0.3827
vn -0.9363 0.0002 -0.3512
vn 0.3832 -0.0002 0.9237
vn -0.0048 -0.0002 1.0000
vn 1.0000 -0.0002 0.0032
vn -1.0000 0.0002 -0.0000
vn 0.3792 0.0001 -0.9253
vn 0.3171 0.0001 -0.9484
vn -0.7039 0.0002 -0.7103
vn 0.9260 -0.0001 -0.3775
vn 1.0000 -0.0002 -0.0000
vn -0.9239 0.0001 0.3827
vn -0.3850 0.0002 -0.9229
vn -0.3256 -0.0001 0.9455
vn -1.0000 0.0002 0.0030
vn 0.9258 -0.0002 0.3779
vn -0.7071 0.0002 -0.7071
vn -0.4275 -0.0001 0.9040
vn 0.3827 0.0001 -0.9239
vn 0.4218 0.0001 -0.9067
vn 0.7087 -0.0002 0.7055
vn 0.3826 -0.0002 0.9239
vn 0.7071 -0.0002 0.7071
vn -0.3832 0.0002 -0.9236
vn -0.3877 -0.0001 0.9218
vn -0.0019 -0.0002 1.0000
vn 0.9380 -0.0002 0.3465
vn -0.9453 0.0001 0.3263
vn -0.9218 0.0001 0.3876
vn 0.7088 -0.0000 -0.7055
vn -0.0000 0.0002 -1.0000
vn -0.3827 -0.0001 0.9239
vn 0.8978 -0.0001 -0.4405
vn -0.9227 0.0002 -0.3855
vn -0.3827 0.0002 -0.9239
vn -0.3825 0.0002 -0.9240
vn -0.0043 0.0002 -1.0000
vn -0.7072 -0.0000 0.7070
vn -0.8963 0.0002 -0.4435
vn 0.9239 -0.0002 0.3827
vn 0.3853 -0.0002 0.9228
vn -0.7049 -0.0000 0.7093
vn 0.7103 -0.0002 0.7039
vn 1.0000 -0.0002 0.0002
vn 0.9481 -0.0001 -0.3179
vn 0.0431 -0.9974 -0.0581
vn 0.0044 -0.9972 -0.0743
vn 0.0753 -0.9972 -0.0033
vn 0.0592 -0.9974 -0.0416
vn 0.0591 -0.9974 0.0419
vn 0.0752 -0.9972 0.0038
vn 0.0068 -0.9973 0.0725
vn 0.0464 -0.9973 0.0561
vn -0.0507 -0.9972 0.0559
vn -0.0125 -0.9974 0.0714
vn -0.0714 -0.9974 0.0125
vn -0.0559 -0.9972 0.0506
vn -0.1320 -0.9449 0.2994
vn 0.0527 -0.9907 0.1253
vn 0.3093 -0.9435 0.1194
vn 0.0069 -0.9998 0.0167
vn -0.0560 -0.9972 -0.0487
vn -0.0718 -0.9974 -0.0101
vn -0.0083 -0.9973 -0.0734
vn -0.0457 -0.9973 -0.0579
vn 0.1111 -0.9927 0.0463
vn 0.1335 -0.9901 0.0443
vn 0.3118 -0.9393 -0.1431
vn 0.0157 -0.9999 0.0067
vn 0.3457 -0.9241 0.1626
vn 0.1540 -0.9872 -0.0428
vn 0.1105 -0.9928 -0.0461
vn 0.0155 -0.9999 -0.0067
vn 0.0460 -0.9928 -0.1103
vn 0.0426 -0.9871 -0.1542
vn -0.1629 -0.9240 -0.3460
vn 0.0067 -0.9999 -0.0155
vn 0.1207 -0.9546 -0.2722
vn -0.0464 -0.9927 -0.1117
vn -0.2787 -0.9544 -0.1074
vn -0.1282 -0.9260 -0.3552
vn -0.1374 -0.9875 -0.0770
vn -0.1104 -0.9929 -0.0454
vn -0.0157 -0.9999 -0.0062
vn -0.1085 -0.9931 0.0446
vn -0.1378 -0.9873 0.0790
vn -0.1284 -0.9248 0.3580
vn -0.0155 -0.9999 0.0061
vn -0.3282 -0.9369 0.1204
vn -0.0667 -0.9896 0.1272
vn -0.0448 -0.9930 0.1090
vn -0.0063 -0.9999 0.0156
vn 0.0337 0.9980 0.0530
vn -0.0044 0.9972 0.0743
vn -0.0168 0.9984 0.0545
vn -0.0592 0.9974 0.0416
vn -0.0543 0.9980 0.0337
vn -0.0752 0.9972 -0.0038
vn -0.0586 0.9982 -0.0132
vn -0.0464 0.9973 -0.0561
vn -0.0265 0.9984 -0.0508
vn 0.0125 0.9974 -0.0714
vn 0.0147 0.9979 -0.0623
vn 0.0559 0.9972 -0.0506
vn -0.0514 0.9909 -0.1242
vn -0.0520 0.9909 -0.1238
vn -0.2240 0.9692 -0.1026
vn -0.0129 0.9994 -0.0313
vn 0.0508 0.9983 -0.0289
vn 0.0718 0.9974 0.0101
vn 0.0583 0.9982 0.0165
vn 0.0457 0.9973 0.0579
vn -0.1111 0.9927 -0.0463
vn -0.1123 0.9930 -0.0373
vn -0.2355 0.9675 0.0917
vn -0.0314 0.9994 -0.0130
vn -0.1362 0.9890 0.0577
vn -0.1540 0.9872 0.0428
vn -0.0933 0.9783 0.1849
vn -0.0295 0.9995 0.0126
vn -0.0460 0.9928 0.1103
vn -0.0300 0.9932 0.1126
vn 0.1062 0.9597 0.2603
vn -0.0134 0.9994 0.0324
vn 0.0462 0.9927 0.1115
vn 0.0463 0.9927 0.1114
vn 0.1997 0.9755 0.0928
vn 0.0125 0.9995 0.0302
vn 0.1356 0.9892 0.0549
vn 0.1374 0.9875 0.0770
vn 0.1963 0.9784 -0.0649
vn 0.0297 0.9995 0.0120
vn 0.1085 0.9931 -0.0446
vn 0.0987 0.9934 -0.0580
vn 0.1080 0.9602 -0.2575
vn 0.0323 0.9994 -0.0134
vn 0.0515 0.9906 -0.1264
vn 0.0667 0.9896 -0.1272
vn -0.0663 0.9784 -0.1958
vn 0.0120 0.9995 -0.0297
vt 0.368242 0.542550
vt 0.334754 0.525904
vt 0.328242 0.525982
vt 0.368242 0.509413
vt 0.366036 0.538862
vt 0.332878 0.521507
vt 0.344811 0.485982
vt 0.345874 0.490133
vt 0.328138 0.519552
vt 0.311674 0.485982
vt 0.341143 0.488155
vt 0.323567 0.521305
vt 0.288242 0.509413
vt 0.292427 0.508407
vt 0.321825 0.525872
vt 0.288242 0.542550
vt 0.290411 0.538884
vt 0.323782 0.530595
vt 0.311674 0.565982
vt 0.292365 0.543608
vt 0.353490 0.586935
vt 0.347042 0.565233
vt 0.344811 0.565982
vt 0.367494 0.544778
vt 0.389195 0.551229
vt 0.354857 0.584085
vt 0.328181 0.532485
vt 0.341146 0.563785
vt 0.332767 0.530513
vt 0.364228 0.543544
vt 0.306003 0.585855
vt 0.302995 0.586935
vt 0.342698 0.567035
vt 0.267289 0.551229
vt 0.288983 0.544748
vt 0.301629 0.584050
vt 0.268364 0.503741
vt 0.267289 0.500734
vt 0.287212 0.540472
vt 0.302995 0.465029
vt 0.309381 0.486737
vt 0.288997 0.507122
vt 0.301632 0.467929
vt 0.353490 0.465029
vt 0.342728 0.484949
vt 0.306002 0.466105
vt 0.386301 0.499369
vt 0.389195 0.500734
vt 0.347014 0.486723
vt 0.369295 0.540440
vt 0.388111 0.503748
vt 0.366036 0.512947
vt 0.364252 0.508512
vt 0.315132 0.488155
vt 0.310668 0.490165
vt 0.290411 0.512860
vt 0.310769 0.562012
vt 0.386348 0.552597
vt 0.315216 0.563785
vt 0.345798 0.561974
vt 0.313817 0.567065
vt 0.350503 0.585879
vt 0.270116 0.552597
vt 0.309401 0.565240
vt 0.287159 0.511546
vt 0.268321 0.548263
vt 0.270188 0.499372
vt 0.350521 0.466064
vt 0.313808 0.484898
vt 0.367500 0.507130
vt 0.354857 0.467862
vt 0.388141 0.548244
vt 0.369332 0.511562
s 0
usemtl Spiderweb
f 10/1/1 19/2/1 9/3/1
f 19/2/2 11/4/2 9/3/2
f 11/4/3 18/5/3 10/1/3
f 11/4/4 22/6/4 9/3/4
f 22/6/5 12/7/5 9/3/5
f 23/8/6 11/4/6 12/7/6
f 12/7/7 25/9/7 9/3/7
f 25/9/8 13/10/8 9/3/8
f 13/10/9 24/11/9 12/7/9
f 13/10/10 28/12/10 9/3/10
f 28/12/11 14/13/11 9/3/11
f 29/14/12 13/10/12 14/13/12
f 14/13/13 31/15/13 9/3/13
f 31/15/14 15/16/14 9/3/14
f 32/17/15 14/13/15 15/16/15
f 15/16/16 34/18/16 9/3/16
f 34/18/17 16/19/17 9/3/17
f 16/19/18 33/20/18 15/16/18
f 8/21/19 37/22/19 17/23/19
f 17/23/20 38/24/20 10/1/20
f 38/24/21 1/25/21 10/1/21
f 1/25/22 36/26/22 8/21/22
f 16/19/23 41/27/23 9/3/23
f 41/27/24 17/23/24 9/3/24
f 42/28/25 16/19/25 17/23/25
f 17/23/26 44/29/26 9/3/26
f 44/29/27 10/1/27 9/3/27
f 45/30/28 17/23/28 10/1/28
f 46/31/29 16/19/29 7/32/29
f 16/19/30 48/33/30 17/23/30
f 48/33/31 8/21/31 17/23/31
f 8/21/32 46/31/32 7/32/32
f 6/34/33 51/35/33 15/16/33
f 51/35/34 16/19/34 15/16/34
f 16/19/35 53/36/35 7/32/35
f 53/36/36 6/34/36 7/32/36
f 54/37/37 14/13/37 5/38/37
f 14/13/38 56/39/38 15/16/38
f 56/39/39 6/34/39 15/16/39
f 6/34/40 54/37/40 5/38/40
f 4/40/41 59/41/41 13/10/41
f 13/10/42 60/42/42 14/13/42
f 60/42/43 5/38/43 14/13/43
f 5/38/44 58/43/44 4/40/44
f 3/44/45 63/45/45 12/7/45
f 63/45/46 13/10/46 12/7/46
f 13/10/47 65/46/47 4/40/47
f 65/46/48 3/44/48 4/40/48
f 66/47/49 11/4/49 2/48/49
f 11/4/50 68/49/50 12/7/50
f 68/49/51 3/44/51 12/7/51
f 3/44/52 66/47/52 2/48/52
f 1/25/53 71/50/53 10/1/53
f 71/50/54 11/4/54 10/1/54
f 11/4/55 73/51/55 2/48/55
f 73/51/56 1/25/56 2/48/56
f 76/1/57 108/2/57 107/5/57
f 78/4/58 108/2/58 77/3/58
f 78/4/59 107/5/59 109/52/59
f 78/4/60 110/6/60 111/53/60
f 82/7/61 110/6/61 77/3/61
f 78/4/62 112/8/62 82/7/62
f 82/7/63 113/9/63 114/11/63
f 86/10/64 113/9/64 77/3/64
f 86/10/65 114/11/65 115/54/65
f 86/10/66 116/12/66 117/55/66
f 90/13/67 116/12/67 77/3/67
f 86/10/68 118/14/68 90/13/68
f 90/13/69 119/15/69 120/56/69
f 94/16/70 119/15/70 77/3/70
f 90/13/71 121/17/71 94/16/71
f 94/16/72 122/18/72 123/20/72
f 98/19/73 122/18/73 77/3/73
f 98/19/74 123/20/74 124/57/74
f 102/23/75 104/26/75 103/21/75
f 102/23/76 126/24/76 125/22/76
f 76/1/77 105/58/77 126/24/77
f 106/25/78 104/26/78 105/58/78
f 98/19/79 127/27/79 128/59/79
f 102/23/80 127/27/80 77/3/80
f 98/19/81 129/28/81 102/23/81
f 102/23/82 130/29/82 131/60/82
f 76/1/83 130/29/83 77/3/83
f 102/23/84 132/30/84 76/1/84
f 98/19/85 100/31/85 99/32/85
f 98/19/86 134/33/86 133/61/86
f 102/23/87 101/62/87 134/33/87
f 103/21/88 100/31/88 101/62/88
f 94/16/89 96/63/89 95/34/89
f 98/19/90 135/35/90 94/16/90
f 98/19/91 97/36/91 136/64/91
f 95/34/92 97/36/92 99/32/92
f 90/13/93 92/37/93 91/38/93
f 90/13/94 138/39/94 137/65/94
f 94/16/95 93/66/95 138/39/95
f 95/34/96 92/37/96 93/66/96
f 86/10/97 88/43/97 87/40/97
f 86/10/98 140/42/98 139/41/98
f 90/13/99 89/67/99 140/42/99
f 91/38/100 88/43/100 89/67/100
f 82/7/101 84/68/101 83/44/101
f 86/10/102 141/45/102 82/7/102
f 86/10/103 85/46/103 142/69/103
f 83/44/104 85/46/104 87/40/104
f 78/4/105 80/47/105 79/48/105
f 78/4/106 144/49/106 143/70/106
f 82/7/107 81/71/107 144/49/107
f 83/44/108 80/47/108 81/71/108
f 76/1/109 74/72/109 106/25/109
f 78/4/110 145/50/110 76/1/110
f 78/4/111 75/51/111 146/73/111
f 106/25/112 75/51/112 79/48/112
f 26/54/113 114/11/113 24/11/113
f 53/36/114 136/64/114 97/36/114
f 25/9/115 115/54/115 26/54/115
f 3/44/116 87/40/116 4/40/116
f 8/21/117 106/25/117 1/25/117
f 66/47/118 143/70/118 67/70/118
f 41/27/119 128/59/119 127/27/119
f 28/12/120 117/55/120 116/12/120
f 67/70/121 144/49/121 68/49/121
f 7/32/122 95/34/122 99/32/122
f 40/59/123 129/28/123 128/59/123
f 27/55/124 118/14/124 117/55/124
f 69/71/125 144/49/125 81/71/125
f 54/37/126 137/65/126 55/65/126
f 41/27/120 129/28/120 42/28/120
f 28/12/127 118/14/127 29/14/127
f 70/72/128 75/51/128 74/72/128
f 55/65/129 138/39/129 56/39/129
f 57/66/130 138/39/130 93/66/130
f 69/71/131 80/47/131 66/47/131
f 44/29/115 131/60/115 130/29/115
f 31/15/132 120/56/132 119/15/132
f 2/48/133 83/44/133 3/44/133
f 43/60/134 132/30/134 131/60/134
f 30/56/135 121/17/135 120/56/135
f 70/72/136 145/50/136 71/50/136
f 62/68/137 85/46/137 84/68/137
f 44/29/132 132/30/132 45/30/132
f 31/15/138 121/17/138 32/17/138
f 19/2/127 107/5/127 108/2/127
f 72/73/139 145/50/139 146/73/139
f 6/34/140 91/38/140 95/34/140
f 20/52/141 107/5/141 18/5/141
f 73/51/142 146/73/142 75/51/142
f 61/67/143 88/43/143 58/43/143
f 58/43/120 139/41/120 59/41/120
f 19/2/144 109/52/144 20/52/144
f 59/41/145 140/42/145 60/42/145
f 57/66/146 92/37/146 54/37/146
f 61/67/127 140/42/127 89/67/127
f 46/31/147 133/61/147 47/61/147
f 34/18/144 123/20/144 122/18/144
f 47/61/148 134/33/148 48/33/148
f 35/57/149 123/20/149 33/20/149
f 50/63/150 97/36/150 96/63/150
f 49/62/151 134/33/151 101/62/151
f 34/18/152 124/57/152 35/57/152
f 22/6/138 111/53/138 110/6/138
f 1/25/153 79/48/153 2/48/153
f 21/53/154 112/8/154 111/53/154
f 49/62/155 100/31/155 46/31/155
f 22/6/119 112/8/119 23/8/119
f 5/38/156 87/40/156 91/38/156
f 39/58/157 104/26/157 36/26/157
f 62/68/158 141/45/158 63/45/158
f 36/26/159 125/22/159 37/22/159
f 64/69/160 141/45/160 142/69/160
f 8/21/161 99/32/161 103/21/161
f 37/22/162 126/24/162 38/24/162
f 65/46/163 142/69/163 85/46/163
f 50/63/164 135/35/164 51/35/164
f 39/58/165 126/24/165 105/58/165
f 25/9/152 114/11/152 113/9/152
f 52/64/166 135/35/166 136/64/166
f 10/1/167 18/5/167 19/2/167
f 19/2/168 20/52/168 11/4/168
f 11/4/3 20/52/3 18/5/3
f 11/4/169 21/53/169 22/6/169
f 22/6/170 23/8/170 12/7/170
f 23/8/6 21/53/6 11/4/6
f 12/7/171 24/11/171 25/9/171
f 25/9/172 26/54/172 13/10/172
f 13/10/9 26/54/9 24/11/9
f 13/10/173 27/55/173 28/12/173
f 28/12/174 29/14/174 14/13/174
f 29/14/12 27/55/12 13/10/12
f 14/13/175 30/56/175 31/15/175
f 31/15/176 32/17/176 15/16/176
f 32/17/15 30/56/15 14/13/15
f 15/16/177 33/20/177 34/18/177
f 34/18/178 35/57/178 16/19/178
f 16/19/18 35/57/18 33/20/18
f 8/21/179 36/26/179 37/22/179
f 17/23/180 37/22/180 38/24/180
f 38/24/181 39/58/181 1/25/181
f 1/25/182 39/58/182 36/26/182
f 16/19/183 40/59/183 41/27/183
f 41/27/184 42/28/184 17/23/184
f 42/28/25 40/59/25 16/19/25
f 17/23/185 43/60/185 44/29/185
f 44/29/186 45/30/186 10/1/186
f 45/30/28 43/60/28 17/23/28
f 46/31/187 47/61/187 16/19/187
f 16/19/188 47/61/188 48/33/188
f 48/33/189 49/62/189 8/21/189
f 8/21/190 49/62/190 46/31/190
f 6/34/191 50/63/191 51/35/191
f 51/35/192 52/64/192 16/19/192
f 16/19/193 52/64/193 53/36/193
f 53/36/194 50/63/194 6/34/194
f 54/37/195 55/65/195 14/13/195
f 14/13/196 55/65/196 56/39/196
f 56/39/197 57/66/197 6/34/197
f 6/34/198 57/66/198 54/37/198
f 4/40/199 58/43/199 59/41/199
f 13/10/200 59/41/200 60/42/200
f 60/42/201 61/67/201 5/38/201
f 5/38/44 61/67/44 58/43/44
f 3/44/202 62/68/202 63/45/202
f 63/45/203 64/69/203 13/10/203
f 13/10/204 64/69/204 65/46/204
f 65/46/205 62/68/205 3/44/205
f 66/47/206 67/70/206 11/4/206
f 11/4/207 67/70/207 68/49/207
f 68/49/208 69/71/208 3/44/208
f 3/44/209 69/71/209 66/47/209
f 1/25/210 70/72/210 71/50/210
f 71/50/211 72/73/211 11/4/211
f 11/4/212 72/73/212 73/51/212
f 73/51/213 70/72/213 1/25/213
f 76/1/214 77/3/214 108/2/214
f 78/4/215 109/52/215 108/2/215
f 78/4/59 76/1/59 107/5/59
f 78/4/216 77/3/216 110/6/216
f 82/7/217 112/8/217 110/6/217
f 78/4/62 111/53/62 112/8/62
f 82/7/218 77/3/218 113/9/218
f 86/10/219 115/54/219 113/9/219
f 86/10/65 82/7/65 114/11/65
f 86/10/220 77/3/220 116/12/220
f 90/13/221 118/14/221 116/12/221
f 86/10/68 117/55/68 118/14/68
f 90/13/222 77/3/222 119/15/222
f 94/16/223 121/17/223 119/15/223
f 90/13/71 120/56/71 121/17/71
f 94/16/224 77/3/224 122/18/224
f 98/19/225 124/57/225 122/18/225
f 98/19/74 94/16/74 123/20/74
f 102/23/226 125/22/226 104/26/226
f 102/23/227 76/1/227 126/24/227
f 76/1/228 106/25/228 105/58/228
f 106/25/229 103/21/229 104/26/229
f 98/19/230 77/3/230 127/27/230
f 102/23/231 129/28/231 127/27/231
f 98/19/81 128/59/81 129/28/81
f 102/23/232 77/3/232 130/29/232
f 76/1/233 132/30/233 130/29/233
f 102/23/84 131/60/84 132/30/84
f 98/19/234 133/61/234 100/31/234
f 98/19/235 102/23/235 134/33/235
f 102/23/236 103/21/236 101/62/236
f 103/21/237 99/32/237 100/31/237
f 94/16/238 135/35/238 96/63/238
f 98/19/239 136/64/239 135/35/239
f 98/19/240 99/32/240 97/36/240
f 95/34/241 96/63/241 97/36/241
f 90/13/242 137/65/242 92/37/242
f 90/13/243 94/16/243 138/39/243
f 94/16/244 95/34/244 93/66/244
f 95/34/245 91/38/245 92/37/245
f 86/10/246 139/41/246 88/43/246
f 86/10/247 90/13/247 140/42/247
f 90/13/248 91/38/248 89/67/248
f 91/38/249 87/40/249 88/43/249
f 82/7/250 141/45/250 84/68/250
f 86/10/251 142/69/251 141/45/251
f 86/10/252 87/40/252 85/46/252
f 83/44/253 84/68/253 85/46/253
f 78/4/254 143/70/254 80/47/254
f 78/4/255 82/7/255 144/49/255
f 82/7/256 83/44/256 81/71/256
f 83/44/257 79/48/257 80/47/257
f 76/1/258 145/50/258 74/72/258
f 78/4/259 146/73/259 145/50/259
f 78/4/260 79/48/260 75/51/260
f 106/25/261 74/72/261 75/51/261
f 26/54/113 115/54/113 114/11/113
f 53/36/114 52/64/114 136/64/114
f 25/9/115 113/9/115 115/54/115
f 3/44/116 83/44/116 87/40/116
f 8/21/117 103/21/117 106/25/117
f 66/47/118 80/47/118 143/70/118
f 41/27/119 40/59/119 128/59/119
f 28/12/120 27/55/120 117/55/120
f 67/70/121 143/70/121 144/49/121
f 7/32/122 6/34/122 95/34/122
f 40/59/123 42/28/123 129/28/123
f 27/55/124 29/14/124 118/14/124
f 69/71/125 68/49/125 144/49/125
f 54/37/126 92/37/126 137/65/126
f 41/27/120 127/27/120 129/28/120
f 28/12/127 116/12/127 118/14/127
f 70/72/128 73/51/128 75/51/128
f 55/65/129 137/65/129 138/39/129
f 57/66/130 56/39/130 138/39/130
f 69/71/131 81/71/131 80/47/131
f 44/29/115 43/60/115 131/60/115
f 31/15/132 30/56/132 120/56/132
f 2/48/133 79/48/133 83/44/133
f 43/60/134 45/30/134 132/30/134
f 30/56/135 32/17/135 121/17/135
f 70/72/136 74/72/136 145/50/136
f 62/68/137 65/46/137 85/46/137
f 44/29/132 130/29/132 132/30/132
f 31/15/138 119/15/138 121/17/138
f 19/2/127 18/5/127 107/5/127
f 72/73/139 71/50/139 145/50/139
f 6/34/140 5/38/140 91/38/140
f 20/52/141 109/52/141 107/5/141
f 73/51/142 72/73/142 146/73/142
f 61/67/143 89/67/143 88/43/143
f 58/43/120 88/43/120 139/41/120
f 19/2/144 108/2/144 109/52/144
f 59/41/145 139/41/145 140/42/145
f 57/66/146 93/66/146 92/37/146
f 61/67/127 60/42/127 140/42/127
f 46/31/147 100/31/147 133/61/147
f 34/18/144 33/20/144 123/20/144
f 47/61/148 133/61/148 134/33/148
f 35/57/149 124/57/149 123/20/149
f 50/63/150 53/36/150 97/36/150
f 49/62/151 48/33/151 134/33/151
f 34/18/152 122/18/152 124/57/152
f 22/6/138 21/53/138 111/53/138
f 1/25/153 106/25/153 79/48/153
f 21/53/154 23/8/154 112/8/154
f 49/62/155 101/62/155 100/31/155
f 22/6/119 110/6/119 112/8/119
f 5/38/156 4/40/156 87/40/156
f 39/58/157 105/58/157 104/26/157
f 62/68/158 84/68/158 141/45/158
f 36/26/159 104/26/159 125/22/159
f 64/69/160 63/45/160 141/45/160
f 8/21/161 7/32/161 99/32/161
f 37/22/162 125/22/162 126/24/162
f 65/46/163 64/69/163 142/69/163
f 50/63/164 96/63/164 135/35/164
f 39/58/165 38/24/165 126/24/165
f 25/9/152 24/11/152 114/11/152
f 52/64/166 51/35/166 135/35/166
