# Blender 4.0.2
# www.blender.org
mtllib Barca_base.mtl
o Base
v -0.055729 -1.876875 10.736971
v 3.912189 -1.876875 -6.820640
v 4.789432 1.254252 -6.820640
v -0.055729 1.254252 14.020712
v -0.055730 -1.876875 -6.820640
v -0.055730 1.254252 -6.820640
v 1.865047 -1.876875 10.018071
v 3.387434 -1.876875 7.861814
v 3.912186 -1.876875 4.782363
v 3.912189 -1.876875 1.702913
v 4.789433 1.254252 1.702913
v 4.789429 1.254252 4.782363
v 4.264677 1.254252 7.861814
v 2.812320 1.254252 10.941262
v -0.055729 -1.876875 1.702913
v -0.055729 -1.876875 4.782363
v -0.055729 -1.876875 7.861814
v -0.055729 -1.876875 10.401175
v 4.744212 0.471471 -6.820640
v 4.653774 -0.311312 -6.820640
v 4.400546 -1.094094 -6.820640
v -0.055730 0.471471 -6.820640
v -0.055730 -0.311312 -6.820640
v -0.055730 -1.094094 -6.820640
v -0.055729 -1.094094 12.054789
v -0.055729 -0.311312 12.940535
v -0.055729 0.471471 13.567038
v 4.744213 0.471471 1.702913
v 4.653774 -0.311312 1.702913
v 4.400547 -1.094094 1.702913
v 4.744209 0.471471 4.782363
v 4.653771 -0.311312 4.782363
v 4.400543 -1.094094 4.782363
v 4.219457 0.471471 7.861814
v 4.129019 -0.311312 7.861814
v 3.875791 -1.094094 7.861814
v 2.658323 0.471471 10.790534
v 2.485987 -0.311312 10.664926
v 2.199357 -1.094094 10.369748
v -4.023649 -1.876875 -6.820640
v -4.900892 1.254252 -6.820640
v -1.976504 -1.876875 10.018071
v -3.498892 -1.876875 7.861814
v -4.023644 -1.876875 4.782363
v -4.023648 -1.876875 1.702913
v -4.900891 1.254252 1.702914
v -4.900887 1.254252 4.782363
v -4.376134 1.254252 7.861814
v -2.923778 1.254252 10.941262
v -4.855672 0.471471 -6.820640
v -4.765234 -0.311312 -6.820640
v -4.512006 -1.094094 -6.820640
v -4.855671 0.471471 1.702914
v -4.765233 -0.311312 1.702914
v -4.512005 -1.094094 1.702914
v -4.855668 0.471471 4.782363
v -4.765230 -0.311312 4.782363
v -4.512002 -1.094094 4.782363
v -4.330915 0.471471 7.861814
v -4.240477 -0.311312 7.861814
v -3.987250 -1.094094 7.861814
v -2.769781 0.471471 10.790534
v -2.597445 -0.311312 10.664926
v -2.310815 -1.094094 10.369748
v -0.055729 -1.632307 10.628752
v 3.809631 -1.692011 -6.656835
v 4.597137 1.207404 -6.635100
v -0.055729 1.207404 13.780481
v -0.055730 -1.687765 -6.631530
v -0.055730 1.207404 -6.553198
v 1.773681 -1.644264 9.922837
v 3.254557 -1.652226 7.803489
v 3.777556 -1.646089 4.770635
v 3.782447 -1.643012 1.702913
v 4.522436 1.207404 1.702913
v 4.523373 1.207404 4.759926
v 4.011797 1.207404 7.779575
v 2.600391 1.207404 10.791676
v -0.055729 -1.609433 1.702913
v -0.055729 -1.609433 4.782363
v -0.055729 -1.609433 7.861814
v -0.055729 -1.609433 10.401175
v 4.554119 0.487929 -6.633239
v 4.463506 -0.269972 -6.637298
v 4.222883 -1.011464 -6.638614
v -0.055730 0.471471 -6.553197
v -0.055730 -0.311312 -6.553197
v -0.055730 -1.094094 -6.553197
v -0.055729 -0.905180 11.865482
v -0.055729 -0.159064 12.720658
v -0.055729 0.595763 13.330233
v 4.477767 0.494539 1.702913
v 4.392430 -0.254528 1.702913
v 4.158049 -0.981311 1.702913
v 4.478699 0.494424 4.759935
v 4.393246 -0.255004 4.760426
v 4.158452 -0.982287 4.761954
v 3.968191 0.505797 7.776886
v 3.884916 -0.246202 7.774064
v 3.650158 -0.979784 7.774933
v 2.449721 0.542119 10.638813
v 2.294353 -0.208418 10.509316
v 2.035497 -0.947858 10.217136
v -3.921090 -1.692011 -6.656835
v -4.708597 1.207404 -6.635100
v -1.885139 -1.644264 9.922837
v -3.366015 -1.652226 7.803489
v -3.889014 -1.646089 4.770635
v -3.893906 -1.643012 1.702913
v -4.633894 1.207404 1.702914
v -4.634832 1.207404 4.759926
v -4.123255 1.207404 7.779575
v -2.711849 1.207404 10.791676
v -4.665578 0.487929 -6.633239
v -4.574965 -0.269972 -6.637298
v -4.334343 -1.011464 -6.638614
v -4.589226 0.494539 1.702914
v -4.503889 -0.254528 1.702914
v -4.269507 -0.981311 1.702914
v -4.590158 0.494424 4.759935
v -4.504704 -0.255004 4.760426
v -4.269911 -0.982287 4.761954
v -4.079649 0.505797 7.776886
v -3.996374 -0.246202 7.774064
v -3.761616 -0.979784 7.774933
v -2.561179 0.542119 10.638813
v -2.405811 -0.208418 10.509316
v -2.146955 -0.947858 10.217136
vn -0.0000 -0.0000 -1.0000
vn 0.6858 -0.3198 0.6537
vn -0.0000 -1.0000 -0.0000
vn 0.9983 -0.0577 -0.0000
vn 0.9842 -0.0569 0.1677
vn 0.8831 -0.1550 0.4429
vn 0.7194 -0.4889 0.4934
vn 0.7894 -0.3652 0.4934
vn 0.8582 -0.1825 0.4797
vn 0.8397 -0.5239 0.1431
vn 0.9392 -0.3038 0.1600
vn 0.9795 -0.1132 0.1669
vn 0.8484 -0.5293 -0.0000
vn 0.9515 -0.3078 -0.0000
vn 0.9934 -0.1148 -0.0000
vn 0.3474 -0.7177 0.6035
vn 0.5220 -0.5725 0.6322
vn 0.6383 -0.3893 0.6641
vn -0.6858 -0.3198 0.6537
vn -0.9983 -0.0577 -0.0000
vn -0.9842 -0.0569 0.1677
vn -0.8831 -0.1550 0.4429
vn -0.7194 -0.4889 0.4934
vn -0.7894 -0.3652 0.4934
vn -0.8582 -0.1825 0.4797
vn -0.8397 -0.5239 0.1431
vn -0.9392 -0.3038 0.1600
vn -0.9795 -0.1132 0.1669
vn -0.8484 -0.5293 -0.0000
vn -0.9515 -0.3078 -0.0000
vn -0.9934 -0.1148 -0.0000
vn -0.3474 -0.7177 0.6035
vn -0.5220 -0.5725 0.6322
vn -0.6383 -0.3893 0.6641
vn 0.0175 0.0008 0.9998
vn -0.6840 0.3760 -0.6251
vn 0.0049 1.0000 -0.0076
vn 0.0450 0.9940 0.0999
vn 0.0154 0.9999 0.0032
vn 0.0111 0.9999 0.0020
vn 0.0092 1.0000 0.0005
vn -0.9981 0.0611 -0.0091
vn -0.9980 0.0625 0.0003
vn -0.9841 0.0617 -0.1667
vn -0.8806 0.1753 -0.4403
vn -0.7365 0.4515 -0.5037
vn -0.7902 0.3625 -0.4941
vn -0.8591 0.1787 -0.4796
vn -0.8571 0.4940 -0.1459
vn -0.9400 0.3019 -0.1591
vn -0.9799 0.1104 -0.1659
vn -0.8685 0.4957 -0.0003
vn -0.9517 0.3071 0.0003
vn -0.9936 0.1132 0.0003
vn -0.8621 0.5067 -0.0072
vn -0.9514 0.3078 -0.0086
vn -0.9932 0.1160 -0.0089
vn -0.3528 0.7146 -0.6041
vn -0.5302 0.5742 -0.6238
vn -0.6509 0.3877 -0.6528
vn 0.0143 -0.0802 0.9967
vn 0.0193 -0.0039 0.9998
vn 0.0180 -0.0037 0.9998
vn -0.0175 0.0008 0.9998
vn 0.6840 0.3760 -0.6251
vn -0.0049 1.0000 -0.0076
vn -0.0450 0.9940 0.0999
vn -0.0154 0.9999 0.0032
vn -0.0111 0.9999 0.0020
vn -0.0092 1.0000 0.0005
vn 0.9981 0.0611 -0.0091
vn 0.9980 0.0625 0.0003
vn 0.9841 0.0617 -0.1667
vn 0.8806 0.1753 -0.4403
vn 0.7365 0.4515 -0.5037
vn 0.7902 0.3625 -0.4941
vn 0.8591 0.1787 -0.4796
vn 0.8571 0.4940 -0.1459
vn 0.9400 0.3019 -0.1591
vn 0.9799 0.1104 -0.1659
vn 0.8685 0.4957 -0.0003
vn 0.9517 0.3071 0.0003
vn 0.9936 0.1132 0.0003
vn 0.8621 0.5067 -0.0072
vn 0.9514 0.3078 -0.0086
vn 0.9932 0.1160 -0.0089
vn 0.3528 0.7146 -0.6041
vn 0.5302 0.5742 -0.6238
vn 0.6509 0.3877 -0.6528
vn -0.0143 -0.0802 0.9967
vn -0.0193 -0.0039 0.9998
vn -0.0180 -0.0037 0.9998
vn 0.0018 0.9791 0.2033
vn -0.1613 0.9759 -0.1469
vn -0.2002 0.9797 -0.0009
vn -0.1731 0.9849 -0.0000
vn -0.1719 0.9847 -0.0292
vn -0.1607 0.9841 -0.0755
vn -0.0018 0.9791 0.2033
vn 0.1613 0.9759 -0.1469
vn 0.2002 0.9797 -0.0009
vn 0.1731 0.9849 -0.0000
vn 0.1719 0.9847 -0.0292
vn 0.1607 0.9841 -0.0755
vt 0.982828 0.040279
vt 0.983181 0.044540
vt 0.969711 0.044943
vt 0.969669 0.043410
vt 0.899757 0.034926
vt 0.899373 0.040243
vt 0.860145 0.036706
vt 0.865836 0.028441
vt 0.947802 0.013445
vt 0.977193 0.028031
vt 0.970394 0.038832
vt 0.943235 0.028495
vt 0.894931 0.008219
vt 0.899314 0.007772
vt 0.904690 0.019206
vt 0.916278 0.006868
vt 0.917184 0.024861
vt 0.933286 0.008938
vt 0.931058 0.027001
vt 0.941969 0.040568
vt 0.942140 0.037773
vt 0.930276 0.040036
vt 0.930378 0.037004
vt 0.917120 0.039854
vt 0.917107 0.036322
vt 0.917257 0.029057
vt 0.902229 0.024432
vt 0.917211 0.032772
vt 0.900492 0.029752
vt 0.930768 0.030700
vt 0.930551 0.033936
vt 0.942728 0.031924
vt 0.942386 0.034931
vt 0.969885 0.040481
vt 0.969673 0.041947
vt 0.882505 0.013954
vt 0.873118 0.020832
vt 0.979968 0.031957
vt 0.981782 0.036065
vt 0.995813 0.086070
vt 0.978433 0.085660
vt 0.977627 0.083793
vt 0.994094 0.080498
vt 0.909422 0.102684
vt 0.886302 0.108635
vt 0.882752 0.103088
vt 0.908355 0.098475
vt 0.956966 0.121244
vt 0.951148 0.104924
vt 0.981739 0.091105
vt 0.991502 0.103450
vt 0.906844 0.124115
vt 0.914668 0.115421
vt 0.910124 0.125074
vt 0.925561 0.110050
vt 0.924994 0.126693
vt 0.938712 0.107354
vt 0.941481 0.125403
vt 0.948508 0.095300
vt 0.947780 0.092450
vt 0.936741 0.097607
vt 0.936132 0.094683
vt 0.924215 0.099709
vt 0.923659 0.096537
vt 0.912423 0.111135
vt 0.925262 0.106240
vt 0.910591 0.106837
vt 0.924797 0.102893
vt 0.938021 0.103726
vt 0.937376 0.100576
vt 0.950134 0.101333
vt 0.949282 0.098218
vt 0.980300 0.089178
vt 0.979249 0.087439
vt 0.897593 0.119264
vt 0.891083 0.114030
vt 0.996087 0.098501
vt 0.996548 0.092091
vt 0.982134 0.051546
vt 0.969923 0.046053
vt 0.969895 0.044656
vt 0.983031 0.047400
vt 0.900502 0.046073
vt 0.867676 0.049261
vt 0.862961 0.040765
vt 0.899674 0.041612
vt 0.943263 0.066522
vt 0.942098 0.052413
vt 0.970862 0.050409
vt 0.974862 0.062934
vt 0.898598 0.072465
vt 0.906450 0.060196
vt 0.902337 0.071559
vt 0.917567 0.054179
vt 0.917154 0.069336
vt 0.930306 0.052446
vt 0.930888 0.067799
vt 0.941953 0.044140
vt 0.942005 0.041559
vt 0.930226 0.043774
vt 0.930257 0.041009
vt 0.917268 0.044126
vt 0.917152 0.040960
vt 0.903977 0.055867
vt 0.917648 0.050841
vt 0.901745 0.050972
vt 0.917500 0.047479
vt 0.930285 0.049567
vt 0.930249 0.046668
vt 0.941999 0.049633
vt 0.941950 0.046864
vt 0.970280 0.048953
vt 0.969997 0.047509
vt 0.884597 0.066573
vt 0.874648 0.058393
vt 0.977903 0.059627
vt 0.980451 0.055701
vt 0.988933 0.072353
vt 0.992149 0.076978
vt 0.977359 0.083955
vt 0.976518 0.082272
vt 0.907836 0.093291
vt 0.908077 0.097093
vt 0.883254 0.100957
vt 0.884442 0.095384
vt 0.974786 0.076760
vt 0.945203 0.080663
vt 0.909349 0.080443
vt 0.921081 0.083568
vt 0.933631 0.082773
vt 0.947521 0.091480
vt 0.946917 0.088887
vt 0.935872 0.093761
vt 0.935323 0.091103
vt 0.923405 0.095544
vt 0.922924 0.092674
vt 0.921895 0.086565
vt 0.908366 0.084507
vt 0.922470 0.089618
vt 0.907743 0.089029
vt 0.934220 0.085534
vt 0.934779 0.088320
vt 0.945743 0.083410
vt 0.946317 0.086163
vt 0.975104 0.078691
vt 0.975703 0.080511
vt 0.890983 0.080898
vt 0.886762 0.088498
vt 0.979935 0.065030
vt 0.984831 0.068268
s 0
usemtl lvl2-metal
f 22/1/1 6/2/1 3/3/1 19/4/1
f 37/5/2 14/6/2 4/7/2 27/8/2
f 15/9/3 5/10/3 2/11/3 10/12/3
f 1/13/3 18/14/3 7/15/3
f 18/14/3 17/16/3 8/17/3 7/15/3
f 17/16/3 16/18/3 9/19/3 8/17/3
f 16/18/3 15/9/3 10/12/3 9/19/3
f 19/4/4 3/3/4 11/20/4 28/21/4
f 28/21/4 11/20/4 12/22/4 31/23/4
f 31/23/5 12/22/5 13/24/5 34/25/5
f 34/25/6 13/24/6 14/6/6 37/5/6
f 8/17/7 36/26/7 39/27/7 7/15/7
f 36/26/8 35/28/8 38/29/8 39/27/8
f 35/28/9 34/25/9 37/5/9 38/29/9
f 9/19/10 33/30/10 36/26/10 8/17/10
f 33/30/11 32/31/11 35/28/11 36/26/11
f 32/31/12 31/23/12 34/25/12 35/28/12
f 10/12/13 30/32/13 33/30/13 9/19/13
f 30/32/14 29/33/14 32/31/14 33/30/14
f 29/33/15 28/21/15 31/23/15 32/31/15
f 2/11/13 21/34/13 30/32/13 10/12/13
f 21/34/14 20/35/14 29/33/14 30/32/14
f 20/35/15 19/4/15 28/21/15 29/33/15
f 7/15/16 39/27/16 25/36/16 1/13/16
f 39/27/17 38/29/17 26/37/17 25/36/17
f 38/29/18 37/5/18 27/8/18 26/37/18
f 5/10/1 24/38/1 21/34/1 2/11/1
f 24/38/1 23/39/1 20/35/1 21/34/1
f 23/39/1 22/1/1 19/4/1 20/35/1
f 22/40/1 50/41/1 41/42/1 6/43/1
f 62/44/19 27/45/19 4/46/19 49/47/19
f 15/48/3 45/49/3 40/50/3 5/51/3
f 1/52/3 42/53/3 18/54/3
f 18/54/3 42/53/3 43/55/3 17/56/3
f 17/56/3 43/55/3 44/57/3 16/58/3
f 16/58/3 44/57/3 45/49/3 15/48/3
f 50/41/20 53/59/20 46/60/20 41/42/20
f 53/59/20 56/61/20 47/62/20 46/60/20
f 56/61/21 59/63/21 48/64/21 47/62/21
f 59/63/22 62/44/22 49/47/22 48/64/22
f 43/55/23 42/53/23 64/65/23 61/66/23
f 61/66/24 64/65/24 63/67/24 60/68/24
f 60/68/25 63/67/25 62/44/25 59/63/25
f 44/57/26 43/55/26 61/66/26 58/69/26
f 58/69/27 61/66/27 60/68/27 57/70/27
f 57/70/28 60/68/28 59/63/28 56/61/28
f 45/49/29 44/57/29 58/69/29 55/71/29
f 55/71/30 58/69/30 57/70/30 54/72/30
f 54/72/31 57/70/31 56/61/31 53/59/31
f 40/50/29 45/49/29 55/71/29 52/73/29
f 52/73/30 55/71/30 54/72/30 51/74/30
f 51/74/31 54/72/31 53/59/31 50/41/31
f 42/53/32 1/52/32 25/75/32 64/65/32
f 64/65/33 25/75/33 26/76/33 63/67/33
f 63/67/34 26/76/34 27/45/34 62/44/34
f 5/51/1 40/50/1 52/73/1 24/77/1
f 24/77/1 52/73/1 51/74/1 23/78/1
f 23/78/1 51/74/1 50/41/1 22/40/1
f 86/79/35 83/80/35 67/81/35 70/82/35
f 101/83/36 91/84/36 68/85/36 78/86/36
f 79/87/37 74/88/37 66/89/37 69/90/37
f 65/91/38 71/92/38 82/93/38
f 82/93/39 71/92/39 72/94/39 81/95/39
f 81/95/40 72/94/40 73/96/40 80/97/40
f 80/97/41 73/96/41 74/88/41 79/87/41
f 83/80/42 92/98/42 75/99/42 67/81/42
f 92/98/43 95/100/43 76/101/43 75/99/43
f 95/100/44 98/102/44 77/103/44 76/101/44
f 98/102/45 101/83/45 78/86/45 77/103/45
f 72/94/46 71/92/46 103/104/46 100/105/46
f 100/105/47 103/104/47 102/106/47 99/107/47
f 99/107/48 102/106/48 101/83/48 98/102/48
f 73/96/49 72/94/49 100/105/49 97/108/49
f 97/108/50 100/105/50 99/107/50 96/109/50
f 96/109/51 99/107/51 98/102/51 95/100/51
f 74/88/52 73/96/52 97/108/52 94/110/52
f 94/110/53 97/108/53 96/109/53 93/111/53
f 93/111/54 96/109/54 95/100/54 92/98/54
f 66/89/55 74/88/55 94/110/55 85/112/55
f 85/112/56 94/110/56 93/111/56 84/113/56
f 84/113/57 93/111/57 92/98/57 83/80/57
f 71/92/58 65/91/58 89/114/58 103/104/58
f 103/104/59 89/114/59 90/115/59 102/106/59
f 102/106/60 90/115/60 91/84/60 101/83/60
f 69/90/61 66/89/61 85/112/61 88/116/61
f 88/116/62 85/112/62 84/113/62 87/117/62
f 87/117/63 84/113/63 83/80/63 86/79/63
f 86/118/64 70/119/64 105/120/64 114/121/64
f 126/122/65 113/123/65 68/124/65 91/125/65
f 79/87/66 69/90/66 104/126/66 109/127/66
f 65/91/67 82/93/67 106/128/67
f 82/93/68 81/95/68 107/129/68 106/128/68
f 81/95/69 80/97/69 108/130/69 107/129/69
f 80/97/70 79/87/70 109/127/70 108/130/70
f 114/121/71 105/120/71 110/131/71 117/132/71
f 117/132/72 110/131/72 111/133/72 120/134/72
f 120/134/73 111/133/73 112/135/73 123/136/73
f 123/136/74 112/135/74 113/123/74 126/122/74
f 107/129/75 125/137/75 128/138/75 106/128/75
f 125/137/76 124/139/76 127/140/76 128/138/76
f 124/139/77 123/136/77 126/122/77 127/140/77
f 108/130/78 122/141/78 125/137/78 107/129/78
f 122/141/79 121/142/79 124/139/79 125/137/79
f 121/142/80 120/134/80 123/136/80 124/139/80
f 109/127/81 119/143/81 122/141/81 108/130/81
f 119/143/82 118/144/82 121/142/82 122/141/82
f 118/144/83 117/132/83 120/134/83 121/142/83
f 104/126/84 116/145/84 119/143/84 109/127/84
f 116/145/85 115/146/85 118/144/85 119/143/85
f 115/146/86 114/121/86 117/132/86 118/144/86
f 106/128/87 128/138/87 89/147/87 65/91/87
f 128/138/88 127/140/88 90/148/88 89/147/88
f 127/140/89 126/122/89 91/125/89 90/148/89
f 69/90/90 88/149/90 116/145/90 104/126/90
f 88/149/91 87/150/91 115/146/91 116/145/91
f 87/150/92 86/118/92 114/121/92 115/146/92
f 3/3/93 6/2/93 70/82/93 67/81/93
f 4/7/94 14/6/94 78/86/94 68/85/94
f 11/20/95 3/3/95 67/81/95 75/99/95
f 12/22/96 11/20/96 75/99/96 76/101/96
f 13/24/97 12/22/97 76/101/97 77/103/97
f 14/6/98 13/24/98 77/103/98 78/86/98
f 6/43/99 41/42/99 105/120/99 70/119/99
f 49/47/100 4/46/100 68/124/100 113/123/100
f 41/42/101 46/60/101 110/131/101 105/120/101
f 46/60/102 47/62/102 111/133/102 110/131/102
f 47/62/103 48/64/103 112/135/103 111/133/103
f 48/64/104 49/47/104 113/123/104 112/135/104
