# Blender 4.0.2
# www.blender.org
mtllib Barca_volante.mtl
o Volante
v 0.000000 0.828247 0.160672
v 1.033006 -1.506564 -0.111067
v 0.250361 0.716072 0.177561
v 0.024136 0.716072 -0.054507
v 0.250361 0.716072 -0.054507
v 0.046523 2.045586 -0.037618
v 0.436391 0.239286 0.189636
v 0.364081 -0.339159 0.203406
v 0.180172 0.239286 -0.066582
v 0.527991 -0.922862 -0.099120
v 0.647839 -0.339159 -0.080352
v 0.134863 1.162766 0.160672
v 0.080378 1.831805 0.160672
v 0.134863 1.162766 -0.037618
v 0.046523 1.952541 -0.037618
v 0.199016 0.828247 -0.037618
v 0.687819 -1.506564 -0.111067
v 0.000000 0.828247 -0.037618
v 1.033006 -1.506564 0.234121
v 0.199016 0.828247 0.160672
v 0.687819 -1.506564 0.234121
v 0.024136 0.716072 0.177561
v 0.075367 2.166323 0.160672
v 0.849285 -0.922862 -0.099120
v 0.436391 0.239286 -0.066582
v 0.364081 -0.339159 -0.080352
v 0.180172 0.239286 0.189636
v 0.527991 -0.922862 0.222174
v 0.647839 -0.339159 0.203406
v 0.849285 -0.922862 0.222174
v 0.101498 1.497285 -0.037618
v 0.101498 1.497285 0.160672
v -0.199016 0.828247 0.160672
v -0.687819 -1.506564 0.234121
v -0.199016 0.828247 -0.037618
v -0.024136 0.716072 -0.054507
v -0.250361 0.716072 -0.054507
v -0.075367 2.166323 0.160672
v -0.849285 -0.922862 0.222174
v -0.364081 -0.339159 0.203406
v -0.527991 -0.922862 0.222174
v -0.180172 0.239286 -0.066582
v -0.527991 -0.922862 -0.099120
v -0.134862 1.162766 0.160672
v -0.080378 1.831805 0.160672
v -0.134862 1.162766 -0.037618
v -0.101498 1.497285 -0.037618
v -0.046523 1.952541 -0.037618
v -1.033006 -1.506564 -0.111067
v -0.687819 -1.506564 -0.111067
v -1.033006 -1.506564 0.234121
v -0.024136 0.716072 0.177561
v -0.250361 0.716072 0.177561
v -0.046523 2.045586 -0.037618
v -0.849285 -0.922862 -0.099120
v -0.647839 -0.339159 -0.080352
v -0.436391 0.239286 -0.066582
v -0.364081 -0.339159 -0.080352
v -0.180172 0.239286 0.189636
v -0.436391 0.239286 0.189636
v -0.647839 -0.339159 0.203406
v -0.101498 1.497285 0.160672
v 0.080378 1.831805 -0.037618
v 0.075367 2.166323 -0.037618
v -0.080378 1.831805 -0.037618
v -0.075367 2.166323 -0.037618
v 0.065793 1.999064 -0.037618
v 0.000000 1.933270 -0.037618
v 0.000000 2.064857 -0.037618
v -0.065793 1.999064 -0.037618
v 0.065793 1.999064 -0.462161
v 0.046523 2.045586 -0.462161
v 0.000000 1.933270 -0.462161
v -0.046523 1.952541 -0.462161
v 0.000000 2.064857 -0.462161
v -0.046523 2.045586 -0.462161
v -0.065793 1.999064 -0.462161
v 0.046523 1.952541 -0.462161
v -0.657452 1.999059 -0.472442
v -0.464889 2.463948 -0.472442
v -0.000000 2.656511 -0.472442
v 0.000000 1.341607 -0.472442
v -0.464889 1.534171 -0.472442
v 0.657452 1.999060 -0.472442
v 0.464889 2.463948 -0.472442
v 0.464889 1.534171 -0.472442
v -0.657452 1.999059 -0.536472
v -0.464889 2.463948 -0.536472
v -0.000000 2.656511 -0.536472
v 0.000000 1.341607 -0.536472
v -0.464889 1.534171 -0.536472
v 0.657452 1.999060 -0.536472
v 0.464889 2.463948 -0.536472
v 0.464889 1.534171 -0.536472
v -0.607406 2.250655 -0.472442
v -0.251596 2.606466 -0.472442
v -0.251596 1.391653 -0.472442
v 0.607406 2.250655 -0.472442
v 0.607406 1.747464 -0.472442
v 0.251596 1.391653 -0.472442
v 0.251596 2.606466 -0.472442
v -0.607406 1.747463 -0.472442
v -0.607406 2.250655 -0.536472
v -0.251596 2.606466 -0.536472
v -0.251596 1.391653 -0.536472
v 0.607406 2.250655 -0.536472
v 0.607406 1.747464 -0.536472
v 0.251596 1.391653 -0.536472
v 0.251596 2.606466 -0.536472
v -0.607406 1.747463 -0.536472
v 0.000000 1.999059 -0.536472
v 0.063877 2.153271 -0.463270
v 0.364689 2.454082 -0.471618
v 0.226676 2.546305 -0.471312
v 0.063874 2.578683 -0.471618
v 0.154211 1.935183 -0.463270
v 0.455022 1.634370 -0.471618
v 0.547245 1.772383 -0.471312
v 0.579624 1.935186 -0.471618
v -0.063876 1.844848 -0.463270
v -0.364690 1.544038 -0.471618
v -0.226676 1.451814 -0.471312
v -0.063874 1.419436 -0.471618
v -0.154211 2.062936 -0.463270
v -0.455022 2.363749 -0.471618
v -0.547245 2.225736 -0.471312
v -0.579623 2.062934 -0.471618
v -0.154211 1.935183 -0.463270
v -0.579623 1.935185 -0.471618
v -0.547245 1.772383 -0.471312
v -0.455022 1.634370 -0.471618
v 0.063877 1.844848 -0.463270
v 0.063875 1.419436 -0.471618
v 0.226677 1.451814 -0.471312
v 0.364690 1.544038 -0.471618
v 0.154211 2.062936 -0.463270
v 0.579623 2.062935 -0.471618
v 0.547245 2.225736 -0.471312
v 0.455021 2.363749 -0.471618
v -0.063877 2.153270 -0.463270
v -0.063875 2.578683 -0.471618
v -0.226677 2.546305 -0.471312
v -0.364689 2.454081 -0.471618
v -0.579618 2.062936 -0.536472
v -0.547236 2.225732 -0.536472
v -0.455020 2.363743 -0.536472
v -0.154212 2.062936 -0.536472
v -0.364684 2.454079 -0.536472
v -0.226673 2.546295 -0.536472
v -0.063877 2.578677 -0.536472
v -0.063877 2.153271 -0.536472
v 0.579618 1.935183 -0.536472
v 0.547236 1.772387 -0.536472
v 0.455020 1.634375 -0.536472
v 0.154212 1.935183 -0.536472
v 0.364684 1.544040 -0.536472
v 0.226673 1.451823 -0.536472
v 0.063877 1.419441 -0.536472
v 0.063877 1.844847 -0.536472
v -0.063876 1.419441 -0.536472
v -0.226672 1.451823 -0.536472
v -0.364684 1.544040 -0.536472
v -0.063877 1.844847 -0.536472
v -0.455019 1.634375 -0.536472
v -0.547236 1.772387 -0.536472
v -0.579618 1.935183 -0.536472
v -0.154212 1.935183 -0.536472
v 0.455019 2.363744 -0.536472
v 0.547236 2.225732 -0.536472
v 0.579618 2.062936 -0.536472
v 0.154212 2.062936 -0.536472
v 0.063876 2.578678 -0.536472
v 0.226672 2.546295 -0.536472
v 0.364684 2.454079 -0.536472
v 0.063877 2.153271 -0.536472
vn -0.0000 0.0253 0.9997
vn -0.9504 -0.3110 -0.0000
vn -0.0000 0.0253 -0.9997
vn 0.9316 0.3635 -0.0000
vn -0.0000 -1.0000 -0.0000
vn -0.0000 0.1489 0.9889
vn -0.0000 0.1489 -0.9889
vn 0.9093 0.4162 -0.0000
vn 0.3827 -0.9239 -0.0000
vn 0.9999 0.0150 -0.0000
vn -0.0000 -0.0000 -1.0000
vn 0.9539 0.3002 -0.0000
vn 0.9453 0.3262 -0.0000
vn 0.9392 0.3433 -0.0000
vn -0.0000 0.0205 -0.9998
vn -0.0000 0.0321 -0.9995
vn -0.0000 0.0238 -0.9997
vn -0.9645 -0.2641 -0.0000
vn -0.9628 -0.2704 -0.0000
vn -0.9530 -0.3030 -0.0000
vn -0.0000 0.0321 0.9995
vn -0.0000 0.0238 0.9997
vn -0.0000 -0.0000 1.0000
vn -0.0000 1.0000 -0.0000
vn 0.9821 0.1883 -0.0000
vn 0.9951 0.0992 -0.0000
vn 0.9980 0.0630 -0.0000
vn -0.0000 0.0205 0.9998
vn 0.9504 -0.3110 -0.0000
vn -0.9316 0.3635 -0.0000
vn -0.9093 0.4162 -0.0000
vn -0.9999 0.0150 -0.0000
vn -0.9539 0.3002 -0.0000
vn -0.9453 0.3262 -0.0000
vn 0.9645 -0.2641 -0.0000
vn 0.9628 -0.2704 -0.0000
vn 0.9530 -0.3030 -0.0000
vn -0.9821 0.1883 -0.0000
vn -0.9951 0.0992 -0.0000
vn -0.9980 0.0630 -0.0000
vn -0.9392 0.3433 -0.0000
vn 0.9239 0.3827 -0.0000
vn -0.9239 -0.3827 -0.0000
vn -0.3827 0.9239 -0.0000
vn -0.9239 0.3827 -0.0000
vn -0.3827 -0.9239 -0.0000
vn 0.3827 0.9239 -0.0000
vn 0.9239 -0.3827 -0.0000
vn -0.5556 -0.8315 0.0001
vn -0.1951 0.9808 -0.0000
vn -0.8315 0.5556 0.0001
vn 0.5556 0.8315 0.0001
vn 0.8315 -0.5556 0.0001
vn 0.8315 0.5556 0.0001
vn -0.5556 0.8315 0.0001
vn -0.9808 -0.1951 0.0001
vn 0.5556 -0.8315 0.0001
vn 0.5556 0.8315 -0.0000
vn 0.8315 -0.5556 -0.0000
vn -0.5556 -0.8315 -0.0000
vn -0.8315 0.5556 -0.0000
vn -0.9808 -0.1951 -0.0000
vn 0.1951 -0.9808 -0.0000
vn 0.9808 0.1951 -0.0000
vn 0.8315 0.5556 -0.0000
vn 0.5556 -0.8315 -0.0000
vn -0.8315 -0.5556 -0.0000
vn -0.9808 0.1951 -0.0000
vn -0.1951 -0.9808 -0.0000
vn 0.9808 -0.1951 -0.0000
vn 0.1951 0.9808 -0.0000
vn -0.5556 0.8315 -0.0000
vn 0.9808 -0.1951 0.0001
vn 0.7071 0.7071 -0.0000
vn -0.9808 0.1951 0.0001
vn -0.7071 -0.7071 -0.0000
vn 0.1951 0.9808 0.0001
vn -0.7071 0.7071 -0.0000
vn -0.8315 -0.5556 0.0001
vn -0.1951 -0.9808 0.0001
vn 0.0089 0.0120 0.9999
vn 0.0022 0.0148 0.9999
vn 0.0156 0.0065 0.9999
vn 0.0120 -0.0089 0.9999
vn 0.0148 -0.0022 0.9999
vn 0.0065 -0.0156 0.9999
vn -0.0089 -0.0120 0.9999
vn -0.0022 -0.0148 0.9999
vn -0.0120 0.0089 0.9999
vn -0.0148 0.0022 0.9999
vn -0.0156 -0.0065 0.9999
vn -0.0148 -0.0022 0.9999
vn -0.0120 -0.0089 0.9999
vn -0.0065 -0.0156 0.9999
vn 0.0022 -0.0148 0.9999
vn 0.0089 -0.0120 0.9999
vn -0.0065 0.0156 0.9999
vn 0.0148 0.0022 0.9999
vn 0.0120 0.0089 0.9999
vn 0.0156 -0.0065 0.9999
vn -0.0022 0.0148 0.9999
vn -0.0089 0.0120 0.9999
vn -0.0156 0.0065 0.9999
vn 0.7071 -0.7071 -0.0000
vn 1.0000 -0.0000 -0.0000
vn 0.1951 -0.9808 0.0001
vn -1.0000 -0.0000 -0.0000
vn 0.9808 0.1951 0.0001
vn -0.1951 0.9808 0.0001
vn 0.9776 -0.2103 -0.0000
vn -0.9776 -0.2103 -0.0000
vn 0.0065 0.0156 0.9999
vt 0.945513 0.155326
vt 0.931637 0.149914
vt 0.931637 0.143332
vt 0.945513 0.147872
vt 0.883091 0.183478
vt 0.883574 0.163420
vt 0.892853 0.163420
vt 0.893336 0.183478
vt 0.945513 0.137388
vt 0.931637 0.141928
vt 0.931637 0.135346
vt 0.945513 0.129934
vt 0.893336 0.343770
vt 0.892853 0.364233
vt 0.883574 0.364233
vt 0.883091 0.343770
vt 0.881312 0.256186
vt 0.895114 0.256186
vt 0.895114 0.269988
vt 0.881312 0.269988
vt 0.928337 0.148420
vt 0.928337 0.142630
vt 0.928337 0.142630
vt 0.928337 0.136840
vt 0.892177 0.369166
vt 0.884249 0.369166
vt 0.983016 0.152631
vt 0.980610 0.152631
vt 0.980610 0.132343
vt 0.983016 0.132343
vt 0.884249 0.409628
vt 0.892177 0.409628
vt 0.892177 0.423005
vt 0.884249 0.423005
vt 0.908872 0.139677
vt 0.908872 0.145583
vt 0.899140 0.144968
vt 0.899140 0.140291
vt 0.894636 0.294455
vt 0.881790 0.294455
vt 0.893886 0.319145
vt 0.882540 0.319145
vt 0.996323 0.122619
vt 0.979337 0.127269
vt 0.979337 0.117921
vt 0.996323 0.112576
vt 0.962347 0.132037
vt 0.962347 0.123782
vt 0.881790 0.231989
vt 0.894636 0.231989
vt 0.882540 0.207747
vt 0.893886 0.207747
vt 0.979337 0.167338
vt 0.962347 0.161478
vt 0.962347 0.153222
vt 0.979337 0.157991
vt 0.918604 0.146553
vt 0.918604 0.138706
vt 0.928337 0.136840
vt 0.928337 0.148420
vt 0.918604 0.146553
vt 0.918604 0.138706
vt 0.885200 0.294883
vt 0.885200 0.286954
vt 0.891227 0.286954
vt 0.891227 0.294883
vt 0.892177 0.382785
vt 0.884249 0.382785
vt 0.892177 0.396227
vt 0.884249 0.396227
vt 0.899140 0.144968
vt 0.899140 0.140291
vt 0.908872 0.139677
vt 0.889408 0.144823
vt 0.889408 0.140437
vt 0.996323 0.162641
vt 0.996323 0.172684
vt 0.892853 0.163420
vt 0.945513 0.155326
vt 0.931637 0.149914
vt 0.931637 0.143332
vt 0.883091 0.343770
vt 0.883574 0.364233
vt 0.931637 0.135346
vt 0.931637 0.141928
vt 0.894636 0.294455
vt 0.881790 0.294455
vt 0.893886 0.319145
vt 0.996323 0.162641
vt 0.979337 0.157991
vt 0.962347 0.161478
vt 0.962347 0.153222
vt 0.881790 0.231989
vt 0.893886 0.207747
vt 0.996323 0.112576
vt 0.979337 0.127269
vt 0.962347 0.132037
vt 0.945513 0.137388
vt 0.945513 0.129934
vt 0.895627 0.141276
vt 0.894274 0.140716
vt 0.892920 0.141276
vt 0.889408 0.140437
vt 0.895627 0.143983
vt 0.896188 0.142630
vt 0.892359 0.142630
vt 0.892920 0.143983
vt 0.889408 0.144822
vt 0.894274 0.144544
vt 0.987829 0.152631
vt 0.985423 0.152631
vt 0.985423 0.132343
vt 0.987829 0.132343
vt 0.997455 0.152631
vt 0.995048 0.152631
vt 0.995048 0.132343
vt 0.997455 0.132343
vt 0.992642 0.152631
vt 0.990235 0.152631
vt 0.990235 0.132343
vt 0.992642 0.132343
vt 0.978204 0.152631
vt 0.978204 0.132343
vt 0.959574 0.224631
vt 0.959573 0.209957
vt 0.965307 0.209956
vt 0.965335 0.224631
vt 0.994223 0.334993
vt 0.994223 0.357672
vt 0.988562 0.357672
vt 0.988562 0.334993
vt 0.959574 0.224631
vt 0.959574 0.209957
vt 0.965307 0.209956
vt 0.965335 0.224631
vt 0.966033 0.224631
vt 0.966033 0.239306
vt 0.960300 0.239306
vt 0.960272 0.224631
vt 0.966033 0.224631
vt 0.960272 0.224631
vt 0.959574 0.239306
vt 0.959574 0.224631
vt 0.965335 0.224631
vt 0.965307 0.239306
vt 0.966033 0.209957
vt 0.966033 0.224631
vt 0.960272 0.224631
vt 0.960300 0.209957
vt 0.966033 0.224631
vt 0.966034 0.239306
vt 0.960300 0.239306
vt 0.960272 0.224631
vt 0.966034 0.209957
vt 0.966033 0.224631
vt 0.960272 0.224631
vt 0.960300 0.209956
vt 0.994223 0.380351
vt 0.994223 0.403030
vt 0.988562 0.403030
vt 0.988562 0.380351
vt 0.994223 0.471066
vt 0.994223 0.493745
vt 0.988562 0.493745
vt 0.988562 0.471066
vt 0.994223 0.198921
vt 0.994223 0.221600
vt 0.988562 0.221600
vt 0.988562 0.198921
vt 0.994223 0.289636
vt 0.994223 0.312315
vt 0.988562 0.312315
vt 0.988562 0.289636
vt 0.994223 0.244278
vt 0.994223 0.266957
vt 0.988562 0.266957
vt 0.988562 0.244278
vt 0.994223 0.516424
vt 0.994223 0.539102
vt 0.988562 0.539102
vt 0.988562 0.516424
vt 0.994223 0.425709
vt 0.994223 0.448387
vt 0.988562 0.448387
vt 0.988562 0.425709
vt 0.994223 0.176242
vt 0.988562 0.176242
vt 0.966033 0.209957
vt 0.960300 0.209957
vt 0.966039 0.172348
vt 0.959568 0.172347
vt 0.959574 0.239306
vt 0.965308 0.239306
vt 0.966039 0.172348
vt 0.959568 0.172347
vt 0.966033 0.209957
vt 0.960300 0.209956
vt 0.959568 0.276915
vt 0.966039 0.276916
vt 0.966033 0.209957
vt 0.960300 0.209957
vt 0.959574 0.239306
vt 0.965307 0.239306
vt 0.916822 0.203350
vt 0.907323 0.199417
vt 0.908773 0.197246
vt 0.914919 0.199791
vt 0.900052 0.192146
vt 0.904069 0.192542
vt 0.921447 0.180091
vt 0.923426 0.179697
vt 0.936602 0.199414
vt 0.932740 0.198243
vt 0.923267 0.184065
vt 0.919942 0.200790
vt 0.947806 0.182644
vt 0.943873 0.192144
vt 0.941702 0.190694
vt 0.944247 0.184547
vt 0.936998 0.195398
vt 0.924546 0.178019
vt 0.924153 0.176041
vt 0.943870 0.162864
vt 0.942699 0.166726
vt 0.928521 0.176200
vt 0.945246 0.179525
vt 0.927100 0.151660
vt 0.936600 0.155594
vt 0.935150 0.157764
vt 0.929003 0.155219
vt 0.939854 0.162468
vt 0.896116 0.172366
vt 0.900050 0.162867
vt 0.902220 0.164317
vt 0.899675 0.170463
vt 0.907320 0.155596
vt 0.906924 0.159613
vt 0.922475 0.174920
vt 0.920496 0.175314
vt 0.911182 0.156767
vt 0.920656 0.170945
vt 0.923981 0.154220
vt 0.916819 0.151660
vt 0.917328 0.154221
vt 0.925677 0.171944
vt 0.947806 0.172362
vt 0.945246 0.172872
vt 0.919376 0.176991
vt 0.919769 0.178970
vt 0.901223 0.188284
vt 0.915401 0.178810
vt 0.898677 0.175486
vt 0.927104 0.203350
vt 0.926595 0.200790
vt 0.927523 0.181221
vt 0.896116 0.182648
vt 0.898677 0.182138
vt 0.916400 0.173790
vt 0.927102 0.151663
vt 0.936600 0.155597
vt 0.935150 0.157767
vt 0.929004 0.155222
vt 0.943869 0.162867
vt 0.939853 0.162471
vt 0.921961 0.177505
vt 0.925678 0.171943
vt 0.947804 0.172365
vt 0.945244 0.172874
vt 0.942698 0.166728
vt 0.947804 0.182646
vt 0.945244 0.179526
vt 0.928522 0.176200
vt 0.916821 0.203347
vt 0.907323 0.199413
vt 0.908773 0.197243
vt 0.914919 0.199789
vt 0.900053 0.192144
vt 0.904069 0.192539
vt 0.918245 0.183067
vt 0.896119 0.182646
vt 0.898679 0.182136
vt 0.901225 0.188282
vt 0.896119 0.172365
vt 0.898679 0.175484
vt 0.915400 0.178810
vt 0.900053 0.162867
vt 0.902223 0.164317
vt 0.899678 0.170463
vt 0.907323 0.155597
vt 0.906927 0.159613
vt 0.916399 0.173789
vt 0.916821 0.151663
vt 0.917330 0.154223
vt 0.911184 0.156769
vt 0.923982 0.154223
vt 0.920656 0.170944
vt 0.936600 0.199413
vt 0.927102 0.203347
vt 0.926592 0.200787
vt 0.932738 0.198242
vt 0.919940 0.200787
vt 0.923266 0.184066
vt 0.943869 0.192144
vt 0.941699 0.190694
vt 0.944245 0.184548
vt 0.936995 0.195397
vt 0.927523 0.181222
vt 0.966039 0.276915
vt 0.959568 0.276916
vt 0.966039 0.172348
vt 0.959568 0.172347
vt 0.959568 0.172348
vt 0.966039 0.172347
vt 0.959568 0.276915
vt 0.966039 0.276916
vt 0.966033 0.239306
vt 0.960300 0.239306
vt 0.966039 0.276915
vt 0.959568 0.276916
vt 0.966039 0.276915
vt 0.959568 0.276916
vt 0.966039 0.172348
vt 0.959568 0.172347
vt 0.959574 0.209957
vt 0.965307 0.209957
vt 0.959568 0.172348
vt 0.966039 0.172347
vt 0.966039 0.276915
vt 0.959568 0.276916
vt 0.966039 0.172348
vt 0.959568 0.172347
vt 0.966033 0.239306
vt 0.960300 0.239306
vt 0.966039 0.276915
vt 0.959568 0.276916
vt 0.959568 0.172348
vt 0.966039 0.172347
vt 0.959568 0.276915
vt 0.966039 0.276916
vt 0.884249 0.158832
vt 0.892177 0.158832
vt 0.918246 0.183067
s 0
usemtl lvl2-metal
f 15/27/9 68/28/9 73/29/9 78/30/9
f 6/110/42 67/111/42 71/112/42 72/113/42
f 48/114/43 70/115/43 77/116/43 74/117/43
f 54/118/44 69/119/44 75/120/44 76/121/44
f 70/115/45 54/118/45 76/121/45 77/116/45
f 68/28/46 48/122/46 74/123/46 73/29/46
f 69/119/47 6/110/47 72/113/47 75/120/47
f 67/111/48 15/27/48 78/30/48 71/112/48
usemtl lvl2
f 7/1/1 3/2/1 22/3/1 27/4/1
f 27/5/2 22/6/2 4/7/2 9/8/2
f 9/9/3 4/10/3 5/11/3 25/12/3
f 25/13/4 5/14/4 3/15/4 7/16/4
f 21/17/5 17/18/5 2/19/5 19/20/5
f 20/21/6 1/22/6 22/3/6 3/2/6
f 18/23/7 16/24/7 5/11/7 4/10/7
f 16/25/8 20/26/8 3/15/8 5/14/8
f 13/31/10 63/32/10 64/33/10 23/34/10
f 31/35/11 47/36/11 65/37/11 63/38/11
f 2/19/12 24/39/12 30/40/12 19/20/12
f 24/39/13 11/41/13 29/42/13 30/40/13
f 11/41/14 25/13/14 7/16/14 29/42/14
f 17/43/15 10/44/15 24/45/15 2/46/15
f 10/44/16 26/47/16 11/48/16 24/45/16
f 26/47/17 9/9/17 25/12/17 11/48/17
f 21/17/18 28/49/18 10/50/18 17/18/18
f 28/49/19 8/51/19 26/52/19 10/50/19
f 8/51/20 27/5/20 9/8/20 26/52/20
f 30/53/21 29/54/21 8/55/21 28/56/21
f 29/54/22 7/1/22 27/4/22 8/55/22
f 1/22/23 20/21/23 12/57/23 44/58/23 33/59/23
f 16/24/11 18/23/11 35/60/11 46/61/11 14/62/11
f 14/62/11 46/61/11 47/36/11 31/35/11
f 23/63/24 64/64/24 66/65/24 38/66/24
f 20/26/25 16/25/25 14/67/25 12/68/25
f 12/68/26 14/67/26 31/69/26 32/70/26
f 32/70/27 31/69/27 63/32/27 13/31/27
f 32/36/23 13/71/23 45/72/23 62/73/23
f 13/71/23 23/74/23 38/75/23 45/72/23
f 21/76/28 19/77/28 30/53/28 28/56/28
f 59/8/29 42/5/29 36/6/29 52/78/29
f 42/4/3 57/79/3 37/80/3 36/81/3
f 57/82/30 60/13/30 53/14/30 37/83/30
f 34/18/5 51/19/5 49/20/5 50/17/5
f 33/59/6 53/84/6 52/85/6 1/22/6
f 18/23/7 36/81/7 37/80/7 35/60/7
f 35/26/31 37/83/31 53/14/31 33/25/31
f 45/32/32 38/33/32 66/34/32 65/31/32
f 49/20/33 51/19/33 39/86/33 55/87/33
f 55/87/34 39/86/34 61/88/34 56/42/34
f 50/89/15 49/77/15 55/53/15 43/90/15
f 43/90/16 55/53/16 56/91/16 58/92/16
f 58/92/17 56/91/17 57/79/17 42/4/17
f 34/18/35 50/17/35 43/93/35 41/50/35
f 41/50/36 43/93/36 58/51/36 40/94/36
f 40/94/37 58/51/37 42/5/37 59/8/37
f 51/95/28 34/43/28 41/96/28 39/45/28
f 39/45/21 41/96/21 40/97/21 61/48/21
f 61/48/22 40/97/22 59/98/22 60/99/22
f 33/25/38 44/67/38 46/68/38 35/26/38
f 44/67/39 62/69/39 47/70/39 46/68/39
f 62/69/40 45/32/40 65/31/40 47/70/40
f 12/57/23 32/36/23 62/73/23 44/58/23
f 59/98/1 52/85/1 53/84/1 60/99/1
f 61/88/41 60/13/41 57/82/41 56/42/41
f 15/100/11 67/101/11 6/102/11 64/103/11 63/38/11
f 48/104/11 68/105/11 15/100/11 63/38/11 65/37/11
f 6/102/11 69/106/11 54/107/11 66/108/11 64/103/11
f 54/107/11 70/109/11 48/104/11 65/37/11 66/108/11
f 173/124/49 174/125/49 113/126/49 114/127/49
f 96/128/50 81/129/50 89/130/50 104/131/50
f 153/132/51 154/133/51 117/134/51 118/135/51
f 161/136/52 162/137/52 121/138/52 122/139/52
f 145/140/53 146/137/53 125/138/53 126/141/53
f 164/142/54 165/143/54 130/144/54 131/145/54
f 156/146/55 157/147/55 134/148/55 135/149/55
f 169/150/56 170/151/56 137/152/56 138/153/56
f 148/154/57 149/155/57 142/156/57 143/157/57
f 101/158/58 85/159/58 93/160/58 109/161/58
f 99/162/59 86/163/59 94/164/59 107/165/59
f 97/166/60 83/167/60 91/168/60 105/169/60
f 95/170/61 80/171/61 88/172/61 103/173/61
f 102/174/62 79/175/62 87/176/62 110/177/62
f 100/178/63 82/179/63 90/180/63 108/181/63
f 98/182/64 84/183/64 92/184/64 106/185/64
f 85/159/65 98/182/65 106/185/65 93/160/65
f 86/163/66 100/178/66 108/181/66 94/164/66
f 83/167/67 102/174/67 110/177/67 91/168/67
f 79/175/68 95/170/68 103/173/68 87/176/68
f 82/186/69 97/166/69 105/169/69 90/187/69
f 84/183/70 99/162/70 107/165/70 92/184/70
f 81/129/71 101/158/71 109/161/71 89/130/71
f 80/171/72 96/128/72 104/131/72 88/172/72
f 144/188/73 145/140/73 126/141/73 127/189/73
f 151/190/74 148/154/74 143/157/74 140/191/74
f 152/192/75 153/132/75 118/135/75 119/193/75
f 159/194/76 156/146/76 135/149/76 132/195/76
f 160/196/77 161/136/77 122/139/77 123/197/77
f 167/198/78 164/142/78 131/145/78 128/199/78
f 168/200/79 169/150/79 138/153/79 139/201/79
f 172/202/80 173/124/80 114/127/80 115/203/80
f 85/204/81 101/205/81 114/206/81 113/207/81
f 101/205/82 81/208/82 115/209/82 114/206/82
f 72/210/83 71/211/83 84/212/83 137/213/83 136/214/83 139/215/83 85/204/83
f 86/216/84 99/217/84 118/218/84 117/219/84
f 99/217/85 84/212/85 119/220/85 118/218/85
f 78/221/86 73/222/86 82/223/86 133/224/86 132/225/86 135/226/86 86/216/86
f 83/227/87 97/228/87 122/229/87 121/230/87
f 97/228/88 82/223/88 123/231/88 122/229/88
f 80/232/89 95/233/89 126/234/89 125/235/89
f 95/233/90 79/236/90 127/237/90 126/234/90
f 74/238/91 77/239/91 79/236/91 129/240/91 128/241/91 131/242/91 83/227/91
f 79/236/92 102/243/92 130/244/92 129/240/92
f 102/243/93 83/227/93 131/242/93 130/244/93
f 73/222/94 74/238/94 83/227/94 121/230/94 120/245/94 123/231/94 82/223/94
f 82/223/95 100/246/95 134/247/95 133/224/95
f 100/246/96 86/216/96 135/226/96 134/247/96
f 76/248/97 75/249/97 81/208/97 141/250/97 140/251/97 143/252/97 80/232/97
f 84/212/98 98/253/98 138/254/98 137/213/98
f 98/253/99 85/204/99 139/215/99 138/254/99
f 71/211/100 78/221/100 86/216/100 117/219/100 116/255/100 119/220/100 84/212/100
f 81/208/101 96/256/101 142/257/101 141/250/101
f 96/256/102 80/232/102 143/252/102 142/257/102
f 77/239/103 76/248/103 80/232/103 125/235/103 124/258/103 127/237/103 79/236/103
f 87/259/11 103/260/11 145/261/11 144/262/11
f 103/260/11 88/263/11 146/264/11 145/261/11
f 88/263/11 111/265/11 147/266/11 146/264/11
f 111/265/11 87/259/11 144/262/11 147/266/11
f 88/263/11 104/267/11 149/268/11 148/269/11
f 104/267/11 89/270/11 150/271/11 149/268/11
f 89/270/11 111/265/11 151/272/11 150/271/11
f 111/265/11 88/263/11 148/269/11 151/272/11
f 92/273/11 107/274/11 153/275/11 152/276/11
f 107/274/11 94/277/11 154/278/11 153/275/11
f 94/277/11 111/265/11 155/279/11 154/278/11
f 111/265/11 92/273/11 152/276/11 155/279/11
f 94/277/11 108/280/11 157/281/11 156/282/11
f 108/280/11 90/283/11 158/284/11 157/281/11
f 90/283/11 111/265/11 159/285/11 158/284/11
f 111/265/11 94/277/11 156/282/11 159/285/11
f 90/283/11 105/286/11 161/287/11 160/288/11
f 105/286/11 91/289/11 162/290/11 161/287/11
f 91/289/11 111/265/11 163/291/11 162/290/11
f 111/265/11 90/283/11 160/288/11 163/291/11
f 91/289/11 110/292/11 165/293/11 164/294/11
f 110/292/11 87/259/11 166/295/11 165/293/11
f 87/259/11 111/265/11 167/296/11 166/295/11
f 111/265/11 91/289/11 164/294/11 167/296/11
f 93/297/11 106/298/11 169/299/11 168/300/11
f 106/298/11 92/273/11 170/301/11 169/299/11
f 92/273/11 111/265/11 171/302/11 170/301/11
f 111/265/11 93/297/11 168/300/11 171/302/11
f 89/270/11 109/303/11 173/304/11 172/305/11
f 109/303/11 93/297/11 174/306/11 173/304/11
f 93/297/11 111/265/11 175/307/11 174/306/11
f 111/265/11 89/270/11 172/305/11 175/307/11
f 170/151/24 171/308/24 136/309/24 137/152/24
f 171/310/104 168/200/104 139/201/104 136/311/104
f 174/125/78 175/312/78 112/313/78 113/126/78
f 175/314/105 172/202/105 115/203/105 112/315/105
f 149/155/106 150/316/106 141/317/106 142/156/106
f 150/316/107 151/318/107 140/319/107 141/317/107
f 146/137/76 147/320/76 124/321/76 125/138/76
f 147/322/24 144/188/24 127/189/24 124/323/24
f 165/143/108 166/324/108 129/325/108 130/144/108
f 166/324/5 167/326/5 128/327/5 129/325/5
f 162/137/104 163/328/104 120/329/104 121/138/104
f 163/330/107 160/196/107 123/197/107 120/331/107
f 157/147/109 158/332/109 133/333/109 134/148/109
f 158/332/105 159/334/105 132/335/105 133/333/105
f 154/133/74 155/336/74 116/337/74 117/134/74
f 155/338/5 152/192/5 119/193/5 116/339/5
f 36/6/110 18/340/110 1/341/110 52/78/110
f 4/7/111 22/6/111 1/340/111 18/341/111
f 75/249/112 72/210/112 85/204/112 113/207/112 112/342/112 115/209/112 81/208/112
