# Blender 4.0.2
# www.blender.org
mtllib Barca_motor.mtl
o Motor
v 1.274238 -0.698073 1.372937
v 1.285892 -0.559296 1.448268
v 1.285892 1.512489 1.448268
v 1.389708 -0.663112 1.337976
v 1.424670 -0.698073 1.222506
v 1.424670 -0.698073 -1.325970
v 1.424670 -0.547642 1.372937
v 1.500000 -0.559296 1.234160
v 1.500000 -0.559296 -1.337625
v 1.424670 1.500835 1.372937
v 1.500000 1.512489 1.234160
v 1.500000 1.512489 -1.337625
v 1.389708 -0.663112 -1.441441
v 1.274238 -0.698073 -1.476402
v 1.424669 -0.547642 -1.476402
v 1.285892 -0.559296 -1.551732
v 1.424669 1.500835 -1.476402
v 1.285892 1.512489 -1.551732
v 1.285892 -0.773404 -1.337625
v 1.285892 -0.773404 1.234160
v 1.274238 1.651267 -1.476402
v 1.285892 1.726596 -1.337625
v 1.285892 1.726596 1.234160
v 1.274238 1.651267 1.372937
v 1.389708 1.616305 -1.441441
v 1.424670 1.651267 -1.325970
v 1.424670 1.651267 1.222506
v 1.389708 1.616305 1.337976
v 0.847602 -0.773404 0.104004
v 0.847602 -0.773404 0.834894
v 0.847602 -3.809882 0.104004
v 0.847602 -3.809882 0.834894
v 0.788639 -0.773404 -0.860064
v 0.788640 -0.773404 -0.529292
v 0.857144 -0.773404 -0.694678
v 0.457868 -0.773404 -0.860064
v 0.457868 -0.773404 -0.529292
v 0.389363 -0.773404 -0.694678
v 0.623254 -0.773404 -0.928569
v 0.623254 -0.773404 -0.460788
v 0.857144 -1.842175 -0.694678
v 0.788640 -1.842175 -0.529292
v 0.788639 -1.842175 -0.860064
v 0.623254 -1.842175 -0.928569
v 0.457868 -1.842175 -0.860064
v 0.389363 -1.842175 -0.694678
v 0.457868 -1.842175 -0.529292
v 0.623254 -1.842175 -0.460788
v 0.282244 -2.407718 -0.694678
v 0.241267 -2.352820 -0.529292
v 0.241267 -2.352820 -0.860064
v 0.142339 -2.220284 -0.928569
v 0.043412 -2.087749 -0.860064
v 0.002434 -2.032850 -0.694678
v 0.043412 -2.087749 -0.529292
v 0.142339 -2.220284 -0.460788
v 0.156817 -3.069440 -0.529292
v 0.231462 -2.640315 -0.694678
v 0.162964 -2.639336 -0.529292
v 0.162964 -2.639336 -0.860064
v 0.225314 -3.070420 -0.694678
v -0.000000 -2.636972 -0.460788
v 0.156817 -3.069440 -0.860064
v -0.000000 -3.067077 -0.928569
v -0.000000 -3.067077 -0.460788
v 0.152831 -3.628473 -1.462391
v 0.216136 -3.781304 -1.462850
v -0.000001 -3.565168 -1.462202
v 0.152832 -3.934135 -1.463308
v 0.000000 -3.997440 -1.463498
v -0.000000 -3.514315 -0.973868
v 0.002539 -3.539163 -1.090409
v 0.152378 -3.434279 -0.876667
v 0.152441 -3.564408 -0.927123
v 0.152457 -3.606313 -1.078130
v 0.220559 -3.474680 -0.716154
v 0.220942 -3.686694 -0.815773
v 0.221230 -3.768782 -1.047814
v 0.151730 -3.515024 -0.555903
v 0.152437 -3.809741 -0.705267
v 0.152994 -3.931465 -1.017432
v 0.003298 -3.999000 -1.004568
v -0.000000 -3.861271 -0.660115
v 0.580540 -2.202494 -0.529292
v 0.473284 -2.076603 -0.460788
v 0.366029 -1.950712 -0.529292
v 0.321602 -1.898566 -0.694679
v 0.366028 -1.950712 -0.860064
v 0.473284 -2.076604 -0.928569
v 0.580540 -2.202495 -0.860064
v 0.624967 -2.254640 -0.694679
v -1.274239 -0.698073 1.372937
v -1.285892 -0.559296 1.448268
v -1.285892 1.512489 1.448268
v -1.389709 -0.663112 1.337976
v -1.424670 -0.698073 1.222506
v -1.424670 -0.698073 -1.325970
v -1.424670 -0.547642 1.372938
v -1.500000 -0.559296 1.234160
v -1.500000 -0.559296 -1.337624
v -1.424670 1.500835 1.372938
v -1.500000 1.512489 1.234160
v -1.500000 1.512489 -1.337624
v -1.389709 -0.663112 -1.441440
v -1.274239 -0.698073 -1.476402
v -1.424670 -0.547642 -1.476402
v -1.285893 -0.559296 -1.551732
v -1.424670 1.500835 -1.476402
v -1.285893 1.512489 -1.551732
v -1.285892 -0.773404 -1.337625
v -1.285892 -0.773404 1.234160
v -1.274239 1.651267 -1.476402
v -1.285892 1.726596 -1.337625
v -1.285892 1.726596 1.234160
v -1.274239 1.651267 1.372937
v -1.389709 1.616305 -1.441440
v -1.424670 1.651267 -1.325970
v -1.424670 1.651267 1.222506
v -1.389709 1.616305 1.337976
v -0.847603 -0.773404 0.104004
v -0.847602 -0.773404 0.834894
v -0.847603 -3.809882 0.104004
v -0.847602 -3.809882 0.834894
v -0.788640 -0.773404 -0.860063
v -0.788640 -0.773404 -0.529292
v -0.857145 -0.773404 -0.694678
v -0.457869 -0.773404 -0.860064
v -0.457869 -0.773404 -0.529292
v -0.389364 -0.773404 -0.694678
v -0.623255 -0.773404 -0.928569
v -0.623255 -0.773404 -0.460788
v -0.857145 -1.842175 -0.694678
v -0.788640 -1.842175 -0.529292
v -0.788640 -1.842175 -0.860063
v -0.623255 -1.842175 -0.928569
v -0.457869 -1.842175 -0.860064
v -0.389364 -1.842175 -0.694678
v -0.457869 -1.842175 -0.529292
v -0.623255 -1.842175 -0.460788
v -0.282244 -2.407718 -0.694678
v -0.241267 -2.352820 -0.529292
v -0.241267 -2.352820 -0.860064
v -0.142340 -2.220284 -0.928569
v -0.043412 -2.087749 -0.860064
v -0.043412 -2.087749 -0.529292
v -0.142340 -2.220284 -0.460788
v -0.156818 -3.069440 -0.529292
v -0.231463 -2.640315 -0.694678
v -0.162965 -2.639336 -0.529292
v -0.162965 -2.639336 -0.860064
v 0.002404 -2.636972 -0.928569
v -0.225315 -3.070420 -0.694678
v -0.156818 -3.069440 -0.860064
v -0.152833 -3.628474 -1.462391
v -0.216137 -3.781305 -1.462850
v -0.152832 -3.934135 -1.463308
v 0.001882 -3.417337 -0.943357
v -0.152379 -3.434279 -0.876667
v -0.152442 -3.564408 -0.927123
v -0.152458 -3.606313 -1.078130
v -0.220559 -3.474680 -0.716154
v -0.220942 -3.686694 -0.815773
v -0.221231 -3.768782 -1.047814
v -0.151731 -3.515024 -0.555903
v -0.152438 -3.809741 -0.705267
v -0.152994 -3.931465 -1.017432
v 0.002799 -3.531530 -0.489728
v -0.580541 -2.202494 -0.529292
v -0.473285 -2.076603 -0.460788
v -0.366029 -1.950712 -0.529292
v -0.321602 -1.898566 -0.694679
v -0.366029 -1.950712 -0.860064
v -0.473285 -2.076604 -0.928569
v -0.580541 -2.202495 -0.860064
v -0.624968 -2.254640 -0.694679
vn 0.4247 -0.4247 0.7995
vn -0.0000 -0.4771 0.8789
vn 0.4771 -0.0000 0.8789
vn -0.0000 -0.0000 1.0000
vn 0.4247 0.4247 0.7995
vn 0.7995 -0.4247 0.4247
vn 0.8789 -0.4771 -0.0000
vn 0.7995 -0.4247 -0.4247
vn 0.8789 -0.0000 0.4771
vn 1.0000 -0.0000 -0.0000
vn 0.8789 -0.0000 -0.4771
vn 0.7995 0.4247 0.4247
vn 0.8789 0.4771 -0.0000
vn 0.7995 0.4247 -0.4247
vn 0.4247 -0.4247 -0.7995
vn 0.4771 -0.0000 -0.8789
vn 0.4247 0.4247 -0.7995
vn 0.4247 -0.7995 -0.4247
vn 0.4771 -0.8789 -0.0000
vn 0.4247 -0.7995 0.4247
vn -0.0000 -0.8789 0.4771
vn -0.0000 0.8789 -0.4771
vn -0.0000 1.0000 -0.0000
vn 0.4247 0.7995 -0.4247
vn 0.4771 0.8789 -0.0000
vn 0.4247 0.7995 0.4247
vn -0.0000 -1.0000 -0.0000
vn 0.9239 -0.0000 -0.3827
vn 0.3827 -0.0000 -0.9239
vn -0.9239 -0.0000 -0.3827
vn -0.3827 -0.0000 -0.9239
vn 0.9239 -0.0000 0.3827
vn -0.9239 -0.0000 0.3827
vn -0.3827 -0.0000 0.9239
vn 0.3827 -0.0000 0.9239
vn -0.0000 -0.0000 -1.0000
vn -0.0000 0.8789 0.4771
vn -0.0000 -0.8789 -0.4771
vn -0.0000 0.4771 -0.8789
vn -0.0000 -0.4771 -0.8789
vn -0.0000 0.4771 0.8789
vn -0.4265 0.1432 -0.8931
vn 0.4073 -0.1278 0.9043
vn 0.9125 -0.2269 0.3403
vn 0.9238 -0.0132 -0.3827
vn 0.3938 -0.0028 0.9192
vn 0.9238 -0.0132 0.3827
vn 0.9125 -0.2269 -0.3403
vn 0.4105 -0.1274 -0.9029
vn -0.4246 0.1450 0.8937
vn 0.3963 -0.0039 -0.9181
vn 0.3969 -0.9178 -0.0004
vn 0.9230 -0.3847 0.0012
vn 0.9229 0.3845 -0.0221
vn 0.3970 0.9159 -0.0595
vn 0.3897 0.8944 -0.2194
vn 0.3925 0.3061 -0.8673
vn 0.4044 0.0387 -0.9138
vn 0.9165 0.3808 -0.1226
vn 0.9171 0.1611 -0.3646
vn 0.9225 0.0081 -0.3859
vn 0.9183 -0.3704 0.1401
vn 0.9166 -0.1747 0.3595
vn 0.9223 -0.0325 0.3850
vn 0.4005 -0.8514 0.3388
vn 0.3964 -0.4195 0.8166
vn 0.4047 -0.0567 0.9127
vn 0.3773 -0.8481 -0.3719
vn 0.1583 -0.3609 -0.9191
vn -0.1558 0.3628 -0.9188
vn -0.3617 0.8556 -0.3703
vn -0.3617 0.8556 0.3703
vn -0.1558 0.3628 0.9188
vn 0.1583 -0.3609 0.9191
vn 0.3773 -0.8481 0.3719
vn 0.3574 -0.2152 0.9088
vn -0.3439 0.2425 0.9072
vn -0.6772 0.6553 0.3345
vn -0.6772 0.6553 -0.3345
vn -0.3439 0.2425 -0.9072
vn 0.3574 -0.2152 -0.9088
vn 0.8136 -0.4636 -0.3509
vn 0.8136 -0.4636 0.3509
vn -0.4247 -0.4247 0.7995
vn -0.4771 -0.0000 0.8789
vn -0.4247 0.4247 0.7995
vn -0.7995 -0.4247 0.4247
vn -0.8789 -0.4771 -0.0000
vn -0.7995 -0.4247 -0.4247
vn -0.8789 -0.0000 0.4771
vn -1.0000 -0.0000 -0.0000
vn -0.8789 -0.0000 -0.4771
vn -0.7995 0.4247 0.4247
vn -0.8789 0.4771 -0.0000
vn -0.7995 0.4247 -0.4247
vn -0.4247 -0.4247 -0.7995
vn -0.4771 -0.0000 -0.8789
vn -0.4247 0.4247 -0.7995
vn -0.4247 -0.7995 -0.4247
vn -0.4771 -0.8789 -0.0000
vn -0.4247 -0.7995 0.4247
vn -0.4247 0.7995 -0.4247
vn -0.4771 0.8789 -0.0000
vn -0.4247 0.7995 0.4247
vn 0.4226 0.1468 -0.8943
vn -0.4073 -0.1278 0.9043
vn -0.9125 -0.2269 0.3403
vn -0.9238 -0.0132 -0.3827
vn -0.3938 -0.0028 0.9192
vn -0.9238 -0.0132 0.3827
vn -0.9125 -0.2269 -0.3403
vn -0.4041 -0.1282 -0.9057
vn 0.4246 0.1450 0.8937
vn -0.3913 -0.0017 -0.9203
vn -0.0000 0.1238 0.9923
vn -0.0000 0.9491 0.3150
vn -0.3899 -0.9209 0.0025
vn -0.9230 -0.3847 0.0012
vn -0.9229 0.3845 -0.0221
vn -0.3915 0.9184 -0.0570
vn -0.3848 0.8947 -0.2269
vn -0.3888 0.3123 -0.8667
vn -0.4002 0.0367 -0.9157
vn -0.9165 0.3808 -0.1226
vn -0.9171 0.1611 -0.3646
vn -0.9225 0.0081 -0.3859
vn -0.9183 -0.3704 0.1401
vn -0.9166 -0.1747 0.3595
vn -0.9223 -0.0325 0.3850
vn -0.3932 -0.8557 0.3365
vn -0.3902 -0.4179 0.8204
vn -0.3986 -0.0593 0.9152
vn -0.3773 -0.8481 -0.3719
vn -0.1583 -0.3609 -0.9191
vn 0.1558 0.3628 -0.9188
vn 0.3587 0.8550 -0.3746
vn 0.3587 0.8550 0.3746
vn 0.1558 0.3628 0.9188
vn -0.1583 -0.3609 0.9191
vn -0.3773 -0.8481 0.3719
vn -0.3574 -0.2152 0.9088
vn 0.3439 0.2425 0.9072
vn 0.6772 0.6553 0.3345
vn 0.6772 0.6553 -0.3345
vn 0.3439 0.2425 -0.9072
vn -0.3574 -0.2152 -0.9088
vn -0.8136 -0.4636 -0.3509
vn -0.8136 -0.4636 0.3509
vn -0.0000 0.9491 -0.3150
vn -0.0000 0.1238 -0.9923
vn -0.0000 0.0030 -1.0000
vt 0.759570 0.110523
vt 0.761573 0.111129
vt 0.762179 0.113132
vt 0.759772 0.112930
vt 0.715168 0.112930
vt 0.715370 0.110523
vt 0.762179 0.148660
vt 0.759772 0.148862
vt 0.715168 0.148862
vt 0.761573 0.150663
vt 0.759570 0.151269
vt 0.803025 0.062253
vt 0.803631 0.064340
vt 0.801224 0.064617
vt 0.801022 0.061902
vt 0.803631 0.105638
vt 0.801224 0.106293
vt 0.803025 0.107294
vt 0.801022 0.108076
vt 0.765292 0.064617
vt 0.765494 0.061902
vt 0.765292 0.106293
vt 0.765494 0.108076
vt 0.762885 0.064340
vt 0.763491 0.062253
vt 0.762885 0.105638
vt 0.763491 0.107294
vt 0.713368 0.111129
vt 0.715370 0.110523
vt 0.712761 0.113132
vt 0.715168 0.148862
vt 0.712761 0.148660
vt 0.715370 0.151269
vt 0.713368 0.150663
vt 0.713112 0.109080
vt 0.712505 0.107077
vt 0.714912 0.107279
vt 0.715114 0.109686
vt 0.712505 0.062877
vt 0.714912 0.062675
vt 0.713112 0.060875
vt 0.715114 0.060268
vt 0.759516 0.062675
vt 0.759314 0.060268
vt 0.759516 0.107279
vt 0.751915 0.069600
vt 0.722514 0.069600
vt 0.871356 0.203412
vt 0.849276 0.203412
vt 0.849276 0.193892
vt 0.871356 0.193892
vt 0.839756 0.154341
vt 0.849276 0.154341
vt 0.839756 0.193892
vt 0.873935 0.088842
vt 0.870968 0.088852
vt 0.870620 0.104951
vt 0.872805 0.105272
vt 0.876883 0.089149
vt 0.875061 0.106039
vt 0.882770 0.089841
vt 0.879824 0.089493
vt 0.877652 0.107007
vt 0.880692 0.107433
vt 0.868038 0.088946
vt 0.868424 0.105164
vt 0.862223 0.089307
vt 0.859311 0.089508
vt 0.860513 0.106892
vt 0.863527 0.106633
vt 0.865129 0.089108
vt 0.866143 0.105811
vt 0.871356 0.242963
vt 0.849276 0.242963
vt 0.759314 0.109686
vt 0.855014 0.147659
vt 0.856848 0.143829
vt 0.866288 0.142327
vt 0.857952 0.133965
vt 0.855737 0.132130
vt 0.862673 0.129562
vt 0.863005 0.132627
vt 0.859231 0.136748
vt 0.863680 0.135848
vt 0.864775 0.139170
vt 0.870713 0.133634
vt 0.871891 0.136194
vt 0.869332 0.128861
vt 0.869844 0.131167
vt 0.858726 0.140264
vt 0.853480 0.130392
vt 0.873242 0.138734
vt 0.885038 0.125673
vt 0.885414 0.127682
vt 0.880618 0.128279
vt 0.880392 0.126756
vt 0.885618 0.129737
vt 0.880768 0.130117
vt 0.885743 0.131826
vt 0.880884 0.132248
vt 0.885920 0.133956
vt 0.881133 0.134459
vt 0.879417 0.134794
vt 0.878634 0.132379
vt 0.878019 0.135664
vt 0.876766 0.133435
vt 0.878104 0.130241
vt 0.875719 0.131335
vt 0.877768 0.128649
vt 0.875027 0.129517
vt 0.877515 0.127385
vt 0.874634 0.127996
vt 0.870278 0.115795
vt 0.873449 0.115739
vt 0.872648 0.110279
vt 0.870465 0.110343
vt 0.876576 0.115650
vt 0.875073 0.110024
vt 0.879698 0.115430
vt 0.877917 0.109592
vt 0.882770 0.114794
vt 0.880999 0.108990
vt 0.858017 0.114004
vt 0.861004 0.114819
vt 0.863119 0.109168
vt 0.860120 0.108396
vt 0.864067 0.115233
vt 0.865904 0.109761
vt 0.867147 0.115522
vt 0.868295 0.110154
vt 0.713368 0.111129
vt 0.803025 0.107726
vt 0.801224 0.105362
vt 0.801224 0.063686
vt 0.803025 0.062685
vt 0.765292 0.105362
vt 0.765292 0.063686
vt 0.763491 0.107726
vt 0.763491 0.062685
vt 0.761317 0.109080
vt 0.761923 0.107077
vt 0.761923 0.062877
vt 0.761317 0.060875
vt 0.880876 0.154341
vt 0.880876 0.193892
vt 0.871356 0.154341
vt 0.873945 0.088849
vt 0.872792 0.105276
vt 0.870608 0.104952
vt 0.870978 0.088854
vt 0.876892 0.089159
vt 0.875047 0.106046
vt 0.882778 0.089860
vt 0.880675 0.107448
vt 0.877637 0.107018
vt 0.879832 0.089508
vt 0.868412 0.105161
vt 0.868048 0.088944
vt 0.862233 0.089297
vt 0.863513 0.106624
vt 0.860498 0.106879
vt 0.859321 0.089494
vt 0.865139 0.089102
vt 0.866130 0.105806
vt 0.856072 0.116309
vt 0.863780 0.118295
vt 0.857460 0.118467
vt 0.858058 0.125548
vt 0.862657 0.126591
vt 0.855840 0.127287
vt 0.859256 0.123164
vt 0.862871 0.123680
vt 0.863257 0.120900
vt 0.869612 0.121663
vt 0.869317 0.124131
vt 0.869195 0.126558
vt 0.858849 0.120624
vt 0.853516 0.129036
vt 0.869955 0.119262
vt 0.850774 0.129679
vt 0.879948 0.125275
vt 0.884462 0.123732
vt 0.879315 0.123608
vt 0.883724 0.121850
vt 0.878526 0.121721
vt 0.882913 0.119989
vt 0.877784 0.119687
vt 0.882136 0.118083
vt 0.876554 0.122525
vt 0.876249 0.120209
vt 0.874574 0.122352
vt 0.874806 0.120032
vt 0.876923 0.124585
vt 0.874412 0.124528
vt 0.877245 0.126136
vt 0.874435 0.126402
vt 0.870251 0.115795
vt 0.870446 0.110344
vt 0.872628 0.110283
vt 0.873422 0.115743
vt 0.875054 0.110031
vt 0.876548 0.115659
vt 0.877898 0.109603
vt 0.879671 0.115443
vt 0.880980 0.109005
vt 0.882778 0.114883
vt 0.857954 0.114055
vt 0.860104 0.108383
vt 0.863101 0.109159
vt 0.860978 0.114806
vt 0.865886 0.109755
vt 0.864041 0.115224
vt 0.868276 0.110151
vt 0.867120 0.115518
vt 0.850774 0.151465
vt 0.856157 0.149718
vt 0.852777 0.107961
vt 0.850236 0.105419
vt 0.850236 0.101826
vt 0.852777 0.099285
vt 0.856371 0.099285
vt 0.858912 0.101826
vt 0.858912 0.105419
vt 0.856371 0.107961
vt 0.722514 0.082276
vt 0.751915 0.082276
vt 0.750892 0.098997
vt 0.752080 0.096128
vt 0.750892 0.093260
vt 0.748024 0.092072
vt 0.745156 0.093260
vt 0.743967 0.096128
vt 0.730461 0.096128
vt 0.729273 0.093260
vt 0.726405 0.092072
vt 0.723537 0.093260
vt 0.722348 0.096128
vt 0.723537 0.098997
vt 0.745156 0.098997
vt 0.748024 0.100185
vt 0.726405 0.100185
vt 0.729273 0.098997
s 0
usemtl lvl2-metal
f 33/55/28 35/56/28 41/57/28 43/58/28
f 39/59/29 33/55/29 43/58/29 44/60/29
f 38/61/30 36/62/30 45/63/30 46/64/30
f 36/62/31 39/59/31 44/60/31 45/63/31
f 35/56/32 34/65/32 42/66/32 41/57/32
f 37/67/33 38/68/33 46/69/33 47/70/33
f 40/71/34 37/67/34 47/70/34 48/72/34
f 34/65/35 40/71/35 48/72/35 42/66/35
f 53/76/42 52/77/42 151/78/42
f 50/79/43 56/80/43 62/81/43 59/82/43
f 49/83/44 50/79/44 59/82/44 58/84/44
f 60/85/45 58/84/45 61/86/45 63/87/45
f 59/82/46 62/81/46 65/88/46 57/89/46
f 58/84/47 59/82/47 57/89/47 61/86/47
f 51/90/48 49/83/48 58/84/48 60/85/48
f 52/77/49 51/90/49 60/85/49 151/78/49
f 56/80/50 55/91/50 62/81/50
f 151/78/51 60/85/51 63/87/51 64/92/51
f 70/93/52 69/94/52 81/95/52 82/96/52
f 69/94/53 67/97/53 78/98/53 81/95/53
f 67/97/54 66/99/54 75/100/54 78/98/54
f 66/99/55 68/101/55 72/102/55 75/100/55
f 75/100/56 72/102/56 71/103/56 74/104/56
f 74/104/57 71/103/57 157/105/57 73/106/57
f 73/106/58 157/105/58 64/92/58 63/87/58
f 78/98/59 75/100/59 74/104/59 77/107/59
f 77/107/60 74/104/60 73/106/60 76/108/60
f 76/108/61 73/106/61 63/87/61 61/86/61
f 81/95/62 78/98/62 77/107/62 80/109/62
f 80/109/63 77/107/63 76/108/63 79/110/63
f 79/110/64 76/108/64 61/86/64 57/89/64
f 82/96/65 81/95/65 80/109/65 83/111/65
f 83/111/66 80/109/66 79/110/66 167/112/66
f 167/112/67 79/110/67 57/89/67 65/88/67
f 49/113/68 51/114/68 90/115/68 91/116/68
f 51/114/69 52/117/69 89/118/69 90/115/69
f 52/117/70 53/119/70 88/120/70 89/118/70
f 53/119/71 54/121/71 87/122/71 88/120/71
f 54/123/72 55/124/72 86/125/72 87/126/72
f 55/124/73 56/127/73 85/128/73 86/125/73
f 56/127/74 50/129/74 84/130/74 85/128/74
f 50/129/75 49/113/75 91/116/75 84/130/75
f 85/128/76 84/130/76 42/66/76 48/72/76
f 86/125/77 85/128/77 48/72/77 47/70/77
f 87/126/78 86/125/78 47/70/78 46/69/78
f 88/120/79 87/122/79 46/64/79 45/63/79
f 89/118/80 88/120/80 45/63/80 44/60/80
f 90/115/81 89/118/81 44/60/81 43/58/81
f 91/116/82 90/115/82 43/58/82 41/57/82
f 84/130/83 91/116/83 41/57/83 42/66/83
f 124/147/30 134/148/30 132/149/30 126/150/30
f 130/151/31 135/152/31 134/148/31 124/147/31
f 129/153/28 137/154/28 136/155/28 127/156/28
f 127/156/29 136/155/29 135/152/29 130/151/29
f 126/150/33 132/149/33 133/157/33 125/158/33
f 128/159/32 138/160/32 137/161/32 129/162/32
f 131/163/35 139/164/35 138/160/35 128/159/35
f 125/158/34 133/157/34 139/164/34 131/163/34
f 144/165/105 151/166/105 143/167/105
f 141/168/106 149/169/106 62/81/106 146/170/106
f 140/171/107 148/172/107 149/169/107 141/168/107
f 150/173/108 153/174/108 152/175/108 148/172/108
f 149/169/109 147/176/109 65/88/109 62/81/109
f 148/172/110 152/175/110 147/176/110 149/169/110
f 142/177/111 150/173/111 148/172/111 140/171/111
f 143/167/112 151/166/112 150/173/112 142/177/112
f 146/170/113 62/81/113 145/178/113
f 151/166/114 64/179/114 153/174/114 150/173/114
f 145/178/115 62/81/115 55/91/115
f 55/91/116 54/180/116 145/178/116
f 70/93/117 82/96/117 166/181/117 156/182/117
f 156/182/118 166/181/118 163/183/118 155/184/118
f 155/184/119 163/183/119 160/185/119 154/186/119
f 154/186/120 160/185/120 72/187/120 68/188/120
f 160/185/121 159/189/121 71/190/121 72/187/121
f 159/189/122 158/191/122 157/192/122 71/190/122
f 158/191/123 153/174/123 64/179/123 157/192/123
f 163/183/124 162/193/124 159/189/124 160/185/124
f 162/193/125 161/194/125 158/191/125 159/189/125
f 161/194/126 152/175/126 153/174/126 158/191/126
f 166/181/127 165/195/127 162/193/127 163/183/127
f 165/195/128 164/196/128 161/194/128 162/193/128
f 164/196/129 147/176/129 152/175/129 161/194/129
f 82/96/130 83/111/130 165/195/130 166/181/130
f 83/111/131 167/112/131 164/196/131 165/195/131
f 167/112/132 65/88/132 147/176/132 164/196/132
f 140/197/133 175/198/133 174/199/133 142/200/133
f 142/200/134 174/199/134 173/201/134 143/202/134
f 143/202/135 173/201/135 172/203/135 144/204/135
f 144/204/136 172/203/136 171/205/136 54/206/136
f 54/207/137 171/208/137 170/209/137 145/210/137
f 145/210/138 170/209/138 169/211/138 146/212/138
f 146/212/139 169/211/139 168/213/139 141/214/139
f 141/214/140 168/213/140 175/198/140 140/197/140
f 169/211/141 139/164/141 133/157/141 168/213/141
f 170/209/142 138/160/142 139/164/142 169/211/142
f 171/208/143 137/161/143 138/160/143 170/209/143
f 172/203/144 136/155/144 137/154/144 171/205/144
f 173/201/145 135/152/145 136/155/145 172/203/145
f 174/199/146 134/148/146 135/152/146 173/201/146
f 175/198/147 132/149/147 134/148/147 174/199/147
f 168/213/148 133/157/148 132/149/148 175/198/148
f 54/215/149 53/76/149 144/216/149
f 144/216/150 53/76/150 151/78/150
f 67/217/151 69/218/151 70/219/151 156/220/151 155/221/151 154/222/151 68/223/151 66/224/151
usemtl lvl2
f 1/1/1 4/2/1 7/3/1 2/4/1
f 2/4/2 93/5/2 92/6/2 1/1/2
f 2/4/3 7/3/3 10/7/3 3/8/3
f 3/8/4 94/9/4 93/5/4 2/4/4
f 3/8/5 10/7/5 28/10/5 24/11/5
f 4/12/6 5/13/6 8/14/6 7/15/6
f 5/13/7 6/16/7 9/17/7 8/14/7
f 6/16/8 13/18/8 15/19/8 9/17/8
f 7/15/9 8/14/9 11/20/9 10/21/9
f 8/14/10 9/17/10 12/22/10 11/20/10
f 9/17/11 15/19/11 17/23/11 12/22/11
f 10/21/12 11/20/12 27/24/12 28/25/12
f 11/20/13 12/22/13 26/26/13 27/24/13
f 12/22/14 17/23/14 25/27/14 26/26/14
f 13/28/15 14/29/15 16/5/15 15/30/15
f 15/30/16 16/5/16 18/31/16 17/32/16
f 17/32/17 18/31/17 21/33/17 25/34/17
f 13/35/18 6/36/18 19/37/18 14/38/18
f 6/36/19 5/39/19 20/40/19 19/37/19
f 5/39/20 4/41/20 1/42/20 20/40/20
f 111/43/21 20/40/21 1/42/21 92/44/21
f 21/42/22 112/44/22 113/43/22 22/40/22
f 22/40/23 113/43/23 114/45/23 23/37/23
f 21/42/24 22/40/24 26/39/24 25/41/24
f 22/40/25 23/37/25 27/36/25 26/39/25
f 23/37/26 24/38/26 28/35/26 27/36/26
f 111/43/27 121/46/27 30/47/27 20/40/27
f 122/48/27 31/49/27 32/50/27 123/51/27
f 29/52/10 30/53/10 32/50/10 31/54/10
f 31/49/36 122/48/36 120/73/36 29/74/36
f 23/37/37 114/45/37 115/75/37 24/38/37
f 105/75/38 14/38/38 19/37/38 110/45/38
f 109/8/39 112/11/39 21/33/39 18/31/39
f 107/4/36 109/8/36 18/31/36 16/5/36
f 105/1/40 107/4/40 16/5/40 14/29/40
f 24/11/41 115/33/41 94/9/41 3/8/41
f 92/6/84 93/5/84 98/30/84 95/131/84
f 93/5/85 94/9/85 101/32/85 98/30/85
f 94/9/86 115/33/86 119/34/86 101/32/86
f 95/132/87 98/19/87 99/133/87 96/16/87
f 96/16/88 99/133/88 100/134/88 97/13/88
f 97/13/89 100/134/89 106/15/89 104/135/89
f 98/19/90 101/23/90 102/136/90 99/133/90
f 99/133/91 102/136/91 103/137/91 100/134/91
f 100/134/92 103/137/92 108/21/92 106/15/92
f 101/23/93 119/138/93 118/26/93 102/136/93
f 102/136/94 118/26/94 117/24/94 103/137/94
f 103/137/95 117/24/95 116/139/95 108/21/95
f 104/2/96 106/3/96 107/4/96 105/1/96
f 106/3/97 108/7/97 109/8/97 107/4/97
f 108/7/98 116/10/98 112/11/98 109/8/98
f 104/140/99 105/75/99 110/45/99 97/141/99
f 97/141/100 110/45/100 111/43/100 96/142/100
f 96/142/101 111/43/101 92/44/101 95/143/101
f 112/44/102 116/143/102 117/142/102 113/43/102
f 113/43/103 117/142/103 118/141/103 114/45/103
f 114/45/104 118/141/104 119/140/104 115/75/104
f 120/144/91 122/145/91 123/51/91 121/146/91
f 121/146/4 123/51/4 32/50/4 30/53/4
f 20/40/27 30/47/27 29/225/27 120/226/27 121/46/27 111/43/27 110/45/27 124/227/27 126/228/27 125/229/27 131/230/27 128/231/27 129/232/27 38/233/27 37/234/27 40/235/27 34/236/27 35/237/27 33/238/27 19/37/27
f 38/233/27 129/232/27 127/239/27 130/240/27 124/227/27 110/45/27 19/37/27 33/238/27 39/241/27 36/242/27
