# Blender 4.0.2
# www.blender.org
mtllib lvl_1-cnk_0.mtl
o Cube.055
v 18.266674 20.000000 -48.653374
v -44.733322 20.000000 -48.653366
v -44.733322 20.000000 14.346625
v 15.666666 31.276491 -24.053352
v 17.866667 31.276491 -24.053352
v 17.866667 31.276491 -48.253349
v 18.266666 30.876492 -48.653351
v -44.333328 31.276489 13.946649
v -44.733330 30.876490 14.346647
v -44.333328 31.276489 -48.253342
v -44.733330 30.876490 -48.653343
v -42.134727 31.276491 11.746644
v -42.133320 31.276489 -46.035980
v 15.666666 31.276491 11.746644
v 17.866667 31.276491 13.946649
v 15.666666 31.276491 -10.253352
v 17.866667 31.276491 -10.253352
v 15.666666 31.276491 -46.053471
v -41.734699 20.000002 10.946622
v -41.334709 20.000002 11.346622
v -41.334713 30.876492 11.346643
v -41.734703 30.876492 10.946644
v -41.333321 20.000000 -45.636246
v -41.733334 20.000000 -45.236122
v -41.733341 30.876490 -45.236099
v -41.333328 30.876490 -45.636223
v -44.733322 20.000000 -45.636246
v -44.333328 31.276489 -46.035980
v -44.733330 30.876490 -45.636223
v 15.266674 20.000000 -45.253368
v 14.866674 20.000000 -45.653248
v 14.866667 30.876492 -45.653225
v 15.266666 30.876492 -45.253345
v 15.666674 20.000000 -23.653374
v 15.266674 20.000000 -24.053375
v 18.266674 20.000000 -24.053375
v 17.866674 20.000000 -23.653374
v 18.266674 20.000002 13.946626
v 17.866674 20.000002 14.346625
v 15.266674 20.000000 -10.253377
v 15.666674 20.000000 -10.653377
v 17.866674 20.000000 -10.653377
v 18.266674 20.000000 -10.253377
v 14.866674 20.000000 11.346622
v 15.266674 20.000000 10.946622
v 15.266666 30.876492 -24.053352
v 15.666666 30.876492 -23.653351
v 17.866667 30.876492 -23.653351
v 18.266666 30.876492 -24.053352
v 15.266666 30.876492 10.946644
v 14.866667 30.876492 11.346643
v 17.866667 30.876492 14.346647
v 18.266666 30.876492 13.946648
v 15.666666 30.876492 -10.653353
v 15.266666 30.876492 -10.253353
v 18.266666 30.876492 -10.253353
v 17.866667 30.876492 -10.653353
v 17.866667 31.276491 -46.053471
v 18.266674 20.000000 -45.653225
v 18.266666 30.876492 -45.653225
vn -0.0000 -1.0000 -0.0000
vn -0.0000 -0.0000 -1.0000
vn -0.7071 0.7071 -0.0000
vn -0.0000 -0.0000 1.0000
vn 0.7071 0.7071 -0.0000
vn -1.0000 -0.0000 -0.0000
vn 1.0000 -0.0000 -0.0000
vn -0.0000 0.7071 0.7071
vn -0.0000 1.0000 -0.0000
vn 0.0002 0.7071 0.7071
vn -0.0000 0.7071 -0.7071
vn 0.0003 -0.0000 1.0000
vn 0.3015 0.9045 -0.3015
vn 0.7071 -0.0000 -0.7071
vn 0.3016 0.9045 0.3015
vn 0.7072 -0.0000 0.7070
vn -0.0000 -0.7069 -0.7073
vn -0.3014 0.9046 0.3015
vn -0.7070 -0.0000 0.7072
vn -0.5773 0.5774 0.5774
vn 0.5773 0.5774 0.5774
vn -0.3015 0.9045 -0.3015
vn -0.5773 0.5774 -0.5773
vn 0.5773 0.5774 -0.5774
vn -0.7071 -0.0000 0.7071
vn 0.7071 -0.0000 0.7071
vn -0.7071 -0.0000 -0.7071
vn -0.0000 -0.7073 -0.7069
vt 0.966268 0.662333
vt 0.968407 0.664472
vt 0.984451 0.648428
vt 0.829446 0.167248
vt 0.817684 0.124011
vt 0.829446 0.124011
vt 0.970546 0.777849
vt 0.968407 0.664472
vt 0.970546 0.660193
vt 0.311133 0.029570
vt 0.010658 0.072806
vt 0.010658 0.029569
vt 0.682252 0.167249
vt 0.347568 0.124012
vt 0.682252 0.124012
vt 0.982312 0.851652
vt 0.984451 0.967168
vt 0.982312 0.969309
vt 0.945814 0.124012
vt 0.832470 0.167248
vt 0.832471 0.124011
vt 0.647527 0.967077
vt 0.649666 0.648428
vt 0.649666 0.969215
vt 0.285176 0.198962
vt 0.171832 0.242199
vt 0.171832 0.198962
vt 0.982312 0.777849
vt 0.984451 0.648428
vt 0.984451 0.777849
vt 0.614532 0.072806
vt 0.314157 0.029570
vt 0.614533 0.029569
vt 0.970546 0.851652
vt 0.982312 0.849513
vt 0.970546 0.969309
vt 0.982312 0.981074
vt 0.968407 0.965030
vt 0.968407 0.851652
vt 0.661432 0.969215
vt 0.966268 0.967168
vt 0.647527 0.983213
vt 0.649666 0.981074
vt 0.970546 0.779988
vt 0.663563 0.664472
vt 0.663571 0.964937
vt 0.665703 0.662333
vt 0.661424 0.660193
vt 0.982312 0.646289
vt 0.982312 0.648428
vt 0.918141 0.072645
vt 0.617673 0.029408
vt 0.918141 0.029408
vt 0.311133 0.029570
vt 0.314157 0.072806
vt 0.311133 0.072806
vt 0.026875 0.167248
vt 0.347568 0.124012
vt 0.347568 0.167249
vt 0.665710 0.967077
vt 0.617557 0.072806
vt 0.614533 0.029569
vt 0.617558 0.029569
vt 0.299962 0.242199
vt 0.288200 0.198962
vt 0.299962 0.198962
vt 0.010689 0.166961
vt 0.026820 0.123724
vt 0.026820 0.166961
vt 0.814660 0.167248
vt 0.685277 0.124012
vt 0.814660 0.124011
vt 0.599347 0.029542
vt 0.617525 0.072779
vt 0.599347 0.072779
vt 0.918339 0.029327
vt 0.921363 0.072564
vt 0.918339 0.072564
vt 0.970546 0.849513
vt 0.984451 0.851652
vt 0.966268 0.662333
vt 0.968407 0.777849
vt 0.982312 0.779988
vt 0.285176 0.242199
vt 0.285176 0.198962
vt 0.302986 0.242199
vt 0.302986 0.198962
vt 0.685277 0.167249
vt 0.682252 0.124012
vt 0.945814 0.124012
vt 0.948838 0.167249
vt 0.945814 0.167249
vt 0.817684 0.167248
vt 0.814660 0.124011
vt 0.817684 0.124011
vt 0.966268 0.967168
vt 0.302986 0.198962
vt 0.418468 0.242199
vt 0.984451 0.983213
vt 0.899767 0.072521
vt 0.917945 0.029285
vt 0.917945 0.072521
vt 0.984451 0.983213
vt 0.647527 0.967077
vt 0.665710 0.967077
vt 0.663571 0.964938
vt 0.663563 0.664472
vt 0.647527 0.646289
vt 0.665703 0.662333
vt 0.982312 0.779989
vt 0.984451 0.777850
vt 0.968407 0.777850
vt 0.970546 0.779989
vt 0.347568 0.124012
vt 0.314157 0.029570
vt 0.617673 0.072645
vt 0.617673 0.029408
vt 0.311133 0.029570
vt 0.026875 0.124011
vt 0.347568 0.124012
vt 0.288200 0.242199
vt 0.288200 0.198962
vt 0.010689 0.123724
vt 0.026820 0.123724
vt 0.685277 0.124012
vt 0.617525 0.029542
vt 0.918339 0.029327
vt 0.921363 0.029327
vt 0.288200 0.198962
vt 0.299962 0.198962
vt 0.682252 0.124012
vt 0.945814 0.124012
vt 0.948838 0.124012
vt 0.829446 0.124011
vt 0.814660 0.124011
vt 0.982312 0.849513
vt 0.970546 0.849513
vt 0.302986 0.198962
vt 0.418468 0.198962
vt 0.899767 0.029284
vt 0.917945 0.029284
s 0
usemtl Wall_traslucent
f 44/1/1 45/2/1 38/3/1
f 54/4/2 42/5/2 41/6/2
f 16/7/3 50/8/3 14/9/3
f 20/10/2 51/11/2 44/12/2
f 52/13/4 3/14/4 39/15/4
f 5/16/5 60/17/5 58/18/5
f 45/19/6 55/20/6 40/21/6
f 29/22/3 8/23/3 28/24/3
f 35/25/6 33/26/6 30/27/6
f 17/28/5 53/29/5 56/30/5
f 25/31/7 19/32/7 24/33/7
f 4/34/8 48/35/8 5/16/8
f 4/34/3 33/38/3 46/39/3
f 17/28/11 54/44/11 16/7/11
f 13/40/5 22/45/5 25/46/5
f 14/9/11 21/47/11 12/48/11
f 8/23/8 52/49/8 15/50/8
f 21/47/13 22/45/13 12/48/13
f 20/54/14 22/55/14 21/56/14
f 29/57/6 3/58/6 9/59/6
f 25/46/15 26/60/15 13/40/15
f 26/61/16 24/62/16 23/63/16
f 48/64/4 34/65/4 37/66/4
f 14/9/9 12/48/9 8/23/9
f 56/70/7 38/71/7 43/72/7
f 32/41/18 33/38/18 18/36/18
f 31/76/19 33/77/19 32/78/19
f 46/39/20 47/79/20 4/34/20
f 48/35/21 49/80/21 5/16/21
f 50/8/22 51/81/22 14/9/22
f 52/49/21 53/29/21 15/50/21
f 54/44/23 55/82/23 16/7/23
f 56/30/24 57/83/24 17/28/24
f 34/65/25 46/84/25 35/85/25
f 49/86/26 37/66/26 36/87/26
f 53/88/26 39/89/26 38/71/26
f 45/90/27 51/91/27 50/92/27
f 41/6/27 55/20/27 54/4/27
f 57/93/14 43/94/14 42/95/14
f 30/38/1 31/96/1 59/17/1
f 36/97/7 60/98/7 49/86/7
f 18/36/9 5/16/9 58/18/9
f 27/104/1 23/105/1 24/106/1
f 27/104/1 24/106/1 19/107/1
f 38/3/1 39/49/1 44/1/1
f 39/49/1 3/108/1 20/109/1
f 44/1/1 39/49/1 20/109/1
f 42/110/1 43/111/1 40/112/1
f 43/111/1 38/3/1 45/2/1
f 40/112/1 41/113/1 42/110/1
f 45/2/1 40/112/1 43/111/1
f 3/108/1 27/104/1 19/107/1
f 3/108/1 19/107/1 20/109/1
f 54/4/2 57/93/2 42/95/2
f 16/7/3 55/82/3 50/8/3
f 20/54/2 21/56/2 51/11/2
f 52/13/4 9/59/4 3/114/4
f 5/16/5 49/80/5 60/17/5
f 45/90/6 50/92/6 55/20/6
f 29/22/3 9/108/3 8/23/3
f 35/85/6 46/84/6 33/26/6
f 17/28/5 15/50/5 53/29/5
f 25/31/7 22/55/7 19/115/7
f 4/34/8 47/79/8 48/35/8
f 4/34/3 18/36/3 33/38/3
f 17/28/11 57/83/11 54/44/11
f 13/40/5 12/48/5 22/45/5
f 14/9/11 51/81/11 21/47/11
f 8/23/8 9/108/8 52/49/8
f 20/118/14 19/115/14 22/55/14
f 29/57/6 27/119/6 3/120/6
f 26/61/16 25/31/16 24/33/16
f 48/64/4 47/121/4 34/122/4
f 12/48/9 13/40/9 28/24/9
f 15/50/9 17/28/9 14/9/9
f 17/28/9 16/7/9 14/9/9
f 12/48/9 28/24/9 8/23/9
f 15/50/9 14/9/9 8/23/9
f 56/70/7 53/88/7 38/125/7
f 31/127/19 30/128/19 33/77/19
f 34/129/25 47/121/25 46/84/25
f 49/86/26 48/64/26 37/130/26
f 53/88/26 52/13/26 39/131/26
f 45/132/27 44/133/27 51/91/27
f 41/134/27 40/21/27 55/20/27
f 57/93/14 56/70/14 43/135/14
f 59/17/1 36/80/1 30/38/1
f 36/80/1 37/136/1 35/39/1
f 30/38/1 36/80/1 35/39/1
f 37/136/1 34/137/1 35/39/1
f 36/138/7 59/139/7 60/98/7
f 18/36/9 4/34/9 5/16/9
usemtl Wall
f 18/36/9 58/18/9 6/37/9
f 13/40/10 32/41/10 18/36/10
f 6/37/11 11/42/11 10/43/11
f 32/51/12 23/52/12 31/53/12
f 11/67/6 27/68/6 29/69/6
f 10/43/3 29/22/3 28/24/3
f 29/22/17 13/40/17 26/60/17
f 27/73/4 26/74/4 29/75/4
f 58/18/5 7/99/5 6/37/5
f 18/36/28 60/17/28 32/41/28
f 60/100/2 31/101/2 32/102/2
f 2/42/1 1/103/1 31/96/1
f 6/37/9 10/43/9 18/36/9
f 10/43/9 28/24/9 13/40/9
f 18/36/9 10/43/9 13/40/9
f 13/40/10 26/60/10 32/41/10
f 6/37/11 7/99/11 11/42/11
f 32/51/12 26/116/12 23/117/12
f 11/67/6 2/123/6 27/124/6
f 10/43/3 11/42/3 29/22/3
f 29/22/17 28/24/17 13/40/17
f 27/73/4 23/126/4 26/74/4
f 58/18/5 60/17/5 7/99/5
f 18/36/28 58/18/28 60/17/28
f 60/100/2 59/140/2 31/141/2
f 1/103/1 59/17/1 31/96/1
f 31/96/1 23/105/1 2/42/1
f 23/105/1 27/104/1 2/42/1
o Cube.056
v -44.733330 -1.952320 14.346657
v -44.733337 -1.952320 50.346661
v -41.733330 -1.952320 14.346657
v -44.733330 12.868801 14.346657
v -44.333328 13.268801 14.346657
v -44.733337 12.868801 50.346661
v -44.333336 13.268801 49.946659
v -42.133331 13.268801 14.346657
v -41.733330 12.868801 14.346657
v -41.733330 -1.952320 46.946655
v -41.333328 -1.952320 47.346657
v -41.333328 12.868801 47.346657
v -41.733330 12.868801 46.946655
v -42.133331 13.268801 47.746658
v -35.133331 -1.952319 47.346657
v -34.733330 -1.952319 47.746658
v -35.133331 13.268801 47.746658
v -34.733330 12.868801 47.746658
v -35.133331 12.868801 47.346657
v -34.733330 -1.952319 49.946655
v -35.133331 -1.952319 50.346657
v -35.133331 13.268801 49.946655
v -35.133331 12.868801 50.346657
v -34.733330 12.868801 49.946655
vn -0.0000 -0.0000 1.0000
vn -0.0000 -0.0000 -1.0000
vn -1.0000 -0.0000 -0.0000
vn -0.0000 1.0000 -0.0000
vn -0.0000 -1.0000 -0.0000
vn 1.0000 -0.0000 -0.0000
vn 0.3015 0.9045 -0.3015
vn 0.5774 0.5774 -0.5774
vn 0.5774 0.5774 0.5774
vn -0.7071 0.7071 -0.0000
vn -0.0000 0.7071 -0.7071
vn 0.7071 -0.0000 -0.7071
vn 0.7071 0.7071 -0.0000
vn 0.7071 -0.0000 0.7071
vn -0.0000 0.7071 0.7071
vt 0.263724 0.011565
vt 0.301002 0.069118
vt 0.263724 0.069117
vt 0.226712 0.011565
vt 0.250788 0.069117
vt 0.226712 0.069117
vt 0.301002 0.011565
vt 0.440795 0.069118
vt 0.684462 0.683720
vt 0.672697 0.862344
vt 0.672697 0.671955
vt 0.688741 0.685859
vt 0.721898 0.685859
vt 0.721898 0.669815
vt 0.252985 0.011565
vt 0.261527 0.069117
vt 0.252985 0.069117
vt 0.097926 0.011565
vt 0.224516 0.069117
vt 0.097926 0.069117
vt 0.686602 0.687999
vt 0.721898 0.683720
vt 0.724037 0.683720
vt 0.721898 0.671955
vt 0.724037 0.671955
vt 0.670558 0.862344
vt 0.670557 0.669815
vt 0.250788 0.011565
vt 0.261527 0.011565
vt 0.684462 0.862344
vt 0.686602 0.862344
vt 0.226712 0.069117
vt 0.224516 0.011565
vt 0.086276 0.011565
vt 0.440795 0.011565
vt 0.086276 0.069117
vt 0.087829 0.010012
vt 0.096372 0.010012
s 0
usemtl Wall_traslucent
f 83/142/29 62/143/29 81/144/29
f 72/145/30 75/146/30 71/147/30
f 66/148/31 61/149/31 62/143/31
f 74/150/32 65/151/32 67/152/32
f 71/153/33 75/154/33 81/155/33
f 78/156/34 80/157/34 76/158/34
f 69/159/34 70/160/34 63/161/34
f 72/153/35 73/162/35 74/150/35
f 77/163/36 78/164/36 79/154/36
f 82/165/37 83/155/37 84/166/37
f 67/152/38 64/167/38 66/168/38
f 77/163/39 72/153/39 74/150/39
f 76/158/40 79/169/40 78/156/40
f 82/165/41 78/164/41 77/163/41
f 81/144/42 84/170/42 83/142/42
f 68/171/41 73/162/41 69/172/41
f 71/173/40 73/174/40 72/145/40
f 67/152/43 83/155/43 82/165/43
f 69/159/30 63/161/30 64/175/30
f 83/142/29 66/148/29 62/143/29
f 72/145/30 79/169/30 75/146/30
f 66/148/31 64/176/31 61/149/31
f 74/150/32 68/171/32 65/151/32
f 67/152/32 82/165/32 74/150/32
f 82/165/32 77/163/32 74/150/32
f 62/168/33 61/167/33 70/162/33
f 61/167/33 63/172/33 70/162/33
f 80/166/33 81/155/33 75/154/33
f 81/155/33 62/168/33 71/153/33
f 75/154/33 76/164/33 80/166/33
f 62/168/33 70/162/33 71/153/33
f 78/156/34 84/170/34 80/157/34
f 69/159/34 73/174/34 70/160/34
f 67/152/38 65/151/38 64/167/38
f 77/163/39 79/154/39 72/153/39
f 76/158/40 75/146/40 79/169/40
f 82/165/41 84/166/41 78/164/41
f 81/144/42 80/157/42 84/170/42
f 68/171/41 74/150/41 73/162/41
f 71/173/40 70/160/40 73/174/40
f 67/152/43 66/168/43 83/155/43
f 63/161/30 61/177/30 64/175/30
f 64/175/30 65/178/30 68/179/30
f 68/179/30 69/159/30 64/175/30
o Cube.057
v 54.266670 11.047678 -45.653343
v 18.266670 11.047678 -45.653343
v 54.266670 26.268799 -46.053345
v 54.266670 25.868799 -45.653343
v 18.266670 25.868799 -45.653343
v 18.266670 26.268799 -46.053345
v 54.266670 25.868799 -48.653343
v 54.266670 26.268799 -48.253342
v 18.266670 26.268799 -48.253342
v 18.266670 25.868799 -48.653343
vn -0.0000 1.0000 -0.0000
vn -0.0000 -0.0000 1.0000
vn -0.0000 0.7071 0.7071
vn -0.0000 0.7071 -0.7071
vt 0.200576 0.369636
vt 0.360231 0.379393
vt 0.200576 0.379393
vt 0.199655 0.072230
vt 0.010215 0.014211
vt 0.199655 0.014211
vt 0.360231 0.367862
vt 0.360231 0.369636
vt 0.200576 0.381166
vt 0.010215 0.072230
vt 0.010215 0.014211
vt 0.200576 0.367862
vt 0.360231 0.381166
s 0
usemtl Wall
f 90/180/44 92/181/44 93/182/44
f 88/183/45 86/184/45 85/185/45
f 90/180/46 88/186/46 87/187/46
f 92/181/47 94/188/47 93/182/47
f 90/180/44 87/187/44 92/181/44
f 88/183/45 89/189/45 86/190/45
f 90/180/46 89/191/46 88/186/46
f 92/181/47 91/192/47 94/188/47
o Cube.058
v 54.266670 -1.952322 47.346653
v 54.266670 -1.952322 50.346653
v 54.266670 12.868801 47.346653
v 54.666660 13.268801 47.746643
v 54.666660 13.268801 49.946640
v 54.266670 12.868801 50.346653
v -21.733330 -1.952321 47.746655
v -21.333330 -1.952321 47.346653
v -21.333330 12.868801 47.346653
v -21.733330 12.868801 47.746655
v -21.333330 13.268801 47.746655
v -21.333330 -1.952321 50.346649
v -21.733330 -1.952321 49.946648
v -21.333330 12.868801 50.346649
v -21.333330 13.268801 49.946648
v -21.733330 12.868801 49.946648
vn -0.0000 1.0000 -0.0000
vn -0.0000 -0.0000 1.0000
vn -0.0000 -1.0000 -0.0000
vn -1.0000 -0.0000 -0.0000
vn -0.5773 0.5774 -0.5773
vn -0.5774 0.5774 0.5773
vn -0.7071 -0.0000 -0.7071
vn -0.7071 -0.0000 0.7071
vn -0.7071 0.7071 -0.0000
vn -0.0000 0.7071 -0.7071
vn -0.0000 0.7071 0.7071
vn -0.0000 -0.0000 -1.0000
vt 0.618301 0.995944
vt 0.629811 0.598330
vt 0.629811 0.995944
vt 0.404957 0.011136
vt 0.009684 0.068783
vt 0.009684 0.011136
vt 0.618301 0.998037
vt 0.629811 0.998037
vt 0.631904 0.995944
vt 0.407915 0.011136
vt 0.419418 0.068782
vt 0.407915 0.068782
vt 0.616209 0.995944
vt 0.419418 0.011136
vt 0.422375 0.068782
vt 0.419418 0.068782
vt 0.631904 0.600423
vt 0.616209 0.600423
vt 0.618301 0.598330
vt 0.422375 0.011136
vt 0.817649 0.068782
vt 0.422375 0.068782
vt 0.404957 0.068782
vt 0.422375 0.068782
vt 0.407915 0.068782
vt 0.404957 0.068782
vt 0.817649 0.011136
s 0
usemtl Wall_traslucent
f 109/193/48 98/194/48 105/195/48
f 108/196/49 96/197/49 100/198/49
f 107/199/50 101/200/50 102/201/50
f 110/202/51 101/203/51 107/204/51
f 103/201/52 104/200/52 105/195/52
f 108/205/53 109/193/53 110/199/53
f 104/206/54 102/207/54 101/208/54
f 107/204/55 108/196/55 110/202/55
f 105/195/56 110/199/56 109/193/56
f 105/195/57 97/209/57 103/201/57
f 109/193/58 100/210/58 99/211/58
f 103/212/59 95/213/59 102/214/59
f 109/193/48 99/211/48 98/194/48
f 108/196/49 106/215/49 96/197/49
f 102/201/50 95/209/50 96/210/50
f 96/210/50 106/205/50 102/201/50
f 106/205/50 107/199/50 102/201/50
f 110/202/51 104/206/51 101/208/51
f 104/206/54 103/212/54 102/216/54
f 107/217/55 106/218/55 108/196/55
f 105/195/56 104/200/56 110/199/56
f 105/195/57 98/194/57 97/209/57
f 109/193/58 108/205/58 100/210/58
f 103/212/59 97/219/59 95/213/59
o Cube.054
v -44.733322 20.000000 -48.653358
v 18.266678 20.000000 -48.653351
v -44.733326 11.000000 14.346643
v -44.733326 20.000000 14.346643
v 18.266674 20.000000 14.346647
v 18.266678 11.000000 -48.653339
v 54.266685 11.000000 -48.653336
v -44.733337 -2.000000 50.346661
v -44.733337 11.000000 50.346661
v 54.266678 -2.000000 50.346661
v 54.266678 11.000000 50.346661
v -44.733330 -2.000000 -48.653343
v 18.266674 11.000000 14.346647
v 54.266685 11.000000 -23.581028
v 54.266678 11.000000 -10.653347
v 18.266676 11.000000 -10.253347
v 18.266226 10.999556 -24.053341
v 27.267118 10.999556 -10.653368
v 26.945133 10.999565 -10.253343
v 26.913530 10.999556 -24.053341
v 27.267115 10.999556 -23.653366
v 18.266228 19.999556 -23.653366
v 18.266228 19.669094 -24.053341
v 18.266239 19.669094 -10.253343
v 18.266230 19.999556 -10.653368
vn -0.0000 -0.0000 1.0000
vn 1.0000 -0.0000 -0.0000
vn -1.0000 -0.0000 -0.0000
vn -0.0000 1.0000 -0.0000
vn -0.0000 -0.0000 -1.0000
vn 0.6143 0.6150 0.4944
vn 0.6115 0.6100 -0.5040
vn 0.7071 0.7071 -0.0000
vn 1.0000 0.0001 -0.0000
vn 0.6105 0.6106 0.5044
vn 0.5996 0.5996 -0.5300
vn 0.0001 1.0000 -0.0000
vt 0.426784 0.250683
vt 0.215021 0.220429
vt 0.426784 0.220431
vt 0.635939 0.250824
vt 0.553191 0.250824
vt 0.554514 0.249730
vt 0.666519 0.220766
vt 0.335381 0.177283
vt 0.666519 0.177283
vt 0.215645 0.220699
vt 0.006377 0.250595
vt 0.006377 0.177517
vt 0.426512 0.250495
vt 0.215788 0.250495
vt 0.215788 0.220392
vt 0.216539 0.991116
vt 0.006814 0.991116
vt 0.006814 0.781391
vt 0.335381 0.220766
vt 0.335228 0.177517
vt 0.335228 0.220699
vt 0.215645 0.250595
vt 0.525892 0.221035
vt 0.554514 0.221034
vt 0.006701 0.781322
vt 0.216540 0.864592
vt 0.216540 0.907893
vt 0.509472 0.249571
vt 0.510817 0.250682
vt 0.538643 0.220429
vt 0.509472 0.220432
vt 0.246520 0.864592
vt 0.216540 0.863260
vt 0.245448 0.863260
vt 0.245342 0.909225
vt 0.216540 0.909225
vt 0.246520 0.907893
vt 0.216541 0.781322
vt 0.336450 0.864592
vt 0.635938 0.221035
vt 0.216541 0.991163
vt 0.336450 0.907652
vt 0.336450 0.991163
vt 0.006701 0.661413
vt 0.336450 0.661413
vt 0.216541 0.863260
s 0
usemtl lvl1
f 115/220/60 113/221/60 123/222/60
f 112/223/61 132/224/61 133/225/61
f 121/226/60 118/227/60 120/228/60
f 113/229/62 111/230/62 122/231/62
f 115/232/60 114/233/60 113/234/60
f 112/235/63 111/236/63 114/237/63
f 121/226/60 119/238/60 118/227/60
f 122/231/62 118/239/62 113/229/62
f 118/239/62 119/240/62 113/229/62
f 113/229/62 114/241/62 111/230/62
f 130/242/64 127/243/64 133/225/64
f 114/244/63 135/245/63 132/246/63
f 134/247/61 135/248/61 115/220/61
f 129/249/60 134/247/60 126/250/60
f 128/251/65 134/252/65 129/253/65
f 132/246/66 130/254/66 133/255/66
f 132/246/67 128/251/67 131/256/67
f 129/253/63 123/257/63 125/258/63
f 133/225/61 127/243/61 116/259/61
f 116/259/61 112/223/61 133/225/61
f 132/246/63 112/260/63 114/244/63
f 114/244/63 115/257/63 135/245/63
f 115/220/61 123/222/61 134/247/61
f 123/222/68 126/250/68 134/247/68
f 128/251/69 135/245/69 134/252/69
f 132/246/70 131/256/70 130/254/70
f 132/246/67 135/245/67 128/251/67
f 125/258/63 124/261/63 128/251/63
f 124/261/63 117/262/63 130/254/63
f 117/262/63 116/260/63 130/254/63
f 116/260/63 127/255/63 130/254/63
f 124/261/63 130/254/63 131/256/63
f 124/261/63 131/256/63 128/251/63
f 113/244/63 119/263/63 123/257/63
f 119/263/63 121/264/63 123/257/63
f 129/253/71 126/265/71 123/257/71
f 121/264/63 125/258/63 123/257/63
f 128/251/63 129/253/63 125/258/63
