# Blender 4.0.2
# www.blender.org
mtllib Nomada_palo.mtl
o palo.003
v 0.090032 -2.475791 0.000000
v 0.090032 1.750012 0.000000
v 0.063662 -2.475791 0.063663
v 0.063662 1.750012 0.063663
v 0.000000 -2.475791 0.090031
v 0.000000 1.750012 0.090031
v -0.063662 -2.475791 0.063663
v -0.063662 1.750012 0.063663
v -0.090031 -2.475791 -0.000000
v -0.090031 1.750012 -0.000000
v -0.063662 -2.475791 -0.063663
v -0.063662 1.750012 -0.063663
v 0.000000 -2.475791 -0.090031
v 0.000000 1.750012 -0.090031
v 0.063662 -2.475791 -0.063663
v 0.063662 1.750012 -0.063663
v 0.056598 1.753575 0.056597
v 0.080041 1.753575 0.000000
v 0.000000 1.753575 0.080041
v -0.056598 1.753575 0.056597
v -0.080042 1.753575 -0.000000
v -0.056598 1.753575 -0.056597
v 0.000000 1.753575 -0.080041
v 0.056598 1.753575 -0.056597
v 0.056598 1.827952 0.056597
v 0.080041 1.827952 0.000000
v 0.000000 1.827952 0.080041
v -0.056598 1.827952 0.056597
v -0.080042 1.827952 -0.000000
v -0.056598 1.827952 -0.056597
v 0.000000 1.827952 -0.080041
v 0.056598 1.827952 -0.056597
v 0.060132 1.831504 0.060133
v 0.085041 1.831504 0.000000
v 0.000000 1.831504 0.085041
v -0.060133 1.831504 0.060133
v -0.085041 1.831504 -0.000000
v -0.060133 1.831504 -0.060133
v 0.000000 1.831504 -0.085041
v 0.060132 1.831504 -0.060133
v 0.060132 2.648690 0.060133
v 0.085041 2.648690 0.000000
v 0.000000 2.648690 0.085041
v -0.060133 2.648690 0.060133
v -0.085041 2.648690 -0.000000
v -0.060133 2.648690 -0.060133
v 0.000000 2.648690 -0.085041
v 0.060132 2.648690 -0.060133
vn -0.9239 -0.0000 -0.3827
vn -0.0000 -1.0000 -0.0000
vn -0.3327 0.9329 0.1378
vn -0.3827 -0.0000 -0.9239
vn -0.3827 -0.0000 0.9239
vn -0.9239 -0.0000 0.3827
vn 0.3827 -0.0000 0.9239
vn 0.3827 -0.0000 -0.9239
vn 0.9239 -0.0000 0.3827
vn 0.9239 -0.0000 -0.3827
vn -0.1378 0.9329 0.3327
vn 0.1378 0.9329 0.3327
vn 0.3327 0.9329 0.1378
vn 0.3327 0.9329 -0.1378
vn 0.1378 0.9329 -0.3327
vn -0.1378 0.9329 -0.3327
vn -0.3327 0.9329 -0.1378
vn 0.5632 -0.7927 -0.2333
vn -0.2333 -0.7928 -0.5631
vn -0.5632 -0.7927 0.2333
vn 0.2335 -0.7925 0.5635
vn 0.2335 -0.7925 -0.5635
vn -0.5632 -0.7927 -0.2333
vn -0.2333 -0.7928 0.5631
vn 0.5632 -0.7927 0.2333
vn -0.0000 1.0000 -0.0000
vt 0.522480 0.215593
vt 0.753683 0.036449
vt 0.748057 0.029020
vt 0.515600 0.206669
vt 0.625929 0.039355
vt 0.618327 0.029495
vt 0.605980 0.027898
vt 0.596119 0.035500
vt 0.594523 0.047848
vt 0.602125 0.057708
vt 0.614473 0.059305
vt 0.624333 0.051703
vt 0.759425 0.043792
vt 0.760138 0.043199
vt 0.754333 0.035950
vt 0.742098 0.020852
vt 0.508733 0.197733
vt 0.536288 0.233407
vt 0.765802 0.051649
vt 0.529374 0.224506
vt 0.543221 0.242300
vt 0.772400 0.059201
vt 0.736497 0.012558
vt 0.501881 0.188780
vt 0.549351 0.250149
vt 0.779921 0.065847
vt 0.732014 0.003628
vt 0.495042 0.179809
vt 0.766543 0.050925
vt 0.772906 0.058420
vt 0.779884 0.064567
vt 0.737379 0.012271
vt 0.733238 0.003991
vt 0.742988 0.020323
vt 0.748815 0.028485
vt 0.584723 0.086058
vt 0.591342 0.094644
vt 0.600108 0.087885
vt 0.593489 0.079300
vt 0.619787 0.059025
vt 0.626406 0.067610
vt 0.635172 0.060852
vt 0.628553 0.052266
vt 0.451893 0.123829
vt 0.459231 0.127952
vt 0.459893 0.127256
vt 0.452275 0.122959
vt 0.602255 0.072542
vt 0.608874 0.081127
vt 0.617640 0.074368
vt 0.611021 0.065783
vt 0.646086 0.038750
vt 0.652705 0.047335
vt 0.661471 0.040576
vt 0.654851 0.031991
vt 0.643939 0.054093
vt 0.637320 0.045508
vt 0.480774 0.151254
vt 0.485345 0.158119
vt 0.577435 0.091935
vt 0.572101 0.084225
vt 0.465066 0.133660
vt 0.470600 0.139737
vt 0.471369 0.139113
vt 0.465884 0.132947
vt 0.475496 0.145631
vt 0.479976 0.151840
vt 0.476203 0.145084
vt 0.484448 0.158730
vt 0.488490 0.165835
vt 0.489336 0.165369
vt 0.490618 0.174058
vt 0.491565 0.173910
vt 0.628472 0.037245
vt 0.640135 0.038753
vt 0.649449 0.031573
vt 0.650958 0.019910
vt 0.643777 0.010596
vt 0.632114 0.009088
vt 0.622800 0.016268
vt 0.621292 0.027931
vt 0.587193 0.106902
vt 0.582601 0.099773
vt 0.549003 0.054601
vt 0.542779 0.047484
vt 0.560907 0.069187
vt 0.555048 0.061831
vt 0.566589 0.076650
vt 0.582451 0.047850
vt 0.573685 0.054609
vt 0.572265 0.065586
vt 0.579023 0.074352
vt 0.590001 0.075772
vt 0.598767 0.069013
vt 0.600186 0.058036
vt 0.593428 0.049270
s 0
usemtl Nomada
f 9/1/1 10/2/1 12/3/1 11/4/1
f 1/5/2 3/6/2 5/7/2 7/8/2 9/9/2 11/10/2 13/11/2 15/12/2
f 10/2/3 8/13/3 20/14/3 21/15/3
f 11/4/4 12/3/4 14/16/4 13/17/4
f 5/18/5 6/19/5 8/13/5 7/20/5
f 7/20/6 8/13/6 10/2/6 9/1/6
f 6/19/7 5/18/7 3/21/7 4/22/7
f 13/17/8 14/16/8 16/23/8 15/24/8
f 1/25/9 2/26/9 4/22/9 3/21/9
f 15/24/10 16/23/10 2/27/10 1/28/10
f 8/13/11 6/19/11 19/29/11 20/14/11
f 6/19/12 4/22/12 17/30/12 19/29/12
f 4/22/13 2/26/13 18/31/13 17/30/13
f 2/27/14 16/23/14 24/32/14 18/33/14
f 16/23/15 14/16/15 23/34/15 24/32/15
f 14/16/16 12/3/16 22/35/16 23/34/16
f 12/3/17 10/2/17 21/15/17 22/35/17
f 18/36/9 26/37/9 25/38/9 17/39/9
f 21/40/1 29/41/1 30/42/1 22/43/1
f 26/44/18 32/45/18 40/46/18 34/47/18
f 19/48/5 27/49/5 28/50/5 20/51/5
f 24/52/10 32/53/10 26/54/10 18/55/10
f 22/43/4 30/42/4 31/56/4 23/57/4
f 20/51/6 28/50/6 29/41/6 21/40/6
f 17/39/7 25/38/7 27/49/7 19/48/7
f 24/52/8 23/57/8 31/56/8 32/53/8
f 31/62/19 30/63/19 38/64/19 39/65/19
f 29/66/20 28/67/20 36/58/20 37/68/20
f 27/69/21 25/70/21 33/71/21 35/59/21
f 32/45/22 31/62/22 39/65/22 40/46/22
f 30/63/23 29/66/23 37/68/23 38/64/23
f 28/67/24 27/69/24 35/59/24 36/58/24
f 25/70/25 26/72/25 34/73/25 33/71/25
f 25/89/2 27/90/2 28/91/2 29/92/2 30/93/2 31/94/2 32/95/2 26/96/2
usemtl Nomada_baston_luz
f 36/58/5 35/59/5 43/60/5 44/61/5
f 41/74/26 42/75/26 48/76/26 47/77/26 46/78/26 45/79/26 44/80/26 43/81/26
f 33/71/9 34/73/9 42/82/9 41/83/9
f 34/47/10 40/46/10 48/84/10 42/85/10
f 39/65/4 38/64/4 46/86/4 47/87/4
f 37/68/6 36/58/6 44/61/6 45/88/6
f 35/59/7 33/71/7 41/83/7 43/60/7
f 40/46/8 39/65/8 47/87/8 48/84/8
f 38/64/1 37/68/1 45/88/1 46/86/1
