# Blender 4.0.2
# www.blender.org
mtllib Dropeable_Mana.mtl
o Mana
v -0.906484 -0.089598 0.577626
v -0.816886 -0.000000 0.704336
v -0.906484 0.089598 0.577626
v 0.000000 0.816886 0.704336
v 0.089598 0.906484 0.577626
v -0.089598 0.906484 0.577626
v -0.906484 -0.089598 -0.577625
v -0.906484 0.089598 -0.577625
v -0.816886 0.000000 -0.704336
v 0.089598 0.906484 -0.577625
v -0.000000 0.816886 -0.704336
v -0.089598 0.906484 -0.577625
v -0.089598 -0.906484 0.577625
v 0.089598 -0.906484 0.577625
v 0.000000 -0.816886 0.704336
v 0.906484 0.089598 0.577625
v 0.816886 -0.000000 0.704336
v 0.906484 -0.089598 0.577625
v -0.089598 -0.906484 -0.577626
v -0.000000 -0.816886 -0.704336
v 0.089598 -0.906484 -0.577626
v 0.906484 0.089598 -0.577626
v 0.906484 -0.089598 -0.577626
v 0.816886 0.000000 -0.704336
vn -0.0000 -0.0000 1.0000
vn 0.7071 -0.7071 -0.0000
vn 0.7071 0.7071 -0.0000
vn -0.7071 0.7071 -0.0000
vn -0.0000 -0.0000 -1.0000
vn -0.8165 -0.0000 0.5774
vn -0.0000 0.8165 0.5774
vn -0.8165 -0.0000 -0.5774
vn -0.0000 0.8165 -0.5774
vn -0.0000 -0.8165 0.5774
vn 0.8165 -0.0000 0.5774
vn -0.0000 -0.8165 -0.5774
vn 0.8165 -0.0000 -0.5774
vn -1.0000 -0.0000 -0.0000
vn -0.5000 0.5000 0.7071
vn -0.0000 1.0000 -0.0000
vn -0.5000 0.5000 -0.7071
vn -0.5000 -0.5000 -0.7071
vn 0.5000 0.5000 -0.7071
vn 0.5000 -0.5000 -0.7071
vn -0.0000 -1.0000 -0.0000
vn 1.0000 -0.0000 -0.0000
vn 0.5000 -0.5000 0.7071
vn -0.5000 -0.5000 0.7071
vn 0.5000 0.5000 0.7071
vn -0.7071 -0.7071 -0.0000
vt 0.642435 0.485636
vt 0.619522 0.532099
vt 0.573059 0.509187
vt 0.595971 0.462723
vt 0.699090 0.513575
vt 0.676178 0.560038
vt 0.629714 0.537126
vt 0.652627 0.490662
vt 0.671151 0.570231
vt 0.648239 0.616694
vt 0.601775 0.593781
vt 0.624688 0.547318
vt 0.812402 0.569453
vt 0.789489 0.615916
vt 0.743026 0.593004
vt 0.765939 0.546540
vt 0.755746 0.541514
vt 0.732833 0.587977
vt 0.686370 0.565065
vt 0.709283 0.518601
vt 0.680566 0.434007
vt 0.675470 0.431493
vt 0.683079 0.428910
vt 0.794585 0.618430
vt 0.786976 0.621013
vt 0.727030 0.456919
vt 0.729543 0.451823
vt 0.732126 0.459433
vt 0.740513 0.598100
vt 0.737930 0.590491
vt 0.657654 0.480470
vt 0.655140 0.485566
vt 0.652557 0.477957
vt 0.617009 0.537196
vt 0.624618 0.534612
vt 0.704117 0.503383
vt 0.709213 0.505896
vt 0.701604 0.508479
vt 0.683857 0.570161
vt 0.681274 0.562551
vt 0.817498 0.571966
vt 0.730320 0.593074
vt 0.570546 0.514283
s 0
usemtl Checkpoint_piedras
f 15/1/1 17/2/1 4/3/1 2/4/1
f 21/5/2 23/6/2 18/7/2 14/8/2
f 22/9/3 10/10/3 5/11/3 16/12/3
f 3/13/4 6/14/4 12/15/4 8/16/4
f 9/17/5 11/18/5 24/19/5 20/20/5
f 1/21/6 2/22/6 3/23/6
f 4/24/7 5/25/7 6/14/7
f 7/26/8 8/27/8 9/28/8
f 10/29/9 11/30/9 12/15/9
f 13/31/10 14/32/10 15/33/10
f 16/34/11 17/2/11 18/35/11
f 19/36/12 20/37/12 21/38/12
f 22/39/13 23/40/13 24/19/13
f 7/26/14 1/21/14 3/23/14 8/27/14
f 2/41/15 4/24/15 6/14/15 3/13/15
f 5/25/16 10/29/16 12/15/16 6/14/16
f 11/18/17 9/17/17 8/16/17 12/15/17
f 19/36/18 7/26/18 9/28/18 20/37/18
f 10/42/19 22/39/19 24/19/19 11/18/19
f 23/6/20 21/5/20 20/20/20 24/19/20
f 13/31/21 19/36/21 21/5/21 14/8/21
f 22/9/22 16/12/22 18/7/22 23/6/22
f 17/2/23 15/1/23 14/8/23 18/7/23
f 1/21/24 13/31/24 15/33/24 2/22/24
f 16/34/25 5/43/25 4/3/25 17/2/25
f 7/26/26 19/36/26 13/31/26 1/21/26
