# Blender 4.0.2
# www.blender.org
mtllib Pociones.mtl
o Pociones.002
v 0.987507 0.018125 -0.039902
v 1.035523 0.148102 -0.014369
v 0.879577 0.018125 -0.006905
v 0.841192 0.018125 -0.518478
v 0.866721 0.148102 -0.566496
v 0.733262 0.018125 -0.485480
v 0.953727 0.018125 -0.150393
v 0.874973 0.018125 -0.407987
v 0.767042 0.018125 -0.374989
v 0.845797 0.018125 -0.117396
v 0.866721 0.018125 -0.566496
v 0.685247 0.018125 -0.511014
v 0.854049 0.018125 0.041113
v 1.035523 0.018125 -0.014369
v 0.922988 0.018125 -0.382454
v 0.979255 0.018125 -0.198411
v 0.841192 -0.602401 -0.518478
v 0.733262 -0.602401 -0.485480
v 0.879577 -0.602401 -0.006905
v 0.987507 -0.602401 -0.039902
v 0.874973 -0.602401 -0.407987
v 0.845797 -0.602401 -0.117396
v 0.953727 -0.602401 -0.150393
v 0.767042 -0.602401 -0.374989
v 0.854910 0.148102 0.040850
v 0.686107 0.148102 -0.511277
v 0.355824 0.018125 -0.227583
v 0.573756 0.018125 -0.294212
v 0.640384 0.018125 -0.076279
v 0.422452 0.018125 -0.009651
v 0.356242 0.148102 -0.227755
v 0.422895 0.148102 -0.009742
v 0.640907 0.148102 -0.076395
v 0.574254 0.148102 -0.294408
v 0.097339 0.148102 0.089790
v 0.030686 0.148102 -0.128222
v 0.030370 0.018125 -0.128082
v 0.096998 0.018125 0.089851
v 0.450991 0.018125 -0.306030
v 0.344005 0.018125 -0.104818
v 0.652203 0.018125 -0.199044
v 0.545217 0.018125 0.002168
v 0.344421 0.148102 -0.104945
v 0.451448 0.148102 -0.306234
v 0.545709 0.148102 0.002082
v 0.652736 0.148102 -0.199207
v -0.092464 0.148102 -0.139943
v 0.001798 0.148102 0.168372
v 0.109160 0.148102 -0.033019
v -0.092446 0.018125 -0.139885
v 0.108825 0.018125 -0.032916
v 0.001780 0.018125 0.168314
v 0.478415 -0.526060 -0.223677
v 0.457515 0.323103 -0.292037
v 0.544820 -0.526060 -0.208868
v 0.593569 0.323103 -0.261149
v 0.564454 -0.526060 -0.144648
v 0.634104 0.323103 -0.128566
v 0.517683 -0.526060 -0.095238
v 0.538583 0.323103 -0.026878
v 0.457515 0.169182 -0.292037
v 0.448276 0.217282 -0.322257
v 0.615122 0.217282 -0.284257
v 0.593569 0.169182 -0.261149
v 0.664894 0.217282 -0.121460
v 0.634104 0.169182 -0.128566
v 0.547822 0.217282 0.003343
v 0.538583 0.169182 -0.026878
v 0.593569 -0.356602 -0.261149
v 0.634104 -0.356602 -0.128566
v 0.538583 -0.356602 -0.026878
v 0.457515 -0.356602 -0.292037
v 0.587519 -0.441331 -0.254660
v 0.625460 -0.441331 -0.130562
v 0.535989 -0.441331 -0.035359
v 0.460108 -0.441331 -0.283555
v 0.579553 0.323103 -0.246114
v 0.463524 0.323103 -0.272382
v 0.532573 0.323103 -0.046533
v 0.614077 0.323103 -0.133193
v 0.579553 -0.441335 -0.246114
v 0.463524 -0.441335 -0.272382
v 0.614077 -0.441335 -0.133193
v 0.532573 -0.441335 -0.046533
v 0.039068 0.018125 0.290278
v 0.039068 0.148102 0.290278
v -0.129734 0.018125 -0.261849
v -0.129734 0.148102 -0.261849
v -0.931858 0.018125 0.546907
v -0.957387 0.148102 0.594925
v -0.823928 0.018125 0.513909
v -1.078174 0.018125 0.068331
v -1.126189 0.148102 0.042798
v -0.970243 0.018125 0.035333
v -0.965639 0.018125 0.436416
v -1.044393 0.018125 0.178822
v -0.936463 0.018125 0.145825
v -0.857709 0.018125 0.403418
v -1.126189 0.018125 0.042798
v -0.944715 0.018125 -0.012684
v -0.775913 0.018125 0.539442
v -0.957387 0.018125 0.594925
v -1.069922 0.018125 0.226840
v -1.013654 0.018125 0.410882
v -1.078174 -0.602401 0.068331
v -0.970243 -0.602401 0.035334
v -0.823928 -0.602401 0.513909
v -0.931858 -0.602401 0.546907
v -1.044393 -0.602401 0.178822
v -0.857709 -0.602401 0.403418
v -0.965639 -0.602401 0.436416
v -0.936463 -0.602401 0.145825
v -0.776774 0.148102 0.539706
v -0.945576 0.148102 -0.012421
v -0.513119 0.018125 0.038079
v -0.731051 0.018125 0.104708
v -0.664422 0.018125 0.322640
v -0.446490 0.018125 0.256012
v -0.513561 0.148102 0.038171
v -0.446908 0.148102 0.256183
v -0.664921 0.148102 0.322837
v -0.731574 0.148102 0.104824
v -0.121352 0.148102 0.156651
v -0.188005 0.148102 -0.061362
v -0.187665 0.018125 -0.061422
v -0.121036 0.018125 0.156510
v -0.635883 0.018125 0.026260
v -0.434671 0.018125 0.133247
v -0.742870 0.018125 0.227473
v -0.541658 0.018125 0.334459
v -0.435087 0.148102 0.133374
v -0.636375 0.148102 0.026347
v -0.542114 0.148102 0.334663
v -0.743402 0.148102 0.227636
v -0.199827 0.148102 0.061448
v -0.199491 0.018125 0.061345
v 0.431644 -0.526060 -0.174266
v 0.361993 0.323103 -0.190349
v 0.451278 -0.526060 -0.110047
v 0.402528 0.323103 -0.057766
v 0.331204 0.217282 -0.197454
v 0.361993 0.169182 -0.190349
v 0.380976 0.217282 -0.034658
v 0.402528 0.169182 -0.057766
v 0.361993 -0.356602 -0.190349
v 0.402528 -0.356602 -0.057766
v 0.370638 -0.441331 -0.188353
v 0.408578 -0.441331 -0.064255
v 0.382021 0.323103 -0.185722
v 0.416544 0.323103 -0.072801
v 0.382021 -0.441335 -0.185722
v 0.416544 -0.441335 -0.072801
vn 0.9563 -0.0000 -0.2924
vn -0.2924 -0.0000 -0.9563
vn -0.6361 0.0019 -0.7716
vn 0.2924 -0.0000 0.9563
vn -0.0000 -1.0000 -0.0000
vn -0.9563 -0.0000 0.2924
vn -0.0952 0.0009 0.9955
vn -0.7716 0.0025 0.6361
vn -0.7716 0.0039 0.6361
vn -0.0000 1.0000 -0.0000
vn -0.9954 0.0025 -0.0959
vn -0.9954 0.0039 -0.0958
vn 1.0000 -0.0031 0.0009
vn 1.0000 -0.0032 0.0009
vn -0.0958 0.0019 0.9954
vn -0.6356 0.0009 -0.7720
vn 0.0068 -0.0007 1.0000
vn 0.0069 -0.0010 1.0000
vn 0.7716 -0.0031 -0.6361
vn 0.0958 -0.0010 -0.9954
vn 0.2147 0.2504 -0.9440
vn 0.9258 0.2504 -0.2831
vn 0.7059 0.2504 0.6626
vn 0.7289 -0.0000 0.6847
vn 0.6337 -0.4945 0.5949
vn 0.8312 -0.4945 -0.2541
vn 0.2214 -0.0000 -0.9752
vn 0.1928 -0.4945 -0.8475
vn 0.2204 -0.0903 -0.9712
vn 0.9524 -0.0903 -0.2912
vn 0.7258 -0.0903 0.6819
vn 0.6131 -0.5390 0.5776
vn 0.8055 -0.5390 -0.2463
vn 0.1853 -0.5390 -0.8216
vn -0.2208 -0.0000 0.9753
vn -0.7284 -0.0000 -0.6851
vn 0.0958 0.0019 -0.9954
vn 0.0952 0.0009 -0.9955
vn 0.7716 0.0025 -0.6361
vn 0.9954 0.0039 0.0958
vn 0.9954 0.0025 0.0959
vn 0.7716 0.0039 -0.6361
vn 0.6361 0.0019 0.7716
vn 0.6356 0.0009 0.7720
vn -0.8286 -0.0032 0.5599
vn -0.8286 -0.0031 0.5599
vn -0.9954 -0.0031 -0.0958
vn -0.6361 -0.0010 -0.7716
vn -0.7059 0.2504 -0.6626
vn -0.9258 0.2504 0.2831
vn -0.2147 0.2504 0.9440
vn -0.2214 -0.0000 0.9752
vn -0.1928 -0.4945 0.8475
vn -0.8312 -0.4945 0.2541
vn -0.7289 -0.0000 -0.6847
vn -0.6337 -0.4945 -0.5949
vn -0.7258 -0.0903 -0.6819
vn -0.9524 -0.0903 0.2912
vn -0.2204 -0.0903 0.9712
vn -0.1853 -0.5390 0.8216
vn -0.8055 -0.5390 0.2463
vn -0.6131 -0.5390 -0.5776
vn 0.7284 -0.0000 0.6851
vn 0.2208 -0.0000 -0.9753
vn 0.5535 -0.0010 0.8328
vn 0.5535 -0.0007 0.8328
vt 0.972032 0.033617
vt 0.988853 0.033617
vt 0.988853 0.108337
vt 0.972032 0.108337
vt 0.972032 0.083430
vt 0.972032 0.058524
vt 0.857575 0.106891
vt 0.857575 0.088280
vt 0.959897 0.088280
vt 0.959897 0.106891
vt 0.822161 0.531162
vt 0.822291 0.556018
vt 0.796105 0.556059
vt 0.795975 0.531212
vt 0.988853 0.132779
vt 0.972032 0.132896
vt 0.972032 0.722458
vt 0.972032 0.697899
vt 0.988853 0.698016
vt 0.988853 0.722458
vt 0.959897 0.107332
vt 0.959897 0.125943
vt 0.857575 0.125943
vt 0.857575 0.107332
vt 0.954439 0.556518
vt 0.954439 0.535314
vt 0.961664 0.528090
vt 0.961664 0.563742
vt 0.860418 0.535314
vt 0.860418 0.556518
vt 0.853193 0.563742
vt 0.853193 0.528090
vt 0.932732 0.556518
vt 0.925507 0.563742
vt 0.882125 0.556518
vt 0.889350 0.563742
vt 0.959897 0.144995
vt 0.959897 0.163605
vt 0.857575 0.163605
vt 0.857575 0.144995
vt 0.857575 0.144553
vt 0.959897 0.144553
vt 0.822353 0.605863
vt 0.822358 0.630729
vt 0.796231 0.630729
vt 0.796227 0.605929
vt 0.822309 0.581064
vt 0.796183 0.581138
vt 0.822361 0.580875
vt 0.822350 0.605732
vt 0.796164 0.605753
vt 0.796175 0.580906
vt 0.928836 0.496150
vt 0.937703 0.474742
vt 0.928836 0.453334
vt 0.907429 0.444467
vt 0.886021 0.453334
vt 0.877154 0.474742
vt 0.886021 0.496150
vt 0.853193 0.367978
vt 0.877154 0.367978
vt 0.886021 0.389395
vt 0.907429 0.398264
vt 0.928836 0.389395
vt 0.937703 0.367978
vt 0.961664 0.367978
vt 0.961664 0.528259
vt 0.853193 0.528259
vt 0.886013 0.496250
vt 0.907428 0.505121
vt 0.928844 0.496250
vt 0.972032 0.587608
vt 0.988853 0.587608
vt 0.882125 0.535314
vt 0.907429 0.505016
vt 0.932732 0.535314
vt 0.822213 0.556265
vt 0.796087 0.556347
vt 0.795975 0.680295
vt 0.796013 0.655448
vt 0.822199 0.655445
vt 0.822161 0.680301
vt 0.822279 0.630588
vt 0.796093 0.630601
vt 0.822078 0.531399
vt 0.795952 0.531547
vt 0.796092 0.655445
vt 0.796023 0.630588
vt 0.822210 0.630612
vt 0.822278 0.655460
vt 0.822187 0.705158
vt 0.796001 0.705142
vt 0.822256 0.730015
vt 0.796069 0.729990
vt 0.756240 0.544631
vt 0.756043 0.554995
vt 0.741511 0.554915
vt 0.741635 0.544545
vt 0.726935 0.555125
vt 0.727195 0.544488
vt 0.712279 0.554948
vt 0.712180 0.543934
vt 0.730642 0.484023
vt 0.727269 0.539051
vt 0.712330 0.538350
vt 0.717331 0.481976
vt 0.743391 0.484705
vt 0.741809 0.539287
vt 0.756363 0.484565
vt 0.756357 0.539330
vt 0.755859 0.476448
vt 0.743514 0.476709
vt 0.731727 0.476380
vt 0.719673 0.473737
vt 0.733490 0.465329
vt 0.723920 0.462975
vt 0.744480 0.465107
vt 0.754976 0.465287
vt 0.755949 0.557083
vt 0.741433 0.557109
vt 0.726882 0.557517
vt 0.712416 0.557208
vt 0.744020 0.571715
vt 0.744020 0.579286
vt 0.737521 0.582974
vt 0.731021 0.579091
vt 0.731021 0.571520
vt 0.737521 0.567832
vt 0.755549 0.649544
vt 0.741205 0.649549
vt 0.726953 0.649565
vt 0.712595 0.649571
vt 0.988853 0.243187
vt 0.972032 0.243187
vt 0.877142 0.367978
vt 0.886013 0.389460
vt 0.907429 0.398330
vt 0.928844 0.389460
vt 0.937714 0.367978
vt 0.937714 0.474835
vt 0.928844 0.453419
vt 0.907428 0.444549
vt 0.886013 0.453419
vt 0.877142 0.474835
vt 0.972032 0.452757
vt 0.972032 0.427851
vt 0.972032 0.402944
vt 0.972032 0.378038
vt 0.988853 0.378038
vt 0.988853 0.452757
vt 0.857575 0.106891
vt 0.796186 0.531163
vt 0.822373 0.531224
vt 0.822232 0.556071
vt 0.796045 0.556018
vt 0.972032 0.353479
vt 0.988853 0.353595
vt 0.988853 0.477200
vt 0.972032 0.477316
vt 0.954439 0.179438
vt 0.961664 0.172213
vt 0.961664 0.207866
vt 0.954439 0.200642
vt 0.860418 0.200642
vt 0.853193 0.207866
vt 0.853193 0.172213
vt 0.860418 0.179438
vt 0.932732 0.179438
vt 0.925507 0.172213
vt 0.889350 0.172213
vt 0.882125 0.179438
vt 0.959897 0.106891
vt 0.857575 0.144553
vt 0.959897 0.163605
vt 0.822213 0.705194
vt 0.822078 0.730059
vt 0.795952 0.729912
vt 0.796087 0.705112
vt 0.822309 0.680394
vt 0.796183 0.680321
vt 0.795964 0.580875
vt 0.822150 0.580918
vt 0.822150 0.605765
vt 0.795964 0.605732
vt 0.928836 0.346560
vt 0.907429 0.337692
vt 0.886021 0.346560
vt 0.886021 0.239806
vt 0.877154 0.261214
vt 0.886021 0.282621
vt 0.907429 0.291488
vt 0.928836 0.282621
vt 0.937703 0.261214
vt 0.928836 0.239806
vt 0.961664 0.207697
vt 0.928844 0.239706
vt 0.907429 0.230835
vt 0.886013 0.239706
vt 0.853193 0.207697
vt 0.961664 0.172213
vt 0.932732 0.200642
vt 0.907429 0.230939
vt 0.882125 0.200642
vt 0.822353 0.655595
vt 0.796227 0.655530
vt 0.822305 0.680307
vt 0.796118 0.680301
vt 0.822267 0.705154
vt 0.796081 0.705158
vt 0.822188 0.730002
vt 0.796001 0.730015
vt 0.771104 0.544538
vt 0.770540 0.555098
vt 0.787491 0.544958
vt 0.785229 0.555960
vt 0.695029 0.543673
vt 0.697023 0.555395
vt 0.702604 0.478813
vt 0.696967 0.537315
vt 0.769755 0.483634
vt 0.784272 0.481589
vt 0.785963 0.538953
vt 0.771071 0.539216
vt 0.768234 0.475489
vt 0.781373 0.471261
vt 0.706394 0.468437
vt 0.715411 0.459031
vt 0.764815 0.464640
vt 0.773275 0.461463
vt 0.770321 0.557227
vt 0.698169 0.557359
vt 0.784252 0.557629
vt 0.769876 0.649555
vt 0.698243 0.649582
vt 0.784079 0.649582
vt 0.877143 0.261120
vt 0.886013 0.282537
vt 0.907429 0.291406
vt 0.928844 0.282537
vt 0.937714 0.261120
vt 0.928844 0.346496
vt 0.907429 0.337626
vt 0.886013 0.346496
vt 0.744020 0.587787
vt 0.744020 0.574548
vt 0.755428 0.567832
vt 0.766836 0.574353
vt 0.766836 0.587592
vt 0.755428 0.594308
s 0
usemtl lvl5-extras.005
f 11/1/1 5/2/1 2/3/1 14/4/1 16/5/1 15/6/1
f 10/7/2 7/8/2 23/9/2 22/10/2
f 45/11/3 33/12/3 29/13/3 42/14/3
f 2/3/4 25/15/4 13/16/4 14/4/4
f 11/17/2 12/18/2 26/19/2 5/20/2
f 8/21/4 9/22/4 24/23/4 21/24/4
f 4/25/5 6/26/5 12/27/5 11/28/5
f 3/29/5 1/30/5 14/31/5 13/32/5
f 8/33/5 4/25/5 11/28/5 15/34/5
f 1/30/5 7/35/5 16/36/5 14/31/5
f 6/37/2 4/38/2 17/39/2 18/40/2
f 1/41/4 3/23/4 19/22/4 20/42/4
f 4/9/1 8/21/1 21/24/1 17/8/1
f 3/23/6 10/7/6 22/10/6 19/22/6
f 7/39/1 1/41/1 20/42/1 23/38/1
f 9/22/6 6/37/6 18/40/6 24/23/6
f 36/43/7 47/44/7 50/45/7 37/46/7
f 49/47/8 36/43/8 37/46/8 51/48/8
f 46/49/9 34/50/9 28/51/9 41/52/9
f 12/27/5 28/53/5 39/54/5 27/55/5 40/56/5 30/57/5 42/58/5 29/59/5 13/32/5 85/60/5 52/61/5 38/62/5 51/63/5 37/64/5 50/65/5 87/66/5
f 25/67/10 2/28/10 5/31/10 26/68/10 34/69/10 46/70/10 33/71/10
f 12/18/2 87/72/2 88/73/2 26/19/2
f 15/34/5 16/36/5 7/35/5 10/74/5 3/29/5 13/32/5 29/59/5 41/75/5 28/53/5 12/27/5 6/26/5 9/76/5 8/33/5
f 35/77/11 49/47/11 51/48/11 38/78/11
f 33/12/12 46/49/12 41/52/12 29/13/12
f 40/79/13 27/80/14 31/81/14 43/82/14
f 34/50/15 44/83/15 39/84/15 28/51/15
f 48/85/16 35/77/16 38/78/16 52/86/16
f 119/87/17 132/88/17 127/89/18 115/90/17
f 43/82/19 32/91/19 30/92/19 40/79/19
f 32/91/20 45/93/20 42/94/20 30/92/20
f 25/15/4 86/133/4 85/134/4 13/16/4
f 88/60/10 47/135/10 36/136/10 49/137/10 35/138/10 48/139/10 86/66/10 25/67/10 33/71/10 45/140/10 32/141/10 43/142/10 31/143/10 44/144/10 34/69/10 26/68/10
f 99/145/6 103/146/6 104/147/6 102/148/6 90/149/6 93/150/6
f 98/8/2 110/9/2 111/10/2 95/151/2
f 133/152/37 130/153/37 117/154/37 121/155/37
f 90/149/4 102/148/4 101/156/4 113/157/4
f 99/145/2 93/150/2 114/158/2 100/159/2
f 96/23/4 109/22/4 112/42/4 97/41/4
f 92/160/5 99/161/5 100/162/5 94/163/5
f 91/164/5 101/165/5 102/166/5 89/167/5
f 96/168/5 103/169/5 99/161/5 92/160/5
f 89/167/5 102/166/5 104/170/5 95/171/5
f 94/8/2 106/9/2 105/172/2 92/151/2
f 89/23/4 108/22/4 107/42/4 91/173/4
f 92/151/6 105/172/6 109/22/6 96/23/6
f 91/173/1 107/42/1 110/38/1 98/39/1
f 95/151/6 111/10/6 108/22/6 89/23/6
f 97/41/1 112/42/1 106/174/1 94/39/1
f 123/175/38 48/176/38 52/177/38 126/178/38
f 135/179/39 123/175/39 126/178/39 136/180/39
f 134/181/40 129/182/40 116/183/40 122/184/40
f 100/162/5 87/66/5 50/65/5 125/185/5 136/186/5 126/187/5 52/61/5 85/60/5 101/165/5 117/188/5 130/189/5 118/190/5 128/191/5 115/192/5 127/193/5 116/194/5
f 113/195/10 121/196/10 134/197/10 122/198/10 114/199/10 93/166/10 90/200/10
f 100/159/2 114/158/2 88/73/2 87/72/2
f 103/169/5 96/168/5 97/201/5 94/163/5 100/162/5 116/194/5 129/202/5 117/188/5 101/165/5 91/164/5 98/203/5 95/171/5 104/170/5
f 124/204/41 135/179/41 136/180/41 125/205/41
f 121/155/42 117/154/42 129/182/42 134/181/42
f 122/184/43 116/183/43 127/89/43 132/88/43
f 47/44/44 124/204/44 125/205/44 50/45/44
f 119/87/45 115/90/45 128/206/45 131/207/46
f 131/207/47 128/206/47 118/208/47 120/209/47
f 120/209/48 118/208/48 130/210/48 133/211/48
f 113/157/4 101/156/4 85/134/4 86/133/4
f 88/60/10 114/199/10 122/198/10 132/236/10 119/237/10 131/238/10 120/239/10 133/240/10 121/196/10 113/195/10 86/66/10 48/139/10 123/241/10 135/242/10 124/243/10 47/135/10
f 44/83/65 31/81/66 27/80/66 39/84/66
usemtl Lvl5-pociones
f 62/95/21 54/96/21 56/97/21 63/98/21
f 63/98/22 56/97/22 58/99/22 65/100/22
f 65/100/23 58/99/23 60/101/23 67/102/23
f 70/103/24 66/104/24 68/105/24 71/106/24
f 66/104/25 65/100/25 67/102/25 68/105/25
f 69/107/1 64/108/1 66/104/1 70/103/1
f 64/108/26 63/98/26 65/100/26 66/104/26
f 72/109/27 61/110/27 64/108/27 69/107/27
f 61/110/28 62/95/28 63/98/28 64/108/28
f 76/111/29 72/109/29 69/107/29 73/112/29
f 73/112/30 69/107/30 70/103/30 74/113/30
f 74/113/31 70/103/31 71/106/31 75/114/31
f 57/115/32 74/113/32 75/114/32 59/116/32
f 55/117/33 73/112/33 74/113/33 57/115/33
f 53/118/34 76/111/34 73/112/34 55/117/34
f 56/97/10 54/96/10 78/119/10 77/120/10
f 60/101/10 58/99/10 80/121/10 79/122/10
f 58/99/10 56/97/10 77/120/10 80/121/10
f 53/123/5 55/124/5 57/125/5 59/126/5 139/127/5 137/128/5
f 77/120/35 78/119/35 82/129/35 81/130/35
f 79/122/36 80/121/36 83/131/36 84/132/36
f 80/121/6 77/120/6 81/130/6 83/131/6
f 62/95/49 141/212/49 138/213/49 54/96/49
f 141/212/50 143/214/50 140/215/50 138/213/50
f 143/216/51 67/102/51 60/101/51 140/217/51
f 146/218/52 71/106/52 68/105/52 144/219/52
f 144/219/53 68/105/53 67/102/53 143/216/53
f 145/220/6 146/221/6 144/222/6 142/223/6
f 142/223/54 144/222/54 143/214/54 141/212/54
f 72/109/55 145/220/55 142/223/55 61/110/55
f 61/110/56 142/223/56 141/212/56 62/95/56
f 76/111/57 147/224/57 145/220/57 72/109/57
f 147/224/58 148/225/58 146/221/58 145/220/58
f 148/226/59 75/114/59 71/106/59 146/218/59
f 139/227/60 59/116/60 75/114/60 148/226/60
f 137/228/61 139/229/61 148/225/61 147/224/61
f 53/118/62 137/228/62 147/224/62 76/111/62
f 138/213/10 149/230/10 78/119/10 54/96/10
f 60/101/10 79/122/10 150/231/10 140/217/10
f 140/215/10 150/232/10 149/230/10 138/213/10
f 149/230/63 151/233/63 82/129/63 78/119/63
f 79/122/64 84/132/64 152/234/64 150/231/64
f 150/232/1 152/235/1 151/233/1 149/230/1
f 81/244/10 82/245/10 151/246/10 152/247/10 84/248/10 83/249/10
