# Blender 4.0.2
# www.blender.org
mtllib Palanca_biblioteca.mtl
o Palanca.005
v -1.536900 0.059935 -0.420605
v 1.280632 0.059934 -0.420605
v 1.280632 0.059934 0.427005
v -1.536901 0.059935 0.427005
v -1.673365 0.490889 -0.569867
v -1.536900 0.347739 -0.420605
v 1.280632 0.347738 -0.420605
v 1.417097 0.490888 -0.569866
v -2.063689 -0.513482 -0.853651
v -1.920537 -0.513482 -0.996801
v 1.664268 -0.513483 -0.996799
v 1.807420 -0.513483 -0.853649
v -1.536901 0.347739 0.427005
v -1.673366 0.490889 0.576267
v 1.417096 0.490888 0.576268
v 1.280632 0.347738 0.427005
v -1.920538 -0.513482 1.003199
v -2.063689 -0.513482 0.860049
v 1.807419 -0.513483 0.860051
v 1.664267 -0.513483 1.003201
v -2.063689 0.347739 -0.853651
v -1.927223 0.490889 -0.847540
v -1.920536 0.347739 -0.996801
v 1.670955 0.490888 -0.847538
v 1.807420 0.347738 -0.853649
v 1.664268 0.347738 -0.996799
v 1.807419 0.347738 0.860051
v 1.670954 0.490888 0.853940
v 1.664267 0.347738 1.003201
v -2.063689 0.347739 0.860049
v -1.920537 0.347739 1.003199
v -1.927224 0.490889 0.853938
v -0.450289 -0.475765 -0.040989
v 2.441194 1.115366 -0.041004
v -0.492692 -0.400235 0.107825
v -0.576913 -0.250479 0.107825
v -0.619165 -0.175477 -0.040989
v 2.242053 1.469466 -0.041004
v -0.576912 -0.250479 -0.189765
v -0.492508 -0.400693 -0.190169
v 2.391408 1.203891 -0.216918
v 3.026272 1.447804 -0.040849
v 2.969985 1.246833 -0.040849
v 2.820755 1.100930 -0.040849
v 2.618565 1.049191 -0.040849
v 2.976862 1.535659 0.133736
v 2.884405 1.399002 0.261541
v 2.721933 1.276641 0.308320
v 2.532984 1.201360 0.261541
v 2.390538 1.206058 0.133177
v 2.878041 1.711369 0.133736
v 2.713241 1.703342 0.261541
v 2.524291 1.628061 0.308320
v 2.361820 1.505700 0.261541
v 2.291997 1.381272 0.133177
v 2.828631 1.799224 -0.040849
v 2.627659 1.855511 -0.040849
v 2.425469 1.803772 -0.040849
v 2.276239 1.657869 -0.040849
v 2.974533 1.649994 -0.040849
v 2.878041 1.711369 -0.215434
v 2.713241 1.703342 -0.343239
v 2.524291 1.628061 -0.390018
v 2.361820 1.505700 -0.343239
v 2.291997 1.381272 -0.215006
v 2.976862 1.535659 -0.215434
v 2.884405 1.399002 -0.343239
v 2.721933 1.276641 -0.390018
v 2.532984 1.201360 -0.343239
vn -0.0000 -1.0000 -0.0000
vn 1.0000 -0.0000 -0.0000
vn -1.0000 -0.0000 -0.0000
vn -0.0000 -0.0000 -1.0000
vn -0.0000 -0.0000 1.0000
vn -0.0000 1.0000 -0.0000
vn -0.5781 0.5758 -0.5781
vn 0.5781 0.5758 -0.5781
vn 0.5781 0.5758 0.5781
vn -0.5781 0.5758 0.5781
vn -0.7071 -0.0000 -0.7071
vn -0.0000 0.7217 -0.6922
vn 0.7071 -0.0000 -0.7071
vn -0.7071 -0.0000 0.7071
vn 0.7071 -0.0000 0.7071
vn -0.0000 0.7217 0.6922
vn -0.7238 0.6900 -0.0000
vn 0.7238 0.6900 -0.0000
vn 0.4172 -0.7569 0.5030
vn -0.0067 -0.0038 1.0000
vn -0.4313 0.7505 0.5007
vn -0.4313 0.7505 -0.5008
vn -0.0082 -0.0019 -1.0000
vn 0.4175 -0.7587 -0.5000
vn -0.8718 -0.4899 0.0002
vn 0.4141 -0.7525 0.5122
vn -0.4308 0.7493 0.5029
vn -0.4307 0.7491 -0.5033
vn -0.0113 0.0044 -0.9999
vn -0.8716 -0.4902 -0.0000
vn -0.8713 -0.4908 -0.0000
vn 0.2165 -0.8461 0.4871
vn 0.8915 -0.2497 0.3780
vn -0.3460 -0.8696 0.3522
vn 0.6106 -0.6245 0.4871
vn 0.9581 0.2452 0.1478
vn -0.1970 -0.1108 0.9741
vn 0.5706 0.3209 0.7559
vn -0.6321 -0.3555 0.6885
vn 0.1970 0.1108 0.9741
vn 0.8327 0.4683 0.2956
vn 0.2497 0.8915 0.3780
vn -0.9241 0.1611 0.3465
vn -0.2165 0.8461 0.4871
vn 0.7072 0.6914 0.1478
vn -0.6106 0.6245 0.4871
vn -0.9240 0.1611 -0.3468
vn -0.2165 0.8461 -0.4871
vn 0.7072 0.6914 -0.1478
vn -0.6106 0.6245 -0.4871
vn 0.2497 0.8915 -0.3780
vn -0.6374 -0.3498 -0.6865
vn 0.1970 0.1108 -0.9741
vn 0.8327 0.4683 -0.2956
vn -0.1970 -0.1108 -0.9741
vn 0.5706 0.3209 -0.7559
vn -0.3273 -0.8780 -0.3492
vn 0.6106 -0.6245 -0.4871
vn 0.9581 0.2452 -0.1478
vn 0.2165 -0.8461 -0.4871
vn 0.8915 -0.2497 -0.3780
vn -0.3278 -0.8779 0.3490
vn -0.9234 0.1673 0.3455
vn -0.9232 0.1678 -0.3457
vn -0.6266 -0.3524 -0.6952
vt 0.840546 0.907037
vt 0.834660 0.912923
vt 0.840546 0.989263
vt 0.770356 0.151264
vt 0.742637 0.096107
vt 0.770356 0.096107
vt 0.770356 0.334832
vt 0.742637 0.279675
vt 0.770356 0.279675
vt 0.742637 0.157780
vt 0.770356 0.273160
vt 0.742637 0.273160
vt 0.656884 0.629703
vt 0.648234 0.545020
vt 0.656884 0.545020
vt 0.648234 0.519545
vt 0.656884 0.519545
vt 0.770356 0.456728
vt 0.742637 0.341348
vt 0.770356 0.341348
vt 0.977767 0.924731
vt 0.988205 0.983269
vt 0.977767 0.971853
vt 0.656884 0.655178
vt 0.648234 0.629703
vt 0.574643 0.596974
vt 0.618248 0.741919
vt 0.574643 0.741919
vt 0.850707 0.924731
vt 0.988205 0.913315
vt 0.850707 0.971853
vt 0.840271 0.913315
vt 0.840271 0.983269
vt 0.834660 0.983520
vt 0.840546 0.989405
vt 0.993815 0.983520
vt 0.987929 0.989405
vt 0.993815 0.913063
vt 0.987929 0.907178
vt 0.834660 0.913063
vt 0.840546 0.907178
vt 0.742637 0.151264
vt 0.742637 0.334832
vt 0.770356 0.089591
vt 0.972157 0.965716
vt 0.856318 0.965716
vt 0.856318 0.930868
vt 0.972157 0.930868
vt 0.656884 0.739861
vt 0.648234 0.655178
vt 0.834660 0.983378
vt 0.987929 0.989263
vt 0.987929 0.907037
vt 0.993815 0.983378
vt 0.993815 0.912923
vt 0.770356 0.157780
vt 0.742637 0.456728
vt 0.618248 0.596974
vt 0.742637 0.089591
vt 0.648233 0.739861
vt 0.570677 0.509553
vt 0.590976 0.462516
vt 0.589730 0.510061
vt 0.608783 0.510570
vt 0.610056 0.463021
vt 0.627836 0.511078
vt 0.648172 0.464035
vt 0.646888 0.511586
vt 0.667196 0.464540
vt 0.665941 0.512095
vt 0.687957 0.465092
vt 0.684994 0.512603
vt 0.570850 0.561338
vt 0.577430 0.582754
vt 0.614423 0.571229
vt 0.570227 0.461959
vt 0.629100 0.463522
vt 0.599272 0.587713
vt 0.607813 0.549889
vt 0.586017 0.544922
vt 0.629549 0.769629
vt 0.615907 0.755987
vt 0.629549 0.755987
vt 0.629549 0.796914
vt 0.615907 0.783271
vt 0.629549 0.783271
vt 0.629549 0.744725
vt 0.615907 0.744725
vt 0.615907 0.769629
vt 0.622728 0.810556
vt 0.615907 0.796914
vt 0.602265 0.755987
vt 0.602265 0.783271
vt 0.602265 0.744725
vt 0.602265 0.769629
vt 0.609086 0.810556
vt 0.602265 0.796914
vt 0.588622 0.783271
vt 0.588622 0.744725
vt 0.588622 0.769629
vt 0.595443 0.810556
vt 0.588622 0.796914
vt 0.588622 0.755987
vt 0.574980 0.755987
vt 0.574980 0.744725
vt 0.574980 0.783271
vt 0.574980 0.769629
vt 0.581801 0.810556
vt 0.574980 0.796914
vt 0.656834 0.755987
vt 0.643192 0.744725
vt 0.656834 0.744725
vt 0.656834 0.769629
vt 0.643192 0.783271
vt 0.643192 0.769629
vt 0.656834 0.796914
vt 0.650013 0.810556
vt 0.643192 0.796914
vt 0.643192 0.755987
vt 0.656834 0.783271
vt 0.636370 0.810556
s 0
usemtl lvl5-extras
f 17/1/1 18/2/1 10/3/1
f 12/4/2 27/5/2 19/6/2
f 18/7/3 21/8/3 9/9/3
f 26/10/4 10/11/4 23/12/4
f 16/13/4 4/14/4 13/15/4
f 13/15/2 1/16/2 6/17/2
f 20/18/5 31/19/5 17/20/5
f 15/21/6 24/22/6 8/23/6
f 7/24/3 3/25/3 16/13/3
f 3/26/6 1/27/6 4/28/6
f 14/29/6 28/30/6 15/21/6
f 5/31/6 32/32/6 14/29/6
f 8/23/6 22/33/6 5/31/6
f 21/34/7 22/33/7 23/35/7
f 24/22/8 25/36/8 26/37/8
f 27/38/9 28/30/9 29/39/9
f 30/40/10 31/41/10 32/32/10
f 21/8/11 10/11/11 9/9/11
f 24/22/12 23/35/12 22/33/12
f 12/4/13 26/10/13 25/42/13
f 18/7/14 31/19/14 30/43/14
f 27/5/15 20/44/15 19/6/15
f 32/32/16 29/39/16 28/30/16
f 30/40/17 22/33/17 21/34/17
f 25/36/18 28/30/18 27/38/18
f 7/45/16 5/31/16 6/46/16
f 13/47/12 15/21/12 16/48/12
f 14/29/18 6/46/18 5/31/18
f 8/23/17 16/48/17 15/21/17
f 6/49/5 2/50/5 7/24/5
f 18/2/1 9/51/1 10/3/1
f 10/3/1 11/52/1 20/53/1
f 11/52/1 12/54/1 20/53/1
f 12/54/1 19/55/1 20/53/1
f 20/53/1 17/1/1 10/3/1
f 12/4/2 25/42/2 27/5/2
f 18/7/3 30/43/3 21/8/3
f 26/10/4 11/56/4 10/11/4
f 16/13/4 3/25/4 4/14/4
f 13/15/2 4/14/2 1/16/2
f 20/18/5 29/57/5 31/19/5
f 15/21/6 28/30/6 24/22/6
f 7/24/3 2/50/3 3/25/3
f 3/26/6 2/58/6 1/27/6
f 14/29/6 32/32/6 28/30/6
f 5/31/6 22/33/6 32/32/6
f 8/23/6 24/22/6 22/33/6
f 21/8/11 23/12/11 10/11/11
f 24/22/12 26/37/12 23/35/12
f 12/4/13 11/56/13 26/10/13
f 18/7/14 17/20/14 31/19/14
f 27/5/15 29/59/15 20/44/15
f 32/32/16 31/41/16 29/39/16
f 30/40/17 32/32/17 22/33/17
f 25/36/18 24/22/18 28/30/18
f 7/45/16 8/23/16 5/31/16
f 13/47/12 14/29/12 15/21/12
f 14/29/18 13/47/18 6/46/18
f 8/23/17 7/45/17 16/48/17
f 6/49/5 1/60/5 2/50/5
f 33/61/19 50/62/19 35/63/19
f 50/62/20 36/64/20 35/63/20
f 55/65/21 37/66/21 36/64/21
f 37/66/22 65/67/22 39/68/22
f 39/68/23 41/69/23 40/70/23
f 40/70/24 34/71/24 33/72/24
f 39/73/25 40/74/25 35/75/25
f 33/61/26 34/76/26 50/62/26
f 50/62/20 55/65/20 36/64/20
f 55/65/27 38/77/27 37/66/27
f 37/66/28 38/77/28 65/67/28
f 39/68/29 65/67/29 41/69/29
f 40/70/24 41/69/24 34/71/24
f 40/74/25 33/78/25 35/75/25
f 35/75/30 36/79/30 39/73/30
f 36/79/31 37/80/31 39/73/31
usemtl lvl5-extras_luces
f 44/81/32 49/82/32 45/83/32
f 42/84/33 47/85/33 43/86/33
f 34/87/34 49/82/34 50/88/34
f 43/86/35 48/89/35 44/81/35
f 42/84/36 60/90/36 46/91/36
f 48/89/37 54/92/37 49/82/37
f 46/91/38 52/93/38 47/85/38
f 49/82/39 55/94/39 50/88/39
f 47/85/40 53/95/40 48/89/40
f 46/91/41 60/96/41 51/97/41
f 51/97/42 57/98/42 52/93/42
f 54/92/43 38/99/43 55/94/43
f 52/93/44 58/100/44 53/95/44
f 51/97/45 60/101/45 56/102/45
f 53/95/46 59/103/46 54/92/46
f 38/99/47 64/104/47 65/105/47
f 58/100/48 62/106/48 63/107/48
f 56/102/49 60/108/49 61/109/49
f 59/103/50 63/107/50 64/104/50
f 57/98/51 61/109/51 62/106/51
f 64/110/52 41/111/52 65/112/52
f 63/113/53 67/114/53 68/115/53
f 61/116/54 60/117/54 66/118/54
f 64/110/55 68/115/55 69/119/55
f 62/120/56 66/118/56 67/114/56
f 41/111/57 45/83/57 34/87/57
f 68/115/58 43/86/58 44/81/58
f 66/118/59 60/121/59 42/84/59
f 69/119/60 44/81/60 45/83/60
f 67/114/61 42/84/61 43/86/61
f 44/81/32 48/89/32 49/82/32
f 42/84/33 46/91/33 47/85/33
f 34/87/62 45/83/62 49/82/62
f 43/86/35 47/85/35 48/89/35
f 48/89/37 53/95/37 54/92/37
f 46/91/38 51/97/38 52/93/38
f 49/82/39 54/92/39 55/94/39
f 47/85/40 52/93/40 53/95/40
f 51/97/42 56/102/42 57/98/42
f 54/92/63 59/103/63 38/99/63
f 52/93/44 57/98/44 58/100/44
f 53/95/46 58/100/46 59/103/46
f 38/99/64 59/103/64 64/104/64
f 58/100/48 57/98/48 62/106/48
f 59/103/50 58/100/50 63/107/50
f 57/98/51 56/102/51 61/109/51
f 64/110/65 69/119/65 41/111/65
f 63/113/53 62/120/53 67/114/53
f 64/110/55 63/113/55 68/115/55
f 62/120/56 61/116/56 66/118/56
f 41/111/57 69/119/57 45/83/57
f 68/115/58 67/114/58 43/86/58
f 69/119/60 68/115/60 44/81/60
f 67/114/61 66/118/61 42/84/61
